<?xml version="1.0" encoding="iso-8859-1"?>
<!-- Generator: Adobe Illustrator 14.0.0, SVG Export Plug-In . SVG Version: 6.00 Build 43363)  -->
<!DOCTYPE svg PUBLIC "-//W3C//DTD SVG 1.1//EN" "http://www.w3.org/Graphics/SVG/1.1/DTD/svg11.dtd">
<svg version="1.1" id="Layer_1" xmlns="http://www.w3.org/2000/svg" xmlns:xlink="http://www.w3.org/1999/xlink" x="0px" y="0px"
	 width="32px" height="32px" viewBox="0 0 32 32" style="enable-background:new 0 0 32 32;" xml:space="preserve">
<g>
	<g>
		<rect style="fill:none;" width="32" height="32"/>
	</g>
	<g>
		<g>
			<path style="fill:#999999;" d="M22.421,17.763H9.578c-0.628,0-1.138-0.239-1.138-0.534c0-0.294,0.51-0.533,1.138-0.533h12.843
				c0.629,0,1.139,0.239,1.139,0.533C23.56,17.523,23.05,17.763,22.421,17.763L22.421,17.763z"/>
			<path style="fill:#999999;" d="M22.421,20.164H9.578c-0.628,0-1.138-0.239-1.138-0.533c0-0.295,0.51-0.533,1.138-0.533h12.843
				c0.629,0,1.139,0.238,1.139,0.533C23.56,19.925,23.05,20.164,22.421,20.164L22.421,20.164z"/>
		</g>
		<g>
			<path style="fill-rule:evenodd;clip-rule:evenodd;fill:#002B73;" d="M18.422,4.12c0.547-0.124,0.592-0.904,0.061-1.09
				c-0.686-0.24-1.412-0.364-2.139-0.364c-3.554,0-6.482,2.927-6.482,6.482s2.928,6.481,6.482,6.481c2.38,0,4.592-1.328,5.717-3.428
				c0.288-0.486-0.266-1.066-0.77-0.783c-0.59,0.33-1.253,0.5-1.93,0.5c-3.246,0-5.124-3.835-3.11-6.396
				C16.797,4.828,17.561,4.331,18.422,4.12"/>
			<path style="fill-rule:evenodd;clip-rule:evenodd;fill:#FFFFFF;" d="M15.695,3.85c0.1-0.013,0.195,0.039,0.237,0.131
				c0.043,0.091,0.022,0.198-0.051,0.267c-0.188,0.177-0.365,0.369-0.525,0.572c-2.572,3.272-0.153,8.226,3.985,8.24
				c0.102,0.001,0.188,0.063,0.219,0.16s-0.003,0.198-0.085,0.257c-0.909,0.657-2.011,1.015-3.132,1.015
				c-2.93,0-5.342-2.413-5.342-5.343C11.001,6.456,13.032,4.19,15.695,3.85"/>
		</g>
	</g>
</g>
</svg>
