<?xml version="1.0" encoding="iso-8859-1"?>
<!-- Generator: Adobe Illustrator 14.0.0, SVG Export Plug-In . SVG Version: 6.00 Build 43363)  -->
<!DOCTYPE svg PUBLIC "-//W3C//DTD SVG 1.1//EN" "http://www.w3.org/Graphics/SVG/1.1/DTD/svg11.dtd">
<svg version="1.1" id="Layer_1" xmlns="http://www.w3.org/2000/svg" xmlns:xlink="http://www.w3.org/1999/xlink" x="0px" y="0px"
	 width="32px" height="32px" viewBox="0 0 32 32" style="enable-background:new 0 0 32 32;" xml:space="preserve">
<g>
	<g>
		<g>
			<rect style="fill:none;" width="32" height="32"/>
		</g>
		<g>
			<g>
				<path style="fill-rule:evenodd;clip-rule:evenodd;fill:#002B73;" d="M22.563,3.683c0.384-0.086,0.415-0.633,0.044-0.762
					c-0.481-0.168-0.988-0.254-1.497-0.254c-2.486,0-4.534,2.048-4.534,4.535c0,2.486,2.048,4.532,4.534,4.532
					c1.665,0,3.212-0.928,3.999-2.396c0.201-0.342-0.186-0.746-0.539-0.549c-0.413,0.231-0.875,0.35-1.349,0.35
					c-2.271,0-3.584-2.683-2.176-4.474C21.428,4.178,21.961,3.83,22.563,3.683"/>
				<path style="fill-rule:evenodd;clip-rule:evenodd;fill:#FFFFFF;" d="M20.656,3.494c0.07-0.008,0.137,0.027,0.168,0.092
					c0.029,0.064,0.014,0.139-0.037,0.187c-0.131,0.124-0.255,0.258-0.366,0.4c-1.8,2.289-0.107,5.754,2.786,5.764
					c0.071,0.001,0.131,0.045,0.153,0.112c0.022,0.068-0.002,0.138-0.06,0.18c-0.635,0.458-1.404,0.709-2.19,0.709
					c-2.049,0-3.736-1.687-3.736-3.736C17.374,5.317,18.794,3.732,20.656,3.494"/>
			</g>
			<g>
				<path style="fill:#FFFFFF;" d="M10.882,17.135c-1.948,0-3.532-1.583-3.532-3.533c0-1.938,1.605-3.515,3.578-3.515
					c0.913,0,1.78,0.365,2.442,1.028c0.668,0.668,1.034,1.552,1.034,2.486c0.083-0.97-0.289-1.877-0.965-2.557
					c-0.422-0.41-0.913-0.706-1.445-0.872c-0.308-0.116-0.511-0.335-0.599-0.611c-0.086-0.326-0.004-0.65,0.208-0.876
					c0.958-1.066,2.335-1.684,3.77-1.684c1.995,0,3.811,1.184,4.627,3.013c0.096,0.188,0.112,0.437,0.031,0.67
					c-0.109,0.263-0.271,0.426-0.493,0.525c-0.406,0.184-0.779,0.452-1.073,0.773l0,0c0.005,0,0.073,0.053,0.078,0.053l0,0
					c0.583-0.631,1.401-0.994,2.245-0.994c0.129,0,0.258,0.008,0.385,0.025c1.517,0.177,2.669,1.475,2.669,3.016
					c0,1.683-1.364,3.052-3.043,3.052H10.882z"/>
				<path style="fill:#0071BC;" d="M10.847,17.662c-2.212,0-4.011-1.8-4.011-4.011c0-1.904,1.413-3.6,3.285-3.943
					c0.126-0.024,0.229-0.099,0.29-0.21c0.972-1.771,2.826-2.871,4.84-2.871c2.333,0,4.424,1.479,5.202,3.68
					c0.057,0.16,0.195,0.266,0.363,0.278c1.844,0.132,3.289,1.686,3.289,3.534c0,1.954-1.591,3.543-3.544,3.543H10.847z
					 M20.568,11.605L20.568,11.605c-0.713,0-1.395,0.3-1.871,0.823c-0.098,0.108-0.232,0.167-0.379,0.167
					c-0.128,0-0.25-0.048-0.346-0.134c-0.102-0.093-0.161-0.219-0.168-0.355c-0.006-0.137,0.041-0.268,0.134-0.369
					c0.335-0.367,0.75-0.667,1.204-0.865c0.104-0.047,0.18-0.125,0.221-0.231c0.041-0.107,0.037-0.214-0.008-0.321
					c-0.723-1.619-2.334-2.666-4.104-2.666c-1.279,0-2.502,0.548-3.355,1.502c-0.096,0.109-0.129,0.249-0.092,0.386
					c0.038,0.14,0.136,0.244,0.275,0.291c0.6,0.192,1.155,0.532,1.604,0.981c0.759,0.757,1.176,1.765,1.176,2.836
					c0,0.284-0.231,0.515-0.515,0.515c-0.284,0-0.516-0.231-0.516-0.515c0-0.797-0.311-1.546-0.874-2.109
					c-0.567-0.568-1.279-0.869-2.056-0.869c-1.459,0-3.034,1.139-3.034,2.978c0,1.645,1.337,2.982,2.982,2.982h9.715
					c1.386,0,2.514-1.128,2.514-2.515c0-1.27-0.949-2.343-2.208-2.496C20.768,11.611,20.666,11.605,20.568,11.605"/>
			</g>
		</g>
		<path style="fill:#ED1C24;" d="M19.445,15.137l-1.476,3.181c-0.032,0.068-0.026,0.141,0.015,0.204
			c0.039,0.063,0.104,0.099,0.18,0.099h1.804c0.071,0,0.132,0.033,0.174,0.094c0.04,0.057,0.054,0.125,0.026,0.193l-1.354,3.816
			c-0.036,0.102,0.007,0.213,0.101,0.263c0.096,0.05,0.207,0.024,0.273-0.062l3.9-5.163c0.053-0.067,0.061-0.15,0.021-0.224
			c-0.037-0.076-0.108-0.119-0.193-0.119h-1.5c-0.078,0-0.145-0.039-0.186-0.105c-0.041-0.068-0.041-0.146-0.002-0.215l0.998-1.767
			c0.039-0.07,0.038-0.147,0-0.212c-0.04-0.07-0.107-0.107-0.188-0.107H19.64C19.553,15.013,19.479,15.06,19.445,15.137"/>
	</g>
	<g>
		<g>
			<path style="fill:#3FA9F5;" d="M14.708,20.61c-0.369-0.54-0.173-1.278,0.405-1.591h0.001l1.459-0.814
				c0.047-0.027,0.106,0.008,0.107,0.062l0.024,1.671v0.002c0.018,0.656-0.523,1.195-1.175,1.146
				C15.194,21.06,14.896,20.889,14.708,20.61"/>
			<path style="fill:#3FA9F5;" d="M9.493,20.61c0.189,0.278,0.485,0.449,0.821,0.476c0.651,0.049,1.195-0.49,1.176-1.146v-0.002
				l-0.024-1.671c-0.001-0.054-0.061-0.089-0.107-0.062l-1.46,0.814H9.897C9.318,19.332,9.124,20.07,9.493,20.61"/>
		</g>
		<path style="fill:#3FA9F5;" d="M11.355,23.778c0.156,0.229,0.4,0.37,0.677,0.392c0.537,0.041,0.983-0.404,0.968-0.945l0,0
			l-0.021-1.377c-0.001-0.045-0.049-0.072-0.088-0.051l-1.202,0.671v0.001C11.212,22.725,11.051,23.334,11.355,23.778"/>
	</g>
</g>
</svg>
