<?xml version="1.0" encoding="iso-8859-1"?>
<!-- Generator: Adobe Illustrator 14.0.0, SVG Export Plug-In . SVG Version: 6.00 Build 43363)  -->
<!DOCTYPE svg PUBLIC "-//W3C//DTD SVG 1.1//EN" "http://www.w3.org/Graphics/SVG/1.1/DTD/svg11.dtd">
<svg version="1.1" id="Layer_1" xmlns="http://www.w3.org/2000/svg" xmlns:xlink="http://www.w3.org/1999/xlink" x="0px" y="0px"
	 width="32px" height="32px" viewBox="0 0 32 32" style="enable-background:new 0 0 32 32;" xml:space="preserve">
<g>
	<g>
		<rect style="fill:none;" width="32" height="32"/>
	</g>
	<g>
		<path style="fill:#999999;" d="M22.428,18.004H9.584c-0.629,0-1.138-0.239-1.138-0.533c0-0.295,0.508-0.534,1.138-0.534h12.843
			c0.629,0,1.137,0.239,1.137,0.534C23.564,17.765,23.057,18.004,22.428,18.004L22.428,18.004z"/>
		<g>
			<path style="fill:#999999;" d="M22.428,20.406H9.584c-0.629,0-1.138-0.24-1.138-0.533c0-0.295,0.508-0.534,1.138-0.534h12.843
				c0.629,0,1.137,0.239,1.137,0.534C23.564,20.166,23.057,20.406,22.428,20.406L22.428,20.406z"/>
		</g>
	</g>
	<g>
		<g>
			<path style="fill-rule:evenodd;clip-rule:evenodd;fill:#002B73;" d="M20.49,4.12c0.548-0.124,0.593-0.904,0.062-1.09
				c-0.687-0.24-1.413-0.364-2.14-0.364c-3.555,0-6.482,2.927-6.482,6.482s2.928,6.481,6.482,6.481c2.38,0,4.592-1.328,5.717-3.428
				c0.288-0.486-0.266-1.066-0.77-0.783c-0.59,0.33-1.252,0.5-1.929,0.5c-3.247,0-5.124-3.835-3.11-6.396
				C18.866,4.828,19.63,4.331,20.49,4.12"/>
			<path style="fill-rule:evenodd;clip-rule:evenodd;fill:#FFFFFF;" d="M17.764,3.85c0.101-0.013,0.195,0.039,0.238,0.131
				c0.043,0.091,0.021,0.198-0.051,0.267c-0.189,0.177-0.365,0.369-0.525,0.572c-2.573,3.272-0.153,8.226,3.984,8.24
				c0.102,0.001,0.188,0.063,0.219,0.16c0.031,0.097-0.002,0.198-0.084,0.257c-0.91,0.657-2.012,1.015-3.133,1.015
				c-2.93,0-5.342-2.413-5.342-5.343C13.07,6.456,15.101,4.19,17.764,3.85"/>
		</g>
		<g>
			<path style="fill:#FFFFFF;" d="M9.521,15.494c-0.8,0-1.45-0.653-1.45-1.456c0-0.733,0.548-1.352,1.275-1.438
				c0.058-0.007,0.117-0.011,0.176-0.011c0.406,0,0.798,0.173,1.076,0.474l0.002-0.001l0.094,0.004l0.006-0.089
				c-0.147-0.161-0.334-0.296-0.543-0.392c-0.091-0.037-0.163-0.106-0.208-0.208c-0.042-0.132-0.033-0.236,0.01-0.326
				c0.389-0.875,1.265-1.446,2.229-1.446c0.695,0,1.36,0.298,1.826,0.819c0.085,0.084,0.125,0.228,0.093,0.364
				c-0.05,0.146-0.138,0.237-0.256,0.282c-0.287,0.091-0.533,0.24-0.746,0.448c-0.339,0.34-0.528,0.798-0.528,1.287
				c0,0.039,0.029,0.07,0.064,0.07c0.039,0,0.069-0.03,0.069-0.07c0-0.442,0.18-0.876,0.493-1.191
				c0.318-0.317,0.733-0.493,1.169-0.493c0.945,0,1.713,0.755,1.713,1.684c0,0.932-0.758,1.69-1.69,1.69H9.521z"/>
			<path style="fill:#0071BC;" d="M14.896,11.721c-0.038-0.005-0.07-0.026-0.092-0.064c-0.496-0.907-1.46-1.483-2.496-1.483
				c-1.2,0-2.282,0.773-2.682,1.899c-0.016,0.053-0.063,0.085-0.118,0.091c-0.959,0.069-1.717,0.875-1.717,1.845
				c0,1.024,0.832,1.856,1.85,1.856h4.875c1.147,0,2.091-0.944,2.091-2.091C16.608,12.771,15.877,11.902,14.896,11.721
				 M14.517,15.198H9.642c-0.65,0-1.183-0.533-1.183-1.189c0-0.603,0.458-1.104,1.04-1.173c0.379-0.048,0.763,0.096,1.025,0.378
				c0.122,0.139,0.335,0.145,0.469,0.021c0.139-0.123,0.149-0.336,0.026-0.469c-0.176-0.192-0.395-0.346-0.628-0.454
				c-0.039-0.016-0.06-0.037-0.076-0.075c-0.009-0.032-0.009-0.069,0.006-0.102c0.346-0.778,1.13-1.295,1.988-1.295
				c0.624,0,1.217,0.271,1.627,0.73c0.032,0.032,0.042,0.08,0.032,0.123c-0.017,0.048-0.048,0.08-0.091,0.096
				c-0.321,0.102-0.603,0.278-0.837,0.507c-0.378,0.378-0.608,0.901-0.608,1.477c0,0.187,0.149,0.336,0.332,0.336
				c0.186,0,0.335-0.149,0.335-0.336c0-0.389,0.16-0.746,0.416-1.002c0.907-0.907,2.427-0.213,2.427,1.002
				C15.941,14.558,15.296,15.198,14.517,15.198"/>
		</g>
	</g>
</g>
</svg>
