<?xml version="1.0" encoding="iso-8859-1"?>
<!-- Generator: Adobe Illustrator 14.0.0, SVG Export Plug-In . SVG Version: 6.00 Build 43363)  -->
<!DOCTYPE svg PUBLIC "-//W3C//DTD SVG 1.1//EN" "http://www.w3.org/Graphics/SVG/1.1/DTD/svg11.dtd">
<svg version="1.1" id="Layer_1" xmlns="http://www.w3.org/2000/svg" xmlns:xlink="http://www.w3.org/1999/xlink" x="0px" y="0px"
	 width="32px" height="32px" viewBox="0 0 32 32" style="enable-background:new 0 0 32 32;" xml:space="preserve">
<g>
	<g>
		<rect style="fill:none;" width="32" height="32"/>
	</g>
	<g>
		<g>
			<g>
				<path style="fill-rule:evenodd;clip-rule:evenodd;fill:#002B73;" d="M20.311,4.12c0.549-0.124,0.594-0.904,0.062-1.09
					c-0.688-0.24-1.413-0.364-2.141-0.364c-3.555,0-6.482,2.927-6.482,6.482s2.927,6.481,6.482,6.481
					c2.381,0,4.592-1.328,5.717-3.428c0.289-0.486-0.266-1.066-0.769-0.783c-0.591,0.33-1.253,0.5-1.929,0.5
					c-3.248,0-5.125-3.835-3.111-6.396C18.688,4.828,19.451,4.331,20.311,4.12"/>
				<path style="fill-rule:evenodd;clip-rule:evenodd;fill:#FFFFFF;" d="M17.584,3.85c0.102-0.013,0.195,0.039,0.238,0.131
					c0.043,0.091,0.021,0.198-0.051,0.267c-0.189,0.177-0.365,0.369-0.525,0.572c-2.573,3.272-0.152,8.226,3.984,8.24
					c0.103,0.001,0.189,0.063,0.219,0.16c0.031,0.097-0.002,0.198-0.084,0.257c-0.91,0.657-2.011,1.015-3.133,1.015
					c-2.93,0-5.342-2.413-5.342-5.343C12.89,6.456,14.921,4.19,17.584,3.85"/>
			</g>
			<g>
				<path style="fill:#FFFFFF;" d="M9.468,11.941c-0.777,0-1.408-0.631-1.408-1.408c0-0.772,0.639-1.4,1.426-1.4
					c0.364,0,0.709,0.145,0.973,0.409c0.266,0.267,0.411,0.619,0.411,0.991c0.035-0.387-0.114-0.749-0.383-1.019
					c-0.168-0.163-0.363-0.281-0.576-0.347C9.788,9.121,9.706,9.034,9.672,8.924C9.638,8.794,9.67,8.665,9.755,8.575
					c0.381-0.424,0.93-0.671,1.502-0.671c0.795,0,1.518,0.472,1.843,1.2c0.039,0.075,0.045,0.174,0.012,0.268
					c-0.043,0.104-0.107,0.169-0.196,0.209c-0.162,0.073-0.31,0.18-0.428,0.308l0,0c0.002,0,0.029,0.021,0.031,0.021l0,0
					c0.232-0.251,0.558-0.396,0.895-0.396c0.051,0,0.102,0.003,0.153,0.01c0.605,0.07,1.063,0.587,1.063,1.201
					c0,0.67-0.544,1.216-1.212,1.216H9.468z"/>
				<path style="fill:#0071BC;" d="M7.971,10.5c0,0.878,0.723,1.601,1.601,1.601h3.732c0.779,0,1.417-0.636,1.417-1.42
					c0-0.744-0.58-1.359-1.314-1.414c-0.042-0.003-0.078-0.028-0.089-0.069c-0.307-0.861-1.136-1.454-2.054-1.454
					c-0.792,0-1.531,0.441-1.912,1.135c-0.016,0.028-0.041,0.045-0.07,0.049C8.53,9.068,7.971,9.732,7.971,10.5 M8.481,10.5
					c0-0.932,1.165-1.462,1.858-0.768c0.196,0.197,0.319,0.47,0.319,0.768c0,0.143,0.114,0.257,0.257,0.257
					c0.139,0,0.252-0.114,0.252-0.257c0-0.441-0.175-0.841-0.464-1.131c-0.18-0.175-0.396-0.311-0.642-0.388
					c-0.032-0.012-0.057-0.038-0.069-0.074c-0.008-0.031,0-0.069,0.024-0.094c0.314-0.35,0.768-0.56,1.246-0.56
					c0.657,0,1.257,0.397,1.523,0.993c0.012,0.025,0.012,0.052,0.004,0.077c-0.013,0.029-0.029,0.045-0.057,0.057
					c-0.179,0.082-0.347,0.2-0.482,0.347c-0.094,0.103-0.085,0.267,0.021,0.359c0.102,0.094,0.266,0.089,0.359-0.016
					c0.2-0.217,0.494-0.327,0.783-0.29c0.446,0.052,0.797,0.437,0.797,0.898c0,0.502-0.408,0.91-0.906,0.91H9.572
					C8.976,11.591,8.481,11.1,8.481,10.5"/>
			</g>
			<g>
				<path style="fill:#FFFFFF;" d="M12.388,16.96c-1.162,0-2.105-0.944-2.105-2.105c0-1.154,0.957-2.094,2.132-2.094
					c0.544,0,1.061,0.217,1.455,0.613c0.397,0.399,0.616,0.925,0.616,1.481c0.05-0.577-0.172-1.119-0.575-1.523
					c-0.251-0.244-0.543-0.42-0.861-0.519c-0.183-0.07-0.305-0.2-0.357-0.365c-0.052-0.194-0.002-0.388,0.125-0.521
					c0.57-0.635,1.392-1.003,2.246-1.003c1.188,0,2.27,0.705,2.756,1.795c0.057,0.112,0.066,0.26,0.019,0.4
					c-0.065,0.156-0.16,0.253-0.294,0.312c-0.241,0.109-0.463,0.269-0.639,0.46l0,0c0.003,0,0.044,0.032,0.046,0.032h0.001
					c0.346-0.376,0.835-0.592,1.338-0.592c0.076,0,0.152,0.005,0.229,0.015c0.904,0.105,1.59,0.878,1.59,1.796
					c0,1.002-0.812,1.819-1.812,1.819H12.388z"/>
				<path style="fill:#0071BC;" d="M9.861,14.821c0,1.377,1.133,2.511,2.509,2.511h5.853c1.221,0,2.221-0.999,2.221-2.228
					c0-1.166-0.91-2.132-2.061-2.216c-0.065-0.004-0.123-0.044-0.141-0.108c-0.48-1.351-1.78-2.28-3.221-2.28
					c-1.242,0-2.401,0.693-2.997,1.78c-0.024,0.044-0.063,0.071-0.109,0.077C10.738,12.576,9.861,13.618,9.861,14.821
					 M10.661,14.821c0-1.459,1.826-2.291,2.914-1.203c0.307,0.309,0.499,0.736,0.499,1.203c0,0.225,0.178,0.404,0.404,0.404
					c0.217,0,0.395-0.18,0.395-0.404c0-0.69-0.274-1.317-0.729-1.773c-0.282-0.274-0.621-0.487-1.006-0.608
					c-0.051-0.019-0.09-0.059-0.107-0.116c-0.014-0.048,0-0.107,0.038-0.146c0.493-0.548,1.203-0.876,1.953-0.876
					c1.03,0,1.971,0.621,2.387,1.555c0.021,0.04,0.021,0.082,0.007,0.122c-0.019,0.045-0.046,0.07-0.089,0.089
					c-0.281,0.127-0.544,0.313-0.757,0.543c-0.147,0.162-0.133,0.418,0.032,0.563c0.161,0.147,0.416,0.14,0.563-0.024
					c0.313-0.339,0.774-0.514,1.228-0.454c0.699,0.082,1.25,0.684,1.25,1.408c0,0.787-0.641,1.427-1.42,1.427H12.37
					C11.437,16.531,10.661,15.761,10.661,14.821"/>
			</g>
		</g>
		<g>
			<path style="fill-rule:evenodd;clip-rule:evenodd;fill:#3FA9F5;" d="M12.697,20.822c0.097,0.141,0.249,0.229,0.419,0.241
				c0.333,0.025,0.609-0.249,0.6-0.585l0,0l-0.013-0.852c0-0.027-0.031-0.044-0.054-0.031l-0.744,0.416h-0.001
				C12.609,20.171,12.509,20.547,12.697,20.822"/>
			<path style="fill:#3FA9F5;" d="M14.553,19.546c0.132,0.194,0.337,0.312,0.571,0.33c0.453,0.035,0.832-0.339,0.818-0.798l0,0
				l-0.017-1.164c-0.001-0.037-0.042-0.062-0.075-0.042l-1.017,0.567h0C14.431,18.656,14.296,19.17,14.553,19.546"/>
		</g>
	</g>
</g>
</svg>
