<?xml version="1.0" encoding="iso-8859-1"?>
<!-- Generator: Adobe Illustrator 14.0.0, SVG Export Plug-In . SVG Version: 6.00 Build 43363)  -->
<!DOCTYPE svg PUBLIC "-//W3C//DTD SVG 1.1//EN" "http://www.w3.org/Graphics/SVG/1.1/DTD/svg11.dtd">
<svg version="1.1" id="Layer_1" xmlns="http://www.w3.org/2000/svg" xmlns:xlink="http://www.w3.org/1999/xlink" x="0px" y="0px"
	 width="32px" height="32px" viewBox="0 0 32 32" style="enable-background:new 0 0 32 32;" xml:space="preserve">
<g>
	<g>
		<rect style="fill:none;" width="32" height="32"/>
	</g>
	<g>
		<path style="fill:#3FA9F5;" d="M17.435,19.93h-0.572l-0.047-0.116l0.13-0.132c0.028-0.026,0.042-0.062,0.042-0.101
			s-0.013-0.075-0.042-0.1c-0.053-0.056-0.148-0.054-0.203-0.001l-0.415,0.422l-0.055,0.027H15.62l-0.059-0.105l0.313-0.551
			l0.046-0.038l0.591-0.158c0.037-0.011,0.067-0.033,0.087-0.067c0.02-0.033,0.024-0.071,0.016-0.109
			c-0.019-0.064-0.071-0.103-0.177-0.102l-0.177,0.049l-0.076-0.099l0.285-0.493c0.02-0.035,0.026-0.072,0.016-0.109
			c-0.009-0.037-0.035-0.068-0.067-0.09c-0.07-0.038-0.157-0.011-0.196,0.055l-0.285,0.494l-0.125-0.018l-0.048-0.179
			c-0.017-0.064-0.064-0.118-0.176-0.103c-0.075,0.022-0.121,0.101-0.101,0.177l0.157,0.571l-0.004,0.061l-0.328,0.566h-0.122
			l-0.321-0.547l-0.011-0.06l0.157-0.592c0.01-0.038,0.005-0.073-0.015-0.105c-0.022-0.037-0.062-0.062-0.122-0.075
			c-0.066,0-0.124,0.043-0.141,0.106l-0.047,0.179l-0.124,0.016l-0.286-0.492c-0.039-0.067-0.132-0.092-0.197-0.055
			c-0.031,0.021-0.057,0.051-0.066,0.09c-0.009,0.037-0.005,0.074,0.015,0.109l0.287,0.491l-0.076,0.101l-0.216-0.053
			c-0.065,0-0.122,0.045-0.14,0.105c-0.008,0.038-0.004,0.076,0.014,0.109c0.02,0.033,0.052,0.057,0.089,0.067l0.574,0.147
			l0.051,0.033l0.327,0.566l-0.061,0.105l-0.632,0.004l-0.058-0.02l-0.433-0.434c-0.054-0.053-0.15-0.053-0.203,0
			c-0.026,0.025-0.044,0.062-0.044,0.101s0.017,0.074,0.044,0.104l0.13,0.129l-0.047,0.116h-0.569c-0.08,0-0.145,0.064-0.145,0.143
			s0.065,0.144,0.145,0.144h0.569l0.047,0.114l-0.13,0.131c-0.027,0.029-0.044,0.064-0.044,0.103s0.017,0.074,0.044,0.101
			c0.055,0.055,0.149,0.055,0.203,0l0.416-0.422l0.054-0.026h0.653l0.061,0.106l-0.313,0.549l-0.046,0.039l-0.592,0.158
			c-0.037,0.01-0.069,0.033-0.089,0.066c-0.018,0.033-0.022,0.071-0.014,0.109c0.018,0.062,0.084,0.107,0.176,0.102l0.179-0.048
			l0.076,0.099l-0.287,0.494c-0.02,0.032-0.024,0.072-0.015,0.109s0.032,0.068,0.066,0.086c0.064,0.038,0.159,0.014,0.197-0.052
			l0.286-0.493l0.124,0.016l0.047,0.18c0.017,0.064,0.063,0.117,0.176,0.1c0.076-0.02,0.122-0.098,0.101-0.174l-0.155-0.572
			l0.002-0.061l0.328-0.566h0.123l0.321,0.547l0.01,0.059l-0.157,0.592c-0.008,0.037-0.004,0.076,0.014,0.106
			c0.017,0.024,0.049,0.061,0.125,0.076c0.065,0,0.122-0.044,0.139-0.106l0.048-0.18l0.125-0.016l0.285,0.493
			c0.024,0.044,0.073,0.071,0.124,0.071c0.026,0,0.051-0.006,0.072-0.02c0.032-0.018,0.058-0.049,0.067-0.086
			c0.01-0.037,0.004-0.077-0.015-0.109l-0.286-0.494l0.076-0.1l0.215,0.053c0.065,0,0.122-0.043,0.14-0.105
			c0.008-0.038,0.004-0.076-0.016-0.109c-0.02-0.033-0.05-0.057-0.087-0.066l-0.574-0.149l-0.05-0.032l-0.327-0.564l0.059-0.106
			l0.632-0.005l0.058,0.021l0.434,0.432c0.054,0.055,0.149,0.055,0.202,0c0.027-0.026,0.042-0.062,0.042-0.101
			s-0.013-0.073-0.042-0.103l-0.13-0.131l0.047-0.114h0.572c0.078,0,0.143-0.065,0.143-0.144S17.513,19.93,17.435,19.93z"/>
		<g>
			<g>
				<path style="fill-rule:evenodd;clip-rule:evenodd;fill:#002B73;" d="M20.312,4.12c0.548-0.124,0.593-0.904,0.062-1.09
					c-0.687-0.24-1.412-0.364-2.14-0.364c-3.555,0-6.482,2.927-6.482,6.482s2.927,6.481,6.482,6.481c2.38,0,4.592-1.328,5.717-3.428
					c0.288-0.486-0.266-1.066-0.769-0.783c-0.591,0.33-1.254,0.5-1.93,0.5c-3.248,0-5.124-3.835-3.111-6.396
					C18.688,4.828,19.451,4.331,20.312,4.12"/>
				<path style="fill-rule:evenodd;clip-rule:evenodd;fill:#FFFFFF;" d="M17.584,3.85c0.102-0.013,0.195,0.039,0.238,0.131
					c0.043,0.091,0.022,0.198-0.051,0.267c-0.189,0.177-0.365,0.369-0.524,0.572c-2.573,3.272-0.153,8.226,3.984,8.24
					c0.103,0.001,0.188,0.063,0.219,0.16c0.031,0.097-0.003,0.198-0.085,0.257c-0.91,0.657-2.01,1.015-3.132,1.015
					c-2.93,0-5.343-2.413-5.343-5.343C12.891,6.456,14.922,4.19,17.584,3.85"/>
			</g>
			<g>
				<path style="fill:#FFFFFF;" d="M9.468,11.942c-0.777,0-1.408-0.631-1.408-1.408c0-0.772,0.64-1.4,1.426-1.4
					c0.364,0,0.709,0.146,0.973,0.409c0.266,0.268,0.411,0.62,0.411,0.991c0.035-0.386-0.114-0.748-0.383-1.019
					c-0.168-0.163-0.363-0.281-0.576-0.348C9.788,9.121,9.707,9.034,9.672,8.924C9.638,8.794,9.67,8.665,9.756,8.575
					c0.381-0.425,0.93-0.671,1.502-0.671c0.795,0,1.518,0.471,1.843,1.2c0.039,0.075,0.045,0.174,0.012,0.268
					c-0.043,0.104-0.107,0.169-0.196,0.208c-0.162,0.074-0.31,0.18-0.428,0.308l0,0c0.002,0,0.029,0.021,0.031,0.021l0,0
					c0.232-0.251,0.558-0.395,0.895-0.395c0.051,0,0.102,0.003,0.153,0.01c0.605,0.07,1.063,0.587,1.063,1.202
					c0,0.67-0.544,1.216-1.212,1.216H9.468z"/>
				<path style="fill:#0071BC;" d="M7.971,10.5c0,0.878,0.723,1.601,1.601,1.601h3.732c0.779,0,1.417-0.636,1.417-1.421
					c0-0.744-0.58-1.359-1.314-1.414c-0.042-0.003-0.078-0.028-0.089-0.069c-0.307-0.861-1.136-1.454-2.054-1.454
					c-0.792,0-1.531,0.442-1.912,1.136c-0.016,0.028-0.041,0.044-0.07,0.049C8.531,9.068,7.971,9.733,7.971,10.5 M8.482,10.5
					c0-0.931,1.165-1.461,1.858-0.768c0.196,0.197,0.318,0.47,0.318,0.768c0,0.143,0.114,0.257,0.257,0.257
					c0.139,0,0.252-0.115,0.252-0.257c0-0.44-0.175-0.841-0.465-1.131c-0.18-0.175-0.396-0.31-0.642-0.387
					c-0.032-0.013-0.057-0.038-0.069-0.074c-0.008-0.031,0-0.069,0.024-0.094c0.314-0.35,0.768-0.559,1.246-0.559
					c0.657,0,1.257,0.396,1.523,0.993c0.012,0.025,0.012,0.052,0.004,0.077c-0.012,0.029-0.029,0.044-0.057,0.057
					c-0.179,0.081-0.347,0.2-0.482,0.347c-0.094,0.103-0.085,0.267,0.021,0.359c0.102,0.094,0.266,0.09,0.359-0.016
					c0.2-0.216,0.494-0.327,0.783-0.29c0.446,0.052,0.797,0.437,0.797,0.898c0,0.502-0.408,0.911-0.906,0.911H9.572
					C8.977,11.591,8.482,11.101,8.482,10.5"/>
			</g>
			<g>
				<path style="fill:#FFFFFF;" d="M12.389,16.96c-1.162,0-2.105-0.944-2.105-2.105c0-1.154,0.957-2.094,2.132-2.094
					c0.544,0,1.061,0.217,1.455,0.613c0.397,0.399,0.616,0.925,0.616,1.481c0.05-0.577-0.172-1.119-0.575-1.523
					c-0.251-0.244-0.543-0.42-0.86-0.519c-0.184-0.07-0.306-0.2-0.357-0.365c-0.052-0.194-0.002-0.388,0.125-0.521
					c0.57-0.635,1.392-1.003,2.246-1.003c1.188,0,2.27,0.705,2.756,1.795c0.058,0.112,0.067,0.26,0.02,0.4
					c-0.066,0.156-0.16,0.253-0.294,0.312c-0.241,0.109-0.464,0.269-0.64,0.46l0,0c0.003,0,0.044,0.032,0.046,0.032h0.001
					c0.347-0.376,0.836-0.592,1.338-0.592c0.076,0,0.152,0.005,0.229,0.015c0.904,0.105,1.591,0.878,1.591,1.796
					c0,1.002-0.813,1.819-1.812,1.819H12.389z"/>
				<path style="fill:#0071BC;" d="M9.861,14.821c0,1.377,1.133,2.511,2.509,2.511h5.852c1.221,0,2.221-0.999,2.221-2.228
					c0-1.166-0.909-2.132-2.061-2.216c-0.064-0.004-0.123-0.044-0.141-0.108c-0.479-1.351-1.78-2.28-3.22-2.28
					c-1.242,0-2.401,0.693-2.997,1.78c-0.024,0.044-0.063,0.071-0.109,0.077C10.739,12.576,9.861,13.618,9.861,14.821
					 M10.662,14.821c0-1.459,1.826-2.291,2.914-1.203c0.307,0.309,0.499,0.736,0.499,1.203c0,0.225,0.178,0.404,0.404,0.404
					c0.217,0,0.395-0.18,0.395-0.404c0-0.69-0.274-1.317-0.728-1.773c-0.283-0.274-0.621-0.487-1.006-0.608
					c-0.051-0.019-0.09-0.059-0.107-0.116c-0.014-0.048,0-0.107,0.038-0.146c0.493-0.548,1.203-0.876,1.953-0.876
					c1.03,0,1.971,0.621,2.387,1.555c0.021,0.04,0.021,0.082,0.007,0.122c-0.02,0.045-0.047,0.07-0.09,0.089
					c-0.281,0.127-0.544,0.313-0.756,0.543c-0.147,0.162-0.133,0.418,0.032,0.563c0.161,0.147,0.417,0.14,0.564-0.024
					c0.312-0.339,0.774-0.514,1.228-0.454c0.699,0.082,1.25,0.684,1.25,1.408c0,0.787-0.641,1.427-1.421,1.427h-5.852
					C11.438,16.531,10.662,15.761,10.662,14.821"/>
			</g>
		</g>
	</g>
</g>
</svg>
