<?xml version="1.0" encoding="iso-8859-1"?>
<!-- Generator: Adobe Illustrator 14.0.0, SVG Export Plug-In . SVG Version: 6.00 Build 43363)  -->
<!DOCTYPE svg PUBLIC "-//W3C//DTD SVG 1.1//EN" "http://www.w3.org/Graphics/SVG/1.1/DTD/svg11.dtd">
<svg version="1.1" id="Layer_1" xmlns="http://www.w3.org/2000/svg" xmlns:xlink="http://www.w3.org/1999/xlink" x="0px" y="0px"
	 width="32px" height="32px" viewBox="0 0 32 32" style="enable-background:new 0 0 32 32;" xml:space="preserve">
<g>
	<g>
		<rect style="fill:none;" width="32" height="32"/>
	</g>
	<g>
		<g>
			<path style="fill-rule:evenodd;clip-rule:evenodd;fill:#3FA9F5;" d="M13.179,22.106c0.136,0.202,0.35,0.325,0.592,0.343
				c0.471,0.035,0.861-0.354,0.848-0.826v-0.001L14.6,20.416c-0.001-0.039-0.043-0.062-0.076-0.043l-1.052,0.586
				c-0.001,0-0.001,0.002-0.001,0.002C13.054,21.185,12.914,21.719,13.179,22.106"/>
			<path style="fill:#3FA9F5;" d="M15.846,19.78c-0.266-0.39-0.124-0.922,0.293-1.147l0,0l1.052-0.586
				c0.034-0.021,0.076,0.006,0.077,0.044l0.018,1.204v0.001c0.013,0.473-0.377,0.861-0.848,0.825
				C16.196,20.104,15.982,19.979,15.846,19.78"/>
			<path style="fill:#3FA9F5;" d="M12.087,19.78c0.137,0.198,0.35,0.323,0.592,0.341c0.47,0.036,0.861-0.353,0.847-0.825v-0.001
				l-0.017-1.204c-0.001-0.038-0.043-0.065-0.077-0.044l-1.053,0.586l0,0C11.961,18.858,11.822,19.391,12.087,19.78"/>
		</g>
		<g>
			<g>
				<path style="fill-rule:evenodd;clip-rule:evenodd;fill:#002B73;" d="M20.312,4.12c0.548-0.124,0.593-0.904,0.062-1.09
					c-0.687-0.24-1.412-0.364-2.14-0.364c-3.555,0-6.482,2.927-6.482,6.482s2.928,6.481,6.482,6.481c2.38,0,4.592-1.328,5.717-3.428
					c0.288-0.486-0.266-1.066-0.769-0.783c-0.591,0.33-1.254,0.5-1.93,0.5c-3.247,0-5.124-3.835-3.111-6.396
					C18.688,4.828,19.451,4.331,20.312,4.12"/>
				<path style="fill-rule:evenodd;clip-rule:evenodd;fill:#FFFFFF;" d="M17.585,3.85c0.101-0.013,0.194,0.039,0.237,0.131
					c0.043,0.091,0.022,0.198-0.051,0.267c-0.188,0.177-0.365,0.369-0.524,0.572c-2.573,3.272-0.153,8.226,3.984,8.24
					c0.103,0.001,0.188,0.063,0.22,0.16c0.03,0.097-0.004,0.198-0.086,0.257c-0.91,0.657-2.01,1.015-3.132,1.015
					c-2.93,0-5.342-2.413-5.342-5.343C12.891,6.456,14.922,4.19,17.585,3.85"/>
			</g>
			<g>
				<path style="fill:#FFFFFF;" d="M9.469,11.941c-0.777,0-1.408-0.631-1.408-1.408c0-0.772,0.64-1.4,1.426-1.4
					c0.364,0,0.709,0.145,0.973,0.409c0.266,0.267,0.411,0.619,0.411,0.991c0.035-0.387-0.114-0.749-0.383-1.019
					c-0.168-0.163-0.363-0.281-0.576-0.347C9.789,9.121,9.708,9.034,9.673,8.924c-0.034-0.13-0.002-0.259,0.083-0.349
					c0.381-0.424,0.93-0.671,1.502-0.671c0.795,0,1.518,0.472,1.843,1.2c0.039,0.075,0.045,0.174,0.013,0.268
					c-0.044,0.104-0.107,0.169-0.196,0.209c-0.162,0.073-0.31,0.18-0.428,0.308l0,0c0.002,0,0.029,0.021,0.031,0.021l0,0
					c0.232-0.251,0.558-0.396,0.895-0.396c0.051,0,0.102,0.003,0.153,0.01c0.605,0.07,1.063,0.587,1.063,1.201
					c0,0.67-0.544,1.216-1.212,1.216H9.469z"/>
				<path style="fill:#0071BC;" d="M7.972,10.5c0,0.878,0.723,1.601,1.601,1.601h3.732c0.779,0,1.417-0.636,1.417-1.42
					c0-0.744-0.58-1.359-1.314-1.414c-0.042-0.003-0.078-0.028-0.089-0.069c-0.307-0.861-1.136-1.454-2.054-1.454
					c-0.792,0-1.531,0.441-1.912,1.135c-0.016,0.028-0.041,0.045-0.07,0.049C8.531,9.068,7.972,9.732,7.972,10.5 M8.482,10.5
					c0-0.932,1.165-1.462,1.858-0.768c0.196,0.197,0.318,0.47,0.318,0.768c0,0.143,0.114,0.257,0.257,0.257
					c0.139,0,0.252-0.114,0.252-0.257c0-0.441-0.175-0.841-0.465-1.131c-0.18-0.175-0.396-0.311-0.642-0.388
					c-0.032-0.012-0.057-0.038-0.069-0.074c-0.008-0.031,0-0.069,0.024-0.094c0.315-0.35,0.768-0.56,1.246-0.56
					c0.657,0,1.257,0.397,1.523,0.993c0.012,0.025,0.012,0.052,0.004,0.077c-0.012,0.029-0.029,0.045-0.057,0.057
					c-0.179,0.082-0.347,0.2-0.482,0.347c-0.094,0.103-0.085,0.267,0.021,0.359c0.102,0.094,0.266,0.089,0.359-0.016
					c0.2-0.217,0.494-0.327,0.783-0.29c0.446,0.052,0.797,0.437,0.797,0.898c0,0.502-0.408,0.91-0.906,0.91H9.573
					C8.977,11.591,8.482,11.1,8.482,10.5"/>
			</g>
			<g>
				<path style="fill:#FFFFFF;" d="M12.389,16.96c-1.162,0-2.105-0.944-2.105-2.105c0-1.154,0.957-2.094,2.132-2.094
					c0.544,0,1.061,0.217,1.455,0.613c0.397,0.399,0.616,0.925,0.616,1.481c0.05-0.577-0.172-1.119-0.575-1.523
					c-0.251-0.244-0.543-0.42-0.86-0.519c-0.184-0.07-0.306-0.2-0.357-0.365c-0.052-0.194-0.002-0.388,0.125-0.521
					c0.57-0.635,1.392-1.003,2.246-1.003c1.188,0,2.27,0.705,2.756,1.795c0.058,0.112,0.067,0.26,0.02,0.4
					c-0.066,0.156-0.16,0.253-0.294,0.312c-0.241,0.109-0.464,0.269-0.64,0.46l0,0c0.003,0,0.044,0.032,0.046,0.032h0.001
					c0.347-0.376,0.836-0.592,1.338-0.592c0.076,0,0.152,0.005,0.229,0.015c0.904,0.105,1.591,0.878,1.591,1.796
					c0,1.002-0.813,1.819-1.812,1.819H12.389z"/>
				<path style="fill:#0071BC;" d="M9.861,14.821c0,1.377,1.133,2.511,2.509,2.511h5.852c1.221,0,2.221-0.999,2.221-2.228
					c0-1.166-0.909-2.132-2.061-2.216c-0.064-0.004-0.123-0.044-0.141-0.108c-0.479-1.351-1.78-2.28-3.22-2.28
					c-1.242,0-2.401,0.693-2.997,1.78c-0.024,0.044-0.063,0.071-0.109,0.077C10.739,12.576,9.861,13.618,9.861,14.821
					 M10.662,14.821c0-1.459,1.826-2.291,2.914-1.203c0.307,0.309,0.499,0.736,0.499,1.203c0,0.225,0.178,0.404,0.404,0.404
					c0.217,0,0.395-0.18,0.395-0.404c0-0.69-0.274-1.317-0.728-1.773c-0.283-0.274-0.621-0.487-1.006-0.608
					c-0.051-0.019-0.09-0.059-0.107-0.116c-0.014-0.048,0-0.107,0.038-0.146c0.493-0.548,1.203-0.876,1.953-0.876
					c1.03,0,1.971,0.621,2.387,1.555c0.021,0.04,0.021,0.082,0.007,0.122c-0.02,0.045-0.047,0.07-0.09,0.089
					c-0.281,0.127-0.544,0.313-0.756,0.543c-0.147,0.162-0.133,0.418,0.032,0.563c0.161,0.147,0.417,0.14,0.564-0.024
					c0.312-0.339,0.774-0.514,1.228-0.454c0.699,0.082,1.25,0.684,1.25,1.408c0,0.787-0.641,1.427-1.421,1.427h-5.852
					C11.438,16.531,10.662,15.761,10.662,14.821"/>
			</g>
		</g>
	</g>
</g>
</svg>
