<?xml version="1.0" encoding="iso-8859-1"?>
<!-- Generator: Adobe Illustrator 14.0.0, SVG Export Plug-In . SVG Version: 6.00 Build 43363)  -->
<!DOCTYPE svg PUBLIC "-//W3C//DTD SVG 1.1//EN" "http://www.w3.org/Graphics/SVG/1.1/DTD/svg11.dtd">
<svg version="1.1" id="Layer_1" xmlns="http://www.w3.org/2000/svg" xmlns:xlink="http://www.w3.org/1999/xlink" x="0px" y="0px"
	 width="32px" height="32px" viewBox="0 0 32 32" style="enable-background:new 0 0 32 32;" xml:space="preserve">
<g>
	<g>
		<rect style="fill:none;" width="32" height="31.999"/>
	</g>
	<g>
		<path style="fill:#999999;" d="M23.819,19.998H10.977c-0.628,0-1.138-0.239-1.138-0.533c0-0.295,0.509-0.533,1.138-0.533h12.843
			c0.629,0,1.138,0.238,1.138,0.533C24.957,19.759,24.448,19.998,23.819,19.998L23.819,19.998z"/>
		<path style="fill:#999999;" d="M23.819,22.4H10.977c-0.628,0-1.138-0.239-1.138-0.533c0-0.295,0.509-0.533,1.138-0.533h12.843
			c0.629,0,1.138,0.238,1.138,0.533C24.957,22.161,24.448,22.4,23.819,22.4L23.819,22.4z"/>
	</g>
	<g>
		<g>
			<path style="fill-rule:evenodd;clip-rule:evenodd;fill:#002B73;" d="M20.604,3.683c0.384-0.086,0.415-0.632,0.044-0.762
				c-0.481-0.168-0.988-0.254-1.497-0.254c-2.487,0-4.534,2.048-4.534,4.535c0,2.486,2.047,4.533,4.534,4.533
				c1.665,0,3.211-0.928,3.999-2.397c0.201-0.342-0.186-0.746-0.539-0.549c-0.413,0.231-0.876,0.35-1.348,0.35
				c-2.272,0-3.585-2.683-2.178-4.474C19.469,4.178,20.002,3.831,20.604,3.683"/>
			<path style="fill-rule:evenodd;clip-rule:evenodd;fill:#FFFFFF;" d="M18.697,3.494c0.07-0.008,0.137,0.027,0.168,0.091
				c0.029,0.065,0.014,0.14-0.037,0.187c-0.131,0.124-0.256,0.258-0.367,0.4c-1.799,2.289-0.107,5.754,2.787,5.764
				c0.071,0.001,0.132,0.045,0.153,0.113c0.022,0.067-0.002,0.138-0.06,0.18c-0.636,0.458-1.405,0.709-2.19,0.709
				c-2.05,0-3.737-1.688-3.737-3.737C15.415,5.316,16.835,3.732,18.697,3.494"/>
		</g>
		<path style="fill:#FFFFFF;" d="M9.784,13.054c-1.258,0-2.282-1.024-2.282-2.283c0-1.253,1.038-2.271,2.312-2.271
			c0.59,0,1.15,0.235,1.578,0.665c0.431,0.433,0.668,1.003,0.668,1.607c0.054-0.627-0.187-1.213-0.623-1.653
			c-0.273-0.264-0.589-0.455-0.935-0.562c-0.199-0.076-0.33-0.217-0.386-0.396c-0.056-0.21-0.003-0.42,0.134-0.565
			c0.619-0.688,1.509-1.088,2.437-1.088c1.289,0,2.462,0.765,2.99,1.947c0.062,0.122,0.073,0.282,0.021,0.433
			c-0.071,0.17-0.175,0.275-0.318,0.34c-0.263,0.119-0.503,0.292-0.694,0.499l0,0c0.003,0,0.047,0.034,0.05,0.034l0,0
			c0.377-0.408,0.906-0.642,1.452-0.642c0.083,0,0.166,0.005,0.248,0.016c0.98,0.115,1.725,0.952,1.725,1.949
			c0,1.087-0.882,1.973-1.966,1.973H9.784z"/>
		<path style="fill:#0071BC;" d="M7.044,10.733c0,1.494,1.229,2.723,2.722,2.723h6.347c1.325,0,2.409-1.083,2.409-2.416
			c0-1.266-0.986-2.312-2.235-2.404c-0.071-0.004-0.132-0.048-0.152-0.118c-0.521-1.464-1.931-2.472-3.494-2.472
			c-1.346,0-2.603,0.751-3.25,1.931C9.365,8.025,9.322,8.054,9.272,8.061C7.995,8.298,7.044,9.428,7.044,10.733 M7.912,10.733
			c0-1.583,1.981-2.484,3.159-1.305c0.334,0.335,0.543,0.799,0.543,1.305c0,0.243,0.192,0.438,0.438,0.438
			c0.235,0,0.428-0.196,0.428-0.438c0-0.749-0.297-1.429-0.79-1.922c-0.306-0.298-0.673-0.529-1.09-0.66
			c-0.055-0.021-0.098-0.063-0.117-0.126c-0.015-0.053,0-0.117,0.041-0.159c0.534-0.595,1.305-0.95,2.118-0.95
			c1.119,0,2.139,0.674,2.591,1.687c0.021,0.043,0.021,0.09,0.006,0.132c-0.021,0.049-0.049,0.076-0.097,0.097
			c-0.305,0.139-0.589,0.341-0.82,0.59c-0.159,0.176-0.146,0.454,0.034,0.611c0.174,0.158,0.452,0.152,0.612-0.027
			c0.34-0.369,0.839-0.556,1.332-0.491c0.758,0.088,1.355,0.741,1.355,1.527c0,0.853-0.695,1.547-1.542,1.547H9.766
			C8.753,12.587,7.912,11.753,7.912,10.733"/>
		<path style="fill:#FFFFFF;" d="M22.215,17.462c1.26,0,2.283-1.023,2.283-2.283c0-1.252-1.037-2.271-2.312-2.271
			c-0.59,0-1.149,0.236-1.578,0.665c-0.431,0.433-0.668,1.004-0.668,1.607c-0.055-0.626,0.188-1.213,0.623-1.652
			c0.273-0.265,0.59-0.456,0.936-0.563c0.198-0.075,0.33-0.217,0.386-0.395c0.056-0.211,0.003-0.422-0.134-0.566
			c-0.619-0.688-1.511-1.087-2.438-1.087c-1.289,0-2.462,0.763-2.99,1.946c-0.062,0.122-0.072,0.282-0.02,0.434
			c0.071,0.17,0.175,0.275,0.319,0.339c0.262,0.119,0.503,0.292,0.693,0.499l0,0c-0.002,0-0.047,0.035-0.049,0.035l0,0
			c-0.377-0.407-0.907-0.642-1.453-0.642c-0.083,0-0.166,0.005-0.248,0.017c-0.981,0.114-1.725,0.952-1.725,1.948
			c0,1.088,0.882,1.973,1.965,1.973H22.215z"/>
		<path style="fill:#0071BC;" d="M24.957,15.142c0-1.304-0.951-2.435-2.229-2.673c-0.05-0.005-0.093-0.035-0.119-0.082
			c-0.646-1.179-1.904-1.931-3.25-1.931c-1.562,0-2.972,1.008-3.493,2.473c-0.02,0.07-0.083,0.113-0.152,0.117
			c-1.249,0.093-2.235,1.14-2.235,2.404c0,1.333,1.084,2.417,2.409,2.417h6.347C23.728,17.865,24.957,16.635,24.957,15.142
			 M24.089,15.142c0,1.021-0.841,1.855-1.854,1.855h-6.347c-0.846,0-1.541-0.694-1.541-1.548c0-0.786,0.597-1.438,1.355-1.527
			c0.492-0.064,0.992,0.124,1.332,0.493c0.159,0.178,0.438,0.185,0.611,0.027c0.182-0.158,0.194-0.437,0.035-0.611
			c-0.23-0.25-0.516-0.452-0.82-0.591c-0.048-0.021-0.076-0.048-0.098-0.096c-0.015-0.043-0.015-0.09,0.007-0.133
			c0.452-1.012,1.472-1.687,2.59-1.687c0.812,0,1.584,0.356,2.118,0.95c0.04,0.043,0.056,0.107,0.04,0.159
			c-0.02,0.062-0.061,0.105-0.116,0.127c-0.417,0.129-0.784,0.361-1.091,0.658c-0.492,0.495-0.79,1.175-0.79,1.923
			c0,0.244,0.192,0.438,0.428,0.438c0.245,0,0.438-0.195,0.438-0.438c0-0.506,0.209-0.97,0.542-1.304
			C22.107,12.657,24.089,13.559,24.089,15.142"/>
	</g>
</g>
</svg>
