<?xml version="1.0" encoding="iso-8859-1"?>
<!-- Generator: Adobe Illustrator 14.0.0, SVG Export Plug-In . SVG Version: 6.00 Build 43363)  -->
<!DOCTYPE svg PUBLIC "-//W3C//DTD SVG 1.1//EN" "http://www.w3.org/Graphics/SVG/1.1/DTD/svg11.dtd">
<svg version="1.1" id="Layer_1" xmlns="http://www.w3.org/2000/svg" xmlns:xlink="http://www.w3.org/1999/xlink" x="0px" y="0px"
	 width="32px" height="32px" viewBox="0 0 32 32" style="enable-background:new 0 0 32 32;" xml:space="preserve">
<g>
	<g>
		<g>
			<rect style="fill:none;" width="32" height="32"/>
		</g>
	</g>
	<g>
		<g>
			<path style="fill-rule:evenodd;clip-rule:evenodd;fill:#002B73;" d="M20.404,3.683c0.383-0.086,0.414-0.632,0.043-0.762
				c-0.48-0.168-0.988-0.254-1.496-0.254c-2.487,0-4.535,2.048-4.535,4.534s2.048,4.533,4.535,4.533
				c1.664,0,3.211-0.928,3.999-2.397c0.2-0.342-0.186-0.745-0.538-0.549c-0.414,0.231-0.877,0.35-1.35,0.35
				c-2.271,0-3.584-2.683-2.176-4.474C19.269,4.178,19.803,3.831,20.404,3.683"/>
			<path style="fill-rule:evenodd;clip-rule:evenodd;fill:#FFFFFF;" d="M18.497,3.494c0.071-0.008,0.136,0.027,0.167,0.091
				c0.029,0.065,0.016,0.14-0.036,0.187c-0.131,0.124-0.255,0.258-0.366,0.4c-1.8,2.289-0.107,5.754,2.786,5.764
				c0.071,0.001,0.132,0.045,0.153,0.112c0.021,0.068-0.002,0.139-0.06,0.18c-0.636,0.458-1.405,0.709-2.19,0.709
				c-2.049,0-3.737-1.688-3.737-3.737C15.214,5.316,16.634,3.732,18.497,3.494"/>
		</g>
		<path style="fill:#FFFFFF;" d="M9.584,13.054c-1.258,0-2.282-1.024-2.282-2.283c0-1.253,1.037-2.271,2.312-2.271
			c0.589,0,1.15,0.235,1.578,0.664c0.431,0.433,0.667,1.003,0.667,1.607c0.054-0.627-0.187-1.214-0.623-1.653
			c-0.273-0.264-0.589-0.455-0.934-0.562c-0.199-0.076-0.33-0.217-0.387-0.396c-0.056-0.21-0.003-0.421,0.135-0.566
			c0.619-0.688,1.509-1.088,2.436-1.088c1.289,0,2.463,0.764,2.99,1.947c0.062,0.122,0.073,0.282,0.021,0.433
			c-0.071,0.17-0.175,0.275-0.319,0.34c-0.263,0.119-0.503,0.292-0.694,0.499l0,0c0.003,0,0.047,0.034,0.05,0.034l0,0
			c0.377-0.408,0.906-0.642,1.452-0.642c0.083,0,0.166,0.005,0.248,0.016c0.98,0.115,1.726,0.952,1.726,1.949
			c0,1.088-0.883,1.973-1.967,1.973H9.584z"/>
		<path style="fill:#0071BC;" d="M6.844,10.733c0,1.494,1.229,2.723,2.722,2.723h6.347c1.325,0,2.41-1.082,2.41-2.416
			c0-1.266-0.986-2.312-2.236-2.404c-0.071-0.004-0.132-0.048-0.152-0.118c-0.521-1.465-1.932-2.472-3.494-2.472
			c-1.346,0-2.603,0.751-3.25,1.931C9.165,8.025,9.122,8.054,9.072,8.06C7.795,8.298,6.844,9.428,6.844,10.733 M7.711,10.733
			c0-1.583,1.981-2.484,3.159-1.305c0.334,0.335,0.543,0.799,0.543,1.305c0,0.243,0.193,0.438,0.438,0.438
			c0.235,0,0.428-0.196,0.428-0.438c0-0.749-0.297-1.429-0.79-1.923c-0.307-0.297-0.673-0.529-1.091-0.659
			c-0.055-0.021-0.098-0.063-0.117-0.126c-0.015-0.053,0-0.117,0.041-0.16c0.535-0.595,1.305-0.95,2.118-0.95
			c1.119,0,2.139,0.674,2.591,1.687c0.021,0.043,0.021,0.09,0.006,0.132c-0.021,0.048-0.049,0.076-0.097,0.096
			c-0.305,0.139-0.589,0.341-0.82,0.59c-0.159,0.176-0.146,0.454,0.035,0.611c0.174,0.158,0.452,0.152,0.611-0.027
			c0.341-0.369,0.84-0.557,1.333-0.492c0.757,0.088,1.355,0.742,1.355,1.527c0,0.853-0.695,1.547-1.542,1.547H9.565
			C8.553,12.587,7.711,11.752,7.711,10.733"/>
		<path style="fill:#FFFFFF;" d="M22.015,17.462c1.259,0,2.283-1.024,2.283-2.283c0-1.252-1.038-2.272-2.312-2.272
			c-0.589,0-1.149,0.236-1.578,0.665c-0.431,0.434-0.667,1.004-0.667,1.607c-0.056-0.626,0.186-1.213,0.622-1.652
			c0.272-0.264,0.59-0.456,0.935-0.563c0.199-0.075,0.33-0.216,0.387-0.395c0.057-0.211,0.003-0.422-0.135-0.567
			c-0.619-0.688-1.51-1.087-2.438-1.087c-1.289,0-2.461,0.764-2.989,1.946c-0.062,0.122-0.072,0.282-0.02,0.435
			c0.071,0.169,0.175,0.275,0.319,0.338c0.262,0.119,0.503,0.292,0.694,0.499l0,0c-0.004,0-0.047,0.034-0.051,0.034l0,0
			c-0.377-0.407-0.906-0.642-1.452-0.642c-0.083,0-0.166,0.005-0.248,0.017c-0.981,0.115-1.725,0.952-1.725,1.948
			c0,1.088,0.882,1.973,1.965,1.973H22.015z"/>
		<path style="fill:#0071BC;" d="M24.756,15.141c0-1.304-0.951-2.435-2.228-2.673c-0.05-0.005-0.093-0.036-0.119-0.083
			c-0.646-1.179-1.903-1.931-3.251-1.931c-1.562,0-2.972,1.008-3.493,2.473c-0.02,0.07-0.082,0.112-0.152,0.117
			c-1.249,0.093-2.235,1.14-2.235,2.404c0,1.333,1.084,2.417,2.408,2.417h6.347C23.527,17.865,24.756,16.635,24.756,15.141
			 M23.889,15.141c0,1.021-0.842,1.855-1.855,1.855h-6.347c-0.846,0-1.541-0.694-1.541-1.548c0-0.785,0.597-1.438,1.355-1.527
			c0.492-0.064,0.992,0.124,1.333,0.493c0.158,0.178,0.438,0.186,0.61,0.027c0.182-0.158,0.195-0.436,0.035-0.611
			c-0.229-0.25-0.515-0.452-0.819-0.59c-0.048-0.021-0.076-0.048-0.098-0.096c-0.015-0.042-0.015-0.089,0.007-0.133
			c0.453-1.011,1.472-1.687,2.589-1.687c0.813,0,1.584,0.356,2.119,0.95c0.041,0.044,0.055,0.107,0.041,0.159
			c-0.021,0.062-0.062,0.105-0.117,0.127c-0.418,0.129-0.785,0.361-1.092,0.658c-0.492,0.495-0.789,1.175-0.789,1.923
			c0,0.244,0.192,0.438,0.428,0.438c0.244,0,0.438-0.195,0.438-0.438c0-0.506,0.208-0.97,0.542-1.304
			C21.907,12.657,23.889,13.559,23.889,15.141"/>
	</g>
	<g>
		<path style="fill-rule:evenodd;clip-rule:evenodd;fill:#3FA9F5;" d="M9.378,22.604c0.356-0.187,0.468-0.643,0.246-0.979l0,0
			l-0.552-0.868c-0.019-0.028-0.059-0.027-0.076,0.002l-0.5,0.899l0,0c-0.205,0.348-0.068,0.799,0.299,0.96
			C8.981,22.701,9.194,22.697,9.378,22.604"/>
		<g>
			<path style="fill-rule:evenodd;clip-rule:evenodd;fill:#3FA9F5;" d="M12.51,20.643c0.426-0.229,0.555-0.779,0.284-1.183
				l-0.001-0.001l-0.678-1.037c-0.021-0.035-0.07-0.031-0.09,0.006l-0.592,1.084l0,0c-0.238,0.426-0.071,0.965,0.375,1.158
				C12.036,20.768,12.292,20.759,12.51,20.643"/>
			<path style="fill-rule:evenodd;clip-rule:evenodd;fill:#3FA9F5;" d="M18.452,20.643c0.426-0.229,0.554-0.779,0.282-1.183
				l-0.001-0.001l-0.677-1.037c-0.022-0.035-0.069-0.031-0.091,0.006l-0.592,1.084l0,0c-0.237,0.426-0.069,0.965,0.376,1.158
				C17.977,20.768,18.231,20.759,18.452,20.643"/>
			<path style="fill-rule:evenodd;clip-rule:evenodd;fill:#3FA9F5;" d="M24.331,20.643c0.427-0.229,0.554-0.779,0.282-1.183
				l-0.001-0.001l-0.677-1.037c-0.021-0.035-0.068-0.031-0.091,0.006l-0.592,1.084l0,0c-0.237,0.426-0.068,0.965,0.378,1.158
				C23.856,20.768,24.11,20.759,24.331,20.643"/>
		</g>
		<path style="fill-rule:evenodd;clip-rule:evenodd;fill:#3FA9F5;" d="M15.188,22.604c0.357-0.187,0.468-0.643,0.245-0.979l0,0
			l-0.552-0.868c-0.018-0.028-0.061-0.027-0.077,0.002l-0.5,0.899l0,0c-0.204,0.348-0.067,0.799,0.3,0.96
			C14.791,22.701,15.004,22.697,15.188,22.604"/>
		<path style="fill-rule:evenodd;clip-rule:evenodd;fill:#3FA9F5;" d="M21.098,22.604c0.357-0.187,0.468-0.643,0.247-0.979l0,0
			l-0.554-0.868c-0.018-0.028-0.058-0.027-0.078,0.002l-0.498,0.899l0,0c-0.205,0.348-0.066,0.799,0.301,0.96
			C20.702,22.701,20.914,22.697,21.098,22.604"/>
	</g>
</g>
</svg>
