<?xml version="1.0" encoding="iso-8859-1"?>
<!-- Generator: Adobe Illustrator 14.0.0, SVG Export Plug-In . SVG Version: 6.00 Build 43363)  -->
<!DOCTYPE svg PUBLIC "-//W3C//DTD SVG 1.1//EN" "http://www.w3.org/Graphics/SVG/1.1/DTD/svg11.dtd">
<svg version="1.1" id="Layer_1" xmlns="http://www.w3.org/2000/svg" xmlns:xlink="http://www.w3.org/1999/xlink" x="0px" y="0px"
	 width="32px" height="32px" viewBox="0 0 32 32" style="enable-background:new 0 0 32 32;" xml:space="preserve">
<g>
	<g>
		<rect style="fill:none;" width="32" height="31.999"/>
	</g>
	<g>
		<g>
			<g>
				<path style="fill-rule:evenodd;clip-rule:evenodd;fill:#002B73;" d="M20.604,3.683c0.384-0.086,0.415-0.632,0.044-0.762
					c-0.481-0.168-0.988-0.254-1.497-0.254c-2.486,0-4.534,2.048-4.534,4.535c0,2.486,2.047,4.533,4.534,4.533
					c1.665,0,3.211-0.928,3.999-2.397c0.202-0.342-0.186-0.746-0.538-0.549c-0.414,0.231-0.877,0.351-1.349,0.351
					c-2.272,0-3.585-2.683-2.177-4.474C19.469,4.178,20.002,3.831,20.604,3.683"/>
				<path style="fill-rule:evenodd;clip-rule:evenodd;fill:#FFFFFF;" d="M18.696,3.494c0.071-0.008,0.138,0.027,0.168,0.091
					c0.029,0.065,0.015,0.14-0.036,0.187c-0.132,0.124-0.256,0.258-0.367,0.4c-1.8,2.289-0.107,5.755,2.787,5.764
					c0.07,0.001,0.131,0.045,0.152,0.112c0.022,0.068-0.002,0.139-0.059,0.18c-0.637,0.458-1.406,0.709-2.191,0.709
					c-2.049,0-3.736-1.688-3.736-3.737C15.414,5.316,16.834,3.732,18.696,3.494"/>
			</g>
			<path style="fill:#FFFFFF;" d="M9.784,13.054c-1.258,0-2.282-1.024-2.282-2.283c0-1.253,1.038-2.272,2.312-2.272
				c0.59,0,1.15,0.235,1.578,0.665c0.431,0.433,0.668,1.003,0.668,1.607c0.054-0.627-0.187-1.214-0.623-1.653
				c-0.273-0.264-0.59-0.455-0.935-0.562c-0.199-0.076-0.33-0.217-0.386-0.396c-0.056-0.21-0.003-0.42,0.134-0.565
				c0.619-0.688,1.509-1.088,2.437-1.088c1.289,0,2.462,0.765,2.99,1.947c0.062,0.122,0.073,0.282,0.021,0.433
				c-0.071,0.17-0.175,0.275-0.319,0.34c-0.262,0.119-0.503,0.292-0.693,0.499l0,0c0.003,0,0.047,0.034,0.05,0.034l0,0
				c0.377-0.408,0.906-0.642,1.452-0.642c0.082,0,0.166,0.005,0.248,0.016c0.98,0.115,1.725,0.952,1.725,1.949
				c0,1.088-0.883,1.973-1.967,1.973H9.784z"/>
			<path style="fill:#0071BC;" d="M7.043,10.733c0,1.494,1.229,2.723,2.722,2.723h6.347c1.326,0,2.41-1.082,2.41-2.416
				c0-1.266-0.986-2.312-2.235-2.404c-0.071-0.004-0.132-0.048-0.152-0.118c-0.521-1.464-1.931-2.472-3.494-2.472
				c-1.346,0-2.603,0.751-3.25,1.931C9.364,8.025,9.321,8.054,9.271,8.061C7.994,8.298,7.043,9.428,7.043,10.733 M7.911,10.733
				c0-1.583,1.981-2.484,3.159-1.305c0.334,0.335,0.542,0.799,0.542,1.305c0,0.243,0.193,0.438,0.438,0.438
				c0.236,0,0.428-0.196,0.428-0.438c0-0.749-0.297-1.429-0.79-1.923c-0.306-0.297-0.673-0.529-1.09-0.659
				C10.543,8.13,10.5,8.087,10.482,8.025c-0.015-0.053,0-0.117,0.041-0.159c0.534-0.595,1.305-0.95,2.118-0.95
				c1.119,0,2.139,0.674,2.591,1.687c0.021,0.043,0.021,0.09,0.006,0.132c-0.021,0.049-0.049,0.076-0.097,0.097
				c-0.305,0.139-0.59,0.341-0.82,0.59c-0.159,0.176-0.146,0.454,0.034,0.611c0.174,0.158,0.452,0.152,0.612-0.027
				c0.34-0.369,0.839-0.557,1.332-0.492c0.757,0.088,1.356,0.742,1.356,1.527c0,0.853-0.695,1.547-1.542,1.547H9.765
				C8.752,12.587,7.911,11.753,7.911,10.733"/>
			<path style="fill:#FFFFFF;" d="M22.215,17.463c1.26,0,2.283-1.024,2.283-2.284c0-1.252-1.037-2.272-2.312-2.272
				c-0.59,0-1.15,0.236-1.578,0.665c-0.432,0.434-0.668,1.004-0.668,1.607c-0.055-0.626,0.187-1.213,0.623-1.652
				c0.273-0.264,0.59-0.456,0.935-0.563c0.198-0.075,0.33-0.216,0.386-0.395c0.057-0.211,0.004-0.422-0.134-0.567
				c-0.618-0.688-1.511-1.087-2.438-1.087c-1.288,0-2.461,0.764-2.99,1.946c-0.062,0.122-0.072,0.282-0.02,0.435
				c0.071,0.169,0.175,0.275,0.318,0.338c0.263,0.119,0.503,0.292,0.694,0.499l0,0c-0.003,0-0.047,0.034-0.05,0.034l0,0
				c-0.377-0.407-0.906-0.642-1.452-0.642c-0.083,0-0.166,0.005-0.248,0.017c-0.981,0.115-1.725,0.952-1.725,1.948
				c0,1.088,0.882,1.973,1.966,1.973H22.215z"/>
			<path style="fill:#0071BC;" d="M24.956,15.142c0-1.304-0.95-2.434-2.228-2.673c-0.051-0.005-0.094-0.036-0.119-0.083
				c-0.646-1.179-1.904-1.931-3.251-1.931c-1.562,0-2.972,1.008-3.493,2.473c-0.02,0.07-0.083,0.112-0.152,0.117
				c-1.249,0.093-2.235,1.14-2.235,2.404c0,1.333,1.084,2.417,2.408,2.417h6.347C23.727,17.865,24.956,16.635,24.956,15.142
				 M24.088,15.142c0,1.021-0.841,1.855-1.854,1.855h-6.347c-0.846,0-1.541-0.694-1.541-1.548c0-0.785,0.597-1.438,1.355-1.527
				c0.492-0.064,0.992,0.124,1.332,0.493c0.158,0.178,0.438,0.186,0.61,0.027c0.182-0.159,0.194-0.437,0.036-0.612
				c-0.23-0.25-0.516-0.452-0.82-0.59c-0.048-0.021-0.076-0.048-0.098-0.096c-0.014-0.042-0.014-0.089,0.007-0.133
				c0.452-1.011,1.472-1.687,2.59-1.687c0.813,0,1.585,0.356,2.118,0.95c0.041,0.044,0.056,0.107,0.041,0.159
				c-0.02,0.062-0.062,0.105-0.117,0.127c-0.417,0.129-0.783,0.361-1.091,0.658c-0.491,0.495-0.79,1.175-0.79,1.923
				c0,0.244,0.193,0.438,0.428,0.438c0.246,0,0.439-0.195,0.439-0.438c0-0.506,0.208-0.97,0.541-1.304
				C22.107,12.657,24.088,13.56,24.088,15.142"/>
		</g>
		<g>
			<path style="fill-rule:evenodd;clip-rule:evenodd;fill:#3FA9F5;" d="M15.481,22.646c0.138,0.204,0.356,0.329,0.602,0.347
				c0.478,0.038,0.874-0.357,0.86-0.839l0,0l-0.018-1.224c-0.001-0.04-0.044-0.064-0.078-0.047l-1.069,0.599h-0.001
				C15.354,21.711,15.21,22.25,15.481,22.646"/>
			<path style="fill:#3FA9F5;" d="M18.146,20.814c0.189,0.277,0.484,0.447,0.82,0.474c0.65,0.05,1.195-0.489,1.176-1.146v-0.002
				l-0.023-1.67c-0.002-0.055-0.061-0.09-0.107-0.062l-1.461,0.815H18.55C17.971,19.536,17.777,20.273,18.146,20.814"/>
		</g>
	</g>
</g>
</svg>
