<?xml version="1.0" encoding="iso-8859-1"?>
<!-- Generator: Adobe Illustrator 14.0.0, SVG Export Plug-In . SVG Version: 6.00 Build 43363)  -->
<!DOCTYPE svg PUBLIC "-//W3C//DTD SVG 1.1//EN" "http://www.w3.org/Graphics/SVG/1.1/DTD/svg11.dtd">
<svg version="1.1" id="Layer_1" xmlns="http://www.w3.org/2000/svg" xmlns:xlink="http://www.w3.org/1999/xlink" x="0px" y="0px"
	 width="32px" height="32px" viewBox="0 0 32 32" style="enable-background:new 0 0 32 32;" xml:space="preserve">
<g>
	<g>
		<rect style="fill:none;" width="32" height="32"/>
	</g>
	<g>
		<path style="fill:#3FA9F5;" d="M21.561,20.502h-0.636l-0.052-0.129l0.145-0.145c0.031-0.031,0.047-0.072,0.047-0.113
			c0-0.044-0.018-0.084-0.047-0.111c-0.059-0.062-0.165-0.061-0.226-0.002l-0.464,0.471l-0.06,0.029h-0.727l-0.067-0.117
			l0.348-0.611l0.051-0.043l0.66-0.178c0.041-0.011,0.075-0.037,0.098-0.073c0.021-0.037,0.025-0.08,0.016-0.122
			c-0.02-0.07-0.078-0.115-0.195-0.113l-0.199,0.054l-0.084-0.11l0.316-0.549c0.023-0.037,0.029-0.081,0.018-0.122
			c-0.01-0.04-0.037-0.076-0.074-0.098c-0.076-0.043-0.176-0.015-0.219,0.06l-0.318,0.548l-0.138-0.017l-0.052-0.199
			c-0.02-0.072-0.072-0.131-0.197-0.113c-0.084,0.023-0.135,0.11-0.112,0.195l0.173,0.635l-0.004,0.069l-0.364,0.63h-0.136
			l-0.357-0.609l-0.013-0.066l0.176-0.659c0.011-0.04,0.003-0.08-0.017-0.116c-0.024-0.041-0.068-0.068-0.137-0.084
			c-0.073,0-0.137,0.049-0.155,0.119l-0.053,0.197l-0.138,0.019l-0.319-0.548c-0.043-0.074-0.146-0.102-0.218-0.059
			c-0.035,0.021-0.063,0.055-0.074,0.097c-0.012,0.041-0.006,0.085,0.017,0.122l0.317,0.549l-0.084,0.11l-0.239-0.06
			c-0.073,0-0.137,0.051-0.155,0.119c-0.01,0.042-0.004,0.085,0.016,0.121c0.021,0.037,0.057,0.063,0.098,0.074l0.639,0.166
			l0.057,0.037l0.363,0.629l-0.066,0.117l-0.704,0.005l-0.065-0.022l-0.48-0.482c-0.061-0.059-0.168-0.059-0.227,0
			c-0.029,0.029-0.047,0.07-0.047,0.113c0,0.041,0.017,0.082,0.047,0.113l0.145,0.145l-0.053,0.129h-0.634
			c-0.088,0-0.16,0.072-0.16,0.16c0,0.087,0.072,0.16,0.16,0.16h0.634l0.053,0.127l-0.145,0.146c-0.03,0.029-0.047,0.07-0.047,0.113
			c0,0.041,0.017,0.082,0.047,0.111c0.061,0.061,0.164,0.061,0.226,0l0.464-0.469l0.061-0.029h0.727l0.066,0.117l-0.348,0.609
			l-0.051,0.047l-0.66,0.176c-0.041,0.01-0.076,0.037-0.098,0.074c-0.021,0.037-0.025,0.078-0.016,0.122
			c0.02,0.069,0.094,0.119,0.195,0.112l0.199-0.053l0.084,0.107l-0.317,0.552c-0.022,0.036-0.028,0.079-0.017,0.122
			c0.011,0.041,0.037,0.074,0.074,0.096c0.071,0.041,0.176,0.016,0.218-0.059l0.319-0.549l0.138,0.018l0.053,0.2
			c0.019,0.071,0.071,0.132,0.194,0.112c0.086-0.022,0.137-0.11,0.114-0.194l-0.174-0.638l0.005-0.067l0.363-0.629h0.137
			l0.356,0.607l0.015,0.065l-0.177,0.659c-0.011,0.04-0.005,0.083,0.017,0.118c0.017,0.027,0.053,0.066,0.138,0.084
			c0.071,0,0.136-0.049,0.155-0.119l0.052-0.199l0.138-0.018l0.32,0.549c0.027,0.049,0.08,0.08,0.138,0.08
			c0.028,0,0.057-0.007,0.079-0.021c0.037-0.021,0.064-0.055,0.074-0.096c0.012-0.043,0.006-0.086-0.016-0.122l-0.318-0.552
			l0.084-0.109l0.24,0.06c0.072,0,0.135-0.05,0.154-0.118c0.01-0.043,0.006-0.084-0.016-0.121c-0.022-0.037-0.057-0.064-0.098-0.076
			l-0.639-0.166l-0.057-0.036l-0.363-0.628l0.067-0.117l0.703-0.006l0.064,0.023l0.483,0.48c0.061,0.061,0.166,0.061,0.225,0
			c0.029-0.029,0.047-0.07,0.047-0.111c0-0.043-0.016-0.084-0.047-0.114l-0.145-0.146l0.052-0.127h0.636
			c0.088,0,0.159-0.073,0.159-0.16C21.72,20.574,21.648,20.502,21.561,20.502z"/>
		<g>
			<g>
				<path style="fill-rule:evenodd;clip-rule:evenodd;fill:#002B73;" d="M20.604,3.683c0.384-0.086,0.415-0.633,0.045-0.762
					c-0.482-0.168-0.989-0.254-1.498-0.254c-2.486,0-4.534,2.048-4.534,4.535c0,2.486,2.048,4.533,4.534,4.533
					c1.665,0,3.212-0.928,4-2.397c0.201-0.342-0.186-0.746-0.539-0.549c-0.414,0.231-0.876,0.35-1.349,0.35
					c-2.272,0-3.585-2.683-2.177-4.474C19.469,4.178,20.002,3.83,20.604,3.683"/>
				<path style="fill-rule:evenodd;clip-rule:evenodd;fill:#FFFFFF;" d="M18.697,3.494c0.07-0.008,0.137,0.027,0.168,0.092
					c0.028,0.064,0.014,0.139-0.037,0.187c-0.131,0.124-0.256,0.258-0.367,0.4c-1.799,2.289-0.107,5.754,2.787,5.764
					c0.07,0.001,0.131,0.045,0.152,0.112c0.022,0.068-0.002,0.139-0.059,0.18c-0.636,0.458-1.405,0.709-2.191,0.709
					c-2.049,0-3.736-1.688-3.736-3.737C15.415,5.317,16.834,3.732,18.697,3.494"/>
			</g>
			<path style="fill:#FFFFFF;" d="M9.784,13.054c-1.258,0-2.282-1.024-2.282-2.283c0-1.253,1.038-2.272,2.312-2.272
				c0.59,0,1.15,0.235,1.578,0.665c0.431,0.433,0.668,1.003,0.668,1.607c0.054-0.627-0.187-1.214-0.623-1.653
				c-0.273-0.264-0.589-0.455-0.935-0.562c-0.199-0.076-0.33-0.217-0.386-0.396c-0.056-0.21-0.003-0.42,0.134-0.565
				c0.619-0.688,1.509-1.088,2.437-1.088c1.289,0,2.462,0.765,2.99,1.947c0.062,0.122,0.073,0.282,0.021,0.433
				c-0.071,0.17-0.175,0.275-0.318,0.34c-0.263,0.119-0.503,0.292-0.694,0.499l0,0c0.003,0,0.047,0.034,0.05,0.034l0,0
				c0.377-0.408,0.906-0.642,1.452-0.642c0.083,0,0.166,0.005,0.248,0.016c0.98,0.115,1.725,0.952,1.725,1.949
				c0,1.088-0.882,1.973-1.966,1.973H9.784z"/>
			<path style="fill:#0071BC;" d="M7.044,10.733c0,1.494,1.229,2.723,2.722,2.723h6.347c1.325,0,2.409-1.082,2.409-2.416
				c0-1.266-0.986-2.312-2.235-2.404c-0.071-0.004-0.132-0.048-0.152-0.118c-0.521-1.464-1.931-2.472-3.494-2.472
				c-1.346,0-2.603,0.751-3.25,1.931C9.365,8.025,9.322,8.054,9.272,8.061C7.995,8.298,7.044,9.428,7.044,10.733 M7.912,10.733
				c0-1.583,1.981-2.484,3.159-1.305c0.334,0.335,0.543,0.799,0.543,1.305c0,0.243,0.192,0.438,0.438,0.438
				c0.235,0,0.428-0.196,0.428-0.438c0-0.749-0.297-1.429-0.79-1.923c-0.306-0.298-0.673-0.529-1.09-0.66
				c-0.055-0.021-0.098-0.063-0.117-0.126c-0.015-0.053,0-0.117,0.041-0.159c0.534-0.595,1.305-0.95,2.118-0.95
				c1.119,0,2.139,0.674,2.591,1.687c0.021,0.043,0.021,0.09,0.006,0.132c-0.021,0.049-0.049,0.076-0.097,0.097
				c-0.305,0.139-0.589,0.341-0.82,0.59c-0.159,0.176-0.146,0.454,0.034,0.611c0.174,0.158,0.452,0.152,0.612-0.027
				c0.34-0.369,0.839-0.557,1.332-0.492c0.758,0.088,1.355,0.742,1.355,1.527c0,0.853-0.695,1.547-1.542,1.547H9.766
				C8.753,12.587,7.912,11.753,7.912,10.733"/>
			<path style="fill:#FFFFFF;" d="M22.215,17.463c1.26,0,2.283-1.024,2.283-2.284c0-1.252-1.037-2.272-2.312-2.272
				c-0.59,0-1.15,0.236-1.578,0.665c-0.432,0.434-0.668,1.004-0.668,1.607c-0.055-0.626,0.187-1.213,0.623-1.652
				c0.273-0.264,0.59-0.456,0.935-0.563c0.198-0.075,0.33-0.216,0.386-0.395c0.057-0.211,0.004-0.422-0.134-0.567
				c-0.618-0.688-1.511-1.087-2.438-1.087c-1.288,0-2.461,0.764-2.99,1.946c-0.062,0.122-0.072,0.282-0.02,0.435
				c0.071,0.169,0.175,0.275,0.318,0.338c0.263,0.119,0.503,0.292,0.694,0.499l0,0c-0.003,0-0.047,0.034-0.05,0.034l0,0
				c-0.377-0.407-0.906-0.642-1.452-0.642c-0.083,0-0.166,0.005-0.248,0.017c-0.981,0.115-1.725,0.952-1.725,1.948
				c0,1.088,0.882,1.973,1.966,1.973H22.215z"/>
			<path style="fill:#0071BC;" d="M24.956,15.142c0-1.304-0.95-2.434-2.228-2.673c-0.051-0.005-0.094-0.036-0.119-0.083
				c-0.646-1.179-1.904-1.931-3.251-1.931c-1.562,0-2.972,1.008-3.493,2.473c-0.02,0.07-0.083,0.112-0.152,0.117
				c-1.249,0.093-2.235,1.14-2.235,2.404c0,1.333,1.084,2.417,2.408,2.417h6.347C23.727,17.865,24.956,16.635,24.956,15.142
				 M24.088,15.142c0,1.021-0.841,1.855-1.854,1.855h-6.347c-0.846,0-1.541-0.694-1.541-1.548c0-0.785,0.597-1.438,1.355-1.527
				c0.492-0.064,0.992,0.124,1.332,0.493c0.158,0.178,0.438,0.186,0.61,0.027c0.182-0.159,0.194-0.437,0.036-0.612
				c-0.23-0.25-0.516-0.452-0.82-0.59c-0.048-0.021-0.076-0.048-0.098-0.096c-0.014-0.042-0.014-0.089,0.007-0.133
				c0.452-1.011,1.472-1.687,2.59-1.687c0.813,0,1.585,0.356,2.118,0.95c0.041,0.044,0.056,0.107,0.041,0.159
				c-0.02,0.062-0.062,0.105-0.117,0.127c-0.417,0.129-0.783,0.361-1.091,0.658c-0.491,0.495-0.79,1.175-0.79,1.923
				c0,0.244,0.193,0.438,0.428,0.438c0.246,0,0.439-0.195,0.439-0.438c0-0.506,0.208-0.97,0.541-1.304
				C22.107,12.657,24.088,13.56,24.088,15.142"/>
		</g>
	</g>
</g>
</svg>
