<?xml version="1.0" encoding="iso-8859-1"?>
<!-- Generator: Adobe Illustrator 14.0.0, SVG Export Plug-In . SVG Version: 6.00 Build 43363)  -->
<!DOCTYPE svg PUBLIC "-//W3C//DTD SVG 1.1//EN" "http://www.w3.org/Graphics/SVG/1.1/DTD/svg11.dtd">
<svg version="1.1" id="Layer_1" xmlns="http://www.w3.org/2000/svg" xmlns:xlink="http://www.w3.org/1999/xlink" x="0px" y="0px"
	 width="32px" height="32px" viewBox="0 0 32 32" style="enable-background:new 0 0 32 32;" xml:space="preserve">
<g>
	<g>
		<path style="fill:#CDCDCD;" d="M549.75-287.75v59.5h-59.5v-59.5H549.75 M550-288h-60v60h60V-288L550-288z"/>
	</g>
	<g>
		<path style="fill:#999999;" d="M506.482-250.883h24.08c1.18,0,2.135-0.448,2.135-1c0-0.553-0.955-1-2.135-1h-24.08
			c-1.18,0-2.133,0.447-2.133,1C504.35-251.331,505.303-250.883,506.482-250.883L506.482-250.883z"/>
		<path style="fill:#999999;" d="M506.482-246.379h24.08c1.18,0,2.135-0.448,2.135-1c0-0.553-0.955-1-2.135-1h-24.08
			c-1.18,0-2.133,0.447-2.133,1C504.35-246.827,505.303-246.379,506.482-246.379L506.482-246.379z"/>
	</g>
	<g>
		<g>
			<path style="fill-rule:evenodd;clip-rule:evenodd;fill:#002B73;" d="M532.307-281.095c0.719-0.161,0.777-1.187,0.081-1.429
				c-0.901-0.314-1.853-0.477-2.806-0.477c-4.663,0-8.502,3.84-8.502,8.502c0,4.661,3.839,8.499,8.502,8.499
				c3.121,0,6.021-1.74,7.497-4.494c0.378-0.641-0.348-1.398-1.009-1.029c-0.775,0.434-1.644,0.656-2.529,0.656
				c-4.26,0-6.721-5.029-4.081-8.388C530.177-280.166,531.178-280.818,532.307-281.095"/>
			<path style="fill-rule:evenodd;clip-rule:evenodd;fill:#FFFFFF;" d="M528.729-281.449c0.133-0.016,0.257,0.051,0.314,0.172
				c0.056,0.121,0.027,0.261-0.067,0.35c-0.247,0.232-0.479,0.484-0.688,0.751c-3.375,4.291-0.201,10.789,5.225,10.807
				c0.134,0.002,0.247,0.084,0.288,0.211s-0.004,0.26-0.111,0.338c-1.192,0.859-2.636,1.33-4.107,1.33
				c-3.843,0-7.007-3.164-7.007-7.007C522.575-278.031,525.238-281.003,528.729-281.449"/>
		</g>
		<g>
			<path style="fill:#FFFFFF;" d="M510.402-255.871c-3.65,0-6.621-2.971-6.621-6.624c0-3.636,3.01-6.591,6.709-6.591
				c1.711,0,3.337,0.684,4.579,1.928c1.251,1.255,1.937,2.911,1.937,4.663c0.157-1.818-0.541-3.521-1.807-4.796
				c-0.792-0.767-1.711-1.322-2.711-1.635c-0.578-0.218-0.958-0.628-1.121-1.146c-0.164-0.61-0.01-1.22,0.39-1.643
				c1.796-1.998,4.38-3.156,7.069-3.156c3.739,0,7.145,2.22,8.674,5.648c0.182,0.353,0.212,0.818,0.061,1.257
				c-0.206,0.493-0.508,0.798-0.926,0.983c-0.761,0.346-1.459,0.848-2.013,1.45l0,0c0.01,0,0.137,0.1,0.146,0.1l0,0
				c1.094-1.185,2.63-1.863,4.213-1.863c0.239,0,0.48,0.016,0.721,0.046c2.844,0.333,5.004,2.766,5.004,5.655
				c0,3.155-2.56,5.724-5.705,5.724H510.402z"/>
			<path style="fill:#0071BC;" d="M510.338-254.883c-4.148,0-7.521-3.374-7.521-7.521c0-3.571,2.648-6.751,6.16-7.396
				c0.236-0.045,0.43-0.185,0.543-0.395c1.822-3.32,5.299-5.383,9.076-5.383c4.375,0,8.295,2.772,9.754,6.9
				c0.105,0.299,0.365,0.499,0.682,0.521c3.457,0.249,6.166,3.16,6.166,6.628c0,3.663-2.982,6.644-6.645,6.644H510.338z
				 M528.564-266.24L528.564-266.24c-1.336,0-2.613,0.562-3.506,1.543c-0.186,0.203-0.438,0.314-0.711,0.314
				c-0.24,0-0.471-0.089-0.648-0.251c-0.191-0.175-0.303-0.411-0.314-0.666c-0.012-0.256,0.076-0.502,0.25-0.691
				c0.627-0.688,1.406-1.25,2.258-1.624c0.195-0.087,0.336-0.234,0.414-0.434c0.076-0.2,0.07-0.402-0.016-0.601
				c-1.354-3.036-4.375-4.999-7.695-4.999c-2.398,0-4.691,1.027-6.291,2.817c-0.18,0.204-0.242,0.467-0.172,0.724
				c0.07,0.263,0.256,0.456,0.516,0.544c1.125,0.361,2.166,0.998,3.008,1.841c1.422,1.42,2.205,3.309,2.205,5.319
				c0,0.531-0.434,0.964-0.965,0.964c-0.533,0-0.967-0.433-0.967-0.964c0-1.495-0.582-2.899-1.639-3.955
				c-1.064-1.066-2.398-1.63-3.855-1.63c-2.736,0-5.689,2.136-5.689,5.585c0,3.083,2.508,5.591,5.592,5.591h18.215
				c2.598,0,4.713-2.115,4.713-4.714c0-2.381-1.779-4.393-4.141-4.68C528.939-266.229,528.75-266.24,528.564-266.24"/>
		</g>
	</g>
</g>
<g>
	<g>
		<path style="fill:#CDCDCD;" d="M549.75-287.75v59.5h-59.5v-59.5H549.75 M550-288h-60v60h60V-288L550-288z"/>
	</g>
	<g>
		<path style="fill:#999999;" d="M506.482-250.883h24.08c1.18,0,2.135-0.448,2.135-1c0-0.553-0.955-1-2.135-1h-24.08
			c-1.18,0-2.133,0.447-2.133,1C504.35-251.331,505.303-250.883,506.482-250.883L506.482-250.883z"/>
		<path style="fill:#999999;" d="M506.482-246.379h24.08c1.18,0,2.135-0.448,2.135-1c0-0.553-0.955-1-2.135-1h-24.08
			c-1.18,0-2.133,0.447-2.133,1C504.35-246.827,505.303-246.379,506.482-246.379L506.482-246.379z"/>
	</g>
	<g>
		<g>
			<path style="fill-rule:evenodd;clip-rule:evenodd;fill:#002B73;" d="M532.307-281.095c0.719-0.161,0.777-1.187,0.081-1.429
				c-0.901-0.314-1.853-0.477-2.806-0.477c-4.663,0-8.502,3.84-8.502,8.502c0,4.661,3.839,8.499,8.502,8.499
				c3.121,0,6.021-1.74,7.497-4.494c0.378-0.641-0.348-1.398-1.009-1.029c-0.775,0.434-1.644,0.656-2.529,0.656
				c-4.26,0-6.721-5.029-4.081-8.388C530.177-280.166,531.178-280.818,532.307-281.095"/>
			<path style="fill-rule:evenodd;clip-rule:evenodd;fill:#FFFFFF;" d="M528.729-281.449c0.133-0.016,0.257,0.051,0.314,0.172
				c0.056,0.121,0.027,0.261-0.067,0.35c-0.247,0.232-0.479,0.484-0.688,0.751c-3.375,4.291-0.201,10.789,5.225,10.807
				c0.134,0.002,0.247,0.084,0.288,0.211s-0.004,0.26-0.111,0.338c-1.192,0.859-2.636,1.33-4.107,1.33
				c-3.843,0-7.007-3.164-7.007-7.007C522.575-278.031,525.238-281.003,528.729-281.449"/>
		</g>
		<g>
			<path style="fill:#FFFFFF;" d="M510.402-255.871c-3.65,0-6.621-2.971-6.621-6.624c0-3.636,3.01-6.591,6.709-6.591
				c1.711,0,3.337,0.684,4.579,1.928c1.251,1.255,1.937,2.911,1.937,4.663c0.157-1.818-0.541-3.521-1.807-4.796
				c-0.792-0.767-1.711-1.322-2.711-1.635c-0.578-0.218-0.958-0.628-1.121-1.146c-0.164-0.61-0.01-1.22,0.39-1.643
				c1.796-1.998,4.38-3.156,7.069-3.156c3.739,0,7.145,2.22,8.674,5.648c0.182,0.353,0.212,0.818,0.061,1.257
				c-0.206,0.493-0.508,0.798-0.926,0.983c-0.761,0.346-1.459,0.848-2.013,1.45l0,0c0.01,0,0.137,0.1,0.146,0.1l0,0
				c1.094-1.185,2.63-1.863,4.213-1.863c0.239,0,0.48,0.016,0.721,0.046c2.844,0.333,5.004,2.766,5.004,5.655
				c0,3.155-2.56,5.724-5.705,5.724H510.402z"/>
			<path style="fill:#0071BC;" d="M510.338-254.883c-4.148,0-7.521-3.374-7.521-7.521c0-3.571,2.648-6.751,6.16-7.396
				c0.236-0.045,0.43-0.185,0.543-0.395c1.822-3.32,5.299-5.383,9.076-5.383c4.375,0,8.295,2.772,9.754,6.9
				c0.105,0.299,0.365,0.499,0.682,0.521c3.457,0.249,6.166,3.16,6.166,6.628c0,3.663-2.982,6.644-6.645,6.644H510.338z
				 M528.564-266.24L528.564-266.24c-1.336,0-2.613,0.562-3.506,1.543c-0.186,0.203-0.438,0.314-0.711,0.314
				c-0.24,0-0.471-0.089-0.648-0.251c-0.191-0.175-0.303-0.411-0.314-0.666c-0.012-0.256,0.076-0.502,0.25-0.691
				c0.627-0.688,1.406-1.25,2.258-1.624c0.195-0.087,0.336-0.234,0.414-0.434c0.076-0.2,0.07-0.402-0.016-0.601
				c-1.354-3.036-4.375-4.999-7.695-4.999c-2.398,0-4.691,1.027-6.291,2.817c-0.18,0.204-0.242,0.467-0.172,0.724
				c0.07,0.263,0.256,0.456,0.516,0.544c1.125,0.361,2.166,0.998,3.008,1.841c1.422,1.42,2.205,3.309,2.205,5.319
				c0,0.531-0.434,0.964-0.965,0.964c-0.533,0-0.967-0.433-0.967-0.964c0-1.495-0.582-2.899-1.639-3.955
				c-1.064-1.066-2.398-1.63-3.855-1.63c-2.736,0-5.689,2.136-5.689,5.585c0,3.083,2.508,5.591,5.592,5.591h18.215
				c2.598,0,4.713-2.115,4.713-4.714c0-2.381-1.779-4.393-4.141-4.68C528.939-266.229,528.75-266.24,528.564-266.24"/>
		</g>
	</g>
</g>
<g>
	<g>
		<rect style="fill:none;" width="32" height="32"/>
	</g>
	<g>
		<path style="fill:#999999;" d="M8.791,19.796h12.842c0.63,0,1.139-0.239,1.139-0.533c0-0.295-0.509-0.534-1.139-0.534H8.791
			c-0.629,0-1.137,0.239-1.137,0.534C7.653,19.557,8.162,19.796,8.791,19.796L8.791,19.796z"/>
		<path style="fill:#999999;" d="M8.791,22.197h12.842c0.63,0,1.139-0.238,1.139-0.533s-0.509-0.533-1.139-0.533H8.791
			c-0.629,0-1.137,0.238-1.137,0.533S8.162,22.197,8.791,22.197L8.791,22.197z"/>
	</g>
	<g>
		<g>
			<path style="fill-rule:evenodd;clip-rule:evenodd;fill:#002B73;" d="M22.563,3.683c0.384-0.086,0.415-0.633,0.044-0.762
				c-0.481-0.168-0.988-0.254-1.497-0.254c-2.487,0-4.534,2.048-4.534,4.535c0,2.486,2.047,4.533,4.534,4.533
				c1.665,0,3.211-0.928,3.999-2.397c0.201-0.342-0.186-0.746-0.539-0.549c-0.413,0.231-0.876,0.35-1.349,0.35
				c-2.271,0-3.584-2.683-2.177-4.474C21.428,4.178,21.961,3.83,22.563,3.683"/>
			<path style="fill-rule:evenodd;clip-rule:evenodd;fill:#FFFFFF;" d="M20.656,3.494c0.07-0.008,0.137,0.027,0.167,0.092
				s0.015,0.139-0.036,0.187c-0.131,0.124-0.256,0.258-0.367,0.4c-1.8,2.289-0.107,5.754,2.787,5.764
				c0.071,0.001,0.131,0.045,0.153,0.112c0.022,0.068-0.002,0.139-0.06,0.18c-0.636,0.458-1.405,0.709-2.19,0.709
				c-2.05,0-3.737-1.688-3.737-3.737C17.373,5.317,18.794,3.732,20.656,3.494"/>
		</g>
		<g>
			<path style="fill:#FFFFFF;" d="M10.881,17.135c-1.947,0-3.531-1.583-3.531-3.532c0-1.939,1.605-3.515,3.578-3.515
				c0.913,0,1.78,0.365,2.442,1.028c0.667,0.669,1.033,1.553,1.033,2.487c0.083-0.97-0.289-1.877-0.964-2.558
				c-0.422-0.409-0.913-0.706-1.446-0.872c-0.308-0.116-0.511-0.335-0.598-0.611c-0.088-0.326-0.005-0.65,0.208-0.876
				c0.958-1.066,2.336-1.684,3.771-1.684c1.994,0,3.811,1.184,4.626,3.013c0.097,0.188,0.113,0.437,0.032,0.67
				c-0.11,0.263-0.271,0.425-0.493,0.524c-0.406,0.184-0.779,0.452-1.074,0.773l0,0c0.006,0,0.073,0.053,0.078,0.053l0,0
				c0.583-0.632,1.402-0.994,2.246-0.994c0.128,0,0.257,0.008,0.385,0.025c1.517,0.177,2.669,1.475,2.669,3.016
				c0,1.683-1.365,3.052-3.043,3.052H10.881z"/>
			<path style="fill:#0071BC;" d="M10.847,17.662c-2.212,0-4.011-1.799-4.011-4.011c0-1.904,1.413-3.6,3.285-3.944
				c0.126-0.024,0.229-0.099,0.29-0.21c0.972-1.771,2.826-2.871,4.84-2.871c2.333,0,4.424,1.479,5.202,3.68
				c0.057,0.16,0.195,0.266,0.363,0.278c1.844,0.133,3.289,1.686,3.289,3.535c0,1.954-1.591,3.543-3.544,3.543H10.847z
				 M20.568,11.605L20.568,11.605c-0.713,0-1.395,0.3-1.871,0.823c-0.098,0.108-0.232,0.167-0.379,0.167
				c-0.128,0-0.25-0.047-0.346-0.134c-0.102-0.093-0.161-0.219-0.168-0.355c-0.006-0.137,0.041-0.268,0.134-0.369
				c0.335-0.366,0.75-0.667,1.204-0.866c0.104-0.046,0.18-0.125,0.221-0.231c0.041-0.107,0.037-0.214-0.008-0.32
				c-0.723-1.619-2.334-2.666-4.104-2.666c-1.279,0-2.502,0.548-3.355,1.502c-0.096,0.109-0.129,0.249-0.092,0.386
				c0.038,0.14,0.136,0.244,0.275,0.291c0.6,0.192,1.155,0.532,1.604,0.981c0.759,0.757,1.176,1.765,1.176,2.837
				c0,0.284-0.231,0.514-0.515,0.514c-0.284,0-0.516-0.23-0.516-0.514c0-0.797-0.311-1.546-0.874-2.109
				c-0.567-0.568-1.279-0.869-2.056-0.869c-1.459,0-3.034,1.139-3.034,2.979c0,1.645,1.337,2.982,2.982,2.982h9.715
				c1.386,0,2.514-1.128,2.514-2.514c0-1.27-0.949-2.343-2.208-2.496C20.768,11.611,20.666,11.605,20.568,11.605"/>
		</g>
	</g>
</g>
</svg>
