<?xml version="1.0" encoding="iso-8859-1"?>
<!-- Generator: Adobe Illustrator 14.0.0, SVG Export Plug-In . SVG Version: 6.00 Build 43363)  -->
<!DOCTYPE svg PUBLIC "-//W3C//DTD SVG 1.1//EN" "http://www.w3.org/Graphics/SVG/1.1/DTD/svg11.dtd">
<svg version="1.1" id="Layer_1" xmlns="http://www.w3.org/2000/svg" xmlns:xlink="http://www.w3.org/1999/xlink" x="0px" y="0px"
	 width="32px" height="32px" viewBox="0 0 32 32" style="enable-background:new 0 0 32 32;" xml:space="preserve">
<g>
	<g>
		<rect style="fill:none;" width="32" height="32"/>
	</g>
	<g>
		<rect style="fill:none;" width="32" height="32"/>
	</g>
	<g>
		<path style="fill-rule:evenodd;clip-rule:evenodd;fill:#3FA9F5;" d="M7.507,22.402c0.356-0.186,0.468-0.643,0.246-0.979l0,0
			l-0.552-0.868c-0.019-0.028-0.06-0.026-0.076,0.002l-0.5,0.899l0,0c-0.205,0.348-0.069,0.799,0.299,0.96
			C7.11,22.5,7.322,22.496,7.507,22.402"/>
		<path style="fill-rule:evenodd;clip-rule:evenodd;fill:#3FA9F5;" d="M10.639,20.441c0.426-0.229,0.555-0.779,0.283-1.183
			l-0.001-0.001l-0.678-1.037c-0.021-0.035-0.07-0.031-0.089,0.006l-0.592,1.084l0,0c-0.239,0.426-0.071,0.965,0.375,1.158
			C10.164,20.566,10.42,20.558,10.639,20.441"/>
		<path style="fill-rule:evenodd;clip-rule:evenodd;fill:#3FA9F5;" d="M16.581,20.441c0.426-0.229,0.553-0.779,0.282-1.183
			l-0.001-0.001l-0.676-1.037c-0.023-0.035-0.07-0.031-0.092,0.006l-0.592,1.084l0,0c-0.237,0.426-0.07,0.965,0.376,1.158
			C16.104,20.566,16.36,20.558,16.581,20.441"/>
		<path style="fill-rule:evenodd;clip-rule:evenodd;fill:#3FA9F5;" d="M22.46,20.441c0.427-0.229,0.554-0.779,0.282-1.183
			l-0.001-0.001l-0.677-1.037c-0.021-0.035-0.069-0.031-0.091,0.006l-0.592,1.084l0,0c-0.237,0.426-0.069,0.965,0.378,1.158
			C21.984,20.566,22.239,20.558,22.46,20.441"/>
		<path style="fill-rule:evenodd;clip-rule:evenodd;fill:#3FA9F5;" d="M13.317,22.402c0.357-0.186,0.467-0.643,0.245-0.979l0,0
			l-0.552-0.868c-0.018-0.028-0.06-0.026-0.077,0.002l-0.5,0.899l0,0c-0.204,0.348-0.066,0.799,0.3,0.96
			C12.919,22.5,13.133,22.496,13.317,22.402"/>
		<path style="fill-rule:evenodd;clip-rule:evenodd;fill:#3FA9F5;" d="M19.227,22.402c0.357-0.186,0.468-0.643,0.247-0.979l0,0
			l-0.554-0.868c-0.019-0.028-0.059-0.026-0.078,0.002l-0.498,0.899l0,0c-0.205,0.348-0.067,0.799,0.301,0.96
			C18.83,22.5,19.042,22.496,19.227,22.402"/>
	</g>
	<g>
		<g>
			<path style="fill-rule:evenodd;clip-rule:evenodd;fill:#002B73;" d="M22.871,3.683c0.383-0.086,0.414-0.633,0.043-0.762
				c-0.48-0.168-0.988-0.254-1.496-0.254c-2.487,0-4.535,2.048-4.535,4.535c0,2.486,2.047,4.533,4.535,4.533
				c1.664,0,3.211-0.928,3.998-2.397c0.201-0.342-0.186-0.746-0.538-0.549c-0.413,0.231-0.876,0.35-1.349,0.35
				c-2.271,0-3.584-2.683-2.177-4.474C21.734,4.178,22.269,3.83,22.871,3.683"/>
			<path style="fill-rule:evenodd;clip-rule:evenodd;fill:#FFFFFF;" d="M20.963,3.494c0.07-0.008,0.137,0.027,0.168,0.092
				c0.029,0.064,0.015,0.139-0.036,0.187c-0.132,0.124-0.256,0.258-0.367,0.4c-1.8,2.289-0.107,5.754,2.786,5.764
				c0.072,0.001,0.133,0.045,0.154,0.112c0.021,0.068-0.002,0.139-0.06,0.18c-0.636,0.458-1.405,0.709-2.19,0.709
				c-2.05,0-3.737-1.688-3.737-3.737C17.681,5.317,19.102,3.732,20.963,3.494"/>
		</g>
		<g>
			<path style="fill:#FFFFFF;" d="M11.188,17.136c-1.947,0-3.531-1.584-3.531-3.533c0-1.938,1.605-3.515,3.578-3.515
				c0.913,0,1.78,0.365,2.442,1.028c0.667,0.668,1.033,1.552,1.033,2.486c0.084-0.97-0.289-1.877-0.963-2.557
				c-0.422-0.41-0.913-0.705-1.446-0.872c-0.309-0.117-0.511-0.335-0.598-0.611c-0.087-0.326-0.005-0.651,0.208-0.876
				c0.958-1.066,2.336-1.684,3.77-1.684c1.995,0,3.811,1.184,4.625,3.013c0.098,0.188,0.113,0.437,0.033,0.67
				c-0.11,0.263-0.271,0.426-0.494,0.525c-0.406,0.184-0.777,0.452-1.073,0.773l0,0c0.005,0,0.073,0.053,0.077,0.053l0,0
				c0.584-0.631,1.402-0.994,2.247-0.994c0.128,0,0.257,0.008,0.385,0.025c1.517,0.177,2.669,1.475,2.669,3.016
				c0,1.683-1.365,3.053-3.043,3.053H11.188z"/>
			<path style="fill:#0071BC;" d="M11.154,17.663c-2.212,0-4.012-1.8-4.012-4.012c0-1.904,1.413-3.6,3.286-3.943
				c0.126-0.024,0.229-0.099,0.29-0.21c0.972-1.771,2.826-2.872,4.84-2.872c2.333,0,4.424,1.479,5.202,3.681
				c0.057,0.16,0.195,0.266,0.364,0.278c1.844,0.132,3.288,1.686,3.288,3.534c0,1.954-1.59,3.544-3.543,3.544H11.154z
				 M20.875,11.606L20.875,11.606c-0.713,0-1.394,0.3-1.869,0.823c-0.1,0.108-0.234,0.167-0.38,0.167
				c-0.128,0-0.251-0.048-0.346-0.134c-0.103-0.093-0.161-0.219-0.168-0.355c-0.006-0.137,0.041-0.268,0.134-0.369
				c0.334-0.366,0.75-0.667,1.204-0.865c0.104-0.047,0.179-0.125,0.221-0.231c0.04-0.107,0.038-0.214-0.009-0.321
				c-0.722-1.619-2.333-2.666-4.104-2.666c-1.279,0-2.502,0.548-3.355,1.502c-0.096,0.109-0.129,0.249-0.092,0.387
				c0.038,0.139,0.137,0.243,0.275,0.29c0.6,0.192,1.155,0.532,1.604,0.982c0.758,0.757,1.176,1.765,1.176,2.836
				c0,0.284-0.231,0.515-0.515,0.515c-0.284,0-0.516-0.231-0.516-0.515c0-0.797-0.31-1.545-0.874-2.109
				c-0.568-0.568-1.279-0.869-2.057-0.869c-1.459,0-3.034,1.139-3.034,2.978c0,1.645,1.337,2.982,2.982,2.982h9.715
				c1.385,0,2.514-1.128,2.514-2.515c0-1.27-0.949-2.343-2.209-2.496C21.075,11.612,20.975,11.606,20.875,11.606"/>
		</g>
	</g>
</g>
</svg>
