<?xml version="1.0" encoding="iso-8859-1"?>
<!-- Generator: Adobe Illustrator 14.0.0, SVG Export Plug-In . SVG Version: 6.00 Build 43363)  -->
<!DOCTYPE svg PUBLIC "-//W3C//DTD SVG 1.1//EN" "http://www.w3.org/Graphics/SVG/1.1/DTD/svg11.dtd">
<svg version="1.1" id="Layer_1" xmlns="http://www.w3.org/2000/svg" xmlns:xlink="http://www.w3.org/1999/xlink" x="0px" y="0px"
	 width="32px" height="32px" viewBox="0 0 32 32" style="enable-background:new 0 0 32 32;" xml:space="preserve">
<g>
	<g>
		<rect style="fill:none;" width="32" height="32"/>
	</g>
	<g>
		<g>
			<path style="fill-rule:evenodd;clip-rule:evenodd;fill:#002B73;" d="M22.563,3.683c0.384-0.086,0.415-0.633,0.044-0.763
				c-0.481-0.167-0.988-0.254-1.497-0.254c-2.486,0-4.534,2.048-4.534,4.534s2.048,4.534,4.534,4.534
				c1.665,0,3.212-0.928,3.999-2.397c0.201-0.342-0.186-0.746-0.539-0.549c-0.413,0.231-0.875,0.35-1.349,0.35
				c-2.271,0-3.584-2.682-2.176-4.474C21.428,4.178,21.961,3.83,22.563,3.683"/>
			<path style="fill-rule:evenodd;clip-rule:evenodd;fill:#FFFFFF;" d="M20.656,3.494c0.07-0.008,0.137,0.027,0.168,0.091
				c0.029,0.065,0.014,0.14-0.037,0.187c-0.131,0.124-0.255,0.258-0.366,0.401c-1.8,2.289-0.107,5.754,2.786,5.763
				c0.071,0.001,0.131,0.045,0.153,0.113c0.022,0.067-0.002,0.138-0.06,0.18c-0.635,0.458-1.404,0.709-2.19,0.709
				c-2.049,0-3.736-1.688-3.736-3.738C17.374,5.316,18.794,3.732,20.656,3.494"/>
		</g>
		<g>
			<path style="fill:#FFFFFF;" d="M10.881,17.135c-1.947,0-3.531-1.583-3.531-3.532c0-1.939,1.605-3.516,3.578-3.516
				c0.913,0,1.78,0.364,2.442,1.028c0.667,0.67,1.033,1.554,1.033,2.488c0.084-0.97-0.289-1.878-0.964-2.559
				c-0.422-0.408-0.913-0.705-1.446-0.872c-0.308-0.116-0.51-0.334-0.598-0.612c-0.088-0.325-0.005-0.65,0.208-0.876
				c0.958-1.065,2.335-1.683,3.77-1.683c1.995,0,3.811,1.184,4.626,3.012c0.097,0.188,0.113,0.437,0.032,0.671
				c-0.109,0.263-0.271,0.425-0.493,0.524c-0.406,0.184-0.779,0.452-1.073,0.774l0,0c0.005,0,0.073,0.053,0.077,0.053l0,0
				c0.583-0.632,1.402-0.994,2.246-0.994c0.129,0,0.257,0.008,0.385,0.024c1.517,0.178,2.669,1.475,2.669,3.017
				c0,1.682-1.364,3.051-3.043,3.051H10.881z"/>
			<path style="fill:#0071BC;" d="M10.847,17.662c-2.212,0-4.011-1.798-4.011-4.01c0-1.905,1.413-3.601,3.285-3.945
				c0.126-0.024,0.229-0.098,0.29-0.21c0.972-1.771,2.826-2.871,4.84-2.871c2.333,0,4.424,1.479,5.202,3.68
				c0.057,0.159,0.195,0.267,0.363,0.278c1.844,0.133,3.289,1.686,3.289,3.536c0,1.953-1.591,3.542-3.544,3.542H10.847z
				 M20.568,11.605L20.568,11.605c-0.713,0-1.395,0.3-1.871,0.823c-0.098,0.108-0.232,0.167-0.379,0.167
				c-0.128,0-0.25-0.047-0.346-0.133c-0.102-0.094-0.161-0.22-0.168-0.355c-0.006-0.137,0.041-0.268,0.134-0.369
				c0.335-0.367,0.75-0.667,1.204-0.867c0.104-0.046,0.18-0.125,0.221-0.231c0.041-0.106,0.037-0.214-0.008-0.319
				c-0.723-1.62-2.334-2.667-4.104-2.667c-1.279,0-2.502,0.548-3.355,1.503c-0.096,0.108-0.129,0.249-0.092,0.385
				c0.038,0.141,0.136,0.244,0.275,0.291c0.6,0.193,1.155,0.532,1.604,0.981c0.759,0.757,1.176,1.765,1.176,2.837
				c0,0.284-0.231,0.514-0.515,0.514c-0.284,0-0.516-0.23-0.516-0.514c0-0.798-0.311-1.547-0.874-2.109
				c-0.567-0.569-1.279-0.87-2.056-0.87c-1.459,0-3.034,1.14-3.034,2.979c0,1.644,1.337,2.981,2.982,2.981h9.715
				c1.386,0,2.514-1.128,2.514-2.514c0-1.27-0.949-2.343-2.208-2.496C20.768,11.611,20.666,11.605,20.568,11.605"/>
		</g>
	</g>
	<g>
		<path style="fill-rule:evenodd;clip-rule:evenodd;fill:#3FA9F5;" d="M11.604,22.445c0.139,0.203,0.356,0.328,0.602,0.346
			c0.477,0.037,0.874-0.357,0.861-0.839v-0.001l-0.018-1.223c-0.001-0.04-0.043-0.064-0.078-0.047l-1.069,0.599h-0.001
			C11.477,21.508,11.334,22.049,11.604,22.445"/>
		<path style="fill:#3FA9F5;" d="M14.27,20.611c0.189,0.278,0.485,0.448,0.821,0.475c0.651,0.049,1.195-0.489,1.176-1.146v-0.001
			l-0.024-1.671c-0.001-0.055-0.061-0.09-0.107-0.062l-1.46,0.815h-0.001C14.095,19.334,13.901,20.07,14.27,20.611"/>
	</g>
</g>
</svg>
