<?xml version="1.0" encoding="iso-8859-1"?>
<!-- Generator: Adobe Illustrator 14.0.0, SVG Export Plug-In . SVG Version: 6.00 Build 43363)  -->
<!DOCTYPE svg PUBLIC "-//W3C//DTD SVG 1.1//EN" "http://www.w3.org/Graphics/SVG/1.1/DTD/svg11.dtd">
<svg version="1.1" id="Layer_1" xmlns="http://www.w3.org/2000/svg" xmlns:xlink="http://www.w3.org/1999/xlink" x="0px" y="0px"
	 width="32px" height="32px" viewBox="0 0 32 32" style="enable-background:new 0 0 32 32;" xml:space="preserve">
<g>
	<g>
		<rect style="fill:none;" width="32" height="32"/>
	</g>
	<g>
		<path style="fill:#3FA9F5;" d="M18.182,20.299h-0.637l-0.053-0.13l0.146-0.144c0.03-0.03,0.047-0.072,0.047-0.113
			c0-0.044-0.018-0.084-0.047-0.111c-0.06-0.062-0.166-0.061-0.227-0.002l-0.463,0.471l-0.06,0.029h-0.727l-0.068-0.117l0.349-0.61
			l0.051-0.044l0.661-0.178c0.041-0.011,0.074-0.037,0.096-0.073c0.022-0.038,0.027-0.08,0.017-0.122
			c-0.019-0.07-0.077-0.115-0.194-0.113l-0.199,0.055l-0.084-0.111l0.317-0.549c0.022-0.037,0.028-0.081,0.018-0.121
			s-0.037-0.076-0.076-0.099c-0.075-0.042-0.174-0.015-0.218,0.061l-0.318,0.547l-0.137-0.016l-0.053-0.201
			c-0.019-0.071-0.071-0.13-0.196-0.112c-0.085,0.023-0.135,0.11-0.112,0.195l0.173,0.635l-0.004,0.07l-0.364,0.629h-0.136
			l-0.357-0.608l-0.013-0.067l0.175-0.658c0.011-0.04,0.004-0.081-0.017-0.117c-0.024-0.042-0.068-0.068-0.136-0.084
			c-0.073,0-0.137,0.049-0.155,0.118l-0.053,0.198l-0.138,0.019l-0.318-0.547c-0.044-0.076-0.147-0.103-0.218-0.06
			c-0.037,0.021-0.064,0.055-0.075,0.098c-0.011,0.04-0.006,0.084,0.016,0.121l0.318,0.549l-0.084,0.111l-0.239-0.061
			c-0.073,0-0.137,0.051-0.155,0.119c-0.011,0.042-0.005,0.084,0.016,0.121c0.021,0.036,0.056,0.063,0.097,0.074l0.639,0.166
			l0.057,0.037l0.364,0.629l-0.068,0.117l-0.703,0.004l-0.065-0.021l-0.481-0.482c-0.062-0.059-0.168-0.059-0.227,0
			c-0.03,0.029-0.047,0.07-0.047,0.113c0,0.041,0.017,0.083,0.047,0.114l0.146,0.143l-0.053,0.13h-0.634
			c-0.088,0-0.161,0.072-0.161,0.16c0,0.087,0.072,0.16,0.161,0.16h0.634l0.053,0.127l-0.146,0.146
			c-0.03,0.029-0.047,0.07-0.047,0.113c0,0.041,0.017,0.082,0.047,0.112c0.061,0.06,0.165,0.06,0.226,0l0.463-0.47l0.061-0.029
			h0.726l0.068,0.117l-0.349,0.609l-0.05,0.047l-0.66,0.176c-0.041,0.01-0.076,0.037-0.097,0.074
			c-0.021,0.037-0.027,0.078-0.016,0.122c0.02,0.069,0.094,0.119,0.195,0.112l0.199-0.053l0.084,0.108l-0.318,0.551
			c-0.022,0.036-0.027,0.079-0.016,0.122c0.011,0.041,0.037,0.074,0.075,0.096c0.071,0.042,0.175,0.016,0.218-0.059l0.318-0.549
			l0.138,0.018l0.053,0.2c0.019,0.071,0.071,0.132,0.195,0.112c0.085-0.022,0.135-0.109,0.113-0.194l-0.174-0.638l0.005-0.067
			l0.363-0.63h0.137l0.356,0.609l0.014,0.064l-0.175,0.659c-0.012,0.04-0.005,0.083,0.016,0.118
			c0.018,0.027,0.053,0.066,0.138,0.084c0.072,0,0.136-0.049,0.155-0.119l0.053-0.199l0.137-0.018l0.32,0.549
			c0.027,0.049,0.081,0.08,0.138,0.08c0.029,0,0.057-0.007,0.078-0.021c0.039-0.021,0.065-0.055,0.076-0.096
			c0.011-0.043,0.005-0.086-0.016-0.122l-0.319-0.551l0.084-0.11l0.239,0.059c0.073,0,0.136-0.049,0.154-0.117
			c0.011-0.043,0.006-0.084-0.017-0.121c-0.021-0.037-0.055-0.064-0.097-0.076l-0.638-0.165l-0.057-0.038l-0.364-0.627l0.068-0.117
			l0.703-0.006l0.064,0.023l0.484,0.481c0.06,0.06,0.165,0.06,0.225,0c0.029-0.03,0.047-0.071,0.047-0.112
			c0-0.043-0.017-0.084-0.047-0.113l-0.146-0.146l0.053-0.127h0.637c0.087,0,0.159-0.073,0.159-0.16
			C18.341,20.371,18.269,20.299,18.182,20.299z"/>
		<g>
			<g>
				<path style="fill-rule:evenodd;clip-rule:evenodd;fill:#002B73;" d="M22.562,3.683c0.384-0.086,0.415-0.633,0.045-0.762
					c-0.482-0.167-0.989-0.254-1.498-0.254c-2.486,0-4.534,2.048-4.534,4.534c0,2.485,2.047,4.532,4.534,4.532
					c1.665,0,3.212-0.928,4-2.396c0.201-0.342-0.186-0.746-0.539-0.549c-0.414,0.231-0.876,0.35-1.35,0.35
					c-2.271,0-3.584-2.682-2.176-4.473C21.428,4.178,21.961,3.83,22.562,3.683"/>
				<path style="fill-rule:evenodd;clip-rule:evenodd;fill:#FFFFFF;" d="M20.656,3.494c0.07-0.008,0.136,0.027,0.167,0.091
					c0.029,0.065,0.015,0.139-0.036,0.187c-0.131,0.124-0.256,0.258-0.367,0.401c-1.8,2.288-0.107,5.753,2.787,5.763
					c0.07,0.001,0.131,0.045,0.152,0.113c0.022,0.067-0.002,0.138-0.059,0.18c-0.636,0.458-1.405,0.709-2.191,0.709
					c-2.049,0-3.736-1.688-3.736-3.736C17.373,5.316,18.793,3.731,20.656,3.494"/>
			</g>
			<g>
				<path style="fill:#FFFFFF;" d="M10.881,17.135c-1.947,0-3.532-1.584-3.532-3.533c0-1.939,1.605-3.515,3.578-3.515
					c0.913,0,1.78,0.364,2.442,1.028c0.667,0.669,1.033,1.552,1.033,2.487c0.083-0.97-0.289-1.877-0.964-2.558
					c-0.422-0.409-0.913-0.705-1.445-0.872c-0.308-0.117-0.511-0.335-0.598-0.612c-0.087-0.326-0.005-0.651,0.208-0.876
					c0.958-1.065,2.335-1.683,3.77-1.683c1.995,0,3.81,1.183,4.626,3.012c0.096,0.188,0.113,0.437,0.031,0.67
					c-0.109,0.264-0.271,0.426-0.493,0.525c-0.405,0.185-0.778,0.452-1.073,0.773l0,0c0.006,0,0.073,0.053,0.078,0.053l0,0
					c0.583-0.631,1.402-0.994,2.246-0.994c0.128,0,0.257,0.008,0.385,0.025c1.516,0.177,2.668,1.475,2.668,3.016
					c0,1.683-1.364,3.053-3.043,3.053H10.881z"/>
				<path style="fill:#0071BC;" d="M10.846,17.662c-2.212,0-4.011-1.8-4.011-4.011c0-1.904,1.413-3.6,3.285-3.944
					c0.126-0.024,0.229-0.099,0.29-0.21c0.972-1.771,2.826-2.871,4.841-2.871c2.333,0,4.423,1.478,5.203,3.68
					c0.056,0.159,0.194,0.266,0.363,0.278c1.844,0.132,3.288,1.686,3.288,3.535c0,1.954-1.591,3.543-3.544,3.543H10.846z
					 M20.567,11.605L20.567,11.605c-0.713,0-1.394,0.3-1.87,0.823c-0.099,0.108-0.233,0.168-0.379,0.168
					c-0.129,0-0.251-0.048-0.346-0.134c-0.103-0.093-0.162-0.219-0.168-0.355c-0.006-0.136,0.041-0.268,0.133-0.369
					c0.335-0.367,0.75-0.667,1.205-0.866c0.104-0.047,0.179-0.125,0.221-0.231c0.041-0.107,0.037-0.214-0.009-0.321
					c-0.722-1.619-2.333-2.666-4.104-2.666c-1.279,0-2.502,0.548-3.355,1.502c-0.096,0.109-0.129,0.249-0.092,0.387
					c0.038,0.14,0.136,0.243,0.275,0.29c0.6,0.193,1.155,0.532,1.604,0.982c0.758,0.757,1.176,1.765,1.176,2.836
					c0,0.283-0.231,0.515-0.515,0.515c-0.284,0-0.516-0.231-0.516-0.515c0-0.797-0.311-1.546-0.874-2.109
					c-0.567-0.569-1.279-0.869-2.056-0.869c-1.459,0-3.034,1.138-3.034,2.978c0,1.645,1.337,2.982,2.982,2.982h9.714
					c1.386,0,2.514-1.128,2.514-2.515c0-1.27-0.949-2.343-2.208-2.496C20.768,11.611,20.666,11.605,20.567,11.605"/>
			</g>
		</g>
	</g>
</g>
</svg>
