<?xml version="1.0" encoding="iso-8859-1"?>
<!-- Generator: Adobe Illustrator 14.0.0, SVG Export Plug-In . SVG Version: 6.00 Build 43363)  -->
<!DOCTYPE svg PUBLIC "-//W3C//DTD SVG 1.1//EN" "http://www.w3.org/Graphics/SVG/1.1/DTD/svg11.dtd">
<svg version="1.1" id="Layer_1" xmlns="http://www.w3.org/2000/svg" xmlns:xlink="http://www.w3.org/1999/xlink" x="0px" y="0px"
	 width="32px" height="32px" viewBox="0 0 32 32" style="enable-background:new 0 0 32 32;" xml:space="preserve">
<g>
	<g>
		<rect style="fill-rule:evenodd;clip-rule:evenodd;fill:none;" width="32" height="31.999"/>
	</g>
	<g>
		<g>
			<path style="fill-rule:evenodd;clip-rule:evenodd;fill:#3FA9F5;" d="M12.936,23.839c0.189,0.279,0.486,0.45,0.822,0.474
				c0.652,0.051,1.194-0.489,1.175-1.145v-0.001l-0.025-1.673c-0.001-0.055-0.059-0.088-0.106-0.061l-1.459,0.814
				c-0.001,0-0.001,0-0.001,0C12.763,22.561,12.567,23.301,12.936,23.839"/>
			<g>
				<path style="fill:#3FA9F5;" d="M16.636,20.611c-0.369-0.541-0.173-1.278,0.405-1.591h0.001l1.46-0.815
					c0.047-0.027,0.105,0.008,0.107,0.062l0.023,1.67v0.002c0.018,0.656-0.523,1.195-1.175,1.146
					C17.123,21.059,16.825,20.889,16.636,20.611"/>
				<path style="fill:#3FA9F5;" d="M11.421,20.611c0.189,0.277,0.485,0.447,0.821,0.474c0.651,0.05,1.195-0.489,1.176-1.146v-0.002
					l-0.024-1.67c-0.001-0.055-0.06-0.09-0.107-0.062l-1.46,0.815h-0.001C11.247,19.333,11.053,20.07,11.421,20.611"/>
			</g>
		</g>
		<g>
			<g>
				<path style="fill-rule:evenodd;clip-rule:evenodd;fill:#002B73;" d="M22.563,3.682c0.384-0.086,0.415-0.633,0.044-0.762
					c-0.481-0.168-0.988-0.254-1.497-0.254c-2.486,0-4.534,2.048-4.534,4.535c0,2.486,2.048,4.533,4.534,4.533
					c1.665,0,3.212-0.928,3.999-2.397c0.201-0.342-0.186-0.746-0.539-0.549c-0.413,0.231-0.875,0.35-1.349,0.35
					c-2.271,0-3.584-2.683-2.176-4.474C21.428,4.178,21.961,3.83,22.563,3.682"/>
				<path style="fill-rule:evenodd;clip-rule:evenodd;fill:#FFFFFF;" d="M20.656,3.493c0.07-0.008,0.137,0.027,0.168,0.092
					c0.029,0.064,0.014,0.139-0.037,0.187c-0.131,0.124-0.255,0.258-0.366,0.4c-1.8,2.289-0.107,5.755,2.786,5.764
					c0.071,0.001,0.131,0.045,0.153,0.112c0.022,0.068-0.002,0.139-0.06,0.18c-0.635,0.458-1.404,0.709-2.19,0.709
					c-2.049,0-3.736-1.688-3.736-3.737C17.374,5.316,18.794,3.731,20.656,3.493"/>
			</g>
			<g>
				<path style="fill:#FFFFFF;" d="M10.882,17.135c-1.947,0-3.532-1.584-3.532-3.532c0-1.939,1.605-3.515,3.578-3.515
					c0.913,0,1.78,0.364,2.442,1.028c0.667,0.669,1.033,1.553,1.033,2.487c0.083-0.97-0.289-1.878-0.964-2.558
					c-0.422-0.409-0.913-0.706-1.445-0.872c-0.308-0.116-0.511-0.334-0.598-0.611c-0.087-0.326-0.005-0.651,0.208-0.876
					c0.958-1.066,2.335-1.684,3.77-1.684c1.995,0,3.811,1.184,4.626,3.013c0.097,0.188,0.113,0.436,0.032,0.67
					c-0.109,0.262-0.271,0.425-0.493,0.524c-0.406,0.184-0.779,0.452-1.073,0.774l0,0c0.005,0,0.073,0.053,0.077,0.053l0,0
					c0.584-0.632,1.402-0.994,2.246-0.994c0.129,0,0.258,0.008,0.385,0.024c1.517,0.178,2.669,1.475,2.669,3.017
					c0,1.682-1.364,3.052-3.043,3.052H10.882z"/>
				<path style="fill:#0071BC;" d="M10.847,17.662c-2.212,0-4.011-1.799-4.011-4.011c0-1.905,1.413-3.6,3.285-3.944
					c0.126-0.024,0.229-0.099,0.29-0.21c0.972-1.771,2.826-2.872,4.84-2.872c2.333,0,4.424,1.479,5.202,3.68
					c0.057,0.16,0.195,0.267,0.363,0.278c1.844,0.133,3.289,1.685,3.289,3.535c0,1.953-1.591,3.543-3.544,3.543H10.847z
					 M20.568,11.604L20.568,11.604c-0.713,0-1.395,0.3-1.871,0.823c-0.098,0.108-0.232,0.167-0.379,0.167
					c-0.128,0-0.25-0.047-0.346-0.133c-0.102-0.094-0.161-0.22-0.168-0.355c-0.006-0.137,0.041-0.268,0.134-0.369
					c0.335-0.366,0.75-0.667,1.204-0.866c0.104-0.046,0.18-0.125,0.221-0.231s0.037-0.215-0.008-0.32
					c-0.723-1.619-2.334-2.667-4.104-2.667c-1.279,0-2.502,0.548-3.355,1.502c-0.096,0.109-0.129,0.249-0.092,0.386
					c0.038,0.14,0.136,0.244,0.275,0.291c0.6,0.192,1.155,0.532,1.604,0.981c0.759,0.757,1.176,1.765,1.176,2.837
					c0,0.284-0.231,0.514-0.515,0.514c-0.284,0-0.516-0.23-0.516-0.514c0-0.798-0.311-1.547-0.874-2.109
					c-0.567-0.568-1.279-0.87-2.056-0.87c-1.459,0-3.034,1.14-3.034,2.979c0,1.644,1.337,2.981,2.982,2.981h9.715
					c1.386,0,2.514-1.128,2.514-2.514c0-1.27-0.949-2.343-2.208-2.496C20.768,11.611,20.666,11.604,20.568,11.604"/>
			</g>
		</g>
	</g>
</g>
</svg>
