<?xml version="1.0" encoding="iso-8859-1"?>
<!-- Generator: Adobe Illustrator 14.0.0, SVG Export Plug-In . SVG Version: 6.00 Build 43363)  -->
<!DOCTYPE svg PUBLIC "-//W3C//DTD SVG 1.1//EN" "http://www.w3.org/Graphics/SVG/1.1/DTD/svg11.dtd">
<svg version="1.1" id="Layer_1" xmlns="http://www.w3.org/2000/svg" xmlns:xlink="http://www.w3.org/1999/xlink" x="0px" y="0px"
	 width="32px" height="32px" viewBox="0 0 32 32" style="enable-background:new 0 0 32 32;" xml:space="preserve">
<g>
	<g>
		<rect style="fill:none;" width="32" height="32"/>
	</g>
	<g>
		<path style="fill:#3FA9F5;" d="M19.545,20.941h-0.637l-0.052-0.13l0.145-0.145c0.031-0.03,0.047-0.071,0.047-0.113
			c0-0.044-0.017-0.083-0.047-0.11c-0.06-0.062-0.165-0.061-0.226-0.002l-0.464,0.471l-0.06,0.029h-0.727l-0.068-0.118l0.35-0.61
			l0.05-0.043l0.661-0.178c0.041-0.011,0.074-0.037,0.096-0.073c0.021-0.038,0.027-0.081,0.018-0.122
			c-0.021-0.071-0.078-0.115-0.195-0.113l-0.199,0.053l-0.086-0.109l0.318-0.549c0.021-0.038,0.028-0.081,0.018-0.123
			c-0.01-0.039-0.039-0.075-0.076-0.098c-0.074-0.043-0.174-0.014-0.217,0.061l-0.319,0.548l-0.138-0.017l-0.052-0.2
			c-0.021-0.071-0.072-0.13-0.197-0.112c-0.084,0.023-0.134,0.11-0.112,0.195l0.174,0.635l-0.004,0.069l-0.365,0.629h-0.135
			l-0.357-0.608l-0.014-0.066l0.176-0.66c0.01-0.039,0.003-0.08-0.017-0.116c-0.025-0.041-0.069-0.067-0.137-0.083
			c-0.074,0-0.137,0.049-0.155,0.118l-0.053,0.198l-0.139,0.019l-0.319-0.548c-0.042-0.075-0.146-0.102-0.218-0.059
			c-0.035,0.021-0.063,0.055-0.074,0.096c-0.012,0.042-0.005,0.085,0.017,0.123l0.317,0.549l-0.084,0.109l-0.24-0.059
			c-0.073,0-0.136,0.05-0.154,0.119c-0.011,0.041-0.005,0.084,0.015,0.121c0.022,0.036,0.057,0.063,0.098,0.074l0.638,0.166
			l0.057,0.037l0.363,0.628L16.7,20.941l-0.705,0.004l-0.064-0.021l-0.481-0.482c-0.061-0.059-0.168-0.059-0.226,0
			c-0.03,0.029-0.048,0.07-0.048,0.112s0.018,0.083,0.048,0.114l0.145,0.144l-0.053,0.13h-0.634c-0.088,0-0.16,0.072-0.16,0.16
			c0,0.086,0.072,0.16,0.16,0.16h0.634l0.053,0.127l-0.145,0.146c-0.03,0.03-0.048,0.071-0.048,0.113s0.018,0.083,0.048,0.112
			c0.06,0.061,0.165,0.061,0.225,0l0.464-0.469l0.062-0.029H16.7l0.067,0.117l-0.349,0.609l-0.051,0.046l-0.659,0.176
			c-0.041,0.011-0.076,0.038-0.098,0.075c-0.021,0.037-0.026,0.078-0.015,0.121c0.019,0.069,0.093,0.119,0.194,0.112l0.2-0.052
			l0.084,0.107l-0.317,0.551c-0.022,0.037-0.028,0.08-0.017,0.123c0.01,0.04,0.036,0.073,0.074,0.096
			c0.072,0.041,0.176,0.016,0.218-0.06l0.319-0.548l0.139,0.018l0.053,0.199c0.019,0.072,0.071,0.133,0.194,0.113
			c0.086-0.022,0.137-0.111,0.115-0.194l-0.174-0.638l0.005-0.068l0.364-0.629h0.137l0.355,0.608l0.014,0.065l-0.176,0.658
			c-0.01,0.041-0.006,0.084,0.017,0.118c0.017,0.028,0.054,0.067,0.138,0.085c0.072,0,0.135-0.05,0.155-0.119l0.052-0.199
			l0.138-0.018l0.319,0.548c0.028,0.05,0.082,0.081,0.139,0.081c0.029,0,0.057-0.008,0.078-0.021
			c0.037-0.022,0.066-0.056,0.076-0.096c0.011-0.043,0.004-0.086-0.017-0.123l-0.319-0.551l0.086-0.11l0.24,0.06
			c0.072,0,0.134-0.049,0.154-0.117c0.01-0.043,0.004-0.084-0.018-0.121s-0.055-0.064-0.097-0.076l-0.639-0.166l-0.056-0.037
			l-0.365-0.627l0.068-0.117l0.703-0.006l0.064,0.023l0.482,0.48c0.061,0.061,0.166,0.061,0.226,0
			c0.029-0.029,0.047-0.07,0.047-0.112s-0.016-0.083-0.047-0.114l-0.145-0.145l0.052-0.127h0.637c0.088,0,0.158-0.074,0.158-0.16
			C19.703,21.014,19.633,20.941,19.545,20.941z"/>
		<g>
			<g>
				<path style="fill-rule:evenodd;clip-rule:evenodd;fill:#002B73;" d="M23.172,3.563c0.338-0.076,0.365-0.558,0.039-0.672
					c-0.426-0.148-0.873-0.224-1.321-0.224c-2.194,0-4.001,1.808-4.001,4.001s1.807,4,4.001,4c1.469,0,2.833-0.818,3.528-2.114
					c0.177-0.302-0.164-0.659-0.475-0.484c-0.365,0.204-0.773,0.308-1.191,0.308c-2.004,0-3.162-2.367-1.92-3.947
					C22.17,4,22.641,3.694,23.172,3.563"/>
				<path style="fill-rule:evenodd;clip-rule:evenodd;fill:#FFFFFF;" d="M21.488,3.397c0.062-0.007,0.121,0.024,0.148,0.08
					c0.025,0.057,0.012,0.124-0.033,0.165c-0.115,0.109-0.225,0.228-0.322,0.354c-1.588,2.02-0.095,5.077,2.459,5.085
					c0.062,0.001,0.115,0.04,0.135,0.099c0.019,0.061-0.002,0.123-0.053,0.159c-0.561,0.404-1.24,0.626-1.933,0.626
					c-1.809,0-3.297-1.49-3.297-3.298C18.593,5.005,19.845,3.607,21.488,3.397"/>
			</g>
			<g>
				<path style="fill:#FFFFFF;" d="M21.498,10.894c-0.27,0-0.533,0.03-0.787,0.09c0.193-0.125,0.333-0.315,0.395-0.543
					c0.088-0.313,0.012-0.635-0.207-0.885c-0.955-1.068-2.322-1.68-3.752-1.68c-0.062,0-0.123,0.012-0.185,0.014
					c-1.773-0.082-0.94-1.026-1.639-1.087c-0.37-1.234-1.579-2.14-3.018-2.14c-1.363,0-2.521,0.814-2.953,1.95
					C9.303,6.609,9.257,6.597,9.208,6.597c-1.298,0-2.35,1.052-2.35,2.35s1.052,2.35,2.35,2.35c0.012,0,0.024-0.003,0.036-0.003
					c0.085,0.011,0.169,0.027,0.256,0.027h2.979c0.007,0.091,0.024,0.182,0.058,0.272c0.066,0.165,0.171,0.302,0.307,0.406
					c-0.323-0.113-0.666-0.173-1.015-0.173c-0.121,0-0.241,0.007-0.365,0.022c-1.526,0.185-2.676,1.486-2.676,3.025
					c0,1.681,1.367,3.048,3.047,3.048h9.714c1.938,0,3.516-1.578,3.516-3.516C25.065,12.237,23.213,10.894,21.498,10.894z"/>
				<path style="fill:#0071BC;" d="M22.348,10.095c-0.081-0.015-0.145-0.061-0.184-0.133c-0.982-1.791-2.893-2.922-4.943-2.934
					c-0.757-0.004-1.349,0.175-1.349,0.188c0,0.008-0.165-0.425-0.189-0.494c-0.536-1.518-1.999-2.562-3.621-2.562
					c-1.398,0-2.699,0.778-3.368,1.998c-0.027,0.05-0.07,0.081-0.125,0.091C7.248,6.492,6.26,7.667,6.26,9.021
					c0,1.547,1.273,2.819,2.82,2.819h0.481c-0.791,0.676-1.296,1.677-1.296,2.791c0,2.02,1.653,3.674,3.674,3.674h9.658
					c2.271,0,4.141-1.869,4.141-4.14C25.738,12.177,24.289,10.452,22.348,10.095z M11.376,10.938H9.08
					c-1.051,0-1.917-0.866-1.917-1.917c0-1.643,2.051-2.579,3.274-1.356c0.347,0.347,0.562,0.827,0.562,1.356
					c0,0.594,0.901,0.594,0.901,0c0-1.239-0.804-2.313-1.952-2.684C9.822,6.297,9.78,6.143,9.868,6.045
					c1.607-1.802,4.625-0.882,5.112,1.454c0.009,0.039,0.009,0.025,0.002,0.002c-1.41,0.617-2.549,1.794-3.077,3.288
					c-0.037,0.102-0.124,0.168-0.231,0.176C11.626,10.97,11.433,10.938,11.376,10.938z M21.598,16.98h-9.658
					c-1.297,0-2.35-1.052-2.35-2.349c0-1.199,0.905-2.191,2.065-2.333c0.745-0.091,1.512,0.188,2.026,0.752
					c0.246,0.27,0.664,0.29,0.934,0.044c0.271-0.246,0.29-0.664,0.043-0.934c-0.347-0.382-0.774-0.689-1.246-0.896
					c-0.068-0.03-0.114-0.079-0.141-0.147c-0.026-0.068-0.024-0.136,0.005-0.204c0.687-1.54,2.239-2.561,3.945-2.561
					c1.235,0,2.41,0.533,3.223,1.443c0.061,0.069,0.082,0.157,0.058,0.246c-0.024,0.089-0.087,0.155-0.175,0.184
					c-0.631,0.203-1.197,0.555-1.654,1.014c-0.749,0.748-1.213,1.783-1.213,2.926c0,0.366,0.297,0.662,0.662,0.662
					c0.366,0,0.662-0.296,0.662-0.662c0-0.777,0.314-1.482,0.825-1.991c1.795-1.796,4.806-0.421,4.806,1.991
					C24.414,15.709,23.143,16.98,21.598,16.98z"/>
			</g>
		</g>
	</g>
</g>
</svg>
