<?xml version="1.0" encoding="iso-8859-1"?>
<!-- Generator: Adobe Illustrator 14.0.0, SVG Export Plug-In . SVG Version: 6.00 Build 43363)  -->
<!DOCTYPE svg PUBLIC "-//W3C//DTD SVG 1.1//EN" "http://www.w3.org/Graphics/SVG/1.1/DTD/svg11.dtd">
<svg version="1.1" id="Layer_1" xmlns="http://www.w3.org/2000/svg" xmlns:xlink="http://www.w3.org/1999/xlink" x="0px" y="0px"
	 width="32px" height="32px" viewBox="0 0 32 32" style="enable-background:new 0 0 32 32;" xml:space="preserve">
<g>
	<g>
		<rect style="fill-rule:evenodd;clip-rule:evenodd;fill:none;" width="32" height="32"/>
	</g>
	<g>
		<g>
			<path style="fill-rule:evenodd;clip-rule:evenodd;fill:#3FA9F5;" d="M14.537,24.481c0.189,0.278,0.486,0.45,0.822,0.474
				c0.652,0.051,1.194-0.489,1.175-1.145V23.81l-0.025-1.673c-0.001-0.055-0.06-0.088-0.106-0.061l-1.459,0.813
				c-0.001,0-0.001,0.001-0.001,0.001C14.364,23.202,14.167,23.943,14.537,24.481"/>
			<g>
				<path style="fill:#3FA9F5;" d="M18.236,21.252c-0.369-0.539-0.173-1.277,0.405-1.59h0.001l1.459-0.814
					c0.047-0.027,0.107,0.007,0.107,0.061l0.024,1.672v0.001c0.018,0.657-0.522,1.195-1.175,1.146
					C18.723,21.701,18.425,21.531,18.236,21.252"/>
				<path style="fill:#3FA9F5;" d="M13.022,21.252c0.189,0.279,0.485,0.449,0.821,0.475c0.651,0.05,1.195-0.488,1.176-1.146V20.58
					l-0.024-1.672c-0.001-0.054-0.06-0.088-0.107-0.061l-1.46,0.814h-0.001C12.847,19.975,12.653,20.713,13.022,21.252"/>
			</g>
		</g>
		<g>
			<g>
				<path style="fill-rule:evenodd;clip-rule:evenodd;fill:#002B73;" d="M23.173,3.563c0.337-0.076,0.366-0.558,0.038-0.672
					c-0.424-0.148-0.873-0.224-1.32-0.224c-2.195,0-4.001,1.808-4.001,4.001s1.806,4,4.001,4c1.469,0,2.834-0.818,3.528-2.114
					c0.177-0.302-0.163-0.659-0.476-0.484c-0.364,0.204-0.772,0.308-1.19,0.308c-2.004,0-3.162-2.367-1.919-3.947
					C22.171,4,22.642,3.694,23.173,3.563"/>
				<path style="fill-rule:evenodd;clip-rule:evenodd;fill:#FFFFFF;" d="M21.49,3.397c0.062-0.007,0.12,0.024,0.147,0.08
					c0.026,0.057,0.013,0.124-0.032,0.165c-0.115,0.109-0.225,0.228-0.323,0.354c-1.589,2.02-0.095,5.077,2.458,5.085
					c0.062,0.001,0.116,0.04,0.136,0.099c0.019,0.061-0.002,0.123-0.054,0.159c-0.56,0.404-1.238,0.626-1.932,0.626
					c-1.809,0-3.297-1.49-3.297-3.298C18.594,5.005,19.846,3.607,21.49,3.397"/>
			</g>
			<g>
				<path style="fill:#FFFFFF;" d="M21.499,10.894c-0.271,0-0.533,0.03-0.786,0.09c0.192-0.125,0.332-0.315,0.394-0.543
					c0.087-0.313,0.013-0.635-0.208-0.885c-0.953-1.068-2.321-1.68-3.752-1.68c-0.062,0-0.121,0.012-0.184,0.014
					c-1.773-0.082-0.941-1.026-1.639-1.087c-0.37-1.234-1.579-2.14-3.018-2.14c-1.363,0-2.521,0.814-2.953,1.95
					C9.304,6.609,9.258,6.597,9.208,6.597c-1.298,0-2.35,1.052-2.35,2.35s1.052,2.35,2.35,2.35c0.012,0,0.024-0.003,0.036-0.003
					c0.085,0.011,0.169,0.027,0.256,0.027h2.978c0.008,0.091,0.024,0.182,0.059,0.272c0.066,0.165,0.171,0.302,0.307,0.406
					c-0.323-0.113-0.666-0.173-1.015-0.173c-0.121,0-0.241,0.007-0.364,0.022c-1.526,0.185-2.676,1.486-2.676,3.025
					c0,1.681,1.367,3.048,3.047,3.048h9.714c1.939,0,3.516-1.578,3.516-3.516C25.066,12.237,23.215,10.894,21.499,10.894z"/>
				<path style="fill:#0071BC;" d="M22.35,10.095c-0.082-0.015-0.146-0.061-0.184-0.133c-0.984-1.791-2.893-2.922-4.944-2.934
					c-0.757-0.004-1.349,0.175-1.349,0.188c0,0.008-0.166-0.425-0.19-0.494c-0.536-1.518-1.999-2.562-3.621-2.562
					c-1.398,0-2.699,0.778-3.368,1.998c-0.027,0.05-0.07,0.081-0.125,0.091C7.248,6.492,6.26,7.667,6.26,9.021
					c0,1.547,1.273,2.819,2.82,2.819h0.481c-0.791,0.676-1.295,1.677-1.295,2.791c0,2.02,1.653,3.674,3.674,3.674H21.6
					c2.27,0,4.141-1.869,4.141-4.14C25.74,12.177,24.289,10.452,22.35,10.095z M11.376,10.938H9.08
					c-1.051,0-1.917-0.866-1.917-1.917c0-1.643,2.051-2.579,3.274-1.356c0.347,0.347,0.562,0.827,0.562,1.356
					c0,0.594,0.901,0.594,0.901,0c0-1.239-0.804-2.313-1.952-2.684C9.822,6.297,9.78,6.143,9.868,6.045
					c1.607-1.802,4.626-0.882,5.114,1.454c0.008,0.039,0.008,0.025,0.002,0.002c-1.41,0.617-2.549,1.794-3.077,3.288
					c-0.037,0.102-0.124,0.168-0.231,0.176C11.626,10.97,11.433,10.938,11.376,10.938z M21.6,16.98H11.94
					c-1.297,0-2.35-1.052-2.35-2.349c0-1.199,0.905-2.191,2.064-2.333c0.745-0.091,1.512,0.188,2.026,0.752
					c0.246,0.27,0.664,0.29,0.934,0.044c0.271-0.246,0.29-0.664,0.043-0.934c-0.347-0.382-0.774-0.689-1.246-0.896
					c-0.068-0.03-0.114-0.079-0.141-0.147c-0.026-0.068-0.024-0.136,0.005-0.204c0.687-1.54,2.239-2.561,3.945-2.561
					c1.235,0,2.409,0.533,3.222,1.443c0.062,0.069,0.082,0.157,0.059,0.246c-0.023,0.089-0.086,0.155-0.175,0.184
					c-0.632,0.203-1.196,0.555-1.654,1.014c-0.749,0.748-1.212,1.783-1.212,2.926c0,0.366,0.297,0.662,0.661,0.662
					c0.366,0,0.662-0.296,0.662-0.662c0-0.777,0.315-1.482,0.825-1.991c1.795-1.796,4.805-0.421,4.805,1.991
					C24.414,15.709,23.144,16.98,21.6,16.98z"/>
			</g>
		</g>
	</g>
</g>
</svg>
