<?xml version="1.0" encoding="iso-8859-1"?>
<!-- Generator: Adobe Illustrator 14.0.0, SVG Export Plug-In . SVG Version: 6.00 Build 43363)  -->
<!DOCTYPE svg PUBLIC "-//W3C//DTD SVG 1.1//EN" "http://www.w3.org/Graphics/SVG/1.1/DTD/svg11.dtd">
<svg version="1.1" id="Layer_1" xmlns="http://www.w3.org/2000/svg" xmlns:xlink="http://www.w3.org/1999/xlink" x="0px" y="0px"
	 width="32px" height="32px" viewBox="0 0 32 32" style="enable-background:new 0 0 32 32;" xml:space="preserve">
<g>
	<g>
		<rect style="fill:none;" width="32" height="32"/>
	</g>
	<g>
		<g>
			<path style="fill-rule:evenodd;clip-rule:evenodd;fill:#002B5A;" d="M23.264,6.46c-0.1-0.172-0.324-0.239-0.499-0.141
				c-0.219,0.123-0.471,0.187-0.728,0.187c-0.568,0-1.078-0.325-1.333-0.848c-0.253-0.521-0.193-1.122,0.157-1.568
				c0.205-0.262,0.497-0.45,0.816-0.53c0.16-0.035,0.273-0.169,0.283-0.333c0.012-0.166-0.086-0.315-0.241-0.371
				C21.422,2.752,21.11,2.7,20.795,2.7c-1.545,0-2.801,1.256-2.801,2.801c0,1.544,1.256,2.799,2.801,2.799
				c1.033,0,1.98-0.566,2.468-1.475C23.329,6.71,23.329,6.574,23.264,6.46z"/>
			<path style="fill-rule:evenodd;clip-rule:evenodd;fill:#FFFFFF;" d="M20.527,3.32c0.041-0.005,0.081,0.016,0.099,0.053
				c0.018,0.039,0.009,0.083-0.021,0.11c-0.078,0.073-0.151,0.152-0.216,0.236c-1.06,1.346-0.063,3.384,1.639,3.39
				c0.042,0.001,0.077,0.026,0.091,0.065c0.012,0.042-0.002,0.083-0.035,0.107C21.709,7.55,21.256,7.7,20.795,7.7
				c-1.205,0-2.198-0.994-2.198-2.199C18.597,4.393,19.432,3.461,20.527,3.32"/>
		</g>
		<g>
			<path style="fill:#E6E6E6;" d="M21.499,9.896c-0.271,0-0.533,0.03-0.786,0.09c0.192-0.125,0.332-0.315,0.394-0.543
				c0.087-0.313,0.013-0.635-0.208-0.886c-0.953-1.067-2.321-1.68-3.752-1.68c-0.062,0-0.122,0.012-0.184,0.014
				c-1.773-0.081-0.941-1.026-1.639-1.087c-0.37-1.234-1.579-2.14-3.018-2.14c-1.364,0-2.521,0.814-2.953,1.951
				C9.304,5.611,9.258,5.6,9.208,5.6c-1.298,0-2.35,1.052-2.35,2.35c0,1.298,1.052,2.35,2.35,2.35c0.013,0,0.024-0.003,0.037-0.003
				c0.085,0.011,0.168,0.027,0.256,0.027h2.979c0.007,0.091,0.024,0.183,0.058,0.272c0.066,0.165,0.171,0.302,0.307,0.406
				c-0.323-0.113-0.666-0.173-1.015-0.173c-0.121,0-0.241,0.007-0.364,0.022c-1.526,0.186-2.676,1.486-2.676,3.025
				c0,1.681,1.367,3.048,3.047,3.048h9.714c1.939,0,3.516-1.577,3.516-3.516C25.066,11.239,23.215,9.896,21.499,9.896z"/>
			<path style="fill:#002B73;" d="M22.35,9.097c-0.082-0.014-0.146-0.06-0.184-0.133c-0.984-1.791-2.893-2.922-4.944-2.934
				c-0.757-0.004-1.349,0.175-1.349,0.188c0,0.008-0.166-0.425-0.189-0.494c-0.537-1.519-1.999-2.562-3.621-2.562
				c-1.398,0-2.699,0.778-3.368,1.998C8.668,5.21,8.625,5.241,8.57,5.251C7.248,5.494,6.261,6.669,6.261,8.023
				c0,1.547,1.273,2.819,2.82,2.819h0.481c-0.791,0.676-1.295,1.677-1.295,2.791c0,2.021,1.653,3.674,3.674,3.674H21.6
				c2.27,0,4.141-1.869,4.141-4.14C25.74,11.179,24.289,9.454,22.35,9.097z M11.376,9.94H9.081c-1.051,0-1.918-0.865-1.918-1.917
				c0-1.643,2.051-2.579,3.274-1.356c0.347,0.347,0.562,0.827,0.562,1.356c0,0.594,0.901,0.594,0.901,0
				c0-1.239-0.804-2.313-1.952-2.684C9.822,5.299,9.78,5.145,9.868,5.047c1.607-1.802,4.625-0.882,5.113,1.454
				c0.008,0.039,0.008,0.025,0.002,0.003c-1.41,0.616-2.549,1.794-3.077,3.288c-0.037,0.102-0.124,0.168-0.231,0.176
				C11.626,9.972,11.434,9.94,11.376,9.94z M21.6,15.982H11.94c-1.297,0-2.35-1.053-2.35-2.35c0-1.199,0.905-2.191,2.064-2.333
				c0.745-0.091,1.512,0.188,2.026,0.752c0.246,0.27,0.664,0.29,0.934,0.043c0.271-0.246,0.29-0.664,0.043-0.934
				c-0.347-0.382-0.774-0.688-1.246-0.896c-0.068-0.03-0.114-0.079-0.141-0.147c-0.026-0.068-0.024-0.136,0.005-0.204
				c0.687-1.54,2.239-2.561,3.945-2.561c1.235,0,2.409,0.533,3.222,1.443c0.062,0.069,0.082,0.157,0.059,0.246
				c-0.023,0.089-0.086,0.154-0.175,0.183c-0.632,0.203-1.196,0.555-1.654,1.014c-0.749,0.749-1.212,1.783-1.212,2.926
				c0,0.366,0.297,0.662,0.661,0.662c0.366,0,0.662-0.296,0.662-0.662c0-0.777,0.315-1.482,0.825-1.99
				c1.795-1.796,4.805-0.421,4.805,1.99C24.414,14.711,23.144,15.982,21.6,15.982z"/>
		</g>
	</g>
</g>
</svg>
