<?xml version="1.0" encoding="iso-8859-1"?>
<!-- Generator: Adobe Illustrator 14.0.0, SVG Export Plug-In . SVG Version: 6.00 Build 43363)  -->
<!DOCTYPE svg PUBLIC "-//W3C//DTD SVG 1.1//EN" "http://www.w3.org/Graphics/SVG/1.1/DTD/svg11.dtd">
<svg version="1.1" id="Layer_1" xmlns="http://www.w3.org/2000/svg" xmlns:xlink="http://www.w3.org/1999/xlink" x="0px" y="0px"
	 width="32px" height="32px" viewBox="0 0 32 32" style="enable-background:new 0 0 32 32;" xml:space="preserve">
<g>
	<g>
		<rect style="fill:none;" width="32" height="32"/>
	</g>
	<g>
		<path style="fill:#3FA9F5;" d="M19.4,19.91h-0.637l-0.053-0.129l0.146-0.145c0.03-0.03,0.046-0.072,0.046-0.113
			c0-0.044-0.017-0.084-0.046-0.111c-0.061-0.062-0.166-0.061-0.227-0.001l-0.464,0.47l-0.06,0.029h-0.727l-0.068-0.117l0.35-0.611
			l0.05-0.043l0.661-0.178c0.041-0.01,0.074-0.037,0.096-0.072c0.021-0.038,0.027-0.081,0.017-0.123
			c-0.019-0.07-0.078-0.115-0.194-0.113l-0.199,0.054l-0.085-0.11l0.317-0.549c0.021-0.037,0.027-0.08,0.018-0.122
			c-0.011-0.04-0.038-0.075-0.076-0.098c-0.075-0.043-0.174-0.015-0.218,0.061l-0.319,0.548l-0.137-0.017l-0.053-0.2
			c-0.019-0.072-0.071-0.131-0.195-0.113c-0.086,0.024-0.135,0.111-0.113,0.195l0.174,0.635l-0.004,0.07l-0.365,0.629H16.9
			l-0.357-0.609l-0.013-0.066l0.176-0.659c0.011-0.04,0.004-0.08-0.017-0.116c-0.025-0.041-0.069-0.068-0.136-0.084
			c-0.074,0-0.138,0.049-0.155,0.119l-0.053,0.197l-0.138,0.02l-0.318-0.548c-0.043-0.075-0.146-0.102-0.218-0.06
			c-0.036,0.021-0.064,0.055-0.075,0.097c-0.011,0.042-0.005,0.085,0.017,0.122l0.318,0.549l-0.084,0.11l-0.24-0.06
			c-0.072,0-0.136,0.051-0.154,0.119c-0.012,0.042-0.005,0.085,0.015,0.121c0.021,0.037,0.057,0.064,0.097,0.074l0.639,0.166
			l0.056,0.037l0.364,0.629l-0.067,0.117l-0.704,0.005l-0.065-0.022l-0.481-0.481c-0.061-0.06-0.168-0.06-0.227,0
			c-0.03,0.028-0.047,0.069-0.047,0.112c0,0.041,0.017,0.083,0.047,0.114l0.145,0.144l-0.053,0.129h-0.634
			c-0.088,0-0.161,0.072-0.161,0.16c0,0.087,0.072,0.16,0.161,0.16h0.634l0.053,0.127l-0.145,0.146
			c-0.03,0.029-0.047,0.07-0.047,0.113c0,0.041,0.017,0.082,0.047,0.111c0.061,0.061,0.165,0.061,0.226,0l0.463-0.469l0.062-0.029
			h0.726l0.068,0.118l-0.349,0.609l-0.051,0.046l-0.66,0.176c-0.041,0.01-0.076,0.037-0.097,0.074
			c-0.021,0.037-0.027,0.078-0.015,0.122c0.019,0.069,0.093,0.119,0.194,0.112l0.199-0.053l0.084,0.108l-0.318,0.551
			c-0.022,0.036-0.028,0.079-0.017,0.122c0.01,0.041,0.037,0.074,0.075,0.096c0.071,0.041,0.175,0.016,0.218-0.059l0.318-0.549
			l0.138,0.018l0.053,0.2c0.019,0.071,0.071,0.132,0.194,0.112c0.086-0.021,0.136-0.11,0.114-0.193l-0.174-0.639l0.005-0.067
			l0.363-0.629h0.137l0.355,0.608l0.014,0.064l-0.176,0.659c-0.011,0.04-0.005,0.083,0.017,0.118
			c0.017,0.027,0.053,0.066,0.138,0.084c0.071,0,0.136-0.049,0.154-0.119l0.053-0.199l0.137-0.018l0.32,0.549
			c0.028,0.049,0.082,0.08,0.139,0.08c0.029,0,0.057-0.007,0.078-0.021c0.038-0.021,0.065-0.055,0.076-0.096
			c0.01-0.043,0.004-0.086-0.016-0.122l-0.319-0.551l0.085-0.11l0.239,0.06c0.073,0,0.136-0.05,0.154-0.118
			c0.011-0.043,0.005-0.084-0.017-0.121s-0.055-0.064-0.097-0.076l-0.638-0.165l-0.057-0.037l-0.365-0.627l0.068-0.118l0.703-0.006
			l0.064,0.023l0.483,0.48c0.06,0.061,0.165,0.061,0.226,0c0.028-0.029,0.046-0.07,0.046-0.111c0-0.043-0.016-0.084-0.046-0.114
			l-0.146-0.146l0.053-0.127H19.4c0.087,0,0.158-0.073,0.158-0.16C19.559,19.982,19.487,19.91,19.4,19.91z"/>
		<g>
			<g>
				<path style="fill-rule:evenodd;clip-rule:evenodd;fill:#002B5A;" d="M23.264,6.427c-0.1-0.172-0.324-0.239-0.499-0.141
					c-0.22,0.122-0.471,0.187-0.728,0.187c-0.568,0-1.08-0.325-1.334-0.848c-0.253-0.521-0.193-1.123,0.158-1.569
					c0.205-0.261,0.496-0.45,0.816-0.53c0.158-0.035,0.273-0.168,0.283-0.333c0.011-0.166-0.086-0.315-0.242-0.372
					c-0.298-0.103-0.609-0.156-0.924-0.156c-1.545,0-2.801,1.257-2.801,2.801c0,1.543,1.256,2.799,2.801,2.799
					c1.033,0,1.979-0.566,2.468-1.476C23.328,6.677,23.329,6.541,23.264,6.427z"/>
				<path style="fill-rule:evenodd;clip-rule:evenodd;fill:#FFFFFF;" d="M20.527,3.287c0.041-0.005,0.08,0.016,0.099,0.052
					c0.017,0.039,0.008,0.083-0.021,0.11c-0.077,0.073-0.15,0.152-0.216,0.236c-1.06,1.346-0.062,3.384,1.639,3.39
					c0.041,0.001,0.078,0.026,0.09,0.065c0.014,0.042,0,0.083-0.034,0.107c-0.374,0.269-0.827,0.417-1.288,0.417
					c-1.205,0-2.198-0.993-2.198-2.198C18.597,4.36,19.432,3.428,20.527,3.287"/>
			</g>
			<g>
				<path style="fill:#E6E6E6;" d="M21.498,9.863c-0.27,0-0.533,0.03-0.786,0.09c0.192-0.125,0.333-0.315,0.394-0.543
					c0.088-0.313,0.013-0.635-0.207-0.885c-0.954-1.068-2.322-1.68-3.752-1.68c-0.062,0-0.123,0.012-0.185,0.014
					c-1.773-0.082-0.941-1.026-1.639-1.087c-0.37-1.234-1.579-2.14-3.018-2.14c-1.363,0-2.521,0.814-2.953,1.95
					C9.303,5.578,9.257,5.566,9.208,5.566c-1.298,0-2.35,1.052-2.35,2.35s1.052,2.35,2.35,2.35c0.012,0,0.024-0.003,0.036-0.003
					C9.329,10.273,9.413,10.29,9.5,10.29h2.979c0.007,0.091,0.024,0.182,0.058,0.272c0.066,0.165,0.171,0.302,0.307,0.406
					c-0.323-0.113-0.666-0.173-1.015-0.173c-0.121,0-0.241,0.007-0.364,0.022c-1.526,0.185-2.676,1.486-2.676,3.025
					c0,1.681,1.367,3.048,3.047,3.048h9.715c1.938,0,3.516-1.577,3.516-3.516C25.066,11.206,23.214,9.863,21.498,9.863z"/>
				<path style="fill:#002B73;" d="M22.349,9.064c-0.081-0.015-0.146-0.061-0.184-0.133c-0.983-1.791-2.893-2.922-4.944-2.934
					c-0.757-0.004-1.348,0.175-1.348,0.188c0,0.008-0.165-0.425-0.189-0.494c-0.536-1.518-1.999-2.562-3.621-2.562
					c-1.398,0-2.699,0.778-3.368,1.998c-0.027,0.05-0.07,0.081-0.125,0.091C7.248,5.461,6.26,6.635,6.26,7.99
					c0,1.547,1.273,2.819,2.82,2.819h0.481c-0.791,0.676-1.295,1.677-1.295,2.791c0,2.02,1.653,3.674,3.674,3.674h9.659
					c2.271,0,4.141-1.869,4.141-4.14C25.739,11.146,24.289,9.42,22.349,9.064z M11.376,9.907H9.08c-1.051,0-1.917-0.866-1.917-1.917
					c0-1.643,2.051-2.579,3.274-1.356c0.347,0.347,0.562,0.827,0.562,1.356c0,0.594,0.901,0.594,0.901,0
					c0-1.239-0.804-2.313-1.952-2.684C9.822,5.266,9.78,5.111,9.868,5.014c1.607-1.802,4.625-0.882,5.113,1.454
					c0.008,0.039,0.008,0.025,0.002,0.002c-1.41,0.617-2.55,1.794-3.077,3.288c-0.037,0.102-0.124,0.168-0.231,0.176
					C11.626,9.938,11.433,9.907,11.376,9.907z M21.599,15.949H11.94c-1.297,0-2.35-1.052-2.35-2.349
					c0-1.199,0.905-2.191,2.064-2.333c0.745-0.091,1.512,0.188,2.026,0.752c0.246,0.27,0.664,0.29,0.934,0.044
					c0.271-0.246,0.29-0.664,0.043-0.934c-0.347-0.382-0.774-0.689-1.246-0.896c-0.068-0.03-0.114-0.079-0.141-0.147
					c-0.026-0.068-0.024-0.136,0.005-0.204c0.687-1.54,2.239-2.561,3.944-2.561c1.236,0,2.41,0.533,3.223,1.443
					c0.062,0.069,0.082,0.157,0.059,0.246c-0.024,0.089-0.087,0.155-0.176,0.184c-0.631,0.203-1.196,0.555-1.654,1.014
					c-0.748,0.748-1.212,1.783-1.212,2.926c0,0.366,0.297,0.662,0.661,0.662c0.367,0,0.662-0.296,0.662-0.662
					c0-0.777,0.315-1.482,0.826-1.991c1.795-1.796,4.805-0.421,4.805,1.991C24.414,14.678,23.143,15.949,21.599,15.949z"/>
			</g>
		</g>
	</g>
</g>
</svg>
