<?xml version="1.0" encoding="iso-8859-1"?>
<!-- Generator: Adobe Illustrator 14.0.0, SVG Export Plug-In . SVG Version: 6.00 Build 43363)  -->
<!DOCTYPE svg PUBLIC "-//W3C//DTD SVG 1.1//EN" "http://www.w3.org/Graphics/SVG/1.1/DTD/svg11.dtd">
<svg version="1.1" id="Layer_1" xmlns="http://www.w3.org/2000/svg" xmlns:xlink="http://www.w3.org/1999/xlink" x="0px" y="0px"
	 width="32px" height="32px" viewBox="0 0 32 32" style="enable-background:new 0 0 32 32;" xml:space="preserve">
<g>
	<g>
		<rect style="fill:none;" width="32" height="32"/>
	</g>
	<g>
		<g>
			<g>
				<circle style="fill:#E6E6E6;" cx="14.749" cy="19.912" r="1.707"/>
				<path style="fill:#808080;" d="M14.749,22.02c-1.162,0-2.106-0.945-2.106-2.107c0-1.16,0.945-2.105,2.106-2.105
					c1.162,0,2.107,0.945,2.107,2.105C16.856,21.074,15.911,22.02,14.749,22.02L14.749,22.02z M14.749,18.607
					c-0.72,0-1.306,0.586-1.306,1.305c0,0.721,0.586,1.307,1.306,1.307c0.721,0,1.307-0.586,1.307-1.307
					C16.056,19.193,15.469,18.607,14.749,18.607L14.749,18.607z"/>
			</g>
			<g>
				<circle style="fill:#E6E6E6;" cx="19.87" cy="20.533" r="1.707"/>
				<path style="fill:#808080;" d="M19.869,22.641c-1.161,0-2.105-0.945-2.105-2.107c0-1.16,0.944-2.105,2.105-2.105
					c1.162,0,2.106,0.945,2.106,2.105C21.976,21.695,21.031,22.641,19.869,22.641L19.869,22.641z M19.869,19.228
					c-0.721,0-1.307,0.586-1.307,1.306c0,0.721,0.586,1.307,1.307,1.307s1.307-0.586,1.307-1.307
					C21.176,19.813,20.59,19.228,19.869,19.228L19.869,19.228z"/>
			</g>
			<g>
				<circle style="fill:#E6E6E6;" cx="16.869" cy="23.928" r="1.066"/>
				<path style="fill:#808080;" d="M16.869,25.393c-0.808,0-1.466-0.656-1.466-1.465s0.658-1.467,1.466-1.467
					c0.81,0,1.467,0.658,1.467,1.467S17.679,25.393,16.869,25.393L16.869,25.393z M16.869,23.261c-0.368,0-0.667,0.3-0.667,0.667
					s0.299,0.666,0.667,0.666c0.367,0,0.667-0.299,0.667-0.666S17.236,23.261,16.869,23.261L16.869,23.261z"/>
			</g>
		</g>
		<g>
			<g>
				<path style="fill-rule:evenodd;clip-rule:evenodd;fill:#002B5A;" d="M23.358,6.427c-0.099-0.172-0.323-0.239-0.499-0.141
					c-0.219,0.122-0.471,0.187-0.728,0.187c-0.568,0-1.079-0.325-1.333-0.848c-0.254-0.521-0.193-1.123,0.157-1.569
					c0.206-0.261,0.497-0.45,0.817-0.53c0.158-0.035,0.273-0.168,0.283-0.333c0.011-0.166-0.086-0.315-0.242-0.372
					c-0.299-0.103-0.609-0.156-0.924-0.156c-1.545,0-2.802,1.257-2.802,2.801c0,1.543,1.257,2.799,2.802,2.799
					c1.033,0,1.979-0.566,2.467-1.476C23.424,6.677,23.424,6.541,23.358,6.427z"/>
				<path style="fill-rule:evenodd;clip-rule:evenodd;fill:#FFFFFF;" d="M20.623,3.287c0.041-0.005,0.08,0.016,0.098,0.052
					c0.018,0.039,0.008,0.083-0.021,0.11c-0.077,0.073-0.151,0.152-0.216,0.236c-1.061,1.346-0.062,3.384,1.639,3.39
					c0.041,0.001,0.078,0.026,0.09,0.065c0.014,0.042-0.001,0.083-0.035,0.107c-0.373,0.269-0.826,0.417-1.287,0.417
					c-1.205,0-2.198-0.993-2.198-2.198C18.692,4.36,19.526,3.428,20.623,3.287"/>
			</g>
			<g>
				<path style="fill:#E6E6E6;" d="M21.594,9.863c-0.27,0-0.533,0.03-0.787,0.09C21,9.828,21.14,9.638,21.201,9.41
					c0.088-0.313,0.012-0.635-0.207-0.885c-0.955-1.068-2.322-1.68-3.752-1.68c-0.062,0-0.123,0.012-0.186,0.014
					c-1.772-0.082-0.94-1.026-1.638-1.087c-0.37-1.234-1.58-2.14-3.018-2.14c-1.363,0-2.521,0.814-2.953,1.95
					C9.398,5.578,9.353,5.566,9.303,5.566c-1.298,0-2.35,1.052-2.35,2.35s1.052,2.35,2.35,2.35c0.012,0,0.024-0.003,0.036-0.003
					c0.085,0.011,0.169,0.027,0.256,0.027h2.979c0.007,0.091,0.024,0.182,0.058,0.272c0.066,0.165,0.171,0.302,0.307,0.406
					c-0.323-0.113-0.666-0.173-1.015-0.173c-0.121,0-0.24,0.007-0.364,0.022c-1.526,0.185-2.676,1.486-2.676,3.025
					c0,1.681,1.367,3.048,3.047,3.048h9.715c1.938,0,3.516-1.577,3.516-3.516C25.162,11.206,23.31,9.863,21.594,9.863z"/>
				<path style="fill:#002B73;" d="M22.443,9.064c-0.081-0.015-0.145-0.061-0.184-0.133c-0.982-1.791-2.893-2.922-4.943-2.934
					c-0.757-0.004-1.349,0.175-1.349,0.188c0,0.008-0.165-0.425-0.189-0.494c-0.537-1.518-1.999-2.562-3.621-2.562
					c-1.398,0-2.699,0.778-3.368,1.998c-0.027,0.05-0.07,0.081-0.125,0.091C7.343,5.461,6.356,6.635,6.356,7.99
					c0,1.547,1.272,2.819,2.819,2.819h0.481c-0.791,0.676-1.295,1.677-1.295,2.791c0,2.02,1.653,3.674,3.674,3.674h9.658
					c2.271,0,4.141-1.869,4.141-4.14C25.834,11.146,24.385,9.42,22.443,9.064z M11.471,9.907H9.175
					c-1.051,0-1.917-0.866-1.917-1.917c0-1.643,2.051-2.579,3.274-1.356c0.347,0.347,0.562,0.827,0.562,1.356
					c0,0.594,0.901,0.594,0.901,0c0-1.239-0.804-2.313-1.952-2.684c-0.125-0.04-0.167-0.194-0.079-0.292
					c1.607-1.802,4.625-0.882,5.113,1.454c0.008,0.039,0.008,0.025,0.002,0.002c-1.41,0.617-2.549,1.794-3.077,3.288
					c-0.037,0.102-0.124,0.168-0.231,0.176C11.721,9.938,11.529,9.907,11.471,9.907z M21.693,15.949h-9.658
					c-1.297,0-2.35-1.052-2.35-2.349c0-1.199,0.905-2.191,2.064-2.333c0.745-0.091,1.513,0.188,2.026,0.752
					c0.246,0.27,0.664,0.29,0.934,0.044c0.271-0.246,0.29-0.664,0.043-0.934c-0.347-0.382-0.774-0.689-1.246-0.896
					c-0.068-0.03-0.114-0.079-0.141-0.147c-0.026-0.068-0.024-0.136,0.005-0.204c0.686-1.54,2.238-2.561,3.944-2.561
					c1.236,0,2.41,0.533,3.223,1.443c0.061,0.069,0.082,0.157,0.058,0.246C20.572,9.1,20.51,9.165,20.422,9.194
					c-0.631,0.203-1.197,0.555-1.654,1.014c-0.749,0.748-1.213,1.783-1.213,2.926c0,0.366,0.297,0.662,0.662,0.662
					c0.367,0,0.662-0.296,0.662-0.662c0-0.777,0.314-1.482,0.825-1.991c1.795-1.796,4.806-0.421,4.806,1.991
					C24.51,14.678,23.238,15.949,21.693,15.949z"/>
			</g>
		</g>
	</g>
</g>
</svg>
