<?xml version="1.0" encoding="iso-8859-1"?>
<!-- Generator: Adobe Illustrator 14.0.0, SVG Export Plug-In . SVG Version: 6.00 Build 43363)  -->
<!DOCTYPE svg PUBLIC "-//W3C//DTD SVG 1.1//EN" "http://www.w3.org/Graphics/SVG/1.1/DTD/svg11.dtd">
<svg version="1.1" id="Layer_1" xmlns="http://www.w3.org/2000/svg" xmlns:xlink="http://www.w3.org/1999/xlink" x="0px" y="0px"
	 width="32px" height="32px" viewBox="0 0 32 32" style="enable-background:new 0 0 32 32;" xml:space="preserve">
<g>
	<g>
		<rect style="fill:none;" width="32" height="32"/>
	</g>
	<g>
		<path style="fill:#999999;" d="M23.158,18.945H10.315c-0.629,0-1.138-0.239-1.138-0.533c0-0.295,0.509-0.534,1.138-0.534h12.843
			c0.629,0,1.138,0.239,1.138,0.534C24.296,18.706,23.787,18.945,23.158,18.945L23.158,18.945z"/>
		<g>
			<path style="fill:#999999;" d="M23.158,21.347H10.315c-0.629,0-1.138-0.238-1.138-0.533s0.509-0.533,1.138-0.533h12.843
				c0.629,0,1.138,0.238,1.138,0.533S23.787,21.347,23.158,21.347L23.158,21.347z"/>
		</g>
	</g>
	<g>
		<path style="fill:#E6E6E6;" d="M21.499,9.401c-0.271,0-0.533,0.03-0.786,0.09c0.192-0.125,0.332-0.314,0.394-0.543
			c0.087-0.313,0.013-0.635-0.208-0.885c-0.953-1.068-2.321-1.68-3.752-1.68c-0.062,0-0.123,0.011-0.184,0.014
			c-1.773-0.082-0.941-1.026-1.639-1.088c-0.37-1.234-1.579-2.141-3.018-2.141c-1.363,0-2.521,0.815-2.953,1.951
			C9.304,5.116,9.258,5.104,9.208,5.104c-1.298,0-2.35,1.052-2.35,2.35s1.052,2.35,2.35,2.35C9.22,9.804,9.232,9.8,9.244,9.8
			C9.33,9.812,9.413,9.828,9.5,9.828h2.979c0.007,0.091,0.024,0.182,0.059,0.272c0.066,0.165,0.171,0.302,0.307,0.406
			c-0.323-0.114-0.666-0.173-1.015-0.173c-0.121,0-0.241,0.007-0.364,0.021C9.939,10.541,8.79,11.841,8.79,13.38
			c0,1.68,1.367,3.048,3.047,3.048h9.714c1.939,0,3.516-1.577,3.516-3.516C25.066,10.744,23.215,9.401,21.499,9.401z"/>
		<path style="fill:#002B73;" d="M22.35,8.602c-0.082-0.015-0.146-0.061-0.184-0.133c-0.984-1.791-2.893-2.922-4.944-2.933
			c-0.757-0.004-1.349,0.175-1.349,0.188c0,0.008-0.166-0.425-0.19-0.494c-0.536-1.519-1.999-2.562-3.621-2.562
			c-1.398,0-2.699,0.778-3.368,1.998c-0.027,0.05-0.07,0.081-0.125,0.091C7.248,4.999,6.26,6.173,6.26,7.527
			c0,1.548,1.273,2.82,2.82,2.82h0.481c-0.791,0.676-1.295,1.677-1.295,2.791c0,2.02,1.653,3.674,3.674,3.674H21.6
			c2.27,0,4.141-1.869,4.141-4.14C25.74,10.683,24.289,8.958,22.35,8.602z M11.376,9.445H9.08c-1.051,0-1.917-0.866-1.917-1.918
			c0-1.643,2.051-2.578,3.274-1.355c0.347,0.347,0.562,0.826,0.562,1.355c0,0.595,0.901,0.595,0.901,0
			c0-1.238-0.804-2.313-1.952-2.683C9.822,4.803,9.78,4.649,9.868,4.552c1.607-1.802,4.626-0.882,5.114,1.454
			c0.007,0.039,0.008,0.025,0.002,0.002c-1.41,0.617-2.55,1.795-3.077,3.289c-0.037,0.101-0.124,0.167-0.231,0.176
			C11.626,9.476,11.433,9.445,11.376,9.445z M21.6,15.486H11.94c-1.297,0-2.35-1.052-2.35-2.349c0-1.199,0.905-2.192,2.064-2.333
			c0.745-0.092,1.512,0.188,2.026,0.752c0.246,0.27,0.664,0.29,0.934,0.044c0.271-0.246,0.29-0.664,0.043-0.935
			c-0.347-0.381-0.774-0.688-1.246-0.896c-0.068-0.029-0.114-0.078-0.141-0.147c-0.026-0.068-0.024-0.137,0.005-0.203
			c0.687-1.541,2.239-2.562,3.945-2.562c1.235,0,2.409,0.533,3.222,1.443c0.062,0.068,0.082,0.157,0.059,0.246
			c-0.023,0.09-0.086,0.155-0.175,0.184c-0.632,0.203-1.196,0.555-1.654,1.013c-0.749,0.749-1.212,1.784-1.212,2.927
			c0,0.366,0.297,0.662,0.661,0.662c0.366,0,0.662-0.296,0.662-0.662c0-0.777,0.315-1.482,0.825-1.991
			c1.795-1.796,4.805-0.422,4.805,1.991C24.414,14.216,23.144,15.486,21.6,15.486z"/>
	</g>
</g>
</svg>
