<?xml version="1.0" encoding="iso-8859-1"?>
<!-- Generator: Adobe Illustrator 14.0.0, SVG Export Plug-In . SVG Version: 6.00 Build 43363)  -->
<!DOCTYPE svg PUBLIC "-//W3C//DTD SVG 1.1//EN" "http://www.w3.org/Graphics/SVG/1.1/DTD/svg11.dtd">
<svg version="1.1" id="Layer_1" xmlns="http://www.w3.org/2000/svg" xmlns:xlink="http://www.w3.org/1999/xlink" x="0px" y="0px"
	 width="32px" height="32px" viewBox="0 0 32 32" style="enable-background:new 0 0 32 32;" xml:space="preserve">
<g>
	<g>
		<rect style="fill:none;" width="32" height="32"/>
	</g>
	<g>
		<path style="fill-rule:evenodd;clip-rule:evenodd;fill:#3FA9F5;" d="M8.594,21.549c0.356-0.186,0.468-0.643,0.246-0.978l0,0
			l-0.552-0.869c-0.019-0.028-0.06-0.027-0.076,0.002l-0.5,0.899l0,0c-0.205,0.348-0.069,0.799,0.299,0.961
			C8.197,21.646,8.409,21.643,8.594,21.549"/>
		<g>
			<path style="fill-rule:evenodd;clip-rule:evenodd;fill:#3FA9F5;" d="M11.726,19.588c0.426-0.229,0.555-0.779,0.283-1.183
				l-0.001-0.001l-0.678-1.036c-0.021-0.035-0.07-0.031-0.089,0.005l-0.592,1.085l0,0c-0.238,0.426-0.071,0.964,0.375,1.157
				C11.251,19.713,11.507,19.705,11.726,19.588"/>
			<path style="fill-rule:evenodd;clip-rule:evenodd;fill:#3FA9F5;" d="M17.668,19.588c0.426-0.229,0.553-0.779,0.282-1.183
				l-0.001-0.001l-0.676-1.036c-0.023-0.035-0.07-0.031-0.092,0.005l-0.592,1.085l0,0c-0.237,0.426-0.069,0.964,0.376,1.157
				C17.191,19.713,17.447,19.705,17.668,19.588"/>
			<path style="fill-rule:evenodd;clip-rule:evenodd;fill:#3FA9F5;" d="M23.547,19.588c0.428-0.229,0.555-0.779,0.282-1.183
				l-0.001-0.001l-0.678-1.036c-0.02-0.035-0.068-0.031-0.09,0.005l-0.592,1.085l0,0c-0.237,0.426-0.068,0.964,0.378,1.157
				C23.072,19.713,23.326,19.705,23.547,19.588"/>
		</g>
		<path style="fill-rule:evenodd;clip-rule:evenodd;fill:#3FA9F5;" d="M14.404,21.549c0.357-0.186,0.468-0.643,0.245-0.978l0,0
			l-0.552-0.869c-0.018-0.028-0.06-0.027-0.077,0.002l-0.5,0.899l0,0c-0.205,0.348-0.067,0.799,0.3,0.961
			C14.006,21.646,14.22,21.643,14.404,21.549"/>
		<path style="fill-rule:evenodd;clip-rule:evenodd;fill:#3FA9F5;" d="M20.313,21.549c0.357-0.186,0.468-0.643,0.247-0.978l0,0
			l-0.553-0.869c-0.02-0.028-0.059-0.027-0.078,0.002l-0.5,0.899l0,0c-0.205,0.348-0.066,0.799,0.302,0.961
			C19.918,21.646,20.129,21.643,20.313,21.549"/>
	</g>
	<g>
		<path style="fill:#E6E6E6;" d="M21.499,9.4c-0.271,0-0.533,0.03-0.786,0.09c0.192-0.125,0.332-0.315,0.394-0.543
			c0.087-0.313,0.013-0.635-0.208-0.885c-0.953-1.068-2.321-1.68-3.752-1.68c-0.062,0-0.123,0.011-0.184,0.014
			c-1.773-0.082-0.941-1.026-1.639-1.088c-0.37-1.234-1.579-2.14-3.018-2.14c-1.363,0-2.521,0.815-2.953,1.951
			C9.304,5.115,9.258,5.104,9.208,5.104c-1.298,0-2.35,1.052-2.35,2.35s1.052,2.35,2.35,2.35C9.22,9.804,9.232,9.8,9.244,9.8
			C9.33,9.811,9.413,9.828,9.5,9.828h2.979c0.007,0.091,0.024,0.182,0.059,0.272c0.066,0.165,0.171,0.302,0.307,0.406
			c-0.323-0.113-0.666-0.173-1.015-0.173c-0.121,0-0.241,0.007-0.364,0.021C9.939,10.54,8.79,11.841,8.79,13.38
			c0,1.681,1.367,3.048,3.047,3.048h9.714c1.939,0,3.516-1.577,3.516-3.516C25.066,10.743,23.215,9.4,21.499,9.4z"/>
		<path style="fill:#002B73;" d="M22.35,8.602c-0.082-0.015-0.146-0.061-0.184-0.133c-0.984-1.791-2.893-2.922-4.944-2.934
			c-0.757-0.004-1.349,0.176-1.349,0.188c0,0.009-0.166-0.425-0.19-0.494c-0.536-1.518-1.999-2.562-3.621-2.562
			c-1.398,0-2.699,0.778-3.368,1.998C8.667,4.714,8.625,4.745,8.57,4.755C7.248,4.999,6.26,6.173,6.26,7.527
			c0,1.548,1.273,2.819,2.82,2.819h0.481c-0.791,0.676-1.295,1.677-1.295,2.791c0,2.02,1.653,3.674,3.674,3.674H21.6
			c2.27,0,4.141-1.869,4.141-4.14C25.74,10.683,24.289,8.958,22.35,8.602z M11.376,9.445H9.08c-1.051,0-1.917-0.866-1.917-1.918
			c0-1.643,2.051-2.579,3.274-1.355c0.347,0.347,0.562,0.827,0.562,1.355c0,0.595,0.901,0.595,0.901,0
			c0-1.238-0.804-2.313-1.952-2.684C9.822,4.803,9.78,4.649,9.868,4.552c1.607-1.802,4.626-0.882,5.114,1.454
			c0.007,0.039,0.008,0.025,0.002,0.002c-1.41,0.617-2.55,1.794-3.077,3.288c-0.037,0.102-0.124,0.168-0.231,0.176
			C11.626,9.476,11.433,9.445,11.376,9.445z M21.6,15.486H11.94c-1.297,0-2.35-1.052-2.35-2.349c0-1.199,0.905-2.191,2.064-2.333
			c0.745-0.091,1.512,0.188,2.026,0.752c0.246,0.27,0.664,0.29,0.934,0.044c0.271-0.246,0.29-0.664,0.043-0.934
			c-0.347-0.382-0.774-0.688-1.246-0.896c-0.068-0.03-0.114-0.079-0.141-0.147c-0.026-0.068-0.024-0.137,0.005-0.204
			c0.687-1.54,2.239-2.561,3.945-2.561c1.235,0,2.409,0.533,3.222,1.443c0.062,0.068,0.082,0.157,0.059,0.246
			c-0.023,0.089-0.086,0.155-0.175,0.184c-0.632,0.203-1.196,0.555-1.654,1.013c-0.749,0.749-1.212,1.784-1.212,2.927
			c0,0.366,0.297,0.662,0.661,0.662c0.366,0,0.662-0.296,0.662-0.662c0-0.777,0.315-1.482,0.825-1.991
			c1.795-1.796,4.805-0.421,4.805,1.991C24.414,14.216,23.144,15.486,21.6,15.486z"/>
	</g>
</g>
</svg>
