<?xml version="1.0" encoding="iso-8859-1"?>
<!-- Generator: Adobe Illustrator 14.0.0, SVG Export Plug-In . SVG Version: 6.00 Build 43363)  -->
<!DOCTYPE svg PUBLIC "-//W3C//DTD SVG 1.1//EN" "http://www.w3.org/Graphics/SVG/1.1/DTD/svg11.dtd">
<svg version="1.1" id="Layer_1" xmlns="http://www.w3.org/2000/svg" xmlns:xlink="http://www.w3.org/1999/xlink" x="0px" y="0px"
	 width="32px" height="32px" viewBox="0 0 32 32" style="enable-background:new 0 0 32 32;" xml:space="preserve">
<g>
	<g>
		<rect style="fill:none;" width="32" height="32"/>
	</g>
	<g>
		<g>
			<path style="fill:#E6E6E6;" d="M21.499,9.4c-0.271,0-0.533,0.03-0.786,0.09c0.192-0.125,0.332-0.315,0.394-0.543
				c0.087-0.313,0.013-0.635-0.208-0.885c-0.953-1.068-2.321-1.68-3.752-1.68c-0.062,0-0.123,0.011-0.184,0.014
				c-1.773-0.082-0.941-1.026-1.639-1.088c-0.37-1.234-1.579-2.14-3.018-2.14c-1.363,0-2.521,0.815-2.953,1.951
				C9.304,5.115,9.258,5.104,9.208,5.104c-1.298,0-2.35,1.052-2.35,2.35s1.052,2.35,2.35,2.35C9.22,9.804,9.232,9.8,9.244,9.8
				C9.33,9.811,9.413,9.828,9.5,9.828h2.979c0.007,0.091,0.024,0.182,0.059,0.272c0.066,0.165,0.171,0.302,0.307,0.406
				c-0.323-0.113-0.666-0.173-1.015-0.173c-0.121,0-0.241,0.007-0.364,0.021C9.939,10.54,8.79,11.841,8.79,13.38
				c0,1.681,1.367,3.048,3.047,3.048h9.714c1.939,0,3.516-1.577,3.516-3.516C25.066,10.743,23.215,9.4,21.499,9.4z"/>
			<path style="fill:#002B73;" d="M22.35,8.602c-0.082-0.015-0.146-0.061-0.184-0.133c-0.984-1.791-2.893-2.922-4.944-2.934
				c-0.757-0.004-1.349,0.176-1.349,0.188c0,0.009-0.166-0.425-0.19-0.494c-0.536-1.518-1.999-2.562-3.621-2.562
				c-1.398,0-2.699,0.778-3.368,1.998C8.667,4.714,8.625,4.745,8.57,4.755C7.248,4.999,6.26,6.173,6.26,7.527
				c0,1.548,1.273,2.819,2.82,2.819h0.481c-0.791,0.676-1.295,1.677-1.295,2.791c0,2.02,1.653,3.674,3.674,3.674H21.6
				c2.27,0,4.141-1.869,4.141-4.14C25.74,10.683,24.289,8.958,22.35,8.602z M11.376,9.445H9.08c-1.051,0-1.917-0.866-1.917-1.918
				c0-1.643,2.051-2.579,3.274-1.355c0.347,0.347,0.562,0.827,0.562,1.355c0,0.595,0.901,0.595,0.901,0
				c0-1.238-0.804-2.313-1.952-2.684C9.822,4.803,9.78,4.649,9.868,4.552c1.607-1.802,4.626-0.882,5.114,1.454
				c0.007,0.039,0.008,0.025,0.002,0.002c-1.41,0.617-2.55,1.794-3.077,3.288c-0.037,0.102-0.124,0.168-0.231,0.176
				C11.626,9.476,11.433,9.445,11.376,9.445z M21.6,15.486H11.94c-1.297,0-2.35-1.052-2.35-2.349c0-1.199,0.905-2.191,2.064-2.333
				c0.745-0.091,1.512,0.188,2.026,0.752c0.246,0.27,0.664,0.29,0.934,0.044c0.271-0.246,0.29-0.664,0.043-0.934
				c-0.347-0.382-0.774-0.688-1.246-0.896c-0.068-0.03-0.114-0.079-0.141-0.147c-0.026-0.068-0.024-0.137,0.005-0.204
				c0.687-1.54,2.239-2.561,3.945-2.561c1.235,0,2.409,0.533,3.222,1.443c0.062,0.068,0.082,0.157,0.059,0.246
				c-0.023,0.089-0.086,0.155-0.175,0.184c-0.632,0.203-1.196,0.555-1.654,1.013c-0.749,0.749-1.212,1.784-1.212,2.927
				c0,0.366,0.297,0.662,0.661,0.662c0.366,0,0.662-0.296,0.662-0.662c0-0.777,0.315-1.482,0.825-1.991
				c1.795-1.796,4.805-0.421,4.805,1.991C24.414,14.216,23.144,15.486,21.6,15.486z"/>
		</g>
		<path style="fill:#3FA9F5;" d="M19.688,19.447h-0.636L19,19.317l0.146-0.145c0.029-0.03,0.047-0.071,0.047-0.113
			c0-0.044-0.018-0.083-0.047-0.11c-0.061-0.063-0.166-0.061-0.227-0.002l-0.464,0.47l-0.06,0.03H17.67l-0.068-0.118l0.349-0.61
			l0.051-0.044l0.661-0.177c0.04-0.012,0.074-0.037,0.096-0.074c0.022-0.037,0.027-0.08,0.016-0.121
			c-0.018-0.071-0.076-0.115-0.194-0.113l-0.198,0.053l-0.085-0.109l0.317-0.549c0.021-0.038,0.028-0.082,0.018-0.123
			c-0.011-0.039-0.038-0.076-0.076-0.098c-0.076-0.043-0.174-0.014-0.218,0.061l-0.318,0.547l-0.138-0.016l-0.053-0.2
			c-0.019-0.072-0.07-0.13-0.195-0.112c-0.086,0.023-0.136,0.109-0.113,0.195l0.174,0.635l-0.004,0.068l-0.365,0.63h-0.136
			l-0.357-0.608l-0.013-0.066l0.175-0.66c0.01-0.039,0.004-0.08-0.016-0.116c-0.024-0.041-0.068-0.068-0.136-0.083
			c-0.074,0-0.137,0.049-0.156,0.118l-0.053,0.198l-0.138,0.018l-0.318-0.547c-0.044-0.075-0.147-0.102-0.218-0.059
			c-0.037,0.02-0.063,0.055-0.074,0.096c-0.011,0.041-0.006,0.085,0.016,0.123l0.318,0.549l-0.084,0.109l-0.239-0.059
			c-0.073,0-0.137,0.05-0.155,0.119c-0.011,0.041-0.005,0.084,0.016,0.121c0.021,0.036,0.056,0.062,0.097,0.074l0.639,0.166
			l0.057,0.037l0.364,0.628l-0.068,0.118l-0.703,0.004l-0.064-0.021l-0.481-0.482c-0.061-0.059-0.167-0.059-0.227,0
			c-0.03,0.029-0.047,0.07-0.047,0.112s0.017,0.083,0.047,0.114l0.146,0.144l-0.053,0.13h-0.634c-0.089,0-0.161,0.071-0.161,0.16
			c0,0.086,0.072,0.16,0.161,0.16h0.634l0.053,0.127l-0.146,0.146c-0.031,0.03-0.047,0.071-0.047,0.113s0.017,0.083,0.047,0.112
			c0.06,0.061,0.165,0.061,0.226,0l0.463-0.469l0.061-0.029h0.726l0.068,0.117l-0.349,0.609l-0.05,0.046l-0.661,0.176
			c-0.041,0.011-0.076,0.037-0.097,0.075c-0.021,0.037-0.026,0.078-0.016,0.121c0.02,0.069,0.094,0.119,0.195,0.112l0.2-0.053
			l0.084,0.108L15.9,21.631c-0.022,0.037-0.027,0.08-0.016,0.122c0.011,0.041,0.037,0.074,0.074,0.097
			c0.071,0.041,0.176,0.016,0.218-0.06l0.318-0.548l0.138,0.018l0.053,0.199c0.019,0.072,0.071,0.133,0.195,0.113
			c0.085-0.023,0.135-0.111,0.113-0.195L16.82,20.74l0.005-0.068l0.363-0.629h0.137l0.356,0.607l0.014,0.066l-0.176,0.658
			c-0.011,0.041-0.005,0.084,0.016,0.118c0.018,0.028,0.053,0.067,0.139,0.085c0.072,0,0.136-0.05,0.154-0.119l0.053-0.199
			l0.138-0.018l0.319,0.548c0.028,0.05,0.082,0.081,0.139,0.081c0.029,0,0.057-0.008,0.078-0.021
			c0.038-0.022,0.065-0.056,0.076-0.097c0.011-0.042,0.004-0.085-0.016-0.122l-0.319-0.551l0.085-0.11l0.239,0.06
			c0.073,0,0.136-0.049,0.153-0.117c0.012-0.043,0.007-0.084-0.016-0.121c-0.021-0.038-0.056-0.064-0.097-0.076l-0.638-0.166
			l-0.057-0.037l-0.365-0.627l0.068-0.117l0.703-0.007l0.064,0.023l0.483,0.481c0.061,0.061,0.165,0.061,0.226,0
			c0.028-0.029,0.047-0.07,0.047-0.112s-0.018-0.083-0.047-0.114L19,19.895l0.053-0.127h0.636c0.088,0,0.159-0.074,0.159-0.16
			C19.848,19.519,19.776,19.447,19.688,19.447z"/>
	</g>
</g>
</svg>
