<?xml version="1.0" encoding="iso-8859-1"?>
<!-- Generator: Adobe Illustrator 14.0.0, SVG Export Plug-In . SVG Version: 6.00 Build 43363)  -->
<!DOCTYPE svg PUBLIC "-//W3C//DTD SVG 1.1//EN" "http://www.w3.org/Graphics/SVG/1.1/DTD/svg11.dtd">
<svg version="1.1" id="Layer_1" xmlns="http://www.w3.org/2000/svg" xmlns:xlink="http://www.w3.org/1999/xlink" x="0px" y="0px"
	 width="32px" height="32px" viewBox="0 0 32 32" style="enable-background:new 0 0 32 32;" xml:space="preserve">
<g>
	<g>
		<rect style="fill:none;" width="32" height="32"/>
	</g>
	<g>
		<path style="fill:#E6E6E6;" d="M21.773,6.87c-1.05,0-2.01,0.405-2.773,1.17c-0.76,0.754-1.18,1.763-1.18,2.838
			c0,0.158-0.127,0.285-0.283,0.285c-0.16,0-0.286-0.125-0.286-0.285c0-1.223,0.478-2.375,1.343-3.242
			c0.516-0.516,1.15-0.904,1.825-1.122c0.284-0.085,0.499-0.31,0.577-0.603C21.068,5.627,21,5.338,20.807,5.118
			c-1.116-1.245-2.714-1.959-4.384-1.959c-2.318,0-4.424,1.368-5.362,3.477c-0.097,0.209-0.105,0.444-0.02,0.67
			c0.084,0.215,0.241,0.378,0.456,0.473c0.513,0.226,0.984,0.564,1.361,0.978c0.105,0.117,0.098,0.297-0.02,0.403
			c-0.068,0.062-0.142,0.075-0.192,0.075c-0.046,0-0.136-0.013-0.208-0.092c-0.743-0.819-1.87-1.237-2.963-1.103
			c-1.723,0.209-3.022,1.676-3.022,3.413c0,1.897,1.542,3.439,3.438,3.439h11.945c2.213,0,4.014-1.8,4.014-4.014
			C25.85,8.667,24.021,6.87,21.773,6.87z"/>
		<path style="fill:#002B73;" d="M22.199,6.225c-0.092-0.018-0.166-0.072-0.211-0.155c-1.141-2.077-3.355-3.403-5.735-3.403
			c-2.763,0-5.253,1.778-6.167,4.363c-0.041,0.117-0.141,0.195-0.265,0.206c-2.207,0.157-3.954,2.012-3.954,4.247
			c0,2.345,1.917,4.263,4.261,4.263H21.33c2.633,0,4.803-2.168,4.803-4.802C26.133,8.638,24.451,6.638,22.199,6.225 M21.33,14.208
			H10.127c-1.504,0-2.724-1.222-2.724-2.726c0-1.39,1.05-2.541,2.395-2.703c0.862-0.107,1.753,0.216,2.348,0.873
			c0.286,0.314,0.77,0.335,1.083,0.049c0.313-0.285,0.336-0.768,0.053-1.083c-0.405-0.444-0.9-0.8-1.446-1.04
			c-0.077-0.034-0.132-0.088-0.164-0.168c-0.029-0.08-0.028-0.159,0.008-0.237c0.795-1.788,2.596-2.97,4.574-2.97
			c1.432,0,2.795,0.618,3.739,1.671c0.07,0.08,0.092,0.182,0.065,0.288c-0.026,0.103-0.1,0.179-0.201,0.21
			c-0.731,0.235-1.388,0.645-1.92,1.177c-0.869,0.87-1.406,2.067-1.406,3.394c0,0.425,0.343,0.768,0.769,0.768
			c0.422,0,0.766-0.343,0.766-0.768c0-0.901,0.367-1.72,0.959-2.308c2.082-2.084,5.572-0.489,5.572,2.308
			C24.596,12.735,23.123,14.208,21.33,14.208"/>
	</g>
</g>
</svg>
