<?xml version="1.0" encoding="iso-8859-1"?>
<!-- Generator: Adobe Illustrator 14.0.0, SVG Export Plug-In . SVG Version: 6.00 Build 43363)  -->
<!DOCTYPE svg PUBLIC "-//W3C//DTD SVG 1.1//EN" "http://www.w3.org/Graphics/SVG/1.1/DTD/svg11.dtd">
<svg version="1.1" id="Layer_1" xmlns="http://www.w3.org/2000/svg" xmlns:xlink="http://www.w3.org/1999/xlink" x="0px" y="0px"
	 width="32px" height="32px" viewBox="0 0 32 32" style="enable-background:new 0 0 32 32;" xml:space="preserve">
<g>
	<g>
		<rect style="fill:none;" width="32" height="32"/>
	</g>
	<g>
		<path style="fill:#999999;" d="M22.422,17.885H9.579c-0.629,0-1.139-0.238-1.139-0.533s0.51-0.533,1.139-0.533h12.843
			c0.629,0,1.138,0.238,1.138,0.533S23.051,17.885,22.422,17.885L22.422,17.885z"/>
		<g>
			<path style="fill:#999999;" d="M22.422,20.287H9.579c-0.629,0-1.139-0.239-1.139-0.533c0-0.295,0.51-0.533,1.139-0.533h12.843
				c0.629,0,1.138,0.238,1.138,0.533C23.56,20.048,23.051,20.287,22.422,20.287L22.422,20.287z"/>
		</g>
	</g>
	<g>
		<path style="fill:#E6E6E6;" d="M21.773,6.875c-1.05,0-2.01,0.405-2.773,1.17c-0.76,0.754-1.18,1.763-1.18,2.839
			c0,0.157-0.127,0.285-0.283,0.285c-0.16,0-0.286-0.125-0.286-0.285c0-1.223,0.478-2.375,1.343-3.242
			c0.516-0.516,1.15-0.904,1.824-1.122c0.285-0.086,0.5-0.31,0.578-0.604c0.072-0.284,0.004-0.572-0.19-0.793
			c-1.116-1.246-2.713-1.959-4.383-1.959c-2.318,0-4.424,1.368-5.362,3.477c-0.097,0.209-0.105,0.444-0.021,0.67
			c0.084,0.214,0.242,0.377,0.457,0.473c0.513,0.226,0.984,0.565,1.361,0.979c0.105,0.116,0.097,0.297-0.02,0.402
			c-0.068,0.062-0.142,0.075-0.192,0.075c-0.046,0-0.136-0.012-0.208-0.092c-0.743-0.819-1.87-1.237-2.963-1.103
			c-1.723,0.209-3.022,1.676-3.022,3.413c0,1.896,1.542,3.439,3.438,3.439h11.945c2.213,0,4.014-1.801,4.014-4.014
			C25.85,8.673,24.021,6.875,21.773,6.875z"/>
		<path style="fill:#002B73;" d="M22.199,6.23c-0.092-0.017-0.166-0.071-0.211-0.155c-1.141-2.077-3.355-3.403-5.735-3.403
			c-2.763,0-5.253,1.778-6.167,4.362c-0.041,0.117-0.141,0.195-0.265,0.207c-2.207,0.158-3.954,2.012-3.954,4.247
			c0,2.345,1.917,4.264,4.261,4.264H21.33c2.633,0,4.803-2.168,4.803-4.802C26.133,8.643,24.451,6.643,22.199,6.23 M21.33,14.213
			H10.127c-1.504,0-2.724-1.221-2.724-2.726c0-1.39,1.05-2.541,2.395-2.704c0.862-0.107,1.753,0.217,2.348,0.873
			c0.286,0.313,0.77,0.336,1.083,0.049c0.313-0.284,0.336-0.768,0.053-1.082c-0.405-0.444-0.9-0.8-1.446-1.04
			c-0.077-0.035-0.132-0.089-0.164-0.169c-0.029-0.079-0.028-0.158,0.008-0.236c0.795-1.788,2.596-2.97,4.574-2.97
			c1.432,0,2.795,0.618,3.739,1.671c0.07,0.08,0.092,0.182,0.065,0.288c-0.026,0.103-0.1,0.179-0.201,0.209
			c-0.731,0.236-1.388,0.646-1.92,1.177c-0.869,0.87-1.406,2.067-1.406,3.395c0,0.425,0.343,0.767,0.769,0.767
			c0.422,0,0.766-0.342,0.766-0.767c0-0.901,0.367-1.721,0.959-2.308c2.082-2.084,5.572-0.49,5.572,2.308
			C24.596,12.741,23.123,14.213,21.33,14.213"/>
	</g>
</g>
</svg>
