<?xml version="1.0" encoding="iso-8859-1"?>
<!-- Generator: Adobe Illustrator 14.0.0, SVG Export Plug-In . SVG Version: 6.00 Build 43363)  -->
<!DOCTYPE svg PUBLIC "-//W3C//DTD SVG 1.1//EN" "http://www.w3.org/Graphics/SVG/1.1/DTD/svg11.dtd">
<svg version="1.1" id="Layer_1" xmlns="http://www.w3.org/2000/svg" xmlns:xlink="http://www.w3.org/1999/xlink" x="0px" y="0px"
	 width="32px" height="32px" viewBox="0 0 32 32" style="enable-background:new 0 0 32 32;" xml:space="preserve">
<g>
	<g>
		<rect style="fill:none;" width="32" height="32"/>
	</g>
	<g>
		<path style="fill-rule:evenodd;clip-rule:evenodd;fill:#3FA9F5;" d="M7.733,20.484c0.356-0.187,0.468-0.643,0.246-0.979l0,0
			l-0.552-0.869c-0.019-0.027-0.06-0.027-0.076,0.002l-0.5,0.899l0,0c-0.205,0.348-0.069,0.799,0.299,0.961
			C7.336,20.582,7.549,20.578,7.733,20.484"/>
		<g>
			<path style="fill-rule:evenodd;clip-rule:evenodd;fill:#3FA9F5;" d="M10.866,18.522c0.426-0.228,0.555-0.778,0.283-1.183
				l-0.001-0.001l-0.678-1.036c-0.021-0.036-0.07-0.031-0.089,0.004l-0.592,1.085l0,0c-0.239,0.426-0.071,0.965,0.375,1.157
				C10.391,18.647,10.647,18.64,10.866,18.522"/>
			<path style="fill-rule:evenodd;clip-rule:evenodd;fill:#3FA9F5;" d="M16.807,18.522c0.426-0.228,0.553-0.778,0.283-1.183
				l-0.002-0.001l-0.675-1.036c-0.023-0.036-0.07-0.031-0.092,0.004l-0.592,1.085l0,0c-0.237,0.426-0.07,0.965,0.376,1.157
				C16.331,18.647,16.586,18.64,16.807,18.522"/>
			<path style="fill-rule:evenodd;clip-rule:evenodd;fill:#3FA9F5;" d="M22.687,18.522c0.427-0.228,0.554-0.778,0.282-1.183
				l-0.001-0.001l-0.677-1.036c-0.021-0.036-0.069-0.031-0.091,0.004l-0.592,1.085l0,0c-0.237,0.426-0.069,0.965,0.378,1.157
				C22.211,18.647,22.466,18.64,22.687,18.522"/>
		</g>
		<path style="fill-rule:evenodd;clip-rule:evenodd;fill:#3FA9F5;" d="M13.544,20.484c0.357-0.187,0.467-0.643,0.245-0.979l0,0
			l-0.552-0.869c-0.018-0.027-0.06-0.027-0.077,0.002l-0.5,0.899l0,0c-0.204,0.348-0.066,0.799,0.3,0.961
			C13.146,20.582,13.359,20.578,13.544,20.484"/>
		<path style="fill-rule:evenodd;clip-rule:evenodd;fill:#3FA9F5;" d="M19.453,20.484c0.357-0.187,0.468-0.643,0.247-0.979l0,0
			l-0.554-0.869c-0.019-0.027-0.059-0.027-0.078,0.002l-0.498,0.899l0,0c-0.205,0.348-0.067,0.799,0.301,0.961
			C19.057,20.582,19.269,20.578,19.453,20.484"/>
	</g>
	<g>
		<path style="fill:#E6E6E6;" d="M21.773,6.869c-1.05,0-2.01,0.405-2.773,1.17c-0.76,0.755-1.18,1.763-1.18,2.839
			c0,0.157-0.127,0.285-0.283,0.285c-0.16,0-0.286-0.125-0.286-0.285c0-1.223,0.478-2.375,1.343-3.242
			c0.516-0.516,1.15-0.904,1.824-1.122c0.285-0.086,0.5-0.31,0.578-0.604c0.072-0.285,0.004-0.573-0.19-0.793
			c-1.116-1.245-2.713-1.959-4.383-1.959c-2.318,0-4.424,1.368-5.362,3.477c-0.097,0.209-0.105,0.444-0.021,0.67
			c0.084,0.214,0.242,0.377,0.457,0.473c0.513,0.226,0.984,0.564,1.361,0.978c0.105,0.117,0.097,0.297-0.02,0.402
			c-0.068,0.062-0.142,0.075-0.192,0.075c-0.046,0-0.136-0.012-0.208-0.092c-0.743-0.819-1.87-1.237-2.963-1.103
			c-1.723,0.209-3.022,1.676-3.022,3.413c0,1.896,1.542,3.439,3.438,3.439h11.945c2.213,0,4.014-1.8,4.014-4.014
			C25.85,8.667,24.021,6.869,21.773,6.869z"/>
		<path style="fill:#002B73;" d="M22.199,6.225c-0.092-0.017-0.166-0.071-0.211-0.155c-1.141-2.077-3.355-3.403-5.735-3.403
			c-2.763,0-5.253,1.778-6.167,4.362c-0.041,0.117-0.141,0.195-0.265,0.206c-2.207,0.158-3.954,2.012-3.954,4.248
			c0,2.345,1.917,4.263,4.261,4.263H21.33c2.633,0,4.803-2.168,4.803-4.802C26.133,8.638,24.451,6.638,22.199,6.225 M21.33,14.208
			H10.127c-1.504,0-2.724-1.222-2.724-2.726c0-1.39,1.05-2.541,2.395-2.704c0.862-0.107,1.753,0.217,2.348,0.873
			c0.286,0.314,0.77,0.336,1.083,0.049c0.313-0.284,0.336-0.768,0.053-1.082c-0.405-0.444-0.9-0.8-1.446-1.04
			c-0.077-0.034-0.132-0.088-0.164-0.169c-0.029-0.079-0.028-0.158,0.008-0.236c0.795-1.788,2.596-2.97,4.574-2.97
			c1.432,0,2.795,0.618,3.739,1.671c0.07,0.08,0.092,0.182,0.065,0.288c-0.026,0.103-0.1,0.179-0.201,0.21
			c-0.731,0.236-1.388,0.645-1.92,1.177c-0.869,0.871-1.406,2.067-1.406,3.395c0,0.425,0.343,0.767,0.769,0.767
			c0.422,0,0.766-0.342,0.766-0.767c0-0.901,0.367-1.72,0.959-2.308c2.082-2.084,5.572-0.489,5.572,2.308
			C24.596,12.735,23.123,14.208,21.33,14.208"/>
	</g>
</g>
</svg>
