<?xml version="1.0" encoding="iso-8859-1"?>
<!-- Generator: Adobe Illustrator 14.0.0, SVG Export Plug-In . SVG Version: 6.00 Build 43363)  -->
<!DOCTYPE svg PUBLIC "-//W3C//DTD SVG 1.1//EN" "http://www.w3.org/Graphics/SVG/1.1/DTD/svg11.dtd">
<svg version="1.1" id="Layer_1" xmlns="http://www.w3.org/2000/svg" xmlns:xlink="http://www.w3.org/1999/xlink" x="0px" y="0px"
	 width="32px" height="32px" viewBox="0 0 32 32" style="enable-background:new 0 0 32 32;" xml:space="preserve">
<g>
	<g>
		<rect style="fill:none;" width="32" height="32"/>
	</g>
	<g>
		<g>
			<path style="fill:#E6E6E6;" d="M21.773,6.869c-1.051,0-2.01,0.405-2.773,1.17c-0.76,0.755-1.18,1.763-1.18,2.839
				c0,0.157-0.127,0.285-0.283,0.285c-0.16,0-0.286-0.125-0.286-0.285c0-1.223,0.478-2.375,1.343-3.242
				c0.516-0.516,1.15-0.904,1.825-1.122c0.283-0.086,0.499-0.31,0.577-0.604C21.068,5.626,21,5.338,20.807,5.118
				c-1.116-1.245-2.714-1.959-4.384-1.959c-2.318,0-4.424,1.368-5.361,3.477c-0.097,0.209-0.105,0.444-0.021,0.67
				c0.084,0.214,0.242,0.377,0.457,0.473c0.513,0.226,0.984,0.564,1.361,0.978c0.105,0.117,0.097,0.297-0.02,0.402
				c-0.068,0.062-0.142,0.075-0.191,0.075c-0.047,0-0.137-0.012-0.209-0.092c-0.743-0.819-1.87-1.237-2.962-1.103
				c-1.723,0.209-3.022,1.676-3.022,3.413c0,1.896,1.542,3.439,3.438,3.439h11.945c2.213,0,4.014-1.8,4.014-4.014
				C25.85,8.667,24.021,6.869,21.773,6.869z"/>
			<path style="fill:#002B73;" d="M22.199,6.225c-0.092-0.017-0.166-0.071-0.211-0.155c-1.141-2.077-3.355-3.403-5.735-3.403
				c-2.762,0-5.253,1.778-6.167,4.362c-0.041,0.117-0.141,0.195-0.265,0.206c-2.207,0.158-3.954,2.012-3.954,4.248
				c0,2.345,1.917,4.263,4.26,4.263H21.33c2.633,0,4.803-2.168,4.803-4.802C26.133,8.638,24.451,6.638,22.199,6.225 M21.33,14.208
				H10.127c-1.504,0-2.724-1.222-2.724-2.726c0-1.39,1.05-2.541,2.395-2.704c0.861-0.107,1.753,0.217,2.348,0.873
				c0.286,0.314,0.77,0.336,1.083,0.049c0.313-0.284,0.335-0.768,0.052-1.082c-0.404-0.444-0.9-0.8-1.446-1.04
				c-0.077-0.034-0.132-0.088-0.165-0.169c-0.029-0.079-0.028-0.158,0.008-0.236c0.795-1.788,2.596-2.97,4.574-2.97
				c1.433,0,2.795,0.618,3.739,1.671c0.069,0.08,0.092,0.182,0.064,0.288c-0.026,0.103-0.1,0.179-0.2,0.21
				c-0.732,0.236-1.388,0.645-1.92,1.177c-0.87,0.871-1.406,2.067-1.406,3.395c0,0.425,0.343,0.767,0.769,0.767
				c0.422,0,0.766-0.342,0.766-0.767c0-0.901,0.367-1.72,0.959-2.308c2.082-2.084,5.571-0.489,5.571,2.308
				C24.595,12.735,23.122,14.208,21.33,14.208"/>
		</g>
		<g>
			<path style="fill-rule:evenodd;clip-rule:evenodd;fill:#3FA9F5;" d="M12.138,20.526c0.138,0.204,0.356,0.329,0.601,0.347
				c0.478,0.037,0.875-0.357,0.86-0.84l0,0l-0.017-1.223c-0.001-0.04-0.045-0.064-0.078-0.047l-1.07,0.598h-0.001
				C12.011,19.591,11.867,20.131,12.138,20.526"/>
			<path style="fill:#3FA9F5;" d="M14.803,18.693c0.189,0.278,0.485,0.448,0.821,0.475c0.651,0.05,1.195-0.488,1.176-1.146l0,0
				l-0.024-1.671c-0.001-0.054-0.06-0.09-0.107-0.062l-1.46,0.815h-0.001C14.627,17.416,14.434,18.153,14.803,18.693"/>
		</g>
	</g>
</g>
</svg>
