<?xml version="1.0" encoding="iso-8859-1"?>
<!-- Generator: Adobe Illustrator 14.0.0, SVG Export Plug-In . SVG Version: 6.00 Build 43363)  -->
<!DOCTYPE svg PUBLIC "-//W3C//DTD SVG 1.1//EN" "http://www.w3.org/Graphics/SVG/1.1/DTD/svg11.dtd">
<svg version="1.1" id="Layer_1" xmlns="http://www.w3.org/2000/svg" xmlns:xlink="http://www.w3.org/1999/xlink" x="0px" y="0px"
	 width="32px" height="32px" viewBox="0 0 32 32" style="enable-background:new 0 0 32 32;" xml:space="preserve">
<g>
	<g>
		<rect style="fill:none;" width="32" height="32"/>
	</g>
	<g>
		<path style="fill:#3FA9F5;" d="M18.432,18.383h-0.635l-0.053-0.131l0.145-0.144c0.031-0.03,0.047-0.071,0.047-0.114
			s-0.017-0.082-0.047-0.109c-0.059-0.063-0.164-0.062-0.225-0.002l-0.465,0.47l-0.059,0.03h-0.727l-0.068-0.118l0.349-0.61
			l0.05-0.044l0.661-0.178c0.04-0.011,0.074-0.036,0.097-0.073c0.021-0.037,0.026-0.08,0.016-0.121
			c-0.02-0.072-0.078-0.115-0.195-0.113l-0.198,0.053l-0.085-0.109l0.317-0.55c0.022-0.037,0.028-0.081,0.018-0.122
			c-0.011-0.04-0.038-0.076-0.075-0.098c-0.076-0.042-0.175-0.015-0.219,0.061l-0.318,0.547l-0.138-0.016l-0.053-0.201
			c-0.019-0.072-0.071-0.13-0.196-0.112c-0.085,0.024-0.135,0.11-0.112,0.195l0.173,0.635l-0.004,0.068l-0.364,0.63h-0.136
			l-0.357-0.608l-0.013-0.066l0.175-0.66c0.011-0.04,0.004-0.08-0.017-0.117c-0.024-0.041-0.068-0.068-0.136-0.083
			c-0.074,0-0.137,0.049-0.155,0.118l-0.053,0.198l-0.138,0.019l-0.318-0.547c-0.043-0.076-0.146-0.102-0.218-0.06
			c-0.036,0.021-0.063,0.055-0.074,0.097c-0.011,0.041-0.005,0.084,0.016,0.122l0.318,0.55l-0.084,0.109l-0.239-0.059
			c-0.073,0-0.137,0.05-0.155,0.119c-0.011,0.041-0.005,0.084,0.015,0.121c0.021,0.036,0.057,0.062,0.097,0.073l0.639,0.167
			l0.057,0.036l0.364,0.629l-0.067,0.118l-0.704,0.004l-0.064-0.021l-0.481-0.482c-0.061-0.06-0.167-0.06-0.227,0
			c-0.03,0.029-0.047,0.07-0.047,0.111c0,0.043,0.017,0.084,0.047,0.115l0.146,0.143l-0.053,0.131h-0.634
			c-0.088,0-0.161,0.071-0.161,0.159c0,0.087,0.072,0.161,0.161,0.161h0.634l0.053,0.127l-0.146,0.146
			c-0.03,0.03-0.047,0.071-0.047,0.112c0,0.043,0.017,0.084,0.047,0.113c0.061,0.061,0.165,0.061,0.226,0l0.463-0.469l0.061-0.029
			h0.726l0.068,0.117l-0.349,0.609l-0.05,0.046l-0.66,0.175c-0.041,0.012-0.076,0.038-0.097,0.076
			c-0.021,0.037-0.026,0.078-0.015,0.121c0.019,0.068,0.093,0.119,0.194,0.112l0.2-0.053l0.084,0.108l-0.318,0.551
			c-0.021,0.037-0.027,0.08-0.016,0.122c0.011,0.04,0.037,0.074,0.074,0.097c0.071,0.041,0.176,0.015,0.218-0.06l0.318-0.548
			l0.138,0.018l0.053,0.199c0.019,0.072,0.071,0.133,0.194,0.113c0.086-0.023,0.136-0.111,0.114-0.195l-0.174-0.637l0.005-0.068
			l0.363-0.629h0.137l0.356,0.607l0.014,0.066l-0.176,0.658c-0.011,0.041-0.005,0.083,0.016,0.118
			c0.017,0.028,0.053,0.066,0.138,0.085c0.072,0,0.136-0.051,0.155-0.12l0.053-0.198l0.138-0.018l0.32,0.548
			c0.027,0.05,0.08,0.081,0.138,0.081c0.029,0,0.057-0.008,0.079-0.021c0.037-0.022,0.064-0.057,0.075-0.097
			c0.011-0.042,0.005-0.085-0.017-0.122l-0.318-0.551l0.085-0.11l0.239,0.06c0.073,0,0.135-0.049,0.154-0.118
			c0.011-0.042,0.006-0.083-0.016-0.12c-0.022-0.038-0.057-0.064-0.098-0.076l-0.638-0.166l-0.057-0.037l-0.364-0.627l0.068-0.117
			l0.704-0.007l0.063,0.023l0.483,0.481c0.061,0.061,0.166,0.061,0.225,0c0.029-0.029,0.047-0.07,0.047-0.113
			c0-0.041-0.016-0.082-0.047-0.113l-0.145-0.145l0.053-0.127h0.635c0.088,0,0.16-0.074,0.16-0.161
			C18.592,18.454,18.52,18.383,18.432,18.383z"/>
		<g>
			<path style="fill:#E6E6E6;" d="M21.773,6.869c-1.05,0-2.01,0.405-2.773,1.17c-0.76,0.755-1.179,1.763-1.179,2.839
				c0,0.157-0.128,0.285-0.284,0.285c-0.16,0-0.286-0.125-0.286-0.285c0-1.223,0.478-2.375,1.343-3.242
				c0.516-0.516,1.15-0.904,1.825-1.122c0.284-0.086,0.499-0.31,0.577-0.604C21.068,5.626,21,5.338,20.807,5.118
				c-1.116-1.245-2.714-1.959-4.384-1.959c-2.318,0-4.423,1.368-5.361,3.477c-0.097,0.209-0.105,0.444-0.021,0.67
				c0.084,0.214,0.241,0.377,0.457,0.473c0.513,0.226,0.984,0.564,1.361,0.978c0.105,0.117,0.097,0.297-0.02,0.402
				c-0.068,0.062-0.142,0.075-0.191,0.075c-0.047,0-0.136-0.012-0.209-0.092c-0.743-0.819-1.87-1.237-2.962-1.103
				c-1.723,0.209-3.022,1.676-3.022,3.413c0,1.896,1.542,3.439,3.438,3.439h11.945c2.213,0,4.014-1.8,4.014-4.014
				C25.85,8.667,24.021,6.869,21.773,6.869z"/>
			<path style="fill:#002B73;" d="M22.199,6.225c-0.092-0.017-0.166-0.071-0.211-0.155c-1.141-2.077-3.355-3.403-5.735-3.403
				c-2.763,0-5.253,1.778-6.167,4.362c-0.041,0.117-0.141,0.195-0.265,0.206c-2.207,0.158-3.954,2.012-3.954,4.248
				c0,2.345,1.917,4.263,4.261,4.263H21.33c2.633,0,4.803-2.168,4.803-4.802C26.133,8.638,24.451,6.638,22.199,6.225 M21.33,14.208
				H10.127c-1.504,0-2.724-1.222-2.724-2.726c0-1.39,1.05-2.541,2.395-2.704c0.862-0.107,1.753,0.217,2.348,0.873
				c0.286,0.314,0.77,0.336,1.083,0.049c0.313-0.284,0.336-0.768,0.053-1.082c-0.405-0.444-0.9-0.8-1.446-1.04
				c-0.077-0.034-0.132-0.088-0.164-0.169c-0.029-0.079-0.028-0.158,0.008-0.236c0.795-1.788,2.596-2.97,4.574-2.97
				c1.432,0,2.795,0.618,3.739,1.671c0.07,0.08,0.092,0.182,0.065,0.288c-0.026,0.103-0.1,0.179-0.201,0.21
				c-0.731,0.236-1.388,0.645-1.92,1.177c-0.869,0.871-1.406,2.067-1.406,3.395c0,0.425,0.343,0.767,0.769,0.767
				c0.422,0,0.766-0.342,0.766-0.767c0-0.901,0.367-1.72,0.959-2.308c2.082-2.084,5.572-0.489,5.572,2.308
				C24.596,12.735,23.123,14.208,21.33,14.208"/>
		</g>
	</g>
</g>
</svg>
