<?xml version="1.0" encoding="iso-8859-1"?>
<!-- Generator: Adobe Illustrator 14.0.0, SVG Export Plug-In . SVG Version: 6.00 Build 43363)  -->
<!DOCTYPE svg PUBLIC "-//W3C//DTD SVG 1.1//EN" "http://www.w3.org/Graphics/SVG/1.1/DTD/svg11.dtd">
<svg version="1.1" id="Layer_1" xmlns="http://www.w3.org/2000/svg" xmlns:xlink="http://www.w3.org/1999/xlink" x="0px" y="0px"
	 width="32px" height="32px" viewBox="0 0 32 32" style="enable-background:new 0 0 32 32;" xml:space="preserve">
<g>
	<g>
		<rect style="fill:none;" width="32" height="32"/>
	</g>
	<g>
		<g>
			<g>
				<circle style="fill:#E6E6E6;" cx="13.44" cy="18.316" r="1.707"/>
				<path style="fill:#808080;" d="M13.439,20.423c-1.161,0-2.106-0.944-2.106-2.106c0-1.161,0.945-2.106,2.106-2.106
					c1.162,0,2.107,0.945,2.107,2.106C15.547,19.479,14.601,20.423,13.439,20.423L13.439,20.423z M13.439,17.01
					c-0.72,0-1.306,0.587-1.306,1.307c0,0.721,0.586,1.307,1.306,1.307c0.721,0,1.308-0.586,1.308-1.307
					C14.747,17.597,14.161,17.01,13.439,17.01L13.439,17.01z"/>
			</g>
			<g>
				<circle style="fill:#E6E6E6;" cx="18.56" cy="18.938" r="1.706"/>
				<path style="fill:#808080;" d="M18.561,21.044c-1.162,0-2.106-0.944-2.106-2.106s0.944-2.106,2.106-2.106
					c1.161,0,2.105,0.944,2.105,2.106S19.722,21.044,18.561,21.044L18.561,21.044z M18.561,17.631c-0.721,0-1.307,0.587-1.307,1.307
					s0.586,1.307,1.307,1.307s1.307-0.587,1.307-1.307S19.281,17.631,18.561,17.631L18.561,17.631z"/>
			</g>
			<g>
				<circle style="fill:#E6E6E6;" cx="15.56" cy="22.331" r="1.067"/>
				<path style="fill:#808080;" d="M15.561,23.797c-0.809,0-1.467-0.657-1.467-1.466c0-0.808,0.658-1.466,1.467-1.466
					c0.809,0,1.467,0.658,1.467,1.466C17.027,23.14,16.37,23.797,15.561,23.797L15.561,23.797z M15.561,21.664
					c-0.368,0-0.667,0.299-0.667,0.667s0.299,0.666,0.667,0.666s0.667-0.298,0.667-0.666S15.928,21.664,15.561,21.664L15.561,21.664
					z"/>
			</g>
		</g>
		<g>
			<path style="fill:#E6E6E6;" d="M21.773,6.801c-1.051,0-2.01,0.405-2.773,1.169c-0.76,0.754-1.18,1.763-1.18,2.839
				c0,0.157-0.127,0.284-0.283,0.284c-0.16,0-0.286-0.125-0.286-0.284c0-1.223,0.478-2.375,1.343-3.242
				c0.516-0.516,1.15-0.904,1.825-1.122c0.283-0.085,0.499-0.31,0.577-0.603C21.068,5.558,21,5.27,20.807,5.049
				c-1.116-1.245-2.714-1.959-4.384-1.959c-2.318,0-4.424,1.368-5.361,3.478c-0.097,0.209-0.105,0.443-0.021,0.669
				c0.084,0.215,0.242,0.378,0.457,0.473c0.513,0.226,0.984,0.564,1.361,0.978c0.105,0.117,0.097,0.297-0.02,0.403
				c-0.068,0.061-0.142,0.075-0.191,0.075c-0.047,0-0.137-0.012-0.209-0.092c-0.743-0.818-1.87-1.237-2.962-1.103
				C7.752,8.18,6.453,9.647,6.453,11.383c0,1.897,1.542,3.439,3.438,3.439h11.945c2.213,0,4.014-1.8,4.014-4.013
				C25.85,8.599,24.021,6.801,21.773,6.801z"/>
			<path style="fill:#002B73;" d="M22.199,6.156c-0.092-0.018-0.166-0.072-0.211-0.155c-1.141-2.077-3.355-3.403-5.735-3.403
				c-2.762,0-5.253,1.778-6.167,4.362c-0.041,0.117-0.141,0.195-0.265,0.206c-2.207,0.157-3.954,2.012-3.954,4.247
				c0,2.345,1.917,4.264,4.26,4.264H21.33c2.633,0,4.803-2.169,4.803-4.802C26.133,8.569,24.451,6.569,22.199,6.156 M21.33,14.14
				H10.127c-1.504,0-2.724-1.222-2.724-2.726c0-1.39,1.05-2.541,2.395-2.703c0.861-0.107,1.753,0.217,2.348,0.873
				c0.286,0.313,0.77,0.335,1.083,0.049c0.313-0.284,0.335-0.768,0.052-1.083c-0.404-0.443-0.9-0.8-1.446-1.04
				c-0.077-0.034-0.132-0.088-0.165-0.168c-0.029-0.079-0.028-0.159,0.008-0.237c0.795-1.787,2.596-2.97,4.574-2.97
				c1.433,0,2.795,0.618,3.739,1.671c0.069,0.08,0.092,0.183,0.064,0.288c-0.026,0.103-0.1,0.179-0.2,0.21
				c-0.732,0.235-1.388,0.645-1.92,1.177c-0.87,0.87-1.406,2.066-1.406,3.394c0,0.425,0.343,0.768,0.769,0.768
				c0.422,0,0.766-0.343,0.766-0.768c0-0.901,0.367-1.72,0.959-2.307c2.082-2.084,5.571-0.49,5.571,2.307
				C24.595,12.667,23.122,14.14,21.33,14.14"/>
		</g>
	</g>
</g>
</svg>
