<svg xmlns="http://www.w3.org/2000/svg" width="1000.08" height="241.686" viewBox="0 0 3600 870">
  <defs>
    <style>
      .cls-1 {
        fill: #7eb128;
        fill-rule: evenodd;
      }
    </style>
  </defs>
  <g id="画板_1" data-name="画板 1">
    <path id="形状_1" data-name="形状 1" class="cls-1" d="M421.712,754.99C258.872,754.99,127,623.2,127,460.75v-293.6H421.077c162.841,0,294.711,131.786,294.711,294.239V754.99H421.712Zm39.727-207.438L495.072,468.1l-3.807-9-33.38,79.072ZM455.6,532.473l33.38-78.819-3.553-8.364-33.254,78.566Zm-5.584-14.32,33.126-78.311-3.173-7.6-32.746,78.439Zm60.16-269.4L422.093,344.17h20.434L394.17,457.836l-36.3-96.813H311.037l-32.745,91.491-30.969-91.237H170.282l74.756,222.77h43.027l40.487-116.2,42.646,116.2h37.314l88.465-216.815,13.072,11.279V248.751h0.127Zm87.83,112.272H557.137L502.18,484.954l-4.823-11.405L463.6,553.255l12.058,30.919h52.164l51.149-116.2,27.542,52.462L575.16,592.918l-18.023-15.08V695.179l83.9-71.85-16.881-5.955,50.388-99.6ZM834.2,710.2a67.51,67.51,0,0,1-18.036-2.272,49.388,49.388,0,0,1-14.209-6.271,29.548,29.548,0,0,1-9.289-9.542,23.622,23.622,0,0,1-3.279-12.267q0-6,6.01-6a7.549,7.549,0,0,1,4.738,1.544,5.289,5.289,0,0,1,2,4.452,11.7,11.7,0,0,0,2.189,6.543,19.277,19.277,0,0,0,6.283,5.724,38.182,38.182,0,0,0,10.11,4,54.276,54.276,0,0,0,13.482,1.544,58.386,58.386,0,0,0,18.763-2.724q8.015-2.728,12.023-8.362a11.219,11.219,0,0,0,2.826-5.452,18.129,18.129,0,0,0,.088-6.543,19.918,19.918,0,0,0-5.1-9.631,28.37,28.37,0,0,0-8.928-5.907,51.37,51.37,0,0,0-11.659-3.361q-6.377-1.091-13.114-2-6.2-1.092-12.572-2.455a47.214,47.214,0,0,1-11.566-4,25.271,25.271,0,0,1-8.563-6.907q-3.372-4.269-3.372-11.179a24.727,24.727,0,0,1,4.374-14.81,35.978,35.978,0,0,1,10.929-10,48.44,48.44,0,0,1,14.212-5.635,64.164,64.164,0,0,1,14.027-1.727,51.444,51.444,0,0,1,16.486,2.546,41.3,41.3,0,0,1,13.025,7,31.209,31.209,0,0,1,8.471,10.631,30.325,30.325,0,0,1,3.007,13.45,6.379,6.379,0,0,1-1.551,4.088,5.21,5.21,0,0,1-4.281,1.907,6.556,6.556,0,0,1-4.827-1.907,5.725,5.725,0,0,1-1.913-4.088,17.127,17.127,0,0,0-2.093-8.359,20.5,20.5,0,0,0-5.921-6.635,29.044,29.044,0,0,0-9.017-4.36,39.843,39.843,0,0,0-11.386-1.547,54.855,54.855,0,0,0-9.93,1,36.882,36.882,0,0,0-10.019,3.363,24.793,24.793,0,0,0-7.742,6,13.527,13.527,0,0,0-3.1,9.087,7,7,0,0,0,1.459,4.544,11.058,11.058,0,0,0,4.555,3.091,41.14,41.14,0,0,0,7.922,2.18q4.826,0.915,11.569,2t14.3,2.727a73.594,73.594,0,0,1,14.481,4.724,40.929,40.929,0,0,1,12.3,8.451,29.556,29.556,0,0,1,7.558,14.086q3.282,13.812-4.555,23.806a36.628,36.628,0,0,1-16.942,11.63A72.019,72.019,0,0,1,834.2,710.2Zm161.767,0.181a6.417,6.417,0,0,1-4.282-1.636,5.662,5.662,0,0,1-1.912-4.544V641.679a39.582,39.582,0,0,0-2.734-15.629,26.6,26.6,0,0,0-8.014-10.542,32.4,32.4,0,0,0-10.657-4.089,73.242,73.242,0,0,0-14.12-1.18,34.8,34.8,0,0,0-12.023,2.272,29.729,29.729,0,0,0-11.2,7.451,40.4,40.4,0,0,0-8.291,13.539q-3.277,8.358-3.279,20.537V704.2a6.133,6.133,0,0,1-1.64,4.544,5.909,5.909,0,0,1-4.37,1.636,7.8,7.8,0,0,1-5.1-1.636,5.54,5.54,0,0,1-2-4.544V545.43a5.779,5.779,0,0,1,2-4.269,7.091,7.091,0,0,1,5.1-1.911,5.464,5.464,0,0,1,4.37,1.911,6.387,6.387,0,0,1,1.64,4.269v67.9a44.922,44.922,0,0,1,34.794-16.357,139.5,139.5,0,0,1,16.67,1.091,39.309,39.309,0,0,1,16.486,5.815q15.482,11.817,15.486,37.8V704.2a5.676,5.676,0,0,1-1.91,4.544A7.453,7.453,0,0,1,995.967,710.376Zm128.973-.728a6.83,6.83,0,0,1-6.92-6.9V692.021a65.063,65.063,0,0,1-6.92,6.632,46.369,46.369,0,0,1-8.66,5.635,49.712,49.712,0,0,1-10.83,3.908,57.647,57.647,0,0,1-13.48,1.452,46.31,46.31,0,0,1-19.77-4.36,47.177,47.177,0,0,1-16.3-12.542,50.109,50.109,0,0,1-10.39-17.9,67.627,67.627,0,0,1,0-42.71,56.346,56.346,0,0,1,10.39-18.265,47.193,47.193,0,0,1,16.3-12.539,46.313,46.313,0,0,1,19.77-4.363q13.29,0,23.13,3.907a45.508,45.508,0,0,1,16.76,11.359v-8.36a6.829,6.829,0,0,1,6.92-6.906,5.8,5.8,0,0,1,4.28,2,6.824,6.824,0,0,1,1.92,4.907v98.868a6.816,6.816,0,0,1-1.92,4.9A5.794,5.794,0,0,1,1124.94,709.648Zm-46.81-98.865a34.159,34.159,0,0,0-14.76,3.18,35.424,35.424,0,0,0-11.66,8.815,40.317,40.317,0,0,0-7.65,13.538,52.885,52.885,0,0,0-2.73,17.358,51.469,51.469,0,0,0,2.73,17.082,41.516,41.516,0,0,0,7.65,13.539,35.923,35.923,0,0,0,11.66,9,33.342,33.342,0,0,0,14.76,3.272,42.325,42.325,0,0,0,14.57-2.272,39.505,39.505,0,0,0,10.84-5.907,40.841,40.841,0,0,0,8.1-8.451,99.9,99.9,0,0,0,6.38-10.087v-31.44Q1111.09,610.783,1078.13,610.783Zm91.44,98.865a6.83,6.83,0,0,1-6.92-6.9v-99.6a5.8,5.8,0,0,1,2-4.269,6.88,6.88,0,0,1,4.92-1.91,5.742,5.742,0,0,1,4.1,1.91,5.9,5.9,0,0,1,1.92,4.269v10.542a19.8,19.8,0,0,1,2.73-2.908q1.455-1.269,2.73-2.363a38.358,38.358,0,0,1,13.03-8,44.473,44.473,0,0,1,15.57-2.728c1.1,0,2.34.033,3.74,0.092a13.742,13.742,0,0,1,3.73.636,6.1,6.1,0,0,1,5.46,6.907q-1.08,6.18-6.92,6.179h-0.73a5.218,5.218,0,0,0-2.64-.819q-1.545-.09-2.64-0.092a30.669,30.669,0,0,0-11.2,2.091,27.3,27.3,0,0,0-9.02,5.543,32.946,32.946,0,0,0-10.38,14.447,58.243,58.243,0,0,0-3.46,20.993v49.07a6.816,6.816,0,0,1-1.92,4.9A5.627,5.627,0,0,1,1169.57,709.648Zm124.06-.181a57.849,57.849,0,0,1-21.86-3.907,40.069,40.069,0,0,1-16.03-11.542q-13.845-14.9-13.85-40.891a70.862,70.862,0,0,1,3.64-23.353,49.9,49.9,0,0,1,10.39-17.719,45.328,45.328,0,0,1,16.3-11.178,56.182,56.182,0,0,1,21.41-3.907,60.459,60.459,0,0,1,20.49,3.362,42.041,42.041,0,0,1,15.76,9.723,47.941,47.941,0,0,1,10.66,16.175,74.752,74.752,0,0,1,4.83,20.9A6.9,6.9,0,0,1,1343,652.4a5.969,5.969,0,0,1-2.01,1.089,7.442,7.442,0,0,1-2.55.547h-83.43q0,20.352,9.93,31.349t28.69,10.994a43.022,43.022,0,0,0,23.59-6.543,37.9,37.9,0,0,0,15.03-18.174q2.37-3.814,6.19-3.816a1.926,1.926,0,0,1,1.09.365,2.247,2.247,0,0,0,1.28.363,4.926,4.926,0,0,1,2.46,1.636,14.517,14.517,0,0,1,1.37,2.18,5.375,5.375,0,0,1,0,4.727,54.906,54.906,0,0,1-20.22,23.714Q1311.115,709.463,1293.63,709.467Zm37.89-68.515q-2.925-15.268-12.57-23.081-9.66-7.813-25.32-7.816-10.215,0-17.03,3.272a35.8,35.8,0,0,0-11.21,8.087,34.8,34.8,0,0,0-6.56,10.179,61.616,61.616,0,0,0-3.09,9.359h75.78Zm225.35,68.7a6.83,6.83,0,0,1-6.92-6.9V692.021a66.153,66.153,0,0,1-6.93,6.632,46.615,46.615,0,0,1-8.65,5.635,49.8,49.8,0,0,1-10.84,3.908,57.586,57.586,0,0,1-13.48,1.452,46.343,46.343,0,0,1-19.77-4.36,47.27,47.27,0,0,1-16.3-12.542,50.109,50.109,0,0,1-10.39-17.9,67.627,67.627,0,0,1,0-42.71,56.346,56.346,0,0,1,10.39-18.265,47.286,47.286,0,0,1,16.3-12.539,46.346,46.346,0,0,1,19.77-4.363q13.29,0,23.13,3.907a45.546,45.546,0,0,1,16.77,11.359v-8.36a6.829,6.829,0,0,1,6.92-6.906,5.836,5.836,0,0,1,4.28,2,6.858,6.858,0,0,1,1.91,4.907v98.868a6.849,6.849,0,0,1-1.91,4.9A5.826,5.826,0,0,1,1556.87,709.648Zm-46.82-98.865a34.159,34.159,0,0,0-14.76,3.18,35.424,35.424,0,0,0-11.66,8.815,40.317,40.317,0,0,0-7.65,13.538,52.885,52.885,0,0,0-2.73,17.358,51.469,51.469,0,0,0,2.73,17.082,41.516,41.516,0,0,0,7.65,13.539,35.923,35.923,0,0,0,11.66,9,33.342,33.342,0,0,0,14.76,3.272,42.325,42.325,0,0,0,14.57-2.272,39.36,39.36,0,0,0,10.84-5.907,41.15,41.15,0,0,0,8.11-8.451,103.572,103.572,0,0,0,6.38-10.087v-31.44Q1543.02,610.783,1510.05,610.783Zm118.23,99.229h-0.73a6.408,6.408,0,0,1-3.46-1.181,5.582,5.582,0,0,1-2.37-3.727l-32.79-99.956a4.888,4.888,0,0,1,.27-4.723,5.674,5.674,0,0,1,3.92-3.091,2.068,2.068,0,0,1,1.09-.636,6.769,6.769,0,0,1,1.09-.089,6.919,6.919,0,0,1,4.1,1.36,5.232,5.232,0,0,1,2.28,3l27.33,84.873,32.79-69.971a7.955,7.955,0,0,1,3-2.635,7.8,7.8,0,0,1,3.55-1,7.513,7.513,0,0,1,3.37,1,7.987,7.987,0,0,1,3.01,2.635l31.52,69.971,28.6-84.873a5.147,5.147,0,0,1,2.28-3,6.89,6.89,0,0,1,4.09-1.36,2.983,2.983,0,0,1,2.19.725,4.929,4.929,0,0,1,3.64,3.182,9,9,0,0,1,.55,5.36l-33.52,100.5a4.732,4.732,0,0,1-2.46,2.636,8.778,8.778,0,0,1-4.1,1,8.4,8.4,0,0,1-3.92-1,4.732,4.732,0,0,1-2.46-2.636l-32.79-71.967-34.43,71.967a3.9,3.9,0,0,1-2.37,2.908A8.909,8.909,0,0,1,1628.28,710.012Zm190.54-.545a57.832,57.832,0,0,1-21.85-3.907,40,40,0,0,1-16.03-11.542q-13.86-14.9-13.85-40.891a70.6,70.6,0,0,1,3.64-23.353,49.877,49.877,0,0,1,10.38-17.719,45.367,45.367,0,0,1,16.31-11.178,56.166,56.166,0,0,1,21.4-3.907,60.476,60.476,0,0,1,20.5,3.362,42.2,42.2,0,0,1,15.76,9.723,47.941,47.941,0,0,1,10.66,16.175,74.754,74.754,0,0,1,4.82,20.9,6.9,6.9,0,0,1-2.37,5.271,5.8,5.8,0,0,1-2,1.089,7.489,7.489,0,0,1-2.55.547h-83.43q0,20.352,9.92,31.349t28.69,10.994a43.056,43.056,0,0,0,23.6-6.543,37.958,37.958,0,0,0,15.03-18.174c1.57-2.543,3.64-3.816,6.19-3.816a1.926,1.926,0,0,1,1.09.365,2.247,2.247,0,0,0,1.28.363,4.852,4.852,0,0,1,2.45,1.636,13.069,13.069,0,0,1,1.37,2.18,5.375,5.375,0,0,1,0,4.727,54.84,54.84,0,0,1-20.22,23.714Q1836.32,709.463,1818.82,709.467Zm37.9-68.515q-2.925-15.268-12.57-23.081-9.66-7.813-25.33-7.816-10.2,0-17.03,3.272a35.751,35.751,0,0,0-11.2,8.087,34.593,34.593,0,0,0-6.56,10.179,60.517,60.517,0,0,0-3.09,9.359h75.78Zm77.79,69.243a67.562,67.562,0,0,1-18.04-2.272,49.467,49.467,0,0,1-14.21-6.271,29.7,29.7,0,0,1-9.29-9.542,23.7,23.7,0,0,1-3.28-12.267q0-6,6.02-6a7.51,7.51,0,0,1,4.73,1.544,5.3,5.3,0,0,1,2,4.452,11.694,11.694,0,0,0,2.19,6.543,19.264,19.264,0,0,0,6.29,5.724,38.086,38.086,0,0,0,10.11,4,54.214,54.214,0,0,0,13.48,1.544,58.359,58.359,0,0,0,18.76-2.724q8.01-2.728,12.03-8.362a11.311,11.311,0,0,0,2.82-5.452,18.128,18.128,0,0,0,.09-6.543,19.969,19.969,0,0,0-5.1-9.631,28.391,28.391,0,0,0-8.93-5.907,51.411,51.411,0,0,0-11.65-3.361q-6.39-1.091-13.12-2c-4.14-.728-8.32-1.544-12.57-2.455a47.115,47.115,0,0,1-11.57-4,25.25,25.25,0,0,1-8.56-6.907q-3.375-4.269-3.38-11.179a24.69,24.69,0,0,1,4.38-14.81,35.808,35.808,0,0,1,10.93-10,48.417,48.417,0,0,1,14.21-5.635,64.133,64.133,0,0,1,14.02-1.727,51.456,51.456,0,0,1,16.49,2.546,41.245,41.245,0,0,1,13.03,7,31.326,31.326,0,0,1,8.47,10.631,30.388,30.388,0,0,1,3,13.45,6.334,6.334,0,0,1-1.55,4.088,5.21,5.21,0,0,1-4.28,1.907,6.535,6.535,0,0,1-4.82-1.907,5.7,5.7,0,0,1-1.91-4.088,17.056,17.056,0,0,0-2.1-8.359,20.485,20.485,0,0,0-5.92-6.635,29.061,29.061,0,0,0-9.02-4.36,39.846,39.846,0,0,0-11.39-1.547,54.812,54.812,0,0,0-9.92,1,36.993,36.993,0,0,0-10.02,3.363,24.716,24.716,0,0,0-7.74,6,13.508,13.508,0,0,0-3.1,9.087,7.03,7.03,0,0,0,1.45,4.544,11.127,11.127,0,0,0,4.56,3.091,41.115,41.115,0,0,0,7.93,2.18q4.815,0.915,11.56,2t14.3,2.727a73.391,73.391,0,0,1,14.48,4.724,40.8,40.8,0,0,1,12.3,8.451,29.414,29.414,0,0,1,7.56,14.086q3.285,13.812-4.55,23.806a36.658,36.658,0,0,1-16.94,11.63A72.083,72.083,0,0,1,1934.51,710.2Zm117.67,0a49.129,49.129,0,0,1-36.98-16.177,55.94,55.94,0,0,1-10.84-17.99,63.246,63.246,0,0,1-3.91-22.537,61.972,61.972,0,0,1,3.91-22.262,55.105,55.105,0,0,1,10.84-17.81,49.489,49.489,0,0,1,36.98-16.085,48.935,48.935,0,0,1,20.5,4.271,50.228,50.228,0,0,1,16.31,11.814,55.279,55.279,0,0,1,10.84,17.81,61.972,61.972,0,0,1,3.91,22.262,63.246,63.246,0,0,1-3.91,22.537,56.118,56.118,0,0,1-10.84,17.99,49.556,49.556,0,0,1-16.31,11.906A48.951,48.951,0,0,1,2052.18,710.2Zm0-99.956a37.575,37.575,0,0,0-15.75,3.271,36.467,36.467,0,0,0-12.3,9,40.863,40.863,0,0,0-7.92,13.63,51.091,51.091,0,0,0-2.83,17.355,52.43,52.43,0,0,0,2.83,17.629,41.7,41.7,0,0,0,7.92,13.811,35.845,35.845,0,0,0,12.3,9.087,37.559,37.559,0,0,0,15.75,3.271,36.141,36.141,0,0,0,15.31-3.271,36.981,36.981,0,0,0,12.29-9.087,41.92,41.92,0,0,0,8.11-13.811,51.2,51.2,0,0,0,2.92-17.629,49.9,49.9,0,0,0-2.92-17.355,41.093,41.093,0,0,0-8.11-13.63,37.647,37.647,0,0,0-12.29-9A36.156,36.156,0,0,0,2052.18,610.239Zm210.78,99.409a6.862,6.862,0,0,1-4.92-1.908,5.769,5.769,0,0,1-2-4.272V637.136q0-9.268-2.92-14.539a22.686,22.686,0,0,0-6.92-8,20.937,20.937,0,0,0-8.29-3.452,43.857,43.857,0,0,0-7.01-.727,25.515,25.515,0,0,0-8.84,1.635,21.29,21.29,0,0,0-8.1,5.452,29.643,29.643,0,0,0-6.02,10,42.536,42.536,0,0,0-2.36,15.086v60.88a6.37,6.37,0,0,1-1.65,4.272,5.662,5.662,0,0,1-4.55,1.908,6.878,6.878,0,0,1-4.92-1.908,5.769,5.769,0,0,1-2-4.272V637.136a28.532,28.532,0,0,0-2.19-11.542,24.656,24.656,0,0,0-5.83-8.359,25.189,25.189,0,0,0-8.19-5.088,25.587,25.587,0,0,0-9.11-1.727,25,25,0,0,0-8.65,1.635,21.248,21.248,0,0,0-8.11,5.452,28.424,28.424,0,0,0-5.92,10,43.817,43.817,0,0,0-2.28,15.086v60.88a6.551,6.551,0,0,1-6.19,6.18,6.845,6.845,0,0,1-4.92-1.908,5.781,5.781,0,0,1-2.01-4.272v-100.5a5.536,5.536,0,0,1,2.01-4.543,7.5,7.5,0,0,1,4.92-1.636,6.423,6.423,0,0,1,4.28,1.636,5.674,5.674,0,0,1,1.91,4.543v4.363a31.452,31.452,0,0,1,11.66-7.451,39.824,39.824,0,0,1,32.33,2.361,33.025,33.025,0,0,1,13.21,12.722,35.928,35.928,0,0,1,13.48-12.994,37.214,37.214,0,0,1,18.04-4.452,54.567,54.567,0,0,1,14.57,1.816,31,31,0,0,1,11.3,5.635,30.431,30.431,0,0,1,9.29,13.266,55.309,55.309,0,0,1,2.91,18.9v66.332a6.626,6.626,0,0,1-1.55,4.272A5.41,5.41,0,0,1,2262.96,709.648Zm83.07-.181a57.849,57.849,0,0,1-21.86-3.907,40,40,0,0,1-16.03-11.542q-13.86-14.9-13.85-40.891a70.6,70.6,0,0,1,3.64-23.353,49.749,49.749,0,0,1,10.39-17.719,45.242,45.242,0,0,1,16.3-11.178,56.182,56.182,0,0,1,21.41-3.907,60.459,60.459,0,0,1,20.49,3.362,42.12,42.12,0,0,1,15.76,9.723,47.793,47.793,0,0,1,10.66,16.175,74.752,74.752,0,0,1,4.83,20.9,6.914,6.914,0,0,1-2.38,5.271,5.8,5.8,0,0,1-2,1.089,7.442,7.442,0,0,1-2.55.547h-83.43q0,20.352,9.93,31.349,9.915,11,28.69,10.994a43.046,43.046,0,0,0,23.59-6.543,37.9,37.9,0,0,0,15.03-18.174q2.37-3.814,6.19-3.816a1.98,1.98,0,0,1,1.1.365,2.192,2.192,0,0,0,1.27.363,4.926,4.926,0,0,1,2.46,1.636,14.517,14.517,0,0,1,1.37,2.18,5.375,5.375,0,0,1,0,4.727,54.861,54.861,0,0,1-20.23,23.714Q2363.52,709.463,2346.03,709.467Zm37.89-68.515q-2.925-15.268-12.57-23.081-9.66-7.813-25.32-7.816-10.215,0-17.04,3.272a35.751,35.751,0,0,0-11.2,8.087,34.593,34.593,0,0,0-6.56,10.179,60.517,60.517,0,0,0-3.09,9.359h75.78Zm224.43,69.424a6.423,6.423,0,0,1-4.28-1.636,5.676,5.676,0,0,1-1.91-4.544V641.679a39.63,39.63,0,0,0-2.74-15.629,26.6,26.6,0,0,0-8.01-10.542,32.378,32.378,0,0,0-10.66-4.089,73.1,73.1,0,0,0-14.11-1.18,34.832,34.832,0,0,0-12.03,2.272,29.742,29.742,0,0,0-11.2,7.451,40.331,40.331,0,0,0-8.29,13.539q-3.285,8.358-3.28,20.537V704.2a6.149,6.149,0,0,1-1.64,4.544,5.923,5.923,0,0,1-4.37,1.636,7.778,7.778,0,0,1-5.1-1.636,5.538,5.538,0,0,1-2.01-4.544V545.43a5.779,5.779,0,0,1,2.01-4.269,7.067,7.067,0,0,1,5.1-1.911,5.476,5.476,0,0,1,4.37,1.911,6.407,6.407,0,0,1,1.64,4.269v67.9a44.922,44.922,0,0,1,34.8-16.357,139.675,139.675,0,0,1,16.67,1.091,39.337,39.337,0,0,1,16.48,5.815q15.48,11.817,15.48,37.8V704.2a5.676,5.676,0,0,1-1.91,4.544A7.438,7.438,0,0,1,2608.35,710.376Zm128.98-.728a6.83,6.83,0,0,1-6.92-6.9V692.021a66.153,66.153,0,0,1-6.93,6.632,46.285,46.285,0,0,1-8.65,5.635,49.8,49.8,0,0,1-10.84,3.908,57.526,57.526,0,0,1-13.48,1.452,46.376,46.376,0,0,1-19.77-4.36,47.363,47.363,0,0,1-16.3-12.542,50.109,50.109,0,0,1-10.39-17.9,67.813,67.813,0,0,1,0-42.71,56.346,56.346,0,0,1,10.39-18.265,47.379,47.379,0,0,1,16.3-12.539,46.379,46.379,0,0,1,19.77-4.363q13.29,0,23.14,3.907a45.59,45.59,0,0,1,16.76,11.359v-8.36a6.829,6.829,0,0,1,6.92-6.906,5.836,5.836,0,0,1,4.28,2,6.858,6.858,0,0,1,1.91,4.907v98.868a6.849,6.849,0,0,1-1.91,4.9A5.826,5.826,0,0,1,2737.33,709.648Zm-46.82-98.865a34.19,34.19,0,0,0-14.76,3.18,35.386,35.386,0,0,0-11.65,8.815,40.507,40.507,0,0,0-7.66,13.538,52.885,52.885,0,0,0-2.73,17.358,51.469,51.469,0,0,0,2.73,17.082,41.718,41.718,0,0,0,7.66,13.539,35.885,35.885,0,0,0,11.65,9,33.372,33.372,0,0,0,14.76,3.272,42.385,42.385,0,0,0,14.58-2.272,39.8,39.8,0,0,0,10.84-5.907,41.367,41.367,0,0,0,8.1-8.451,103.572,103.572,0,0,0,6.38-10.087v-31.44Q2723.48,610.783,2690.51,610.783Zm91.45,98.865a6.83,6.83,0,0,1-6.93-6.9v-99.6a5.8,5.8,0,0,1,2-4.269,6.887,6.887,0,0,1,4.93-1.91,5.739,5.739,0,0,1,4.09,1.91,5.883,5.883,0,0,1,1.91,4.269v10.542a20.993,20.993,0,0,1,2.74-2.908q1.455-1.269,2.73-2.363a38.508,38.508,0,0,1,13.02-8,44.569,44.569,0,0,1,15.58-2.728c1.09,0,2.34.033,3.74,0.092a13.742,13.742,0,0,1,3.73.636,6.114,6.114,0,0,1,5.47,6.907q-1.095,6.18-6.92,6.179h-0.73a5.287,5.287,0,0,0-2.65-.819q-1.545-.09-2.64-0.092a30.669,30.669,0,0,0-11.2,2.091,27.3,27.3,0,0,0-9.02,5.543,33.025,33.025,0,0,0-10.38,14.447,58.236,58.236,0,0,0-3.47,20.993v49.07a6.807,6.807,0,0,1-1.91,4.9A5.624,5.624,0,0,1,2781.96,709.648Zm163.41,0a6.381,6.381,0,0,1-4.83-2,6.816,6.816,0,0,1-1.92-4.9v-8.362q-13.11,15.267-36.06,15.266-21.87,0-36.08-15.266a46.436,46.436,0,0,1-9.29-17.627,83.281,83.281,0,0,1-2.91-22.9,64.345,64.345,0,0,1,3.74-21.989,56.749,56.749,0,0,1,10.28-17.993,49.527,49.527,0,0,1,15.4-12.084,41.293,41.293,0,0,1,18.86-4.454,42.688,42.688,0,0,1,19.76,4.818,49.58,49.58,0,0,1,16.3,13.539V546.157a6.818,6.818,0,0,1,1.92-4.907,6.388,6.388,0,0,1,4.83-2,5.833,5.833,0,0,1,4.28,2,6.851,6.851,0,0,1,1.91,4.907V702.744a6.849,6.849,0,0,1-1.91,4.9A5.826,5.826,0,0,1,2945.37,709.648Zm-42.81-98.684a29.082,29.082,0,0,0-13.58,3.363,36.436,36.436,0,0,0-11.29,9.178,45.065,45.065,0,0,0-7.65,13.631,48.652,48.652,0,0,0-2.83,16.718q0,20.721,8.93,31.8t26.42,11.086q36.06,0,36.06-42.891a48.888,48.888,0,0,0-2.82-16.718,44.021,44.021,0,0,0-7.74-13.631,37.147,37.147,0,0,0-11.48-9.178A30.337,30.337,0,0,0,2902.56,610.964Zm114.21,99.048h-0.72a6.412,6.412,0,0,1-3.47-1.181,5.607,5.607,0,0,1-2.36-3.727l-32.8-99.956a4.865,4.865,0,0,1,.28-4.723,5.674,5.674,0,0,1,3.92-3.091,2.033,2.033,0,0,1,1.09-.636,6.678,6.678,0,0,1,1.09-.089,6.941,6.941,0,0,1,4.1,1.36,5.21,5.21,0,0,1,2.27,3l27.33,84.873,32.79-69.971a7.987,7.987,0,0,1,3.01-2.635,7.765,7.765,0,0,1,3.55-1,7.548,7.548,0,0,1,3.37,1,8.063,8.063,0,0,1,3.01,2.635l31.51,69.971,28.61-84.873a5.168,5.168,0,0,1,2.27-3,6.941,6.941,0,0,1,4.1-1.36,3,3,0,0,1,2.19.725,4.946,4.946,0,0,1,3.64,3.182,9,9,0,0,1,.54,5.36l-33.51,100.5a4.732,4.732,0,0,1-2.46,2.636,8.778,8.778,0,0,1-4.1,1,8.367,8.367,0,0,1-3.92-1,4.7,4.7,0,0,1-2.46-2.636l-32.79-71.967-34.43,71.967a3.942,3.942,0,0,1-2.37,2.908A9,9,0,0,1,3016.77,710.012Zm235.55-.364a6.83,6.83,0,0,1-6.92-6.9V692.021a66.153,66.153,0,0,1-6.93,6.632,46.285,46.285,0,0,1-8.65,5.635,49.8,49.8,0,0,1-10.84,3.908,57.526,57.526,0,0,1-13.48,1.452,46.3,46.3,0,0,1-19.76-4.36,47.3,47.3,0,0,1-16.31-12.542,50.109,50.109,0,0,1-10.39-17.9,67.813,67.813,0,0,1,0-42.71,56.346,56.346,0,0,1,10.39-18.265,47.32,47.32,0,0,1,16.31-12.539,46.3,46.3,0,0,1,19.76-4.363q13.3,0,23.14,3.907a45.59,45.59,0,0,1,16.76,11.359v-8.36a6.829,6.829,0,0,1,6.92-6.906,5.819,5.819,0,0,1,4.28,2,6.866,6.866,0,0,1,1.92,4.907v98.868a6.857,6.857,0,0,1-1.92,4.9A5.81,5.81,0,0,1,3252.32,709.648Zm-46.82-98.865a34.146,34.146,0,0,0-14.75,3.18,35.322,35.322,0,0,0-11.66,8.815,40.507,40.507,0,0,0-7.66,13.538,52.885,52.885,0,0,0-2.73,17.358,51.469,51.469,0,0,0,2.73,17.082,41.718,41.718,0,0,0,7.66,13.539,35.818,35.818,0,0,0,11.66,9,33.329,33.329,0,0,0,14.75,3.272,42.385,42.385,0,0,0,14.58-2.272,39.8,39.8,0,0,0,10.84-5.907,41.367,41.367,0,0,0,8.1-8.451,103.572,103.572,0,0,0,6.38-10.087v-31.44Q3238.47,610.783,3205.5,610.783Zm91.45,98.865a6.83,6.83,0,0,1-6.92-6.9v-99.6a5.8,5.8,0,0,1,2-4.269,6.88,6.88,0,0,1,4.92-1.91,5.742,5.742,0,0,1,4.1,1.91,5.883,5.883,0,0,1,1.91,4.269v10.542a20.935,20.935,0,0,1,2.73-2.908c0.98-.846,1.88-1.636,2.74-2.363a38.411,38.411,0,0,1,13.02-8,44.528,44.528,0,0,1,15.58-2.728c1.09,0,2.34.033,3.74,0.092a13.811,13.811,0,0,1,3.73.636,6.1,6.1,0,0,1,5.46,6.907q-1.1,6.18-6.92,6.179h-0.73a5.25,5.25,0,0,0-2.64-.819q-1.545-.09-2.64-0.092a30.669,30.669,0,0,0-11.2,2.091,27.3,27.3,0,0,0-9.02,5.543,33.044,33.044,0,0,0-10.39,14.447,58.46,58.46,0,0,0-3.46,20.993v49.07a6.807,6.807,0,0,1-1.91,4.9A5.627,5.627,0,0,1,3296.95,709.648Zm124.06-.181a57.849,57.849,0,0,1-21.86-3.907,40,40,0,0,1-16.03-11.542q-13.86-14.9-13.85-40.891a70.6,70.6,0,0,1,3.64-23.353,49.749,49.749,0,0,1,10.39-17.719,45.242,45.242,0,0,1,16.3-11.178,56.182,56.182,0,0,1,21.41-3.907,60.459,60.459,0,0,1,20.49,3.362,42.12,42.12,0,0,1,15.76,9.723,47.793,47.793,0,0,1,10.66,16.175,74.752,74.752,0,0,1,4.83,20.9,6.914,6.914,0,0,1-2.38,5.271,5.8,5.8,0,0,1-2,1.089,7.442,7.442,0,0,1-2.55.547h-83.43q0,20.352,9.93,31.349,9.915,11,28.69,10.994a43.046,43.046,0,0,0,23.59-6.543,37.9,37.9,0,0,0,15.03-18.174q2.37-3.814,6.19-3.816a1.98,1.98,0,0,1,1.1.365,2.192,2.192,0,0,0,1.27.363,4.926,4.926,0,0,1,2.46,1.636,14.517,14.517,0,0,1,1.37,2.18,5.375,5.375,0,0,1,0,4.727,54.861,54.861,0,0,1-20.23,23.714Q3438.5,709.463,3421.01,709.467Zm37.89-68.515q-2.925-15.268-12.57-23.081-9.66-7.813-25.32-7.816-10.215,0-17.04,3.272a35.751,35.751,0,0,0-11.2,8.087,34.593,34.593,0,0,0-6.56,10.179,60.517,60.517,0,0,0-3.09,9.359h75.78ZM1575.54,468.944l-123.8-257.182h56.62l92.95,193.093,92.94-193.093h56.62l-123.8,257.182h-51.53Zm-727.93,0a58.241,58.241,0,0,1-58.223-58.13V211.762h45.878V403.769a19.409,19.409,0,0,0,19.4,19.37h93.506V211.762h45.879V423.139h93.508a19.406,19.406,0,0,0,19.4-19.37V211.762h45.88V410.814a58.242,58.242,0,0,1-58.22,58.13H847.61Zm1718.49,0V363.256H2400.25V468.947h-45.87V211.759h45.87V317.45H2566.1V211.759h45.87V468.947H2566.1Zm-498.76,0V423.141h192.31a19.408,19.408,0,0,0,19.41-19.371V382.633a19.409,19.409,0,0,0-19.41-19.377H2125.57a58.245,58.245,0,0,1-58.23-58.131V269.89a58.245,58.245,0,0,1,58.23-58.131h199.37v45.806H2132.62a19.406,19.406,0,0,0-19.4,19.371v21.143a19.406,19.406,0,0,0,19.4,19.371h134.09a58.245,58.245,0,0,1,58.23,58.132v35.234a58.244,58.244,0,0,1-58.23,58.131H2067.34Zm-287.03,0V211.759H2037.9v45.806H1826.18V317.45h176.44v45.806H1826.18v59.885H2037.9v45.806H1780.31Zm1434.85,0V211.762h257.59v45.805H3261.04v59.884h176.42v45.8H3261.04v59.884h211.71v45.805H3215.16Zm-1821.17,0V380.866H1228.16v88.078h-45.88V269.892a58.242,58.242,0,0,1,58.22-58.13h141.15a58.242,58.242,0,0,1,58.22,58.13V468.944h-45.88Zm0-133.876V276.937a19.406,19.406,0,0,0-19.4-19.37H1247.56a19.406,19.406,0,0,0-19.4,19.37v58.131h165.83ZM2853.12,468.944V380.866H2687.28v88.078h-45.87V269.892a58.242,58.242,0,0,1,58.22-58.13h141.14a58.244,58.244,0,0,1,58.23,58.13V468.944h-45.88Zm0-133.876V276.937a19.406,19.406,0,0,0-19.4-19.37H2706.69a19.414,19.414,0,0,0-19.41,19.37v58.131h165.84Zm278.55,133.876-121.42-88.078h-35.9v88.078h-45.87V211.762h199.36a58.244,58.244,0,0,1,58.23,58.13v52.844a58.244,58.244,0,0,1-58.23,58.13H3088.3l121.41,88.078h-78.04Zm-10.88-133.876a19.408,19.408,0,0,0,19.4-19.378V276.937a19.406,19.406,0,0,0-19.4-19.37H2974.35v77.5h146.44Z"/>
  </g>
</svg>
