<?xml version="1.0" encoding="iso-8859-1"?>
<!-- Generator: Adobe Illustrator 14.0.0, SVG Export Plug-In . SVG Version: 6.00 Build 43363)  -->
<!DOCTYPE svg PUBLIC "-//W3C//DTD SVG 1.1//EN" "http://www.w3.org/Graphics/SVG/1.1/DTD/svg11.dtd">
<svg version="1.1" id="Layer_1" xmlns="http://www.w3.org/2000/svg" xmlns:xlink="http://www.w3.org/1999/xlink" x="0px" y="0px"
	 width="32px" height="32px" viewBox="0 0 32 32" style="enable-background:new 0 0 32 32;" xml:space="preserve">
<g>
	<g>
		<rect style="fill-rule:evenodd;clip-rule:evenodd;fill:none;" width="32" height="32"/>
	</g>
	<g>
		<path style="fill-rule:evenodd;clip-rule:evenodd;fill:#FFBE3C;" d="M16,6.259c2.739,0,4.994,2.255,4.994,4.995
			S18.739,16.248,16,16.248c-2.74,0-4.995-2.255-4.995-4.995S13.26,6.259,16,6.259 M16.292,2.882l0.722,2.342
			c0.031,0.101,0.01,0.203-0.058,0.285c-0.068,0.082-0.165,0.12-0.27,0.107c-0.455-0.055-0.917-0.055-1.371,0
			c-0.105,0.013-0.202-0.025-0.27-0.107c-0.068-0.082-0.089-0.184-0.058-0.285l0.723-2.341c0.04-0.13,0.155-0.215,0.291-0.215
			S16.251,2.751,16.292,2.882 M12.067,3.857c-0.1-0.093-0.243-0.109-0.361-0.041c-0.118,0.068-0.175,0.2-0.145,0.332l0.546,2.389
			c0.024,0.104,0.093,0.182,0.192,0.218c0.101,0.037,0.203,0.022,0.289-0.042c0.366-0.275,0.766-0.505,1.187-0.686
			c0.098-0.042,0.163-0.123,0.181-0.228c0.018-0.105-0.015-0.203-0.093-0.276L12.067,3.857z M8.896,6.815
			C8.763,6.784,8.631,6.842,8.563,6.959C8.495,7.079,8.511,7.22,8.604,7.32l1.667,1.796c0.072,0.077,0.171,0.111,0.275,0.093
			c0.105-0.019,0.187-0.083,0.229-0.181c0.18-0.421,0.41-0.821,0.685-1.187c0.063-0.084,0.079-0.189,0.042-0.288
			c-0.036-0.1-0.114-0.169-0.218-0.193L8.896,6.815z M7.628,10.962l2.341-0.722c0.102-0.031,0.204-0.011,0.286,0.058
			c0.081,0.068,0.12,0.165,0.107,0.271c-0.055,0.454-0.055,0.916,0,1.37c0.013,0.106-0.026,0.202-0.107,0.271
			c-0.082,0.068-0.184,0.089-0.286,0.058l-2.341-0.721c-0.129-0.041-0.215-0.156-0.215-0.292
			C7.413,11.117,7.498,11.002,7.628,10.962 M8.604,15.187c-0.093,0.101-0.109,0.243-0.041,0.361c0.068,0.117,0.2,0.175,0.332,0.145
			l2.388-0.545c0.104-0.024,0.183-0.093,0.218-0.192c0.037-0.1,0.021-0.204-0.042-0.288c-0.274-0.366-0.505-0.766-0.685-1.188
			c-0.042-0.098-0.124-0.162-0.229-0.18c-0.104-0.019-0.203,0.015-0.275,0.093L8.604,15.187z M11.562,18.357
			c-0.03,0.133,0.027,0.265,0.146,0.332c0.117,0.068,0.259,0.053,0.359-0.041l1.795-1.666c0.078-0.072,0.111-0.171,0.093-0.276
			c-0.018-0.104-0.083-0.187-0.181-0.228c-0.421-0.18-0.82-0.41-1.187-0.686c-0.086-0.063-0.188-0.079-0.289-0.042
			c-0.099,0.037-0.168,0.115-0.192,0.219L11.562,18.357z M15.709,19.626l-0.723-2.343c-0.031-0.102-0.01-0.203,0.058-0.285
			c0.068-0.082,0.165-0.12,0.27-0.107c0.454,0.055,0.917,0.055,1.371,0c0.105-0.013,0.203,0.025,0.27,0.107
			c0.068,0.082,0.089,0.184,0.058,0.285l-0.722,2.343c-0.04,0.13-0.156,0.214-0.292,0.214C15.865,19.84,15.749,19.756,15.709,19.626
			 M19.933,18.648c0.101,0.094,0.243,0.109,0.36,0.041c0.118-0.067,0.176-0.199,0.145-0.332l-0.545-2.388
			c-0.024-0.104-0.094-0.182-0.192-0.219c-0.1-0.037-0.202-0.021-0.288,0.042c-0.367,0.276-0.766,0.506-1.188,0.686
			c-0.098,0.042-0.162,0.124-0.18,0.228c-0.02,0.105,0.015,0.204,0.092,0.276L19.933,18.648z M23.104,15.692
			c0.133,0.03,0.264-0.027,0.332-0.145c0.068-0.119,0.053-0.26-0.039-0.361l-1.668-1.795c-0.072-0.078-0.171-0.111-0.275-0.093
			c-0.105,0.018-0.188,0.083-0.229,0.18c-0.18,0.421-0.41,0.821-0.686,1.188c-0.063,0.084-0.078,0.188-0.042,0.288
			c0.036,0.1,0.114,0.168,0.218,0.192L23.104,15.692z M24.371,11.545l-2.342,0.722c-0.102,0.031-0.203,0.011-0.285-0.058
			c-0.081-0.069-0.119-0.164-0.107-0.271c0.056-0.455,0.056-0.916,0-1.37c-0.012-0.106,0.026-0.203,0.107-0.271
			c0.082-0.068,0.184-0.089,0.286-0.057l2.341,0.721c0.131,0.04,0.216,0.156,0.216,0.292S24.502,11.505,24.371,11.545 M23.396,7.32
			c0.093-0.1,0.108-0.241,0.04-0.36c-0.067-0.118-0.199-0.176-0.332-0.145L20.715,7.36c-0.104,0.023-0.182,0.093-0.218,0.193
			c-0.036,0.099-0.021,0.204,0.042,0.288c0.275,0.365,0.506,0.765,0.686,1.187c0.041,0.098,0.123,0.163,0.229,0.181
			c0.104,0.018,0.203-0.016,0.275-0.093L23.396,7.32z M20.438,4.148c0.031-0.132-0.026-0.263-0.145-0.331
			c-0.117-0.068-0.26-0.052-0.36,0.04l-1.796,1.667c-0.077,0.073-0.111,0.17-0.092,0.276c0.018,0.104,0.082,0.186,0.18,0.228
			c0.422,0.18,0.82,0.411,1.188,0.686c0.086,0.064,0.188,0.079,0.288,0.042c0.099-0.037,0.168-0.115,0.192-0.218L20.438,4.148z
			 M16,7.77c-1.911,0-3.483,1.573-3.483,3.483c0,1.91,1.573,3.483,3.483,3.483c1.91,0,3.482-1.574,3.482-3.483
			C19.482,9.343,17.91,7.77,16,7.77"/>
	</g>
</g>
</svg>
