<?xml version="1.0" encoding="iso-8859-1"?>
<!-- Generator: Adobe Illustrator 14.0.0, SVG Export Plug-In . SVG Version: 6.00 Build 43363)  -->
<!DOCTYPE svg PUBLIC "-//W3C//DTD SVG 1.1//EN" "http://www.w3.org/Graphics/SVG/1.1/DTD/svg11.dtd">
<svg version="1.1" id="Layer_1" xmlns="http://www.w3.org/2000/svg" xmlns:xlink="http://www.w3.org/1999/xlink" x="0px" y="0px"
	 width="32px" height="32px" viewBox="0 0 32 32" style="enable-background:new 0 0 32 32;" xml:space="preserve">
<g>
	<g>
		<rect style="fill:none;" width="32" height="32"/>
	</g>
	<path style="fill-rule:evenodd;clip-rule:evenodd;fill:#FFBE3C;" d="M16,6.258c2.739,0,4.994,2.256,4.994,4.995
		c0,2.74-2.255,4.995-4.994,4.995c-2.74,0-4.996-2.255-4.996-4.995C11.005,8.515,13.26,6.258,16,6.258 M16.292,2.881l0.722,2.342
		c0.031,0.102,0.011,0.203-0.058,0.285c-0.067,0.082-0.165,0.12-0.27,0.107c-0.455-0.055-0.917-0.055-1.371,0
		c-0.106,0.013-0.202-0.026-0.271-0.107c-0.068-0.082-0.089-0.183-0.058-0.285l0.722-2.342c0.04-0.13,0.155-0.215,0.292-0.215
		C16.136,2.667,16.251,2.751,16.292,2.881 M12.067,3.857c-0.1-0.093-0.243-0.108-0.361-0.041c-0.118,0.068-0.175,0.2-0.145,0.332
		l0.546,2.389c0.024,0.103,0.093,0.182,0.191,0.217c0.101,0.038,0.203,0.022,0.289-0.042c0.367-0.275,0.766-0.505,1.187-0.686
		c0.098-0.041,0.163-0.124,0.181-0.228c0.018-0.105-0.016-0.202-0.093-0.275L12.067,3.857z M8.896,6.815
		C8.763,6.785,8.632,6.842,8.563,6.96C8.495,7.078,8.512,7.22,8.604,7.32l1.667,1.795c0.072,0.078,0.171,0.11,0.275,0.093
		c0.105-0.018,0.188-0.083,0.229-0.181c0.18-0.421,0.41-0.82,0.685-1.187c0.063-0.085,0.079-0.187,0.042-0.288
		c-0.036-0.099-0.114-0.168-0.219-0.192L8.896,6.815z M7.628,10.962l2.341-0.721c0.102-0.031,0.204-0.011,0.287,0.058
		c0.081,0.067,0.12,0.165,0.107,0.27c-0.055,0.454-0.055,0.916,0,1.37c0.013,0.106-0.026,0.203-0.108,0.272
		c-0.082,0.067-0.184,0.088-0.286,0.057l-2.341-0.722c-0.13-0.04-0.215-0.155-0.215-0.29C7.413,11.117,7.499,11.002,7.628,10.962
		 M8.604,15.187c-0.092,0.101-0.109,0.243-0.041,0.36c0.068,0.118,0.199,0.174,0.332,0.145l2.388-0.545
		c0.104-0.024,0.183-0.093,0.219-0.193c0.037-0.099,0.021-0.203-0.042-0.288c-0.274-0.366-0.505-0.766-0.685-1.188
		c-0.042-0.097-0.124-0.162-0.229-0.179c-0.104-0.019-0.203,0.014-0.275,0.093L8.604,15.187z M11.562,18.357
		c-0.03,0.133,0.027,0.266,0.146,0.332c0.117,0.068,0.259,0.053,0.359-0.041l1.795-1.665c0.077-0.074,0.111-0.171,0.093-0.277
		c-0.019-0.104-0.083-0.186-0.181-0.228c-0.421-0.18-0.82-0.411-1.187-0.685c-0.085-0.064-0.188-0.08-0.289-0.043
		c-0.099,0.038-0.167,0.114-0.191,0.219L11.562,18.357z M15.709,19.625l-0.722-2.342c-0.031-0.102-0.01-0.203,0.058-0.285
		c0.068-0.083,0.165-0.121,0.271-0.108c0.454,0.056,0.916,0.056,1.371,0c0.105-0.013,0.202,0.025,0.27,0.108
		c0.069,0.082,0.089,0.183,0.058,0.285l-0.722,2.342c-0.041,0.131-0.156,0.216-0.292,0.216S15.749,19.756,15.709,19.625
		 M19.933,18.648c0.101,0.094,0.244,0.109,0.36,0.041c0.118-0.066,0.176-0.199,0.145-0.332l-0.545-2.388
		c-0.024-0.104-0.094-0.181-0.191-0.219c-0.101-0.037-0.203-0.021-0.289,0.043c-0.365,0.274-0.766,0.505-1.187,0.685
		c-0.099,0.042-0.163,0.124-0.181,0.228c-0.019,0.105,0.016,0.203,0.094,0.277L19.933,18.648z M23.104,15.692
		c0.132,0.03,0.264-0.027,0.331-0.145c0.069-0.118,0.054-0.26-0.039-0.36l-1.667-1.795c-0.073-0.079-0.172-0.111-0.276-0.093
		c-0.104,0.017-0.186,0.082-0.228,0.179c-0.181,0.422-0.411,0.821-0.686,1.188c-0.064,0.084-0.079,0.188-0.042,0.288
		c0.035,0.1,0.113,0.169,0.219,0.193L23.104,15.692z M24.371,11.545l-2.342,0.722c-0.101,0.031-0.203,0.01-0.285-0.057
		c-0.08-0.069-0.119-0.166-0.107-0.272c0.056-0.454,0.056-0.916,0-1.37c-0.012-0.105,0.027-0.203,0.107-0.271
		c0.082-0.068,0.185-0.088,0.287-0.057l2.34,0.721c0.131,0.04,0.216,0.155,0.216,0.292C24.587,11.39,24.502,11.505,24.371,11.545
		 M23.396,7.32c0.093-0.1,0.108-0.242,0.039-0.36c-0.067-0.118-0.199-0.175-0.331-0.145l-2.388,0.546
		c-0.105,0.023-0.184,0.093-0.219,0.192c-0.037,0.101-0.022,0.203,0.042,0.288c0.274,0.366,0.505,0.766,0.686,1.187
		c0.042,0.099,0.123,0.163,0.228,0.181c0.104,0.017,0.203-0.015,0.276-0.093L23.396,7.32z M20.438,4.148
		c0.031-0.132-0.026-0.263-0.143-0.331c-0.118-0.068-0.262-0.052-0.362,0.041l-1.794,1.667c-0.078,0.074-0.112,0.17-0.094,0.275
		c0.018,0.104,0.082,0.187,0.181,0.228c0.421,0.181,0.821,0.411,1.187,0.686c0.086,0.063,0.188,0.079,0.289,0.042
		c0.098-0.035,0.167-0.114,0.191-0.217L20.438,4.148z M16,7.77c-1.912,0-3.483,1.573-3.483,3.483c0,1.911,1.573,3.483,3.483,3.483
		c1.911,0,3.482-1.573,3.482-3.483C19.482,9.343,17.911,7.77,16,7.77"/>
	<g>
		<path style="fill:#999999;" d="M22.421,21.441H9.578c-0.628,0-1.138-0.239-1.138-0.533c0-0.295,0.51-0.533,1.138-0.533h12.843
			c0.629,0,1.139,0.238,1.139,0.533C23.56,21.202,23.05,21.441,22.421,21.441L22.421,21.441z"/>
		<g>
			<path style="fill:#999999;" d="M22.421,23.844H9.578c-0.628,0-1.138-0.24-1.138-0.533c0-0.295,0.51-0.534,1.138-0.534h12.843
				c0.629,0,1.139,0.239,1.139,0.534C23.56,23.604,23.05,23.844,22.421,23.844L22.421,23.844z"/>
		</g>
	</g>
</g>
</svg>
