<?xml version="1.0" encoding="iso-8859-1"?>
<!-- Generator: Adobe Illustrator 14.0.0, SVG Export Plug-In . SVG Version: 6.00 Build 43363)  -->
<!DOCTYPE svg PUBLIC "-//W3C//DTD SVG 1.1//EN" "http://www.w3.org/Graphics/SVG/1.1/DTD/svg11.dtd">
<svg version="1.1" id="Layer_1" xmlns="http://www.w3.org/2000/svg" xmlns:xlink="http://www.w3.org/1999/xlink" x="0px" y="0px"
	 width="32px" height="32px" viewBox="0 0 32 32" style="enable-background:new 0 0 32 32;" xml:space="preserve">
<g>
	<g>
		<rect style="fill:none;" width="32" height="32"/>
	</g>
	<path style="fill-rule:evenodd;clip-rule:evenodd;fill:#FFBE3C;" d="M16.287,6.259c2.739,0,4.995,2.256,4.995,4.995
		c0,2.738-2.256,4.994-4.995,4.994s-4.995-2.256-4.995-4.994C11.292,8.515,13.547,6.259,16.287,6.259 M16.578,2.881L17.3,5.223
		c0.031,0.102,0.011,0.203-0.058,0.285c-0.068,0.081-0.164,0.12-0.271,0.106c-0.454-0.055-0.916-0.055-1.371,0
		c-0.105,0.013-0.202-0.025-0.27-0.106c-0.068-0.082-0.088-0.184-0.057-0.286l0.722-2.341c0.04-0.13,0.155-0.215,0.291-0.215
		C16.423,2.667,16.539,2.751,16.578,2.881 M12.353,3.858c-0.099-0.093-0.243-0.11-0.359-0.042c-0.118,0.068-0.176,0.2-0.146,0.333
		l0.545,2.389c0.024,0.104,0.093,0.182,0.193,0.219c0.1,0.036,0.203,0.022,0.289-0.042c0.366-0.275,0.766-0.506,1.187-0.687
		c0.098-0.041,0.163-0.123,0.18-0.228c0.019-0.105-0.015-0.203-0.093-0.276L12.353,3.858z M9.182,6.814
		C9.05,6.785,8.919,6.842,8.85,6.959C8.782,7.078,8.798,7.22,8.891,7.32l1.667,1.795c0.073,0.078,0.171,0.111,0.276,0.093
		c0.105-0.018,0.187-0.083,0.228-0.181c0.18-0.421,0.41-0.82,0.686-1.186c0.063-0.085,0.079-0.188,0.042-0.288
		c-0.037-0.099-0.115-0.169-0.219-0.193L9.182,6.814z M7.915,10.962l2.342-0.722c0.102-0.031,0.204-0.011,0.286,0.058
		c0.081,0.068,0.12,0.165,0.107,0.27c-0.055,0.455-0.055,0.916,0,1.37c0.013,0.106-0.027,0.202-0.108,0.271
		c-0.081,0.068-0.183,0.088-0.285,0.057l-2.342-0.722C7.786,11.504,7.7,11.389,7.7,11.253C7.7,11.117,7.786,11.002,7.915,10.962
		 M11.848,18.357c-0.029,0.133,0.028,0.265,0.146,0.332c0.118,0.068,0.261,0.052,0.359-0.041l1.796-1.666
		c0.078-0.073,0.111-0.171,0.093-0.276c-0.018-0.104-0.083-0.186-0.18-0.228c-0.421-0.179-0.821-0.41-1.187-0.686
		c-0.085-0.063-0.188-0.078-0.289-0.042c-0.1,0.037-0.169,0.115-0.193,0.219L11.848,18.357z M15.996,19.625l-0.722-2.342
		c-0.031-0.102-0.011-0.203,0.057-0.285c0.068-0.083,0.165-0.121,0.27-0.108c0.455,0.055,0.917,0.055,1.371,0
		c0.106-0.013,0.203,0.025,0.271,0.108c0.068,0.082,0.089,0.183,0.058,0.285l-0.722,2.342c-0.04,0.131-0.155,0.215-0.292,0.215
		C16.151,19.84,16.036,19.756,15.996,19.625 M20.22,18.648c0.101,0.093,0.243,0.109,0.36,0.041c0.117-0.067,0.176-0.199,0.145-0.332
		l-0.545-2.389c-0.024-0.104-0.094-0.182-0.192-0.219c-0.1-0.036-0.203-0.021-0.288,0.042c-0.367,0.276-0.766,0.507-1.188,0.686
		c-0.098,0.042-0.162,0.124-0.181,0.228c-0.019,0.105,0.016,0.204,0.093,0.276L20.22,18.648z M23.392,15.691
		c0.132,0.03,0.264-0.027,0.331-0.144c0.068-0.118,0.053-0.26-0.039-0.361l-1.668-1.795c-0.072-0.079-0.171-0.111-0.275-0.093
		c-0.105,0.017-0.188,0.083-0.229,0.18c-0.181,0.421-0.41,0.821-0.686,1.187c-0.063,0.084-0.078,0.188-0.042,0.288
		s0.114,0.168,0.218,0.192L23.392,15.691z M24.658,11.545l-2.342,0.722c-0.101,0.031-0.204,0.011-0.285-0.057
		c-0.081-0.069-0.119-0.165-0.107-0.271c0.055-0.455,0.055-0.916,0-1.37c-0.012-0.105,0.026-0.203,0.107-0.271
		c0.082-0.068,0.185-0.089,0.287-0.058l2.34,0.722c0.131,0.041,0.216,0.156,0.216,0.292C24.874,11.389,24.789,11.504,24.658,11.545
		 M23.682,7.32c0.094-0.1,0.109-0.242,0.041-0.36c-0.067-0.118-0.199-0.175-0.331-0.145l-2.39,0.545
		c-0.104,0.024-0.182,0.093-0.218,0.193c-0.036,0.1-0.021,0.203,0.042,0.288c0.275,0.365,0.505,0.765,0.686,1.186
		c0.041,0.098,0.123,0.163,0.229,0.181c0.104,0.018,0.203-0.015,0.275-0.093L23.682,7.32z M20.725,4.148
		c0.031-0.132-0.027-0.264-0.145-0.331c-0.117-0.069-0.26-0.052-0.36,0.04l-1.796,1.667c-0.077,0.073-0.111,0.17-0.093,0.276
		c0.019,0.104,0.083,0.187,0.181,0.228c0.422,0.181,0.82,0.411,1.188,0.687c0.085,0.064,0.188,0.078,0.288,0.042
		c0.099-0.037,0.168-0.115,0.192-0.219L20.725,4.148z M16.287,7.77c-1.911,0-3.483,1.573-3.483,3.483
		c0,1.91,1.573,3.483,3.483,3.483s3.483-1.573,3.483-3.483C19.77,9.343,18.197,7.77,16.287,7.77"/>
	<g>
		<path style="fill:#0071BC;" d="M12.712,13.3c-0.029-0.004-0.055-0.021-0.072-0.05c-0.39-0.713-1.149-1.166-1.962-1.166
			c-0.944,0-1.796,0.608-2.11,1.493c-0.012,0.042-0.049,0.067-0.092,0.071c-0.755,0.055-1.35,0.688-1.35,1.451
			c0,0.805,0.653,1.46,1.454,1.46h3.834c0.901,0,1.645-0.743,1.645-1.644C14.06,14.127,13.484,13.442,12.712,13.3 M12.415,16.035
			H8.58c-0.51,0-0.93-0.419-0.93-0.936c0-0.474,0.36-0.867,0.818-0.923c0.298-0.038,0.6,0.076,0.805,0.298
			c0.096,0.109,0.265,0.113,0.37,0.017c0.108-0.097,0.117-0.264,0.02-0.369c-0.139-0.151-0.311-0.272-0.494-0.357
			c-0.03-0.012-0.047-0.029-0.06-0.058c-0.008-0.025-0.008-0.055,0.004-0.08c0.271-0.612,0.888-1.019,1.564-1.019
			c0.491,0,0.956,0.214,1.279,0.574c0.025,0.026,0.033,0.063,0.025,0.097c-0.013,0.038-0.038,0.062-0.071,0.075
			c-0.252,0.08-0.474,0.218-0.66,0.398c-0.297,0.298-0.477,0.708-0.477,1.162c0,0.146,0.117,0.264,0.259,0.264
			c0.147,0,0.265-0.118,0.265-0.264c0-0.306,0.126-0.588,0.327-0.788c0.712-0.714,1.908-0.168,1.908,0.788
			C13.534,15.532,13.027,16.035,12.415,16.035"/>
		<path style="fill:#FFFFFF;" d="M11.912,13.354c0.033-0.013,0.058-0.038,0.071-0.075c0.008-0.034,0-0.071-0.025-0.097
			c-0.323-0.36-0.789-0.574-1.279-0.574c-0.676,0-1.293,0.407-1.564,1.019c-0.013,0.025-0.013,0.055-0.004,0.08
			c0.013,0.029,0.029,0.046,0.06,0.058c0.183,0.084,0.355,0.206,0.494,0.357c0.097,0.105,0.088,0.272-0.02,0.369
			c-0.105,0.097-0.274,0.092-0.37-0.017c-0.205-0.223-0.507-0.336-0.805-0.298C8.01,14.232,7.65,14.625,7.65,15.099
			c0,0.516,0.42,0.936,0.93,0.936h3.834c0.612,0,1.12-0.503,1.12-1.12c0-0.956-1.196-1.502-1.908-0.788
			c-0.201,0.2-0.327,0.482-0.327,0.788c0,0.146-0.118,0.264-0.265,0.264c-0.143,0-0.259-0.118-0.259-0.264
			c0-0.454,0.18-0.864,0.477-1.162C11.438,13.572,11.659,13.435,11.912,13.354z"/>
	</g>
	<g>
		<path style="fill:#999999;" d="M22.421,21.439H9.578c-0.628,0-1.138-0.238-1.138-0.533s0.51-0.533,1.138-0.533h12.843
			c0.629,0,1.139,0.238,1.139,0.533S23.05,21.439,22.421,21.439L22.421,21.439z"/>
		<g>
			<path style="fill:#999999;" d="M22.421,23.842H9.578c-0.628,0-1.138-0.239-1.138-0.533c0-0.295,0.51-0.533,1.138-0.533h12.843
				c0.629,0,1.139,0.238,1.139,0.533C23.56,23.603,23.05,23.842,22.421,23.842L22.421,23.842z"/>
		</g>
	</g>
</g>
</svg>
