<?xml version="1.0" encoding="iso-8859-1"?>
<!-- Generator: Adobe Illustrator 14.0.0, SVG Export Plug-In . SVG Version: 6.00 Build 43363)  -->
<!DOCTYPE svg PUBLIC "-//W3C//DTD SVG 1.1//EN" "http://www.w3.org/Graphics/SVG/1.1/DTD/svg11.dtd">
<svg version="1.1" id="Layer_1" xmlns="http://www.w3.org/2000/svg" xmlns:xlink="http://www.w3.org/1999/xlink" x="0px" y="0px"
	 width="32px" height="32px" viewBox="0 0 32 32" style="enable-background:new 0 0 32 32;" xml:space="preserve">
<g>
	<g>
		<rect style="fill:none;" width="32" height="32"/>
	</g>
	<g>
		<g>
			<g>
				<path style="fill:#FFBE3C;" d="M21.729,9.133c-0.072,0.078-0.17,0.111-0.275,0.093c-0.105-0.018-0.187-0.083-0.229-0.18
					c-0.18-0.422-0.41-0.821-0.686-1.188c-0.062-0.084-0.078-0.188-0.041-0.288c0.035-0.1,0.113-0.169,0.218-0.193l2.389-0.545
					c0.132-0.03,0.265,0.027,0.332,0.145c0.068,0.119,0.052,0.26-0.04,0.36L21.729,9.133z"/>
				<path style="fill:#FFBE3C;" d="M16.686,5.633c-0.454-0.055-0.917-0.055-1.371,0c-0.105,0.013-0.202-0.026-0.271-0.107
					c-0.068-0.081-0.089-0.183-0.058-0.284l0.722-2.343c0.04-0.13,0.156-0.214,0.292-0.214s0.251,0.084,0.291,0.214l0.723,2.342
					c0.031,0.102,0.01,0.204-0.058,0.285C16.888,5.607,16.791,5.646,16.686,5.633z"/>
				<path style="fill:#FFBE3C;" d="M19.893,6.555C19.869,6.658,19.8,6.736,19.7,6.774c-0.101,0.037-0.202,0.021-0.288-0.042
					c-0.366-0.275-0.766-0.505-1.187-0.687c-0.099-0.041-0.163-0.123-0.181-0.227c-0.018-0.105,0.015-0.203,0.093-0.276l1.796-1.667
					c0.1-0.093,0.242-0.108,0.36-0.041c0.118,0.067,0.175,0.2,0.145,0.332L19.893,6.555z"/>
				<path style="fill:#FFBE3C;" d="M11.005,11.271c0,2.739,2.255,4.995,4.995,4.995c2.74,0,4.995-2.255,4.995-4.995
					c0-2.74-2.255-4.995-4.995-4.995C13.26,6.276,11.005,8.531,11.005,11.271z M12.517,11.271c0-1.911,1.573-3.483,3.483-3.483
					c1.911,0,3.483,1.573,3.483,3.483c0,1.91-1.573,3.483-3.483,3.483C14.089,14.754,12.517,13.181,12.517,11.271z"/>
				<path style="fill:#FFBE3C;" d="M10.775,9.046c-0.042,0.098-0.123,0.163-0.228,0.18c-0.105,0.019-0.203-0.015-0.276-0.093
					L8.604,7.337c-0.093-0.1-0.108-0.242-0.041-0.36c0.068-0.118,0.2-0.175,0.333-0.145l2.388,0.545
					c0.104,0.023,0.182,0.093,0.219,0.193c0.037,0.099,0.021,0.203-0.042,0.288C11.186,8.224,10.955,8.624,10.775,9.046z"/>
				<path style="fill:#FFBE3C;" d="M13.775,6.045c-0.422,0.181-0.821,0.411-1.188,0.687c-0.085,0.063-0.188,0.079-0.288,0.042
					c-0.1-0.038-0.168-0.116-0.192-0.219l-0.546-2.39c-0.03-0.132,0.027-0.264,0.145-0.331c0.118-0.068,0.261-0.052,0.361,0.041
					l1.795,1.667c0.078,0.073,0.112,0.171,0.093,0.276C13.937,5.922,13.873,6.004,13.775,6.045z"/>
				<path style="fill:#FFBE3C;" d="M10.271,13.408c0.073-0.078,0.171-0.11,0.276-0.093c0.105,0.018,0.187,0.083,0.228,0.18
					c0.18,0.422,0.411,0.821,0.686,1.188c0.063,0.084,0.079,0.189,0.042,0.289c-0.037,0.099-0.115,0.168-0.219,0.192l-2.388,0.546
					c-0.132,0.03-0.264-0.027-0.333-0.145c-0.068-0.119-0.052-0.26,0.04-0.36L10.271,13.408z"/>
				<path style="fill:#FFBE3C;" d="M7.628,10.979l2.342-0.722c0.102-0.031,0.203-0.01,0.286,0.057
					c0.081,0.069,0.12,0.166,0.107,0.271c-0.055,0.455-0.055,0.916,0,1.371c0.013,0.106-0.026,0.202-0.107,0.271
					c-0.082,0.068-0.184,0.088-0.286,0.057l-2.342-0.722c-0.13-0.041-0.215-0.155-0.215-0.292
					C7.413,11.134,7.498,11.019,7.628,10.979z"/>
				<path style="fill:#FFBE3C;" d="M21.744,12.227c-0.08-0.069-0.119-0.165-0.106-0.271c0.055-0.455,0.055-0.916,0-1.371
					c-0.013-0.105,0.026-0.202,0.106-0.27c0.083-0.068,0.185-0.088,0.286-0.058l2.342,0.722c0.13,0.041,0.216,0.155,0.216,0.293
					c0,0.135-0.087,0.25-0.216,0.292l-2.342,0.721C21.929,12.315,21.827,12.295,21.744,12.227z"/>
				<path style="fill:#FFBE3C;" d="M12.107,15.986c0.024-0.104,0.093-0.181,0.192-0.219c0.099-0.036,0.202-0.021,0.288,0.043
					c0.367,0.275,0.766,0.505,1.188,0.685c0.098,0.042,0.162,0.124,0.18,0.229c0.019,0.105-0.015,0.204-0.093,0.276l-1.795,1.666
					c-0.1,0.094-0.243,0.109-0.361,0.041c-0.118-0.067-0.175-0.199-0.145-0.332L12.107,15.986z"/>
			</g>
			<g>
				<g>
					<path style="fill:#FFFFFF;" d="M13.69,14.183c0.776,0,1.408-0.631,1.408-1.407c0-0.773-0.64-1.401-1.426-1.401
						c-0.363,0-0.709,0.146-0.973,0.409c-0.266,0.268-0.411,0.62-0.411,0.992c-0.034-0.386,0.114-0.749,0.384-1.019
						c0.167-0.164,0.363-0.281,0.576-0.348c0.122-0.047,0.204-0.133,0.238-0.244c0.035-0.129,0.001-0.259-0.083-0.349
						c-0.382-0.424-0.932-0.671-1.503-0.671c-0.793,0-1.518,0.472-1.843,1.2c-0.039,0.075-0.044,0.174-0.012,0.268
						c0.043,0.105,0.107,0.169,0.196,0.209c0.162,0.073,0.31,0.179,0.428,0.308l0,0c-0.002,0-0.029,0.021-0.031,0.021l0,0
						c-0.232-0.251-0.559-0.395-0.896-0.395c-0.051,0-0.102,0.003-0.153,0.009c-0.604,0.071-1.063,0.587-1.063,1.202
						c0,0.67,0.544,1.215,1.212,1.215H13.69z"/>
					<path style="fill:#0071BC;" d="M15.188,12.743c0-0.768-0.56-1.432-1.311-1.572c-0.029-0.004-0.054-0.021-0.07-0.049
						c-0.38-0.694-1.12-1.136-1.911-1.136c-0.919,0-1.748,0.593-2.054,1.454c-0.012,0.041-0.048,0.066-0.09,0.069
						c-0.734,0.054-1.314,0.67-1.314,1.414c0,0.785,0.638,1.421,1.417,1.421h3.732C14.464,14.344,15.188,13.621,15.188,12.743
						 M14.677,12.743c0,0.6-0.495,1.091-1.091,1.091H9.854c-0.498,0-0.906-0.409-0.906-0.911c0-0.461,0.351-0.846,0.797-0.898
						c0.29-0.038,0.583,0.073,0.784,0.29c0.094,0.105,0.257,0.109,0.359,0.016c0.106-0.093,0.114-0.256,0.021-0.359
						c-0.135-0.147-0.303-0.266-0.482-0.347c-0.028-0.013-0.045-0.028-0.058-0.057c-0.008-0.025-0.008-0.052,0.004-0.077
						c0.266-0.596,0.866-0.993,1.523-0.993c0.478,0,0.931,0.209,1.246,0.559c0.024,0.025,0.032,0.062,0.024,0.094
						c-0.011,0.037-0.036,0.062-0.069,0.074c-0.246,0.077-0.461,0.212-0.642,0.387c-0.29,0.291-0.464,0.691-0.464,1.131
						c0,0.143,0.113,0.257,0.252,0.257c0.144,0,0.257-0.115,0.257-0.257c0-0.298,0.123-0.571,0.319-0.768
						C13.513,11.281,14.677,11.812,14.677,12.743"/>
				</g>
				<g>
					<path style="fill:#FFFFFF;" d="M22.061,16.898c1.16,0,2.104-0.944,2.104-2.105c0-1.154-0.955-2.094-2.132-2.094
						c-0.542,0-1.06,0.217-1.454,0.613c-0.398,0.399-0.615,0.925-0.615,1.481c-0.051-0.577,0.171-1.119,0.574-1.522
						c0.252-0.244,0.543-0.421,0.861-0.52c0.183-0.07,0.304-0.199,0.355-0.365c0.053-0.193,0.004-0.387-0.123-0.521
						c-0.571-0.635-1.393-1.003-2.248-1.003c-1.188,0-2.27,0.705-2.756,1.795c-0.057,0.112-0.066,0.26-0.019,0.4
						c0.065,0.156,0.162,0.253,0.293,0.312c0.243,0.109,0.464,0.269,0.64,0.46h-0.001c-0.002,0-0.042,0.031-0.045,0.031l0,0
						c-0.348-0.376-0.835-0.592-1.339-0.592c-0.076,0-0.152,0.005-0.229,0.016c-0.904,0.105-1.59,0.877-1.59,1.796
						c0,1.003,0.812,1.819,1.812,1.819H22.061z"/>
					<path style="fill:#0071BC;" d="M24.588,14.758c0-1.203-0.877-2.245-2.055-2.463c-0.047-0.006-0.086-0.034-0.109-0.077
						c-0.597-1.087-1.756-1.78-2.997-1.78c-1.44,0-2.74,0.929-3.221,2.28c-0.019,0.063-0.075,0.103-0.141,0.107
						c-1.151,0.085-2.061,1.051-2.061,2.216c0,1.229,1,2.228,2.221,2.228h5.852C23.453,17.27,24.588,16.135,24.588,14.758
						 M23.787,14.758c0,0.94-0.776,1.71-1.71,1.71h-5.852c-0.781,0-1.42-0.64-1.42-1.427c0-0.724,0.55-1.326,1.249-1.407
						c0.454-0.061,0.915,0.114,1.228,0.453c0.147,0.165,0.403,0.172,0.563,0.025c0.167-0.146,0.18-0.402,0.032-0.563
						c-0.212-0.23-0.475-0.417-0.756-0.543c-0.044-0.02-0.069-0.045-0.09-0.09c-0.014-0.04-0.014-0.082,0.007-0.122
						c0.416-0.934,1.357-1.555,2.388-1.555c0.749,0,1.46,0.328,1.952,0.876c0.038,0.04,0.051,0.099,0.038,0.146
						c-0.019,0.058-0.057,0.097-0.107,0.117c-0.386,0.12-0.724,0.333-1.007,0.607c-0.453,0.457-0.727,1.083-0.727,1.773
						c0,0.225,0.177,0.404,0.395,0.404c0.225,0,0.403-0.179,0.403-0.404c0-0.467,0.192-0.894,0.5-1.203
						C21.961,12.468,23.787,13.299,23.787,14.758"/>
				</g>
			</g>
		</g>
		<g>
			<path style="fill-rule:evenodd;clip-rule:evenodd;fill:#3FA9F5;" d="M13.216,20.907c0.263-0.138,0.347-0.476,0.182-0.723l0,0
				l-0.408-0.644c-0.014-0.02-0.044-0.02-0.057,0.002l-0.37,0.666l0,0c-0.151,0.256-0.051,0.59,0.221,0.71
				C12.923,20.979,13.079,20.977,13.216,20.907"/>
			<g>
				<path style="fill-rule:evenodd;clip-rule:evenodd;fill:#3FA9F5;" d="M15.532,19.457c0.314-0.17,0.411-0.576,0.209-0.875h-0.001
					l-0.501-0.767c-0.016-0.026-0.052-0.022-0.067,0.005l-0.438,0.801l0,0c-0.176,0.315-0.052,0.713,0.277,0.855
					C15.18,19.549,15.37,19.544,15.532,19.457"/>
				<path style="fill-rule:evenodd;clip-rule:evenodd;fill:#3FA9F5;" d="M19.925,19.457c0.315-0.17,0.409-0.576,0.21-0.875h-0.002
					l-0.5-0.767c-0.016-0.026-0.052-0.022-0.067,0.005l-0.438,0.801l0,0c-0.175,0.315-0.051,0.713,0.278,0.855
					C19.574,19.549,19.763,19.544,19.925,19.457"/>
				<path style="fill-rule:evenodd;clip-rule:evenodd;fill:#3FA9F5;" d="M24.273,19.457c0.314-0.17,0.408-0.576,0.208-0.875H24.48
					l-0.5-0.767c-0.016-0.026-0.051-0.022-0.066,0.005l-0.439,0.801l0,0c-0.175,0.315-0.05,0.713,0.281,0.855
					C23.922,19.549,24.109,19.544,24.273,19.457"/>
			</g>
			<path style="fill-rule:evenodd;clip-rule:evenodd;fill:#3FA9F5;" d="M17.513,20.907c0.263-0.138,0.346-0.476,0.181-0.723l0,0
				l-0.408-0.644c-0.014-0.02-0.045-0.02-0.057,0.002l-0.37,0.666l0,0c-0.151,0.256-0.049,0.59,0.222,0.71
				C17.218,20.979,17.376,20.977,17.513,20.907"/>
			<path style="fill-rule:evenodd;clip-rule:evenodd;fill:#3FA9F5;" d="M21.883,20.907c0.264-0.138,0.346-0.476,0.182-0.723l0,0
				l-0.409-0.644c-0.014-0.02-0.043-0.02-0.058,0.002l-0.369,0.666l0,0c-0.151,0.256-0.049,0.59,0.223,0.71
				C21.59,20.979,21.746,20.977,21.883,20.907"/>
		</g>
	</g>
</g>
</svg>
