<?xml version="1.0" encoding="iso-8859-1"?>
<!-- Generator: Adobe Illustrator 14.0.0, SVG Export Plug-In . SVG Version: 6.00 Build 43363)  -->
<!DOCTYPE svg PUBLIC "-//W3C//DTD SVG 1.1//EN" "http://www.w3.org/Graphics/SVG/1.1/DTD/svg11.dtd">
<svg version="1.1" id="Layer_1" xmlns="http://www.w3.org/2000/svg" xmlns:xlink="http://www.w3.org/1999/xlink" x="0px" y="0px"
	 width="32px" height="32px" viewBox="0 0 32 32" style="enable-background:new 0 0 32 32;" xml:space="preserve">
<g>
	<g>
		<rect style="fill:none;" width="32" height="32"/>
	</g>
	<g>
		<g>
			<path style="fill-rule:evenodd;clip-rule:evenodd;fill:#3FA9F5;" d="M17.55,21.848c0.137,0.201,0.351,0.324,0.592,0.342
				c0.471,0.036,0.86-0.354,0.847-0.825v-0.001l-0.018-1.205c-0.001-0.04-0.043-0.063-0.077-0.044L17.843,20.7
				c-0.001,0-0.001,0.001-0.001,0.001C17.425,20.926,17.284,21.46,17.55,21.848"/>
			<g>
				<path style="fill:#3FA9F5;" d="M20.217,19.521c-0.266-0.39-0.125-0.922,0.291-1.147h0.002l1.051-0.587
					c0.034-0.02,0.077,0.006,0.078,0.044l0.017,1.204v0.002c0.014,0.473-0.376,0.861-0.847,0.824
					C20.566,19.844,20.352,19.721,20.217,19.521"/>
				<path style="fill:#3FA9F5;" d="M16.458,19.521c0.136,0.199,0.35,0.322,0.591,0.34c0.469,0.037,0.86-0.352,0.847-0.824v-0.002
					l-0.016-1.204c-0.002-0.038-0.045-0.063-0.078-0.044l-1.053,0.587h-0.001C16.331,18.6,16.192,19.132,16.458,19.521"/>
			</g>
		</g>
		<g>
			<g>
				<path style="fill:#FFBE3C;" d="M21.729,9.116c-0.072,0.078-0.17,0.111-0.275,0.093c-0.105-0.019-0.187-0.083-0.229-0.181
					c-0.18-0.422-0.41-0.821-0.686-1.187c-0.062-0.084-0.078-0.189-0.041-0.288c0.035-0.1,0.113-0.169,0.218-0.193l2.388-0.546
					c0.133-0.03,0.266,0.028,0.333,0.145c0.067,0.119,0.052,0.26-0.04,0.36L21.729,9.116z"/>
				<path style="fill:#FFBE3C;" d="M16.686,5.616c-0.454-0.055-0.917-0.055-1.371,0c-0.105,0.012-0.202-0.026-0.271-0.107
					c-0.068-0.081-0.089-0.183-0.058-0.284l0.722-2.342c0.04-0.13,0.155-0.215,0.292-0.215c0.135,0,0.251,0.085,0.291,0.215
					l0.723,2.341c0.03,0.102,0.01,0.204-0.059,0.285C16.888,5.589,16.791,5.628,16.686,5.616z"/>
				<path style="fill:#FFBE3C;" d="M19.893,6.538C19.869,6.641,19.8,6.719,19.7,6.756c-0.101,0.036-0.202,0.021-0.288-0.043
					c-0.366-0.275-0.766-0.505-1.188-0.686c-0.098-0.042-0.162-0.123-0.18-0.228s0.015-0.203,0.093-0.275l1.796-1.667
					c0.1-0.093,0.242-0.108,0.36-0.041s0.175,0.2,0.145,0.332L19.893,6.538z"/>
				<path style="fill:#FFBE3C;" d="M11.005,11.253c0,2.74,2.255,4.995,4.995,4.995c2.74,0,4.994-2.255,4.994-4.995
					c0-2.739-2.254-4.994-4.994-4.994C13.26,6.259,11.005,8.514,11.005,11.253z M12.517,11.253c0-1.91,1.573-3.483,3.483-3.483
					c1.91,0,3.483,1.573,3.483,3.483c0,1.911-1.573,3.483-3.483,3.483C14.089,14.736,12.517,13.164,12.517,11.253z"/>
				<path style="fill:#FFBE3C;" d="M10.775,9.028c-0.042,0.098-0.123,0.162-0.228,0.181c-0.105,0.018-0.203-0.015-0.276-0.093
					L8.604,7.32c-0.093-0.1-0.108-0.242-0.041-0.36c0.068-0.118,0.2-0.176,0.333-0.146l2.388,0.546
					c0.104,0.023,0.182,0.093,0.219,0.193c0.037,0.099,0.021,0.204-0.042,0.288C11.186,8.206,10.955,8.606,10.775,9.028z"/>
				<path style="fill:#FFBE3C;" d="M13.775,6.028c-0.422,0.181-0.821,0.411-1.188,0.686c-0.085,0.064-0.188,0.079-0.288,0.043
					c-0.1-0.038-0.168-0.115-0.192-0.219l-0.546-2.39c-0.03-0.132,0.027-0.263,0.145-0.331s0.261-0.052,0.361,0.041l1.795,1.667
					c0.078,0.072,0.112,0.17,0.093,0.275C13.937,5.905,13.873,5.986,13.775,6.028z"/>
				<path style="fill:#FFBE3C;" d="M10.271,13.391c0.073-0.078,0.171-0.11,0.276-0.092c0.105,0.017,0.187,0.083,0.228,0.18
					c0.18,0.422,0.411,0.821,0.686,1.188c0.063,0.084,0.079,0.188,0.042,0.289c-0.037,0.1-0.115,0.168-0.219,0.192l-2.388,0.545
					c-0.132,0.03-0.264-0.027-0.333-0.145c-0.068-0.119-0.052-0.26,0.04-0.361L10.271,13.391z"/>
				<path style="fill:#FFBE3C;" d="M7.628,10.961L9.97,10.24c0.102-0.032,0.203-0.011,0.286,0.057
					c0.081,0.069,0.12,0.166,0.107,0.271c-0.055,0.455-0.055,0.916,0,1.37c0.013,0.106-0.026,0.202-0.107,0.271
					c-0.082,0.067-0.184,0.088-0.286,0.057l-2.342-0.722c-0.13-0.04-0.215-0.155-0.215-0.292
					C7.413,11.117,7.498,11.001,7.628,10.961z"/>
				<path style="fill:#FFBE3C;" d="M21.744,12.209c-0.08-0.069-0.12-0.165-0.106-0.271c0.054-0.455,0.054-0.916,0-1.37
					c-0.014-0.106,0.026-0.203,0.106-0.271c0.083-0.069,0.184-0.088,0.286-0.058l2.342,0.722c0.13,0.04,0.216,0.155,0.216,0.292
					c0,0.135-0.087,0.25-0.216,0.292l-2.342,0.721C21.928,12.298,21.827,12.277,21.744,12.209z"/>
				<path style="fill:#FFBE3C;" d="M12.107,15.969c0.024-0.104,0.093-0.182,0.192-0.219c0.099-0.037,0.202-0.021,0.288,0.042
					c0.367,0.276,0.766,0.505,1.188,0.686c0.098,0.042,0.162,0.124,0.18,0.229c0.019,0.105-0.015,0.204-0.093,0.276l-1.795,1.666
					c-0.1,0.094-0.243,0.109-0.361,0.041c-0.118-0.067-0.175-0.199-0.145-0.332L12.107,15.969z"/>
			</g>
			<g>
				<g>
					<path style="fill:#FFFFFF;" d="M13.69,14.166c0.776,0,1.408-0.631,1.408-1.408c0-0.772-0.64-1.4-1.426-1.4
						c-0.364,0-0.709,0.145-0.973,0.409c-0.266,0.267-0.411,0.619-0.411,0.991c-0.035-0.386,0.114-0.749,0.384-1.019
						c0.167-0.163,0.362-0.281,0.575-0.348c0.123-0.047,0.204-0.133,0.238-0.244c0.036-0.13,0.002-0.259-0.082-0.349
						c-0.382-0.424-0.932-0.671-1.503-0.671c-0.793,0-1.518,0.472-1.843,1.2c-0.039,0.075-0.044,0.174-0.012,0.268
						c0.043,0.105,0.107,0.169,0.196,0.209c0.163,0.073,0.311,0.18,0.428,0.308l0,0c-0.002,0-0.029,0.021-0.031,0.021l0,0
						c-0.232-0.251-0.559-0.395-0.895-0.395c-0.051,0-0.102,0.003-0.153,0.01c-0.604,0.07-1.063,0.587-1.063,1.202
						c0,0.67,0.544,1.216,1.213,1.216H13.69z"/>
					<path style="fill:#0071BC;" d="M15.188,12.725c0-0.768-0.56-1.433-1.311-1.572c-0.029-0.004-0.054-0.021-0.07-0.049
						c-0.38-0.693-1.12-1.135-1.911-1.135c-0.919,0-1.748,0.593-2.054,1.454c-0.012,0.041-0.048,0.066-0.09,0.069
						c-0.734,0.054-1.314,0.67-1.314,1.414c0,0.784,0.638,1.421,1.417,1.421h3.732C14.464,14.326,15.188,13.603,15.188,12.725
						 M14.677,12.725c0,0.6-0.495,1.09-1.091,1.09H9.854c-0.498,0-0.906-0.408-0.906-0.91c0-0.461,0.351-0.846,0.797-0.898
						c0.29-0.038,0.583,0.073,0.784,0.29c0.094,0.105,0.257,0.109,0.359,0.016c0.106-0.093,0.114-0.256,0.021-0.359
						c-0.135-0.147-0.303-0.266-0.482-0.347c-0.028-0.013-0.045-0.028-0.058-0.058c-0.008-0.025-0.008-0.052,0.004-0.077
						c0.266-0.596,0.866-0.993,1.523-0.993c0.478,0,0.931,0.209,1.246,0.56c0.024,0.025,0.032,0.062,0.024,0.094
						c-0.011,0.037-0.036,0.062-0.069,0.074c-0.246,0.077-0.461,0.213-0.642,0.388c-0.29,0.291-0.464,0.69-0.464,1.131
						c0,0.143,0.113,0.257,0.252,0.257c0.144,0,0.257-0.115,0.257-0.257c0-0.298,0.123-0.571,0.319-0.768
						C13.513,11.264,14.677,11.794,14.677,12.725"/>
				</g>
				<g>
					<path style="fill:#FFFFFF;" d="M22.061,16.881c1.16,0,2.104-0.944,2.104-2.105c0-1.155-0.955-2.094-2.132-2.094
						c-0.542,0-1.061,0.217-1.455,0.613c-0.397,0.399-0.614,0.925-0.614,1.481c-0.051-0.578,0.17-1.119,0.574-1.523
						c0.252-0.244,0.542-0.42,0.861-0.519c0.183-0.07,0.304-0.2,0.355-0.365c0.053-0.194,0.004-0.388-0.123-0.522
						c-0.571-0.635-1.393-1.003-2.248-1.003c-1.188,0-2.27,0.705-2.756,1.795c-0.057,0.112-0.066,0.26-0.019,0.4
						c0.065,0.156,0.162,0.253,0.293,0.312c0.242,0.109,0.463,0.269,0.639,0.46l0,0l-0.045,0.032l0,0
						c-0.348-0.376-0.835-0.592-1.34-0.592c-0.076,0-0.152,0.005-0.228,0.015c-0.904,0.105-1.59,0.877-1.59,1.796
						c0,1.002,0.812,1.819,1.812,1.819H22.061z"/>
					<path style="fill:#0071BC;" d="M24.588,14.741c0-1.203-0.877-2.246-2.056-2.464c-0.046-0.005-0.085-0.033-0.109-0.077
						c-0.596-1.087-1.755-1.78-2.997-1.78c-1.439,0-2.739,0.929-3.22,2.28c-0.019,0.064-0.076,0.104-0.141,0.107
						c-1.151,0.085-2.061,1.051-2.061,2.217c0,1.229,1,2.228,2.221,2.228h5.852C23.453,17.252,24.588,16.118,24.588,14.741
						 M23.787,14.741c0,0.94-0.777,1.71-1.71,1.71h-5.852c-0.78,0-1.42-0.64-1.42-1.427c0-0.724,0.55-1.327,1.249-1.408
						c0.454-0.06,0.915,0.114,1.228,0.454c0.147,0.165,0.403,0.171,0.563,0.024c0.167-0.145,0.18-0.401,0.032-0.563
						c-0.212-0.23-0.475-0.416-0.756-0.544c-0.044-0.019-0.069-0.044-0.09-0.089c-0.014-0.04-0.014-0.083,0.007-0.122
						c0.416-0.934,1.357-1.555,2.387-1.555c0.75,0,1.461,0.328,1.953,0.876c0.037,0.04,0.051,0.099,0.037,0.147
						c-0.018,0.058-0.056,0.097-0.106,0.116c-0.386,0.121-0.724,0.334-1.007,0.608c-0.453,0.456-0.728,1.083-0.728,1.773
						c0,0.225,0.178,0.404,0.395,0.404c0.226,0,0.404-0.18,0.404-0.404c0-0.467,0.192-0.895,0.5-1.203
						C21.961,12.451,23.787,13.282,23.787,14.741"/>
				</g>
			</g>
		</g>
	</g>
</g>
</svg>
