<?xml version="1.0" encoding="iso-8859-1"?>
<!-- Generator: Adobe Illustrator 14.0.0, SVG Export Plug-In . SVG Version: 6.00 Build 43363)  -->
<!DOCTYPE svg PUBLIC "-//W3C//DTD SVG 1.1//EN" "http://www.w3.org/Graphics/SVG/1.1/DTD/svg11.dtd">
<svg version="1.1" id="Layer_1" xmlns="http://www.w3.org/2000/svg" xmlns:xlink="http://www.w3.org/1999/xlink" x="0px" y="0px"
	 width="32px" height="32px" viewBox="0 0 32 32" style="enable-background:new 0 0 32 32;" xml:space="preserve">
<g>
	<g>
		<rect style="fill:none;" width="32" height="31.999"/>
	</g>
	<g>
		<g>
			<path style="fill:#FFFFFF;" d="M22.153,18.414c1.259,0,2.283-1.023,2.283-2.283c0-1.252-1.038-2.272-2.312-2.272
				c-0.59,0-1.149,0.237-1.578,0.665c-0.431,0.433-0.668,1.004-0.668,1.607c-0.056-0.626,0.187-1.213,0.623-1.652
				c0.272-0.265,0.59-0.457,0.935-0.563c0.198-0.075,0.33-0.217,0.387-0.395c0.056-0.211,0.003-0.422-0.135-0.566
				c-0.619-0.689-1.51-1.088-2.438-1.088c-1.289,0-2.461,0.764-2.99,1.946c-0.062,0.122-0.072,0.283-0.02,0.435
				c0.071,0.17,0.174,0.275,0.319,0.338c0.262,0.119,0.503,0.292,0.693,0.499l0,0c-0.003,0-0.047,0.035-0.05,0.035l0,0
				c-0.377-0.407-0.906-0.642-1.453-0.642c-0.083,0-0.165,0.005-0.248,0.017c-0.98,0.114-1.724,0.952-1.724,1.948
				c0,1.088,0.882,1.973,1.965,1.973H22.153z"/>
			<path style="fill:#0071BC;" d="M24.895,16.093c0-1.304-0.951-2.434-2.229-2.673c-0.049-0.005-0.092-0.035-0.118-0.082
				c-0.647-1.179-1.905-1.931-3.251-1.931c-1.562,0-2.972,1.008-3.493,2.473c-0.02,0.07-0.083,0.113-0.153,0.117
				c-1.248,0.093-2.235,1.14-2.235,2.404c0,1.333,1.084,2.417,2.409,2.417h6.347C23.665,18.817,24.895,17.587,24.895,16.093
				 M24.026,16.093c0,1.021-0.841,1.855-1.854,1.855h-6.347c-0.846,0-1.541-0.693-1.541-1.547c0-0.786,0.597-1.438,1.355-1.527
				c0.492-0.064,0.992,0.124,1.332,0.493c0.16,0.178,0.437,0.186,0.611,0.027c0.182-0.158,0.195-0.437,0.035-0.611
				c-0.229-0.25-0.516-0.452-0.819-0.591c-0.048-0.021-0.077-0.048-0.098-0.096c-0.015-0.043-0.015-0.09,0.007-0.133
				c0.452-1.012,1.472-1.687,2.589-1.687c0.813,0,1.584,0.356,2.119,0.95c0.04,0.044,0.055,0.107,0.04,0.16
				c-0.02,0.062-0.062,0.105-0.116,0.127c-0.418,0.129-0.785,0.361-1.092,0.658c-0.492,0.495-0.789,1.175-0.789,1.923
				c0,0.244,0.191,0.439,0.428,0.439c0.244,0,0.438-0.195,0.438-0.439c0-0.506,0.208-0.97,0.542-1.304
				C22.046,13.609,24.026,14.511,24.026,16.093"/>
		</g>
		<path style="fill:#FFFFFF;" d="M8.782,13.934c-1.258,0-2.282-1.024-2.282-2.283c0-1.253,1.038-2.272,2.312-2.272
			c0.589,0,1.15,0.235,1.578,0.665c0.431,0.434,0.667,1.003,0.667,1.607c0.054-0.627-0.186-1.214-0.623-1.653
			c-0.273-0.264-0.59-0.455-0.935-0.562C9.302,9.359,9.171,9.218,9.115,9.04C9.058,8.829,9.111,8.619,9.249,8.474
			c0.619-0.689,1.509-1.088,2.437-1.088c1.289,0,2.462,0.765,2.989,1.947c0.062,0.122,0.073,0.282,0.021,0.433
			c-0.071,0.17-0.175,0.275-0.319,0.34c-0.262,0.119-0.503,0.292-0.694,0.499l0,0c0.003,0,0.047,0.034,0.05,0.034l0,0
			c0.377-0.408,0.906-0.642,1.452-0.642c0.082,0,0.165,0.005,0.248,0.016c0.98,0.115,1.725,0.952,1.725,1.949
			c0,1.087-0.882,1.973-1.966,1.973H8.782z"/>
		<path style="fill:#0071BC;" d="M6.042,11.613c0,1.494,1.229,2.723,2.722,2.723h6.347c1.325,0,2.409-1.083,2.409-2.416
			c0-1.266-0.987-2.312-2.235-2.404c-0.071-0.004-0.133-0.048-0.152-0.118c-0.521-1.464-1.931-2.472-3.494-2.472
			c-1.346,0-2.603,0.751-3.25,1.93C8.362,8.905,8.32,8.934,8.27,8.94C6.993,9.178,6.042,10.308,6.042,11.613 M6.909,11.613
			c0-1.583,1.981-2.485,3.16-1.305c0.334,0.335,0.542,0.799,0.542,1.305c0,0.243,0.193,0.438,0.438,0.438
			c0.235,0,0.428-0.196,0.428-0.438c0-0.749-0.297-1.429-0.79-1.923c-0.306-0.298-0.673-0.529-1.091-0.659
			C9.542,9.01,9.499,8.967,9.48,8.905c-0.014-0.053,0-0.116,0.041-0.159c0.534-0.595,1.305-0.95,2.118-0.95
			c1.119,0,2.138,0.674,2.59,1.687c0.021,0.043,0.021,0.09,0.006,0.132c-0.021,0.049-0.049,0.076-0.097,0.097
			c-0.305,0.138-0.59,0.34-0.82,0.589c-0.16,0.176-0.146,0.454,0.034,0.611c0.174,0.159,0.452,0.152,0.611-0.027
			c0.341-0.369,0.84-0.556,1.333-0.492c0.757,0.088,1.354,0.742,1.354,1.527c0,0.854-0.694,1.547-1.541,1.547H8.764
			C7.751,13.467,6.909,12.633,6.909,11.613"/>
		<g>
			<path style="fill:#FFBE3C;" d="M18.498,5.329c2.031,0,3.703,1.672,3.703,3.702c0,0.707-0.203,1.373-0.553,1.936
				c-0.022,0.035-0.047,0.067-0.064,0.102c-0.4,0.711-1.531,0.261-0.993-0.532c0.033-0.048,0.066-0.096,0.098-0.146
				c0.248-0.396,0.392-0.863,0.392-1.36c0-1.416-1.166-2.583-2.582-2.583c-0.812,0-1.543,0.385-2.017,0.979
				c-0.018,0.021-0.035,0.042-0.05,0.065c-0.545,0.752-1.48,0.039-0.893-0.679C16.253,5.943,17.296,5.329,18.498,5.329"/>
			<path style="fill:#FFBE3C;" d="M18.282,2.826l-0.535,1.735c-0.022,0.076-0.007,0.151,0.042,0.212
				c0.052,0.061,0.123,0.088,0.201,0.079c0.337-0.04,0.68-0.04,1.016,0c0.078,0.01,0.15-0.018,0.201-0.079
				c0.051-0.061,0.066-0.136,0.043-0.212l-0.535-1.735c-0.03-0.097-0.115-0.16-0.217-0.16C18.398,2.667,18.312,2.729,18.282,2.826"
				/>
			<path style="fill:#FFBE3C;" d="M21.414,3.55l-1.33,1.234c-0.059,0.054-0.083,0.127-0.069,0.206
				c0.014,0.078,0.062,0.137,0.134,0.168c0.312,0.134,0.607,0.304,0.88,0.508c0.062,0.047,0.14,0.059,0.214,0.031
				c0.073-0.027,0.125-0.085,0.143-0.161l0.404-1.771c0.022-0.099-0.021-0.195-0.107-0.247C21.594,3.469,21.488,3.481,21.414,3.55"
				/>
			<path style="fill:#FFBE3C;" d="M23.765,5.742l-1.771,0.404c-0.076,0.018-0.135,0.068-0.162,0.143
				c-0.027,0.074-0.016,0.151,0.031,0.213c0.205,0.271,0.375,0.568,0.509,0.88c0.031,0.072,0.091,0.12,0.169,0.133
				c0.078,0.014,0.15-0.01,0.203-0.069l1.237-1.331c0.068-0.075,0.08-0.18,0.03-0.267C23.961,5.761,23.863,5.719,23.765,5.742"/>
			<path style="fill:#FFBE3C;" d="M24.704,8.815c0.097,0.03,0.161,0.115,0.161,0.216c-0.002,0.101-0.064,0.187-0.161,0.216
				l-1.735,0.535c-0.076,0.024-0.15,0.008-0.211-0.043c-0.061-0.049-0.09-0.121-0.08-0.2c0.041-0.337,0.04-0.679,0-1.016
				c-0.01-0.078,0.02-0.149,0.08-0.201c0.061-0.051,0.135-0.065,0.211-0.042L24.704,8.815z"/>
			<path style="fill:#FFBE3C;" d="M23.981,11.948c0.068,0.074,0.08,0.18,0.03,0.267c-0.051,0.087-0.148,0.13-0.247,0.107
				l-1.771-0.405c-0.076-0.017-0.135-0.068-0.162-0.142c-0.027-0.074-0.016-0.151,0.031-0.215c0.205-0.27,0.375-0.566,0.509-0.879
				c0.031-0.073,0.091-0.12,0.169-0.133c0.078-0.014,0.15,0.01,0.203,0.068L23.981,11.948z"/>
			<path style="fill:#FFBE3C;" d="M13.016,6.116l1.235,1.331c0.054,0.059,0.127,0.083,0.205,0.069
				c0.077-0.014,0.139-0.061,0.169-0.133c0.133-0.312,0.304-0.609,0.508-0.88c0.047-0.062,0.059-0.14,0.031-0.213
				c-0.027-0.074-0.084-0.125-0.162-0.143l-1.771-0.404c-0.099-0.023-0.196,0.02-0.247,0.107
				C12.936,5.937,12.948,6.042,13.016,6.116"/>
			<path style="fill:#FFBE3C;" d="M15.208,3.765l0.404,1.772c0.018,0.076,0.069,0.134,0.143,0.161
				c0.074,0.028,0.151,0.016,0.213-0.031c0.272-0.204,0.568-0.374,0.88-0.508c0.073-0.031,0.12-0.091,0.134-0.168
				c0.012-0.078-0.012-0.151-0.07-0.206l-1.331-1.235c-0.074-0.069-0.179-0.08-0.267-0.03C15.228,3.57,15.186,3.667,15.208,3.765"/>
		</g>
	</g>
	<g>
		<path style="fill-rule:evenodd;clip-rule:evenodd;fill:#3FA9F5;" d="M8.979,23.643C9.335,23.457,9.447,23,9.225,22.665l0,0
			l-0.552-0.868c-0.019-0.029-0.059-0.027-0.076,0.002l-0.5,0.898l0,0c-0.205,0.348-0.068,0.799,0.299,0.961
			C8.583,23.741,8.795,23.736,8.979,23.643"/>
		<g>
			<path style="fill-rule:evenodd;clip-rule:evenodd;fill:#3FA9F5;" d="M12.111,21.682c0.426-0.229,0.555-0.779,0.284-1.182
				l-0.001-0.002l-0.678-1.036c-0.021-0.035-0.07-0.031-0.09,0.005l-0.592,1.085l0,0c-0.238,0.426-0.071,0.964,0.375,1.157
				C11.636,21.807,11.893,21.799,12.111,21.682"/>
			<path style="fill-rule:evenodd;clip-rule:evenodd;fill:#3FA9F5;" d="M18.053,21.682c0.426-0.229,0.554-0.779,0.283-1.182
				l-0.002-0.002l-0.676-1.036c-0.023-0.035-0.07-0.031-0.092,0.005l-0.591,1.085l0,0c-0.238,0.426-0.07,0.964,0.376,1.157
				C17.577,21.807,17.832,21.799,18.053,21.682"/>
			<path style="fill-rule:evenodd;clip-rule:evenodd;fill:#3FA9F5;" d="M23.932,21.682c0.428-0.229,0.555-0.779,0.283-1.182
				l-0.002-0.002l-0.676-1.036c-0.021-0.035-0.069-0.031-0.092,0.005l-0.592,1.085l0,0c-0.236,0.426-0.068,0.964,0.379,1.157
				C23.457,21.807,23.711,21.799,23.932,21.682"/>
		</g>
		<path style="fill-rule:evenodd;clip-rule:evenodd;fill:#3FA9F5;" d="M14.79,23.643c0.357-0.186,0.468-0.643,0.245-0.978l0,0
			l-0.552-0.868c-0.018-0.029-0.061-0.027-0.077,0.002l-0.5,0.898l0,0c-0.204,0.348-0.067,0.799,0.3,0.961
			C14.392,23.741,14.605,23.736,14.79,23.643"/>
		<path style="fill-rule:evenodd;clip-rule:evenodd;fill:#3FA9F5;" d="M20.699,23.643c0.357-0.186,0.467-0.643,0.246-0.978l0,0
			l-0.553-0.868c-0.019-0.029-0.059-0.027-0.078,0.002l-0.499,0.898l0,0c-0.205,0.348-0.066,0.799,0.302,0.961
			C20.303,23.741,20.515,23.736,20.699,23.643"/>
	</g>
</g>
</svg>
