<?xml version="1.0" encoding="iso-8859-1"?>
<!-- Generator: Adobe Illustrator 14.0.0, SVG Export Plug-In . SVG Version: 6.00 Build 43363)  -->
<!DOCTYPE svg PUBLIC "-//W3C//DTD SVG 1.1//EN" "http://www.w3.org/Graphics/SVG/1.1/DTD/svg11.dtd">
<svg version="1.1" id="Layer_1" xmlns="http://www.w3.org/2000/svg" xmlns:xlink="http://www.w3.org/1999/xlink" x="0px" y="0px"
	 width="32px" height="32px" viewBox="0 0 32 32" style="enable-background:new 0 0 32 32;" xml:space="preserve">
<g>
	<g>
		<rect style="fill:none;" width="32" height="32"/>
	</g>
	<g>
		<g>
			<g>
				<path style="fill:#FFFFFF;" d="M22.686,18.414c1.259,0,2.283-1.023,2.283-2.283c0-1.253-1.037-2.272-2.312-2.272
					c-0.589,0-1.149,0.236-1.578,0.664c-0.431,0.434-0.667,1.004-0.667,1.608c-0.056-0.626,0.185-1.214,0.622-1.653
					c0.273-0.264,0.59-0.456,0.934-0.563c0.199-0.075,0.332-0.217,0.387-0.395c0.058-0.211,0.004-0.421-0.135-0.566
					c-0.618-0.688-1.509-1.088-2.436-1.088c-1.289,0-2.462,0.764-2.99,1.946c-0.062,0.122-0.073,0.282-0.02,0.434
					c0.071,0.169,0.174,0.275,0.318,0.339c0.262,0.119,0.502,0.292,0.694,0.499h-0.001c-0.004,0-0.047,0.034-0.051,0.034l0,0
					c-0.377-0.408-0.906-0.642-1.452-0.642c-0.082,0-0.165,0.005-0.248,0.016c-0.98,0.115-1.725,0.952-1.725,1.949
					c0,1.087,0.882,1.972,1.966,1.972H22.686z"/>
				<path style="fill:#0071BC;" d="M25.427,16.094c0-1.305-0.951-2.435-2.229-2.673c-0.05-0.006-0.093-0.036-0.118-0.083
					c-0.646-1.179-1.904-1.931-3.25-1.931c-1.562,0-2.973,1.008-3.493,2.473c-0.021,0.07-0.082,0.112-0.153,0.117
					c-1.249,0.092-2.236,1.139-2.236,2.404c0,1.333,1.084,2.417,2.41,2.417h6.347C24.197,18.817,25.427,17.587,25.427,16.094
					 M24.559,16.094c0,1.021-0.842,1.854-1.854,1.854h-6.347c-0.847,0-1.542-0.693-1.542-1.547c0-0.785,0.598-1.439,1.355-1.527
					c0.493-0.065,0.993,0.124,1.333,0.492c0.159,0.178,0.438,0.186,0.611,0.027c0.18-0.158,0.195-0.436,0.035-0.611
					c-0.23-0.25-0.516-0.452-0.82-0.59c-0.047-0.021-0.076-0.048-0.098-0.097c-0.014-0.042-0.014-0.089,0.007-0.133
					c0.452-1.012,1.473-1.687,2.591-1.687c0.812,0,1.583,0.356,2.117,0.95c0.042,0.043,0.055,0.107,0.042,0.159
					c-0.021,0.062-0.062,0.105-0.116,0.127c-0.42,0.129-0.786,0.361-1.092,0.659c-0.493,0.494-0.79,1.174-0.79,1.923
					c0,0.244,0.192,0.438,0.429,0.438c0.244,0,0.438-0.195,0.438-0.438c0-0.506,0.209-0.97,0.542-1.305
					C22.578,13.609,24.559,14.511,24.559,16.094"/>
			</g>
			<g>
				<path style="fill:#FFFFFF;" d="M9.314,13.934c-1.258,0-2.282-1.024-2.282-2.284c0-1.252,1.038-2.272,2.312-2.272
					c0.59,0,1.15,0.236,1.578,0.666c0.431,0.433,0.668,1.003,0.668,1.606c0.055-0.626-0.187-1.213-0.623-1.652
					c-0.273-0.264-0.59-0.456-0.935-0.563C9.834,9.359,9.703,9.218,9.646,9.04C9.59,8.829,9.643,8.619,9.781,8.474
					c0.619-0.689,1.509-1.088,2.438-1.088c1.289,0,2.461,0.765,2.99,1.947c0.061,0.121,0.072,0.282,0.02,0.433
					c-0.071,0.17-0.175,0.274-0.319,0.339c-0.262,0.119-0.503,0.292-0.693,0.499l0,0c0.003,0,0.047,0.035,0.05,0.035l0,0
					c0.377-0.408,0.906-0.642,1.453-0.642c0.082,0,0.165,0.005,0.248,0.016c0.98,0.114,1.723,0.952,1.723,1.949
					c0,1.087-0.88,1.973-1.965,1.973H9.314z"/>
				<path style="fill:#0071BC;" d="M6.573,11.613c0,1.494,1.23,2.724,2.723,2.724h6.347c1.325,0,2.409-1.083,2.409-2.416
					c0-1.265-0.987-2.312-2.234-2.404c-0.071-0.004-0.133-0.047-0.153-0.117c-0.521-1.464-1.931-2.472-3.493-2.472
					c-1.347,0-2.604,0.751-3.251,1.93C8.894,8.905,8.852,8.934,8.802,8.94C7.524,9.178,6.573,10.308,6.573,11.613 M7.441,11.613
					c0-1.583,1.981-2.484,3.161-1.305c0.333,0.335,0.542,0.799,0.542,1.305c0,0.244,0.194,0.439,0.438,0.439
					c0.237,0,0.429-0.195,0.429-0.439c0-0.748-0.298-1.428-0.79-1.923c-0.307-0.297-0.674-0.528-1.092-0.659
					c-0.055-0.021-0.097-0.064-0.116-0.126c-0.015-0.053,0-0.116,0.041-0.159c0.534-0.595,1.305-0.95,2.119-0.95
					c1.118,0,2.138,0.674,2.589,1.687c0.021,0.042,0.021,0.089,0.006,0.132c-0.021,0.048-0.049,0.075-0.097,0.096
					c-0.304,0.139-0.59,0.341-0.82,0.59c-0.16,0.175-0.146,0.454,0.035,0.611c0.173,0.159,0.451,0.152,0.611-0.027
					c0.34-0.369,0.84-0.557,1.332-0.492c0.758,0.088,1.355,0.741,1.355,1.527c0,0.854-0.693,1.547-1.541,1.547H9.296
					C8.284,13.468,7.441,12.633,7.441,11.613"/>
			</g>
			<g>
				<path style="fill:#FFBE3C;" d="M19.029,5.329c2.031,0,3.703,1.672,3.703,3.702c0,0.708-0.203,1.373-0.553,1.937
					c-0.021,0.034-0.046,0.066-0.064,0.102c-0.4,0.711-1.53,0.26-0.992-0.532c0.033-0.048,0.066-0.097,0.098-0.146
					c0.248-0.396,0.391-0.863,0.391-1.36c0-1.416-1.165-2.583-2.582-2.583c-0.812,0-1.543,0.385-2.016,0.979
					c-0.019,0.021-0.035,0.042-0.051,0.065c-0.544,0.752-1.48,0.039-0.893-0.679C16.785,5.943,17.828,5.329,19.029,5.329"/>
				<path style="fill:#FFBE3C;" d="M18.814,2.826l-0.535,1.735c-0.023,0.076-0.008,0.151,0.042,0.212
					c0.052,0.061,0.123,0.088,0.201,0.079c0.337-0.04,0.679-0.04,1.016,0c0.078,0.01,0.149-0.018,0.201-0.079
					c0.05-0.061,0.065-0.136,0.042-0.212l-0.535-1.735c-0.029-0.097-0.115-0.16-0.217-0.16C18.93,2.667,18.844,2.729,18.814,2.826"
					/>
				<path style="fill:#FFBE3C;" d="M21.946,3.55l-1.331,1.234c-0.059,0.054-0.082,0.127-0.068,0.206
					c0.014,0.078,0.061,0.137,0.133,0.168c0.312,0.134,0.608,0.304,0.881,0.508c0.062,0.047,0.139,0.059,0.213,0.031
					c0.074-0.027,0.125-0.085,0.143-0.161l0.404-1.771c0.023-0.099-0.02-0.195-0.107-0.247C22.125,3.469,22.021,3.481,21.946,3.55"
					/>
				<path style="fill:#FFBE3C;" d="M24.297,5.742l-1.771,0.404c-0.076,0.018-0.135,0.068-0.161,0.143
					c-0.027,0.074-0.016,0.151,0.031,0.213c0.204,0.271,0.375,0.568,0.509,0.88c0.031,0.072,0.091,0.12,0.168,0.133
					c0.078,0.014,0.151-0.01,0.204-0.069l1.237-1.331c0.068-0.075,0.08-0.18,0.029-0.267C24.492,5.761,24.396,5.719,24.297,5.742"/>
				<path style="fill:#FFBE3C;" d="M25.236,8.815c0.097,0.03,0.16,0.115,0.16,0.216c-0.001,0.101-0.063,0.187-0.16,0.216L23.5,9.782
					c-0.076,0.023-0.15,0.008-0.211-0.042c-0.061-0.05-0.09-0.122-0.08-0.2c0.041-0.336,0.041-0.679,0-1.016
					c-0.01-0.078,0.02-0.149,0.08-0.201C23.35,8.272,23.424,8.257,23.5,8.28L25.236,8.815z"/>
				<path style="fill:#FFBE3C;" d="M24.514,11.947c0.068,0.075,0.08,0.181,0.029,0.267c-0.051,0.087-0.147,0.13-0.246,0.107
					l-1.771-0.405c-0.076-0.017-0.135-0.067-0.161-0.142c-0.027-0.073-0.016-0.15,0.031-0.214c0.204-0.271,0.375-0.567,0.509-0.879
					c0.031-0.073,0.091-0.12,0.168-0.134c0.078-0.013,0.151,0.011,0.204,0.069L24.514,11.947z"/>
				<path style="fill:#FFBE3C;" d="M13.547,6.116l1.235,1.331c0.054,0.059,0.127,0.083,0.205,0.069
					c0.077-0.014,0.139-0.061,0.169-0.133c0.133-0.312,0.304-0.609,0.508-0.88c0.047-0.062,0.059-0.14,0.031-0.213
					c-0.027-0.074-0.084-0.125-0.162-0.143l-1.771-0.404c-0.099-0.023-0.196,0.02-0.247,0.107
					C13.467,5.937,13.479,6.042,13.547,6.116"/>
				<path style="fill:#FFBE3C;" d="M15.74,3.765l0.404,1.772c0.018,0.076,0.069,0.134,0.143,0.161
					c0.074,0.028,0.151,0.016,0.213-0.031c0.272-0.204,0.568-0.374,0.88-0.508c0.072-0.031,0.119-0.091,0.135-0.168
					c0.012-0.078-0.012-0.151-0.07-0.206l-1.331-1.235c-0.074-0.069-0.179-0.08-0.267-0.03C15.76,3.57,15.717,3.667,15.74,3.765"/>
			</g>
		</g>
		<g>
			<path style="fill-rule:evenodd;clip-rule:evenodd;fill:#3FA9F5;" d="M15.419,23.686c0.138,0.203,0.356,0.328,0.602,0.346
				c0.478,0.038,0.875-0.357,0.86-0.839l0,0l-0.017-1.224c-0.001-0.04-0.044-0.064-0.078-0.047l-1.069,0.599h-0.001
				C15.292,22.75,15.149,23.289,15.419,23.686"/>
			<path style="fill:#3FA9F5;" d="M18.084,21.853c0.189,0.278,0.486,0.448,0.821,0.474c0.651,0.051,1.194-0.488,1.176-1.146V21.18
				l-0.024-1.671c0-0.054-0.06-0.089-0.106-0.062l-1.46,0.814h-0.002C17.909,20.574,17.716,21.312,18.084,21.853"/>
		</g>
	</g>
</g>
</svg>
