<?xml version="1.0" encoding="iso-8859-1"?>
<!-- Generator: Adobe Illustrator 14.0.0, SVG Export Plug-In . SVG Version: 6.00 Build 43363)  -->
<!DOCTYPE svg PUBLIC "-//W3C//DTD SVG 1.1//EN" "http://www.w3.org/Graphics/SVG/1.1/DTD/svg11.dtd">
<svg version="1.1" id="Layer_1" xmlns="http://www.w3.org/2000/svg" xmlns:xlink="http://www.w3.org/1999/xlink" x="0px" y="0px"
	 width="32px" height="32px" viewBox="0 0 32 32" style="enable-background:new 0 0 32 32;" xml:space="preserve">
<g>
	<g>
		<rect style="fill:none;" width="32" height="32"/>
	</g>
	<g>
		<g>
			<g>
				<path style="fill:#FFFFFF;" d="M22.687,18.414c1.259,0,2.282-1.023,2.282-2.283c0-1.252-1.037-2.272-2.312-2.272
					c-0.59,0-1.15,0.236-1.578,0.665c-0.43,0.434-0.668,1.004-0.668,1.607c-0.054-0.626,0.187-1.214,0.624-1.652
					c0.272-0.265,0.589-0.456,0.934-0.563c0.198-0.075,0.33-0.217,0.386-0.395c0.057-0.211,0.004-0.422-0.134-0.567
					c-0.618-0.688-1.509-1.087-2.437-1.087c-1.289,0-2.461,0.764-2.989,1.946c-0.062,0.122-0.073,0.282-0.02,0.435
					c0.071,0.169,0.174,0.275,0.318,0.338c0.262,0.119,0.503,0.292,0.693,0.499l0,0c-0.003,0-0.047,0.034-0.05,0.034l0,0
					c-0.377-0.407-0.906-0.642-1.452-0.642c-0.082,0-0.165,0.005-0.248,0.017c-0.98,0.115-1.725,0.952-1.725,1.948
					c0,1.088,0.882,1.972,1.966,1.972H22.687z"/>
				<path style="fill:#0071BC;" d="M25.428,16.094c0-1.304-0.951-2.435-2.229-2.673c-0.051-0.005-0.093-0.036-0.119-0.083
					c-0.646-1.179-1.904-1.931-3.25-1.931c-1.562,0-2.973,1.008-3.493,2.473c-0.021,0.07-0.082,0.112-0.153,0.117
					c-1.249,0.092-2.236,1.139-2.236,2.404c0,1.333,1.084,2.417,2.41,2.417h6.346C24.197,18.818,25.428,17.588,25.428,16.094
					 M24.56,16.094c0,1.021-0.842,1.855-1.855,1.855h-6.346c-0.847,0-1.542-0.693-1.542-1.548c0-0.785,0.598-1.438,1.355-1.527
					c0.493-0.064,0.992,0.124,1.332,0.493c0.16,0.178,0.438,0.186,0.611,0.027c0.181-0.158,0.195-0.436,0.035-0.611
					c-0.23-0.25-0.516-0.452-0.82-0.59c-0.047-0.021-0.076-0.048-0.097-0.096c-0.015-0.042-0.015-0.089,0.007-0.133
					c0.451-1.011,1.473-1.687,2.59-1.687c0.812,0,1.584,0.356,2.117,0.95c0.041,0.044,0.056,0.107,0.041,0.159
					c-0.019,0.062-0.061,0.105-0.116,0.127c-0.418,0.129-0.784,0.361-1.091,0.658c-0.492,0.495-0.789,1.175-0.789,1.923
					c0,0.244,0.192,0.438,0.428,0.438c0.244,0,0.438-0.195,0.438-0.438c0-0.506,0.208-0.97,0.541-1.304
					C22.579,13.609,24.56,14.511,24.56,16.094"/>
			</g>
			<g>
				<path style="fill:#FFFFFF;" d="M9.314,13.935c-1.258,0-2.282-1.024-2.282-2.284c0-1.253,1.038-2.271,2.312-2.271
					c0.59,0,1.15,0.235,1.578,0.665c0.431,0.433,0.668,1.003,0.668,1.607c0.055-0.627-0.187-1.213-0.623-1.653
					c-0.273-0.264-0.59-0.456-0.935-0.562C9.834,9.359,9.703,9.219,9.647,9.04c-0.056-0.21-0.003-0.421,0.134-0.565
					c0.619-0.688,1.509-1.089,2.438-1.089c1.289,0,2.461,0.765,2.99,1.947c0.062,0.122,0.072,0.282,0.02,0.433
					c-0.071,0.17-0.175,0.275-0.319,0.339c-0.262,0.119-0.503,0.292-0.693,0.499l0,0c0.003,0,0.047,0.035,0.05,0.035l0,0
					c0.377-0.409,0.906-0.642,1.453-0.642c0.083,0,0.165,0.005,0.248,0.016c0.98,0.114,1.724,0.952,1.724,1.949
					c0,1.087-0.881,1.973-1.965,1.973H9.314z"/>
				<path style="fill:#0071BC;" d="M6.574,11.614c0,1.494,1.23,2.723,2.723,2.723h6.347c1.325,0,2.409-1.082,2.409-2.416
					c0-1.266-0.987-2.312-2.235-2.404c-0.071-0.004-0.133-0.048-0.153-0.118c-0.521-1.464-1.931-2.472-3.493-2.472
					c-1.347,0-2.604,0.751-3.251,1.93C8.895,8.905,8.852,8.935,8.802,8.94C7.525,9.178,6.574,10.308,6.574,11.614 M7.442,11.614
					c0-1.583,1.981-2.484,3.16-1.306c0.333,0.335,0.542,0.799,0.542,1.306c0,0.243,0.194,0.438,0.438,0.438
					c0.237,0,0.429-0.196,0.429-0.438c0-0.749-0.298-1.429-0.79-1.923c-0.307-0.298-0.674-0.529-1.091-0.659
					c-0.056-0.021-0.097-0.063-0.117-0.126c-0.015-0.053,0-0.117,0.041-0.16c0.534-0.595,1.305-0.95,2.119-0.95
					c1.118,0,2.138,0.674,2.589,1.687c0.021,0.042,0.021,0.089,0.006,0.132c-0.021,0.049-0.049,0.076-0.097,0.097
					c-0.304,0.139-0.59,0.341-0.82,0.59c-0.159,0.176-0.146,0.454,0.035,0.611c0.173,0.158,0.451,0.152,0.611-0.027
					c0.34-0.369,0.84-0.556,1.332-0.492c0.758,0.089,1.355,0.742,1.355,1.527c0,0.853-0.694,1.547-1.541,1.547H9.297
					C8.284,13.468,7.442,12.633,7.442,11.614"/>
			</g>
			<g>
				<path style="fill:#FFBE3C;" d="M19.03,5.329c2.031,0,3.703,1.672,3.703,3.702c0,0.708-0.203,1.373-0.554,1.937
					c-0.021,0.034-0.045,0.066-0.064,0.102c-0.399,0.711-1.529,0.26-0.992-0.532c0.033-0.048,0.066-0.096,0.098-0.146
					c0.248-0.396,0.392-0.862,0.392-1.36c0-1.416-1.165-2.583-2.582-2.583c-0.812,0-1.543,0.386-2.017,0.979
					c-0.018,0.022-0.035,0.042-0.05,0.065c-0.544,0.752-1.48,0.039-0.893-0.679C16.786,5.944,17.828,5.329,19.03,5.329"/>
				<path style="fill:#FFBE3C;" d="M18.814,2.826l-0.535,1.735c-0.023,0.076-0.008,0.151,0.043,0.212
					c0.051,0.061,0.123,0.088,0.201,0.078c0.336-0.04,0.679-0.04,1.016,0c0.078,0.01,0.149-0.018,0.201-0.078
					c0.049-0.062,0.064-0.136,0.042-0.212l-0.535-1.735c-0.03-0.096-0.116-0.16-0.217-0.16S18.845,2.73,18.814,2.826"/>
				<path style="fill:#FFBE3C;" d="M21.947,3.55l-1.332,1.234c-0.059,0.054-0.082,0.127-0.068,0.206s0.062,0.137,0.133,0.168
					c0.312,0.134,0.609,0.304,0.881,0.508c0.062,0.047,0.14,0.06,0.213,0.031c0.074-0.027,0.125-0.085,0.143-0.161l0.404-1.771
					c0.023-0.099-0.02-0.196-0.107-0.247C22.126,3.469,22.021,3.481,21.947,3.55"/>
				<path style="fill:#FFBE3C;" d="M24.297,5.742l-1.771,0.404c-0.075,0.018-0.134,0.068-0.16,0.143
					c-0.027,0.074-0.016,0.151,0.031,0.213c0.203,0.272,0.375,0.568,0.508,0.88c0.031,0.073,0.092,0.12,0.168,0.133
					c0.078,0.015,0.152-0.01,0.205-0.069l1.236-1.33c0.068-0.075,0.08-0.18,0.03-0.268C24.492,5.761,24.396,5.719,24.297,5.742"/>
				<path style="fill:#FFBE3C;" d="M25.236,8.815c0.098,0.03,0.16,0.116,0.16,0.217c0,0.1-0.062,0.187-0.16,0.216l-1.735,0.534
					c-0.076,0.024-0.151,0.008-0.212-0.042c-0.061-0.049-0.089-0.121-0.08-0.2c0.042-0.336,0.041-0.679,0-1.016
					c-0.009-0.078,0.02-0.15,0.08-0.201c0.061-0.051,0.136-0.065,0.212-0.042L25.236,8.815z"/>
				<path style="fill:#FFBE3C;" d="M24.514,11.948c0.068,0.074,0.08,0.18,0.03,0.267c-0.052,0.088-0.147,0.13-0.247,0.107
					l-1.771-0.405c-0.075-0.017-0.134-0.067-0.16-0.142c-0.027-0.074-0.016-0.151,0.031-0.214c0.203-0.27,0.375-0.567,0.508-0.879
					c0.031-0.073,0.092-0.12,0.168-0.133c0.078-0.014,0.152,0.01,0.205,0.069L24.514,11.948z"/>
				<path style="fill:#FFBE3C;" d="M13.548,6.116l1.235,1.331c0.054,0.059,0.127,0.083,0.206,0.069
					c0.077-0.014,0.138-0.061,0.168-0.133c0.133-0.312,0.304-0.608,0.508-0.88c0.047-0.062,0.059-0.14,0.031-0.213
					c-0.027-0.074-0.084-0.125-0.161-0.143l-1.771-0.404c-0.099-0.023-0.196,0.02-0.247,0.107
					C13.468,5.937,13.48,6.042,13.548,6.116"/>
				<path style="fill:#FFBE3C;" d="M15.741,3.765l0.404,1.772c0.018,0.076,0.068,0.134,0.143,0.161
					c0.074,0.028,0.151,0.016,0.213-0.031c0.272-0.204,0.567-0.374,0.88-0.508c0.073-0.031,0.12-0.09,0.135-0.168
					c0.013-0.078-0.012-0.151-0.07-0.206l-1.331-1.235c-0.074-0.069-0.179-0.08-0.267-0.03C15.76,3.57,15.718,3.667,15.741,3.765"/>
			</g>
		</g>
		<g>
			<path style="fill-rule:evenodd;clip-rule:evenodd;fill:#3FA9F5;" d="M17.159,24.995c0.19,0.279,0.487,0.45,0.822,0.474
				c0.651,0.051,1.193-0.489,1.175-1.145v-0.001l-0.025-1.673c0-0.055-0.059-0.088-0.105-0.061l-1.46,0.814
				c-0.001,0-0.001,0-0.001,0C16.986,23.717,16.791,24.457,17.159,24.995"/>
			<g>
				<path style="fill:#3FA9F5;" d="M20.859,21.766c-0.369-0.539-0.173-1.277,0.405-1.59h0.001l1.459-0.814
					c0.047-0.027,0.106,0.007,0.107,0.061l0.024,1.672v0.002c0.018,0.656-0.522,1.194-1.175,1.146
					C21.346,22.215,21.048,22.045,20.859,21.766"/>
				<path style="fill:#3FA9F5;" d="M15.645,21.766c0.189,0.279,0.485,0.449,0.821,0.476c0.651,0.049,1.194-0.489,1.176-1.146v-0.002
					l-0.024-1.672c0-0.054-0.061-0.088-0.107-0.061l-1.46,0.814h-0.001C15.47,20.488,15.276,21.227,15.645,21.766"/>
			</g>
		</g>
	</g>
</g>
</svg>
