<?xml version="1.0" encoding="iso-8859-1"?>
<!-- Generator: Adobe Illustrator 14.0.0, SVG Export Plug-In . SVG Version: 6.00 Build 43363)  -->
<!DOCTYPE svg PUBLIC "-//W3C//DTD SVG 1.1//EN" "http://www.w3.org/Graphics/SVG/1.1/DTD/svg11.dtd">
<svg version="1.1" id="Layer_1" xmlns="http://www.w3.org/2000/svg" xmlns:xlink="http://www.w3.org/1999/xlink" x="0px" y="0px"
	 width="32px" height="32px" viewBox="0 0 32 32" style="enable-background:new 0 0 32 32;" xml:space="preserve">
<g>
	<g>
		<rect style="fill:none;" width="32" height="32.001"/>
	</g>
	<g>
		<path style="fill-rule:evenodd;clip-rule:evenodd;fill:#3FA9F5;" d="M7.54,23.82c0.356-0.187,0.468-0.643,0.246-0.979l0,0
			l-0.552-0.869c-0.019-0.027-0.059-0.026-0.076,0.003l-0.5,0.899l0,0c-0.205,0.348-0.068,0.799,0.299,0.96
			C7.144,23.918,7.356,23.914,7.54,23.82"/>
		<g>
			<path style="fill-rule:evenodd;clip-rule:evenodd;fill:#3FA9F5;" d="M10.672,21.859c0.426-0.229,0.556-0.779,0.284-1.184h-0.001
				l-0.678-1.037c-0.021-0.035-0.07-0.031-0.09,0.006l-0.591,1.084l0,0c-0.239,0.426-0.071,0.965,0.375,1.157
				C10.198,21.984,10.454,21.976,10.672,21.859"/>
			<path style="fill-rule:evenodd;clip-rule:evenodd;fill:#3FA9F5;" d="M16.614,21.859c0.427-0.229,0.554-0.779,0.282-1.184h-0.001
				l-0.676-1.037c-0.023-0.035-0.07-0.031-0.092,0.006l-0.592,1.084l0,0c-0.237,0.426-0.07,0.965,0.376,1.157
				C16.138,21.984,16.394,21.976,16.614,21.859"/>
			<path style="fill-rule:evenodd;clip-rule:evenodd;fill:#3FA9F5;" d="M22.494,21.859c0.427-0.229,0.554-0.779,0.281-1.184l0,0
				l-0.678-1.037c-0.021-0.035-0.068-0.031-0.09,0.006l-0.592,1.084l0,0c-0.238,0.426-0.069,0.965,0.377,1.157
				C22.019,21.984,22.273,21.976,22.494,21.859"/>
		</g>
		<path style="fill-rule:evenodd;clip-rule:evenodd;fill:#3FA9F5;" d="M13.351,23.82c0.357-0.187,0.468-0.643,0.245-0.979l0,0
			l-0.552-0.869c-0.018-0.027-0.061-0.026-0.077,0.003l-0.5,0.899l0,0c-0.204,0.348-0.066,0.799,0.3,0.96
			C12.953,23.918,13.167,23.914,13.351,23.82"/>
		<path style="fill-rule:evenodd;clip-rule:evenodd;fill:#3FA9F5;" d="M19.26,23.82c0.357-0.187,0.469-0.643,0.248-0.979l0,0
			l-0.554-0.869c-0.019-0.027-0.059-0.026-0.078,0.003l-0.499,0.899l0,0c-0.205,0.348-0.066,0.799,0.301,0.96
			C18.864,23.918,19.076,23.914,19.26,23.82"/>
	</g>
	<g>
		<path style="fill:#FFFFFF;" d="M21.115,18.555c1.681,0,3.047-1.367,3.047-3.048c0-1.539-1.15-2.839-2.676-3.025
			c-0.124-0.015-0.244-0.022-0.365-0.022c-0.348,0-0.691,0.06-1.014,0.173c0.137-0.104,0.24-0.241,0.307-0.406
			c0.092-0.245,0.088-0.496-0.014-0.73c-0.811-1.816-2.614-2.988-4.595-2.988c-1.431,0-2.799,0.613-3.753,1.68
			c-0.22,0.251-0.294,0.573-0.207,0.886c0.061,0.228,0.2,0.417,0.394,0.543c-0.253-0.06-0.517-0.09-0.787-0.09
			c-1.715,0-3.567,1.343-3.567,3.511c0,1.939,1.577,3.516,3.516,3.516H21.115z"/>
		<g>
			<path style="fill:#FFBE3C;" d="M19.071,5.329c2.031,0,3.703,1.672,3.703,3.702c0,0.708-0.203,1.372-0.554,1.937
				c-0.021,0.035-0.045,0.067-0.064,0.102c-0.399,0.71-1.529,0.261-0.992-0.532c0.033-0.049,0.066-0.097,0.098-0.146
				c0.248-0.396,0.392-0.863,0.392-1.36c0-1.417-1.165-2.582-2.582-2.582c-0.812,0-1.543,0.384-2.017,0.979
				c-0.018,0.021-0.035,0.043-0.051,0.064c-0.544,0.753-1.479,0.04-0.892-0.679C16.826,5.943,17.869,5.329,19.071,5.329"/>
			<path style="fill:#FFBE3C;" d="M18.855,2.826L18.32,4.562c-0.023,0.075-0.008,0.151,0.043,0.211s0.123,0.088,0.201,0.079
				c0.336-0.04,0.679-0.04,1.016,0c0.078,0.009,0.149-0.019,0.201-0.079c0.049-0.061,0.064-0.136,0.042-0.211l-0.536-1.735
				c-0.029-0.097-0.115-0.16-0.216-0.16S18.886,2.729,18.855,2.826"/>
			<path style="fill:#FFBE3C;" d="M21.988,3.55l-1.332,1.234c-0.059,0.054-0.082,0.127-0.068,0.204
				c0.014,0.078,0.062,0.138,0.133,0.169c0.312,0.134,0.609,0.304,0.881,0.509c0.062,0.047,0.14,0.058,0.213,0.031
				c0.074-0.027,0.125-0.085,0.143-0.162l0.404-1.772c0.023-0.098-0.02-0.196-0.107-0.246C22.167,3.468,22.062,3.48,21.988,3.55"/>
			<path style="fill:#FFBE3C;" d="M24.338,5.742l-1.771,0.404c-0.075,0.018-0.134,0.069-0.16,0.143
				c-0.027,0.074-0.016,0.151,0.031,0.213c0.203,0.271,0.375,0.568,0.508,0.88c0.031,0.072,0.092,0.12,0.168,0.133
				c0.078,0.014,0.152-0.011,0.205-0.069l1.236-1.331c0.068-0.074,0.08-0.179,0.03-0.267C24.533,5.762,24.438,5.719,24.338,5.742"/>
			<path style="fill:#FFBE3C;" d="M25.277,8.816c0.098,0.03,0.16,0.114,0.16,0.215s-0.062,0.187-0.16,0.217l-1.735,0.534
				c-0.076,0.023-0.151,0.009-0.212-0.042c-0.061-0.05-0.089-0.122-0.08-0.2c0.042-0.336,0.041-0.679,0-1.017
				c-0.009-0.077,0.02-0.149,0.08-0.2c0.061-0.051,0.136-0.066,0.212-0.043L25.277,8.816z"/>
			<path style="fill:#FFBE3C;" d="M24.555,11.947c0.068,0.075,0.08,0.181,0.03,0.268c-0.052,0.086-0.147,0.129-0.247,0.107
				l-1.771-0.405c-0.075-0.018-0.134-0.068-0.16-0.143c-0.027-0.073-0.016-0.15,0.031-0.213c0.203-0.271,0.375-0.568,0.508-0.879
				c0.031-0.073,0.092-0.121,0.168-0.135c0.078-0.012,0.152,0.012,0.205,0.07L24.555,11.947z"/>
			<path style="fill:#FFBE3C;" d="M13.589,6.116l1.235,1.331c0.054,0.058,0.127,0.083,0.205,0.069
				c0.077-0.013,0.139-0.062,0.169-0.133c0.133-0.312,0.304-0.609,0.508-0.88c0.047-0.062,0.058-0.139,0.031-0.213
				c-0.027-0.074-0.084-0.125-0.162-0.143l-1.771-0.404c-0.099-0.023-0.196,0.02-0.247,0.107
				C13.509,5.937,13.521,6.042,13.589,6.116"/>
			<path style="fill:#FFBE3C;" d="M15.782,3.765l0.404,1.772c0.018,0.076,0.069,0.134,0.143,0.162
				c0.074,0.027,0.151,0.016,0.213-0.031c0.272-0.205,0.567-0.375,0.88-0.509c0.073-0.031,0.12-0.091,0.135-0.169
				c0.012-0.077-0.012-0.15-0.07-0.204l-1.331-1.236c-0.074-0.068-0.179-0.081-0.267-0.03C15.801,3.569,15.759,3.667,15.782,3.765"
				/>
		</g>
		<path style="fill:#0071BC;" d="M11.255,19.081c-2.211,0-4.012-1.8-4.012-4.012c0-1.904,1.414-3.6,3.287-3.944
			c0.125-0.024,0.228-0.099,0.289-0.21c0.972-1.771,2.827-2.871,4.841-2.871c2.333,0,4.425,1.478,5.203,3.68
			c0.056,0.16,0.194,0.266,0.364,0.278c1.844,0.132,3.287,1.686,3.287,3.534c0,1.954-1.59,3.544-3.544,3.544H11.255z M20.977,13.023
			c-0.713,0-1.394,0.3-1.871,0.823c-0.098,0.108-0.232,0.167-0.379,0.167c-0.128,0-0.25-0.048-0.346-0.134
			c-0.102-0.093-0.16-0.219-0.166-0.355c-0.007-0.137,0.04-0.268,0.133-0.369c0.334-0.367,0.75-0.667,1.203-0.865
			c0.104-0.047,0.18-0.125,0.223-0.231c0.04-0.107,0.037-0.215-0.01-0.321c-0.723-1.619-2.332-2.666-4.104-2.666
			c-1.279,0-2.502,0.548-3.355,1.502c-0.096,0.109-0.129,0.249-0.09,0.386c0.037,0.14,0.135,0.243,0.275,0.29
			c0.6,0.193,1.154,0.533,1.603,0.982c0.758,0.757,1.176,1.765,1.176,2.836c0,0.284-0.231,0.515-0.515,0.515
			c-0.285,0-0.516-0.231-0.516-0.515c0-0.797-0.311-1.546-0.873-2.109c-0.569-0.569-1.28-0.869-2.057-0.869
			c-1.459,0-3.035,1.139-3.035,2.978c0,1.645,1.337,2.982,2.982,2.982h9.715c1.386,0,2.514-1.128,2.514-2.515
			c0-1.27-0.949-2.343-2.208-2.496C21.176,13.03,21.076,13.023,20.977,13.023L20.977,13.023z"/>
	</g>
</g>
</svg>
