<?xml version="1.0" encoding="iso-8859-1"?>
<!-- Generator: Adobe Illustrator 14.0.0, SVG Export Plug-In . SVG Version: 6.00 Build 43363)  -->
<!DOCTYPE svg PUBLIC "-//W3C//DTD SVG 1.1//EN" "http://www.w3.org/Graphics/SVG/1.1/DTD/svg11.dtd">
<svg version="1.1" id="Layer_1" xmlns="http://www.w3.org/2000/svg" xmlns:xlink="http://www.w3.org/1999/xlink" x="0px" y="0px"
	 width="32px" height="32px" viewBox="0 0 32 32" style="enable-background:new 0 0 32 32;" xml:space="preserve">
<g>
	<g>
		<rect style="fill:none;" width="32" height="32"/>
	</g>
	<g>
		<g>
			<path style="fill-rule:evenodd;clip-rule:evenodd;fill:#3FA9F5;" d="M13.469,25.258c0.189,0.279,0.486,0.45,0.822,0.475
				c0.652,0.049,1.194-0.49,1.175-1.146v-0.001l-0.025-1.673c-0.001-0.054-0.059-0.087-0.106-0.061l-1.459,0.813
				c-0.001,0-0.001,0.001-0.001,0.001C13.296,23.979,13.101,24.719,13.469,25.258"/>
			<g>
				<path style="fill:#3FA9F5;" d="M17.17,22.029c-0.37-0.54-0.173-1.279,0.404-1.592h0.002l1.459-0.814
					c0.047-0.027,0.105,0.008,0.107,0.062l0.023,1.67v0.002c0.018,0.656-0.523,1.195-1.175,1.146
					C17.656,22.478,17.357,22.307,17.17,22.029"/>
				<path style="fill:#3FA9F5;" d="M11.955,22.029c0.189,0.277,0.485,0.448,0.821,0.475c0.651,0.049,1.195-0.49,1.176-1.146v-0.002
					l-0.024-1.67c-0.001-0.055-0.061-0.09-0.107-0.062l-1.46,0.814h-0.001C11.78,20.75,11.586,21.489,11.955,22.029"/>
			</g>
		</g>
		<g>
			<path style="fill:#FFFFFF;" d="M20.775,18.555c1.68,0,3.047-1.367,3.047-3.048c0-1.539-1.15-2.84-2.676-3.025
				c-0.125-0.015-0.245-0.022-0.365-0.022c-0.35,0-0.691,0.06-1.015,0.173c0.137-0.104,0.241-0.241,0.307-0.406
				c0.093-0.245,0.088-0.496-0.014-0.731c-0.811-1.816-2.614-2.987-4.595-2.987c-1.431,0-2.798,0.612-3.752,1.68
				c-0.22,0.25-0.294,0.572-0.207,0.885c0.062,0.229,0.2,0.418,0.394,0.543c-0.253-0.06-0.517-0.09-0.787-0.09
				c-1.715,0-3.567,1.343-3.567,3.512c0,1.938,1.577,3.516,3.516,3.516H20.775z"/>
			<g>
				<path style="fill:#FFBE3C;" d="M18.73,5.329c2.031,0,3.703,1.672,3.703,3.702c0,0.708-0.203,1.372-0.553,1.937
					c-0.021,0.034-0.046,0.066-0.064,0.102c-0.4,0.71-1.53,0.26-0.993-0.532c0.034-0.049,0.067-0.097,0.099-0.146
					c0.248-0.396,0.391-0.863,0.391-1.36c0-1.417-1.165-2.583-2.582-2.583c-0.812,0-1.543,0.385-2.017,0.979
					c-0.018,0.021-0.034,0.042-0.05,0.064c-0.545,0.753-1.48,0.04-0.893-0.679C16.486,5.943,17.529,5.329,18.73,5.329"/>
				<path style="fill:#FFBE3C;" d="M18.516,2.826l-0.536,1.735c-0.022,0.075-0.007,0.151,0.043,0.211
					c0.051,0.061,0.123,0.088,0.201,0.079c0.337-0.04,0.679-0.04,1.016,0c0.078,0.009,0.149-0.019,0.2-0.079
					s0.066-0.137,0.043-0.211l-0.535-1.735c-0.03-0.097-0.115-0.16-0.217-0.16C18.631,2.667,18.545,2.729,18.516,2.826"/>
				<path style="fill:#FFBE3C;" d="M21.647,3.55l-1.331,1.234c-0.059,0.054-0.082,0.127-0.068,0.205
					c0.013,0.078,0.061,0.138,0.133,0.169c0.312,0.133,0.608,0.304,0.88,0.508c0.062,0.047,0.14,0.059,0.214,0.031
					c0.074-0.027,0.125-0.085,0.143-0.161l0.404-1.772c0.023-0.098-0.02-0.196-0.107-0.246C21.826,3.468,21.721,3.48,21.647,3.55"/>
				<path style="fill:#FFBE3C;" d="M23.998,5.742l-1.771,0.404c-0.076,0.018-0.135,0.068-0.162,0.143
					c-0.026,0.074-0.016,0.151,0.031,0.213c0.205,0.271,0.375,0.568,0.509,0.88c0.031,0.072,0.092,0.12,0.169,0.133
					c0.078,0.014,0.15-0.011,0.204-0.069l1.236-1.331c0.069-0.074,0.081-0.179,0.03-0.267C24.193,5.761,24.096,5.719,23.998,5.742"
					/>
				<path style="fill:#FFBE3C;" d="M24.938,8.815c0.096,0.03,0.16,0.115,0.16,0.216c-0.002,0.101-0.064,0.187-0.16,0.217
					l-1.736,0.534c-0.076,0.023-0.15,0.008-0.211-0.042c-0.061-0.05-0.09-0.122-0.08-0.2c0.041-0.336,0.041-0.679,0-1.017
					c-0.01-0.077,0.02-0.149,0.08-0.2c0.061-0.051,0.135-0.065,0.211-0.042L24.938,8.815z"/>
				<path style="fill:#FFBE3C;" d="M24.214,11.947c0.069,0.075,0.081,0.181,0.03,0.268c-0.051,0.087-0.148,0.129-0.246,0.107
					l-1.771-0.405c-0.076-0.018-0.135-0.067-0.162-0.143c-0.026-0.073-0.016-0.15,0.031-0.213c0.205-0.271,0.375-0.568,0.509-0.879
					c0.031-0.073,0.092-0.121,0.169-0.134c0.078-0.013,0.15,0.011,0.204,0.07L24.214,11.947z"/>
				<path style="fill:#FFBE3C;" d="M13.249,6.116l1.235,1.331c0.054,0.058,0.127,0.083,0.205,0.069
					c0.077-0.014,0.139-0.062,0.169-0.133c0.133-0.312,0.304-0.609,0.508-0.88c0.047-0.062,0.058-0.14,0.031-0.213
					c-0.027-0.074-0.084-0.125-0.162-0.143l-1.771-0.404c-0.099-0.023-0.196,0.02-0.247,0.107
					C13.168,5.937,13.181,6.042,13.249,6.116"/>
				<path style="fill:#FFBE3C;" d="M15.441,3.765l0.404,1.772c0.018,0.076,0.069,0.134,0.143,0.161
					c0.074,0.027,0.151,0.016,0.214-0.031c0.272-0.204,0.567-0.375,0.88-0.508c0.072-0.031,0.119-0.091,0.135-0.169
					c0.012-0.077-0.012-0.15-0.07-0.205l-1.332-1.235c-0.074-0.069-0.179-0.081-0.267-0.03C15.461,3.569,15.418,3.667,15.441,3.765"
					/>
			</g>
			<path style="fill:#0071BC;" d="M10.915,19.08c-2.211,0-4.011-1.799-4.011-4.011c0-1.904,1.414-3.6,3.286-3.944
				c0.125-0.024,0.228-0.099,0.289-0.21c0.972-1.771,2.827-2.871,4.841-2.871c2.333,0,4.425,1.478,5.203,3.68
				c0.056,0.159,0.195,0.266,0.363,0.278c1.844,0.132,3.288,1.686,3.288,3.535c0,1.954-1.589,3.543-3.544,3.543H10.915z
				 M20.635,13.023c-0.711,0-1.393,0.3-1.869,0.823c-0.098,0.108-0.232,0.168-0.379,0.168c-0.129,0-0.25-0.048-0.346-0.134
				c-0.102-0.093-0.16-0.219-0.167-0.355c-0.007-0.136,0.04-0.268,0.134-0.369c0.333-0.367,0.75-0.667,1.203-0.866
				c0.104-0.047,0.179-0.125,0.221-0.231c0.041-0.107,0.038-0.215-0.008-0.321c-0.723-1.619-2.333-2.666-4.105-2.666
				c-1.279,0-2.502,0.548-3.355,1.502c-0.096,0.109-0.129,0.249-0.09,0.386c0.038,0.14,0.135,0.243,0.275,0.29
				c0.6,0.193,1.154,0.532,1.603,0.982c0.758,0.757,1.176,1.765,1.176,2.836c0,0.283-0.231,0.515-0.515,0.515
				c-0.285,0-0.516-0.231-0.516-0.515c0-0.797-0.311-1.546-0.873-2.109c-0.569-0.569-1.28-0.869-2.057-0.869
				c-1.459,0-3.035,1.138-3.035,2.978c0,1.645,1.338,2.982,2.982,2.982h9.714c1.387,0,2.514-1.128,2.514-2.515
				c0-1.27-0.949-2.343-2.207-2.496C20.836,13.03,20.735,13.023,20.635,13.023L20.635,13.023z"/>
		</g>
	</g>
</g>
</svg>
