<?xml version="1.0" encoding="iso-8859-1"?>
<!-- Generator: Adobe Illustrator 14.0.0, SVG Export Plug-In . SVG Version: 6.00 Build 43363)  -->
<!DOCTYPE svg PUBLIC "-//W3C//DTD SVG 1.1//EN" "http://www.w3.org/Graphics/SVG/1.1/DTD/svg11.dtd">
<svg version="1.1" id="Layer_1" xmlns="http://www.w3.org/2000/svg" xmlns:xlink="http://www.w3.org/1999/xlink" x="0px" y="0px"
	 width="32px" height="32px" viewBox="0 0 32 32" style="enable-background:new 0 0 32 32;" xml:space="preserve">
<g>
	<g>
		<path style="fill:#FFFFFF;" d="M21.536,12.125c-0.801,0-1.533,0.309-2.117,0.894c-0.578,0.578-0.898,1.348-0.898,2.168
			c0,0.227-0.184,0.412-0.412,0.412c-0.227,0-0.41-0.186-0.41-0.412c0-1.04,0.404-2.017,1.139-2.751
			c0.436-0.436,0.973-0.765,1.553-0.952c0.172-0.055,0.295-0.186,0.34-0.358c0.047-0.173,0.004-0.348-0.113-0.476
			c-0.865-0.97-2.107-1.526-3.408-1.526c-1.801,0-3.439,1.063-4.174,2.712c-0.056,0.128-0.059,0.264-0.008,0.394
			c0.051,0.131,0.146,0.23,0.273,0.285c0.438,0.192,0.839,0.481,1.161,0.834c0.153,0.168,0.141,0.43-0.026,0.582
			c-0.076,0.068-0.174,0.107-0.276,0.107c-0.117,0-0.225-0.049-0.304-0.136c-0.492-0.54-1.196-0.851-1.93-0.851
			c-0.104,0-0.208,0.007-0.311,0.02c-1.302,0.158-2.284,1.268-2.284,2.58c0,1.433,1.166,2.599,2.6,2.599h9.66
			c1.689,0,3.064-1.375,3.064-3.064C24.651,13.295,23.034,12.125,21.536,12.125z"/>
		<path style="fill:#FFFFFF;" d="M11.474,12.221c0.071,0.009,0.145,0.016,0.18,0.016c0.007,0,0.021,0,0.028-0.001
			c0.205-0.017,0.376-0.147,0.447-0.342c0.492-1.394,1.563-2.54,2.94-3.142c0.108-0.047,0.168-0.167,0.144-0.283
			c-0.314-1.507-1.678-2.602-3.242-2.602c-0.891,0-1.709,0.367-2.302,1.032C9.571,7.007,9.535,7.156,9.573,7.297
			C9.61,7.438,9.717,7.55,9.857,7.595c1.064,0.343,1.779,1.325,1.779,2.445c0,0.182-0.153,0.196-0.201,0.196
			c-0.047,0-0.2-0.014-0.2-0.196c0-0.579-0.226-1.123-0.635-1.532c-0.414-0.414-0.932-0.632-1.499-0.632
			c-1.059,0-2.202,0.827-2.202,2.164c0,1.195,0.972,2.168,2.167,2.168h2.294C11.385,12.209,11.429,12.215,11.474,12.221z"/>
	</g>
	<g>
		<rect style="fill:none;" width="32" height="32"/>
	</g>
	<path style="fill:#3FA9F5;" d="M19.414,21.963h-0.635l-0.053-0.129l0.146-0.145c0.03-0.03,0.046-0.072,0.046-0.113
		c0-0.044-0.017-0.084-0.046-0.11c-0.06-0.063-0.166-0.062-0.226-0.003l-0.465,0.471l-0.059,0.029h-0.727l-0.068-0.117l0.348-0.61
		l0.051-0.044l0.661-0.178c0.04-0.011,0.075-0.037,0.097-0.073c0.021-0.037,0.026-0.08,0.016-0.122
		c-0.019-0.07-0.078-0.115-0.195-0.113l-0.197,0.055l-0.086-0.111l0.317-0.549c0.022-0.037,0.028-0.081,0.018-0.121
		s-0.038-0.076-0.075-0.098c-0.076-0.043-0.174-0.016-0.219,0.06l-0.318,0.547l-0.137-0.016l-0.053-0.2
		c-0.02-0.072-0.072-0.131-0.196-0.113c-0.085,0.023-0.136,0.11-0.112,0.195l0.174,0.635l-0.005,0.07l-0.364,0.629h-0.136
		l-0.357-0.608l-0.013-0.066l0.175-0.659c0.01-0.04,0.004-0.08-0.016-0.117c-0.025-0.041-0.069-0.068-0.136-0.083
		c-0.074,0-0.138,0.049-0.156,0.118l-0.053,0.197l-0.138,0.019l-0.319-0.547c-0.043-0.075-0.146-0.103-0.217-0.06
		c-0.037,0.021-0.064,0.056-0.075,0.098c-0.011,0.04-0.006,0.084,0.016,0.121l0.318,0.549L15.86,20.76l-0.24-0.06
		c-0.072,0-0.136,0.05-0.154,0.118c-0.011,0.042-0.005,0.085,0.016,0.121c0.021,0.037,0.056,0.063,0.097,0.074l0.639,0.166
		l0.056,0.037l0.364,0.629l-0.068,0.117l-0.703,0.005l-0.065-0.022l-0.481-0.482c-0.061-0.059-0.168-0.059-0.227,0
		c-0.03,0.029-0.047,0.07-0.047,0.113c0,0.041,0.017,0.083,0.047,0.114l0.145,0.144l-0.053,0.129h-0.634
		c-0.088,0-0.161,0.072-0.161,0.16s0.072,0.16,0.161,0.16h0.634l0.053,0.127l-0.145,0.146c-0.031,0.029-0.047,0.07-0.047,0.113
		c0,0.041,0.017,0.082,0.047,0.112c0.06,0.061,0.165,0.061,0.226,0l0.463-0.47l0.061-0.029h0.726l0.068,0.117l-0.349,0.609
		l-0.051,0.047l-0.66,0.176c-0.041,0.01-0.076,0.037-0.097,0.074c-0.021,0.037-0.027,0.078-0.016,0.123
		c0.02,0.068,0.094,0.118,0.195,0.111l0.199-0.053l0.084,0.108l-0.318,0.552c-0.022,0.036-0.027,0.078-0.016,0.121
		c0.01,0.041,0.037,0.074,0.075,0.096c0.071,0.042,0.175,0.016,0.217-0.059l0.319-0.549l0.138,0.018l0.053,0.201
		c0.019,0.07,0.071,0.132,0.195,0.111c0.085-0.022,0.136-0.109,0.113-0.194l-0.174-0.638l0.005-0.067l0.363-0.629h0.136l0.356,0.608
		l0.015,0.065l-0.176,0.658c-0.012,0.04-0.006,0.083,0.016,0.118c0.018,0.027,0.053,0.066,0.138,0.084
		c0.071,0,0.136-0.049,0.155-0.119l0.053-0.199l0.137-0.018l0.32,0.549c0.027,0.05,0.081,0.081,0.138,0.081
		c0.029,0,0.057-0.007,0.079-0.022c0.037-0.021,0.064-0.055,0.075-0.096c0.011-0.043,0.005-0.085-0.016-0.121l-0.319-0.552
		l0.086-0.11l0.238,0.06c0.073,0,0.136-0.049,0.154-0.118c0.011-0.043,0.006-0.084-0.016-0.121s-0.057-0.064-0.098-0.075
		l-0.638-0.166l-0.057-0.037L17.328,22.4l0.068-0.117l0.703-0.006l0.064,0.023l0.482,0.481c0.061,0.061,0.166,0.061,0.226,0
		c0.028-0.03,0.046-0.071,0.046-0.112c0-0.043-0.016-0.084-0.046-0.113l-0.146-0.146l0.053-0.127h0.635
		c0.088,0,0.16-0.072,0.16-0.16S19.502,21.963,19.414,21.963z"/>
	<g>
		<path style="fill:#FFBE3C;" d="M19.856,5.022c-1.027,0.139-1.847,0.785-2.354,1.611c-0.418,0.681,0.463,1.181,0.841,0.477
			c0.011-0.022,0.022-0.042,0.034-0.062c0.336-0.562,0.914-0.976,1.609-1.071c1.209-0.165,2.341,0.696,2.504,1.906
			c0.059,0.425-0.01,0.839-0.176,1.207c-0.021,0.047-0.045,0.091-0.066,0.135c-0.367,0.74,0.65,0.994,0.908,0.34
			c0.014-0.032,0.03-0.062,0.045-0.094c0.233-0.523,0.329-1.115,0.246-1.719C23.213,6.02,21.591,4.786,19.856,5.022"/>
		<path style="fill:#FFBE3C;" d="M17.443,3.612c-0.02-0.084,0.018-0.168,0.092-0.21c0.075-0.043,0.166-0.034,0.23,0.024l1.148,1.064
			c0.049,0.047,0.07,0.111,0.059,0.177c-0.012,0.068-0.053,0.119-0.116,0.146c-0.269,0.116-0.524,0.263-0.757,0.438
			c-0.055,0.04-0.121,0.05-0.186,0.027c-0.062-0.024-0.107-0.073-0.123-0.14L17.443,3.612z"/>
		<path style="fill:#FFBE3C;" d="M15.554,5.639c-0.06-0.063-0.07-0.154-0.026-0.23c0.042-0.075,0.126-0.112,0.211-0.091l1.526,0.348
			c0.066,0.016,0.117,0.06,0.14,0.123c0.024,0.063,0.015,0.13-0.027,0.184c-0.175,0.233-0.323,0.49-0.438,0.758
			c-0.027,0.062-0.079,0.104-0.146,0.116c-0.067,0.012-0.13-0.009-0.176-0.06L15.554,5.639z"/>
		<path style="fill:#FFBE3C;" d="M20.093,2.803L19.631,4.3c-0.02,0.065-0.006,0.129,0.037,0.182
			c0.043,0.052,0.105,0.077,0.173,0.068c0.29-0.035,0.585-0.035,0.876,0c0.067,0.008,0.129-0.017,0.173-0.068
			c0.044-0.052,0.056-0.117,0.036-0.182l-0.461-1.497c-0.026-0.083-0.1-0.137-0.187-0.137S20.117,2.72,20.093,2.803"/>
		<path style="fill:#FFBE3C;" d="M22.791,3.427c0.064-0.06,0.156-0.069,0.23-0.026c0.075,0.043,0.111,0.127,0.092,0.211L22.766,5.14
			c-0.015,0.066-0.06,0.116-0.123,0.14c-0.063,0.023-0.129,0.013-0.184-0.027c-0.234-0.176-0.489-0.324-0.758-0.438
			c-0.062-0.027-0.104-0.078-0.117-0.146c-0.01-0.066,0.011-0.129,0.061-0.176L22.791,3.427z"/>
		<path style="fill:#FFBE3C;" d="M24.818,5.317c0.084-0.02,0.167,0.017,0.211,0.091c0.043,0.076,0.033,0.167-0.026,0.23
			l-1.064,1.148c-0.046,0.05-0.109,0.071-0.176,0.059c-0.067-0.011-0.119-0.053-0.146-0.117c-0.115-0.268-0.262-0.523-0.438-0.756
			c-0.041-0.056-0.051-0.121-0.027-0.186c0.022-0.063,0.072-0.107,0.139-0.123L24.818,5.317z"/>
		<path style="fill:#FFBE3C;" d="M25.627,7.966l-1.496-0.461c-0.064-0.02-0.13-0.006-0.182,0.037
			c-0.053,0.044-0.077,0.104-0.068,0.173c0.035,0.29,0.035,0.585,0,0.875c-0.009,0.068,0.016,0.129,0.068,0.173
			c0.052,0.044,0.117,0.057,0.182,0.038l1.496-0.462c0.082-0.026,0.138-0.1,0.138-0.187C25.765,8.065,25.709,7.992,25.627,7.966"/>
		<path style="fill:#FFBE3C;" d="M25.003,10.666c0.06,0.063,0.069,0.154,0.026,0.23c-0.043,0.074-0.127,0.111-0.213,0.091
			l-1.525-0.349c-0.066-0.015-0.116-0.058-0.139-0.123c-0.024-0.063-0.014-0.129,0.027-0.183c0.174-0.234,0.322-0.489,0.438-0.758
			c0.026-0.062,0.078-0.104,0.146-0.116c0.066-0.011,0.13,0.009,0.176,0.06L25.003,10.666z"/>
	</g>
	<path style="fill:#0071BC;" d="M22.323,11.118c-0.081-0.015-0.145-0.061-0.183-0.132c-0.984-1.792-2.893-2.922-4.944-2.934
		c-0.757-0.004-1.349,0.175-1.349,0.188c0,0.008-0.165-0.425-0.189-0.494c-0.536-1.518-1.999-2.562-3.621-2.562
		c-1.398,0-2.699,0.778-3.368,1.998C8.643,7.231,8.6,7.262,8.545,7.272c-1.322,0.243-2.31,1.417-2.31,2.772
		c0,1.547,1.273,2.818,2.82,2.818h0.481c-0.791,0.676-1.295,1.677-1.295,2.791c0,2.021,1.653,3.674,3.674,3.674h9.658
		c2.271,0,4.141-1.868,4.141-4.14C25.714,13.199,24.264,11.474,22.323,11.118z M11.351,11.961H9.055
		c-1.051,0-1.917-0.866-1.917-1.917c0-1.643,2.051-2.579,3.274-1.356c0.347,0.347,0.562,0.827,0.562,1.356
		c0,0.593,0.901,0.593,0.901,0c0-1.238-0.804-2.314-1.952-2.684C9.797,7.32,9.755,7.166,9.843,7.068
		c1.607-1.802,4.625-0.882,5.113,1.454c0.008,0.039,0.008,0.025,0.002,0.002c-1.41,0.617-2.55,1.793-3.077,3.288
		c-0.037,0.102-0.124,0.169-0.231,0.176C11.601,11.993,11.408,11.961,11.351,11.961z M21.573,18.003h-9.658
		c-1.297,0-2.35-1.053-2.35-2.35c0-1.199,0.905-2.191,2.065-2.333c0.745-0.091,1.512,0.188,2.026,0.752
		c0.246,0.27,0.664,0.29,0.933,0.044c0.271-0.246,0.29-0.664,0.044-0.934c-0.347-0.382-0.774-0.688-1.246-0.896
		c-0.068-0.03-0.114-0.079-0.141-0.147c-0.026-0.069-0.024-0.136,0.005-0.204c0.687-1.54,2.239-2.56,3.945-2.56
		c1.235,0,2.409,0.532,3.222,1.442c0.062,0.069,0.082,0.156,0.059,0.246c-0.023,0.089-0.086,0.154-0.175,0.184
		c-0.632,0.203-1.197,0.554-1.654,1.013c-0.749,0.748-1.212,1.784-1.212,2.926c0,0.366,0.297,0.663,0.66,0.663
		c0.367,0,0.663-0.297,0.663-0.663c0-0.777,0.314-1.482,0.825-1.991c1.795-1.796,4.805-0.421,4.805,1.991
		C24.389,16.732,23.118,18.003,21.573,18.003z"/>
</g>
</svg>
