<?xml version="1.0" encoding="iso-8859-1"?>
<!-- Generator: Adobe Illustrator 14.0.0, SVG Export Plug-In . SVG Version: 6.00 Build 43363)  -->
<!DOCTYPE svg PUBLIC "-//W3C//DTD SVG 1.1//EN" "http://www.w3.org/Graphics/SVG/1.1/DTD/svg11.dtd">
<svg version="1.1" id="Layer_1" xmlns="http://www.w3.org/2000/svg" xmlns:xlink="http://www.w3.org/1999/xlink" x="0px" y="0px"
	 width="32px" height="32px" viewBox="0 0 32 32" style="enable-background:new 0 0 32 32;" xml:space="preserve">
<g>
	<g>
		<path style="fill:#FFFFFF;" d="M21.57,12.091c-0.801,0-1.533,0.309-2.117,0.894c-0.578,0.578-0.898,1.348-0.898,2.168
			c0,0.227-0.184,0.412-0.412,0.412c-0.227,0-0.41-0.186-0.41-0.412c0-1.04,0.404-2.017,1.139-2.751
			c0.436-0.436,0.973-0.765,1.553-0.952c0.172-0.055,0.295-0.186,0.34-0.358c0.047-0.173,0.004-0.348-0.113-0.476
			c-0.865-0.97-2.107-1.526-3.408-1.526c-1.801,0-3.439,1.063-4.174,2.712c-0.056,0.128-0.059,0.264-0.008,0.394
			c0.051,0.131,0.146,0.23,0.273,0.285c0.438,0.192,0.839,0.481,1.161,0.834c0.153,0.168,0.141,0.43-0.026,0.582
			c-0.076,0.068-0.174,0.107-0.276,0.107c-0.117,0-0.225-0.049-0.304-0.136c-0.492-0.54-1.196-0.851-1.93-0.851
			c-0.104,0-0.208,0.007-0.311,0.02c-1.302,0.158-2.284,1.268-2.284,2.58c0,1.434,1.166,2.6,2.6,2.6h9.66
			c1.689,0,3.064-1.375,3.064-3.064C24.686,13.262,23.068,12.091,21.57,12.091z"/>
		<path style="fill:#FFFFFF;" d="M11.508,12.187c0.071,0.009,0.145,0.016,0.18,0.016c0.007,0,0.021,0,0.028-0.001
			c0.205-0.017,0.376-0.147,0.447-0.342c0.492-1.394,1.563-2.54,2.94-3.142c0.108-0.047,0.168-0.167,0.144-0.283
			c-0.314-1.507-1.678-2.602-3.242-2.602c-0.891,0-1.709,0.367-2.302,1.032C9.605,6.973,9.569,7.122,9.607,7.263
			c0.038,0.142,0.144,0.253,0.284,0.298c1.064,0.343,1.779,1.325,1.779,2.445c0,0.182-0.153,0.196-0.201,0.196
			c-0.047,0-0.2-0.014-0.2-0.196c0-0.579-0.226-1.123-0.635-1.532c-0.414-0.414-0.932-0.632-1.499-0.632
			c-1.059,0-2.202,0.827-2.202,2.164c0,1.195,0.972,2.168,2.167,2.168h2.294C11.419,12.175,11.463,12.182,11.508,12.187z"/>
	</g>
	<g>
		<rect style="fill:none;" width="32" height="32"/>
	</g>
	<g>
		<path style="fill-rule:evenodd;clip-rule:evenodd;fill:#3FA9F5;" d="M14.886,25.505c0.19,0.279,0.487,0.45,0.822,0.474
			c0.652,0.051,1.193-0.489,1.175-1.145v-0.001l-0.025-1.673c-0.001-0.055-0.06-0.088-0.106-0.061l-1.459,0.813
			c-0.001,0-0.001,0.001-0.001,0.001C14.713,24.226,14.518,24.967,14.886,25.505"/>
		<g>
			<path style="fill:#3FA9F5;" d="M18.586,22.277c-0.368-0.541-0.172-1.279,0.406-1.592l0,0l1.46-0.814
				c0.047-0.027,0.106,0.008,0.107,0.062l0.024,1.67v0.002c0.018,0.656-0.523,1.195-1.176,1.146
				C19.072,22.725,18.775,22.555,18.586,22.277"/>
			<path style="fill:#3FA9F5;" d="M13.372,22.277c0.189,0.277,0.485,0.447,0.821,0.474c0.651,0.05,1.195-0.489,1.176-1.146v-0.002
				l-0.024-1.67c-0.001-0.055-0.061-0.09-0.107-0.062l-1.46,0.814h-0.001C13.197,20.998,13.003,21.736,13.372,22.277"/>
		</g>
	</g>
	<g>
		<path style="fill:#FFBE3C;" d="M19.856,5.021c-1.027,0.139-1.847,0.786-2.354,1.612c-0.418,0.681,0.463,1.181,0.841,0.477
			c0.011-0.022,0.022-0.042,0.034-0.062c0.336-0.562,0.914-0.976,1.609-1.071c1.209-0.165,2.341,0.696,2.504,1.906
			c0.059,0.425-0.01,0.838-0.176,1.206c-0.021,0.047-0.045,0.091-0.066,0.135c-0.367,0.74,0.65,0.995,0.908,0.34
			c0.014-0.032,0.03-0.062,0.045-0.094c0.233-0.523,0.329-1.115,0.246-1.719C23.213,6.02,21.591,4.785,19.856,5.021"/>
		<path style="fill:#FFBE3C;" d="M17.443,3.612c-0.02-0.084,0.018-0.169,0.092-0.21c0.075-0.044,0.166-0.034,0.23,0.024l1.148,1.064
			c0.049,0.047,0.07,0.112,0.059,0.177c-0.012,0.068-0.053,0.119-0.116,0.146c-0.269,0.115-0.524,0.262-0.757,0.438
			c-0.055,0.04-0.121,0.05-0.186,0.027c-0.062-0.024-0.107-0.073-0.123-0.14L17.443,3.612z"/>
		<path style="fill:#FFBE3C;" d="M15.554,5.638c-0.06-0.063-0.07-0.154-0.026-0.23c0.042-0.075,0.126-0.113,0.211-0.092l1.526,0.348
			c0.066,0.016,0.117,0.059,0.14,0.123c0.024,0.063,0.015,0.13-0.027,0.185c-0.175,0.233-0.323,0.49-0.438,0.758
			c-0.027,0.062-0.079,0.104-0.146,0.116c-0.067,0.011-0.13-0.009-0.176-0.061L15.554,5.638z"/>
		<path style="fill:#FFBE3C;" d="M20.093,2.803L19.631,4.3c-0.02,0.064-0.006,0.129,0.037,0.181s0.105,0.077,0.173,0.069
			c0.29-0.036,0.585-0.036,0.876,0c0.067,0.008,0.129-0.017,0.173-0.069s0.056-0.117,0.036-0.181l-0.461-1.497
			c-0.026-0.083-0.1-0.136-0.187-0.136S20.117,2.72,20.093,2.803"/>
		<path style="fill:#FFBE3C;" d="M22.791,3.427c0.064-0.059,0.156-0.069,0.23-0.026c0.075,0.042,0.111,0.127,0.092,0.211
			l-0.348,1.527c-0.015,0.067-0.06,0.116-0.123,0.14c-0.063,0.023-0.129,0.014-0.184-0.027c-0.234-0.176-0.489-0.324-0.758-0.438
			c-0.062-0.027-0.104-0.078-0.117-0.146c-0.01-0.067,0.011-0.129,0.061-0.176L22.791,3.427z"/>
		<path style="fill:#FFBE3C;" d="M24.818,5.316c0.084-0.02,0.167,0.017,0.211,0.092c0.043,0.076,0.033,0.167-0.026,0.23
			l-1.064,1.148c-0.046,0.05-0.109,0.071-0.176,0.06c-0.067-0.012-0.119-0.053-0.146-0.117c-0.115-0.268-0.262-0.523-0.438-0.756
			c-0.041-0.055-0.051-0.121-0.027-0.186c0.022-0.063,0.072-0.107,0.139-0.123L24.818,5.316z"/>
		<path style="fill:#FFBE3C;" d="M25.627,7.965l-1.496-0.461c-0.064-0.02-0.13-0.006-0.182,0.038
			c-0.053,0.043-0.077,0.104-0.068,0.173c0.035,0.29,0.035,0.585,0,0.875c-0.009,0.068,0.016,0.129,0.068,0.173
			c0.052,0.044,0.117,0.057,0.182,0.038l1.496-0.461c0.082-0.026,0.138-0.1,0.138-0.187S25.709,7.991,25.627,7.965"/>
		<path style="fill:#FFBE3C;" d="M25.003,10.667c0.06,0.063,0.069,0.154,0.026,0.23c-0.043,0.074-0.127,0.112-0.213,0.092
			l-1.525-0.349c-0.066-0.015-0.116-0.059-0.139-0.123c-0.024-0.063-0.014-0.129,0.027-0.183c0.174-0.235,0.322-0.49,0.438-0.759
			c0.026-0.062,0.078-0.104,0.146-0.116c0.066-0.011,0.13,0.009,0.176,0.06L25.003,10.667z"/>
	</g>
	<path style="fill:#0071BC;" d="M22.324,11.119c-0.082-0.015-0.145-0.061-0.184-0.132c-0.983-1.792-2.893-2.923-4.943-2.935
		c-0.758-0.004-1.349,0.176-1.349,0.188c0,0.008-0.166-0.425-0.19-0.494c-0.536-1.518-1.999-2.562-3.621-2.562
		c-1.398,0-2.699,0.778-3.368,1.998C8.643,7.23,8.6,7.262,8.545,7.271c-1.322,0.243-2.31,1.418-2.31,2.772
		c0,1.547,1.273,2.819,2.82,2.819h0.481c-0.791,0.676-1.295,1.677-1.295,2.791c0,2.021,1.653,3.674,3.674,3.674h9.659
		c2.271,0,4.141-1.869,4.141-4.14C25.715,13.2,24.265,11.475,22.324,11.119z M11.351,11.962H9.055c-1.051,0-1.917-0.866-1.917-1.918
		c0-1.643,2.051-2.579,3.274-1.356c0.347,0.347,0.562,0.826,0.562,1.356c0,0.594,0.901,0.594,0.901,0
		c0-1.239-0.804-2.314-1.952-2.684C9.797,7.319,9.755,7.166,9.843,7.068c1.607-1.801,4.626-0.882,5.113,1.454
		c0.007,0.039,0.008,0.025,0.002,0.003c-1.41,0.617-2.55,1.794-3.077,3.289c-0.037,0.102-0.124,0.168-0.231,0.176
		C11.601,11.994,11.408,11.962,11.351,11.962z M21.574,18.004h-9.659c-1.297,0-2.35-1.053-2.35-2.35c0-1.199,0.905-2.19,2.065-2.332
		c0.745-0.091,1.512,0.188,2.026,0.752c0.246,0.27,0.664,0.29,0.933,0.044c0.271-0.246,0.29-0.664,0.044-0.934
		c-0.347-0.382-0.774-0.688-1.246-0.896c-0.068-0.03-0.114-0.079-0.141-0.146c-0.026-0.069-0.024-0.137,0.005-0.205
		c0.687-1.54,2.239-2.561,3.945-2.561c1.234,0,2.409,0.533,3.222,1.443c0.062,0.069,0.082,0.156,0.058,0.246
		c-0.023,0.088-0.086,0.154-0.174,0.183c-0.632,0.203-1.197,0.554-1.654,1.014c-0.75,0.748-1.213,1.783-1.213,2.926
		c0,0.365,0.297,0.662,0.661,0.662c0.366,0,0.663-0.297,0.663-0.662c0-0.777,0.314-1.482,0.824-1.991
		c1.795-1.796,4.806-0.421,4.806,1.991C24.39,16.733,23.119,18.004,21.574,18.004z"/>
</g>
</svg>
