<?xml version="1.0" encoding="iso-8859-1"?>
<!-- Generator: Adobe Illustrator 14.0.0, SVG Export Plug-In . SVG Version: 6.00 Build 43363)  -->
<!DOCTYPE svg PUBLIC "-//W3C//DTD SVG 1.1//EN" "http://www.w3.org/Graphics/SVG/1.1/DTD/svg11.dtd">
<svg version="1.1" id="Layer_1" xmlns="http://www.w3.org/2000/svg" xmlns:xlink="http://www.w3.org/1999/xlink" x="0px" y="0px"
	 width="32px" height="32px" viewBox="0 0 32 32" style="enable-background:new 0 0 32 32;" xml:space="preserve">
<g>
	<g>
		<path style="fill:#FFFFFF;" d="M21.536,12.159c-0.801,0-1.533,0.309-2.117,0.894c-0.578,0.578-0.898,1.348-0.898,2.168
			c0,0.227-0.184,0.412-0.412,0.412c-0.227,0-0.41-0.186-0.41-0.412c0-1.04,0.404-2.017,1.139-2.751
			c0.436-0.436,0.973-0.765,1.553-0.952c0.172-0.055,0.295-0.186,0.34-0.358c0.047-0.173,0.004-0.348-0.113-0.476
			c-0.865-0.97-2.107-1.526-3.408-1.526c-1.801,0-3.439,1.063-4.174,2.712c-0.056,0.128-0.059,0.264-0.008,0.394
			c0.051,0.131,0.146,0.23,0.273,0.285c0.438,0.192,0.839,0.481,1.161,0.834c0.153,0.168,0.141,0.43-0.026,0.582
			c-0.076,0.068-0.174,0.107-0.276,0.107c-0.117,0-0.225-0.049-0.304-0.136c-0.492-0.54-1.196-0.851-1.93-0.851
			c-0.104,0-0.208,0.007-0.311,0.02c-1.302,0.158-2.284,1.268-2.284,2.58c0,1.434,1.166,2.6,2.6,2.6h9.66
			c1.689,0,3.064-1.375,3.064-3.064C24.651,13.33,23.034,12.159,21.536,12.159z"/>
		<path style="fill:#FFFFFF;" d="M11.474,12.255c0.071,0.009,0.145,0.016,0.18,0.016c0.007,0,0.021,0,0.028-0.001
			c0.205-0.017,0.376-0.147,0.447-0.342c0.492-1.394,1.563-2.54,2.94-3.142c0.108-0.047,0.168-0.167,0.144-0.283
			c-0.314-1.507-1.678-2.602-3.242-2.602c-0.891,0-1.709,0.367-2.302,1.032C9.571,7.042,9.535,7.19,9.573,7.332
			C9.61,7.473,9.717,7.584,9.857,7.63c1.064,0.343,1.779,1.325,1.779,2.445c0,0.182-0.153,0.196-0.201,0.196
			c-0.047,0-0.2-0.014-0.2-0.196c0-0.579-0.226-1.123-0.635-1.532C10.187,8.13,9.668,7.912,9.102,7.912
			c-1.059,0-2.202,0.827-2.202,2.164c0,1.195,0.972,2.168,2.167,2.168h2.294C11.385,12.244,11.429,12.25,11.474,12.255z"/>
	</g>
	<g>
		<rect style="fill:none;" width="32" height="32"/>
	</g>
	<g>
		<circle style="fill:#FFFFFF;" cx="14.503" cy="22.005" r="1.707"/>
		<path style="fill:#808080;" d="M14.502,24.111c-1.161,0-2.106-0.945-2.106-2.106s0.945-2.105,2.106-2.105
			c1.162,0,2.107,0.944,2.107,2.105S15.664,24.111,14.502,24.111L14.502,24.111z M14.502,20.699c-0.72,0-1.306,0.586-1.306,1.306
			c0,0.721,0.586,1.308,1.306,1.308c0.721,0,1.308-0.587,1.308-1.308C15.81,21.285,15.223,20.699,14.502,20.699L14.502,20.699z"/>
		<circle style="fill:#FFFFFF;" cx="19.623" cy="22.625" r="1.707"/>
		<path style="fill:#808080;" d="M19.623,24.732c-1.162,0-2.106-0.945-2.106-2.107c0-1.16,0.944-2.104,2.106-2.104
			c1.161,0,2.105,0.944,2.105,2.104C21.729,23.787,20.784,24.732,19.623,24.732L19.623,24.732z M19.623,21.32
			c-0.721,0-1.307,0.586-1.307,1.305c0,0.721,0.586,1.308,1.307,1.308s1.307-0.587,1.307-1.308
			C20.93,21.906,20.344,21.32,19.623,21.32L19.623,21.32z"/>
		<circle style="fill:#FFFFFF;" cx="16.623" cy="26.021" r="1.067"/>
		<path style="fill:#808080;" d="M16.623,27.486c-0.809,0-1.467-0.658-1.467-1.466c0-0.81,0.658-1.467,1.467-1.467
			s1.467,0.657,1.467,1.467C18.09,26.828,17.432,27.486,16.623,27.486L16.623,27.486z M16.623,25.354
			c-0.368,0-0.667,0.299-0.667,0.667c0,0.366,0.299,0.665,0.667,0.665s0.666-0.299,0.666-0.665
			C17.289,25.652,16.991,25.354,16.623,25.354L16.623,25.354z"/>
	</g>
	<g>
		<path style="fill:#FFBE3C;" d="M19.856,5.06c-1.027,0.138-1.847,0.785-2.354,1.611c-0.418,0.681,0.463,1.181,0.841,0.477
			c0.011-0.022,0.022-0.042,0.034-0.062c0.336-0.562,0.914-0.976,1.609-1.071c1.209-0.165,2.341,0.696,2.504,1.906
			c0.059,0.425-0.01,0.838-0.176,1.206c-0.021,0.047-0.045,0.091-0.066,0.136c-0.367,0.739,0.65,0.994,0.908,0.339
			c0.014-0.032,0.03-0.062,0.045-0.094c0.233-0.523,0.329-1.114,0.246-1.719C23.213,6.058,21.591,4.823,19.856,5.06"/>
		<path style="fill:#FFBE3C;" d="M17.443,3.65c-0.02-0.084,0.018-0.168,0.092-0.21c0.075-0.043,0.166-0.034,0.23,0.024l1.148,1.065
			c0.049,0.047,0.07,0.111,0.059,0.177c-0.012,0.068-0.053,0.119-0.116,0.146C18.588,4.967,18.332,5.114,18.1,5.29
			c-0.055,0.04-0.121,0.05-0.186,0.027c-0.062-0.024-0.107-0.073-0.123-0.14L17.443,3.65z"/>
		<path style="fill:#FFBE3C;" d="M15.554,5.677c-0.06-0.064-0.07-0.154-0.026-0.23c0.042-0.075,0.126-0.112,0.211-0.092l1.526,0.348
			c0.066,0.016,0.117,0.06,0.14,0.123c0.024,0.063,0.015,0.13-0.027,0.184c-0.175,0.233-0.323,0.49-0.438,0.758
			c-0.027,0.062-0.079,0.104-0.146,0.116c-0.067,0.012-0.13-0.009-0.176-0.061L15.554,5.677z"/>
		<path style="fill:#FFBE3C;" d="M20.093,2.841l-0.462,1.497c-0.02,0.065-0.006,0.129,0.037,0.181
			c0.043,0.052,0.105,0.077,0.173,0.069c0.29-0.035,0.585-0.035,0.876,0c0.067,0.008,0.129-0.017,0.173-0.069
			c0.044-0.052,0.056-0.116,0.036-0.181l-0.461-1.497c-0.026-0.083-0.1-0.137-0.187-0.137S20.117,2.758,20.093,2.841"/>
		<path style="fill:#FFBE3C;" d="M22.791,3.465c0.064-0.06,0.156-0.069,0.23-0.026c0.075,0.043,0.111,0.127,0.092,0.211
			l-0.348,1.527c-0.015,0.066-0.06,0.116-0.123,0.14c-0.063,0.023-0.129,0.013-0.184-0.027c-0.234-0.176-0.489-0.324-0.758-0.438
			c-0.062-0.027-0.104-0.078-0.117-0.146c-0.01-0.066,0.011-0.129,0.061-0.176L22.791,3.465z"/>
		<path style="fill:#FFBE3C;" d="M24.818,5.354c0.084-0.02,0.167,0.017,0.211,0.092c0.043,0.076,0.033,0.167-0.026,0.23
			l-1.064,1.148c-0.046,0.05-0.109,0.071-0.176,0.059c-0.067-0.011-0.119-0.053-0.146-0.117C23.502,6.5,23.355,6.244,23.18,6.011
			c-0.041-0.055-0.051-0.121-0.027-0.185c0.022-0.063,0.072-0.107,0.139-0.123L24.818,5.354z"/>
		<path style="fill:#FFBE3C;" d="M25.627,8.003l-1.496-0.461c-0.064-0.02-0.13-0.006-0.182,0.038
			c-0.053,0.044-0.077,0.104-0.068,0.173c0.035,0.29,0.035,0.585,0,0.875c-0.009,0.068,0.016,0.129,0.068,0.173
			c0.052,0.044,0.117,0.058,0.182,0.038l1.496-0.461c0.082-0.026,0.138-0.1,0.138-0.187S25.709,8.03,25.627,8.003"/>
		<path style="fill:#FFBE3C;" d="M25.003,10.704c0.06,0.063,0.069,0.154,0.026,0.23c-0.043,0.074-0.127,0.111-0.213,0.091
			l-1.525-0.349c-0.066-0.015-0.116-0.059-0.139-0.123c-0.024-0.063-0.014-0.129,0.027-0.184c0.174-0.234,0.322-0.489,0.438-0.758
			c0.026-0.062,0.078-0.104,0.146-0.115c0.066-0.012,0.13,0.009,0.176,0.059L25.003,10.704z"/>
	</g>
	<path style="fill:#0071BC;" d="M22.323,11.157c-0.081-0.015-0.145-0.061-0.183-0.133c-0.984-1.791-2.893-2.922-4.944-2.934
		c-0.757-0.004-1.349,0.176-1.349,0.188c0,0.009-0.165-0.425-0.189-0.494c-0.536-1.518-1.999-2.562-3.621-2.562
		C10.64,5.221,9.338,6,8.67,7.219C8.643,7.269,8.6,7.3,8.545,7.31c-1.322,0.243-2.31,1.417-2.31,2.771c0,1.548,1.273,2.82,2.82,2.82
		h0.481c-0.791,0.676-1.295,1.677-1.295,2.791c0,2.02,1.653,3.674,3.674,3.674h9.658c2.271,0,4.141-1.868,4.141-4.14
		C25.714,13.238,24.264,11.513,22.323,11.157z M11.351,12H9.055c-1.051,0-1.917-0.866-1.917-1.918c0-1.643,2.051-2.579,3.274-1.355
		c0.347,0.347,0.562,0.827,0.562,1.355c0,0.595,0.901,0.595,0.901,0c0-1.238-0.804-2.313-1.952-2.684
		c-0.125-0.04-0.167-0.194-0.079-0.292c1.607-1.802,4.625-0.882,5.113,1.454c0.008,0.039,0.008,0.025,0.002,0.002
		c-1.41,0.617-2.55,1.794-3.077,3.289c-0.037,0.101-0.124,0.167-0.231,0.176C11.601,12.031,11.408,12,11.351,12z M21.573,18.041
		h-9.658c-1.297,0-2.35-1.052-2.35-2.349c0-1.199,0.905-2.192,2.065-2.333c0.745-0.092,1.512,0.188,2.026,0.752
		c0.246,0.27,0.664,0.29,0.933,0.044c0.271-0.246,0.29-0.664,0.044-0.935c-0.347-0.381-0.774-0.688-1.246-0.896
		c-0.068-0.029-0.114-0.078-0.141-0.147c-0.026-0.068-0.024-0.137,0.005-0.203c0.687-1.541,2.239-2.562,3.945-2.562
		c1.235,0,2.409,0.533,3.222,1.443c0.062,0.068,0.082,0.157,0.059,0.246c-0.023,0.09-0.086,0.155-0.175,0.184
		c-0.632,0.203-1.197,0.555-1.654,1.013c-0.749,0.749-1.212,1.784-1.212,2.927c0,0.366,0.297,0.662,0.66,0.662
		c0.367,0,0.663-0.296,0.663-0.662c0-0.777,0.314-1.482,0.825-1.991c1.795-1.796,4.805-0.422,4.805,1.991
		C24.389,16.771,23.118,18.041,21.573,18.041z"/>
</g>
</svg>
