<?xml version="1.0" encoding="iso-8859-1"?>
<!-- Generator: Adobe Illustrator 14.0.0, SVG Export Plug-In . SVG Version: 6.00 Build 43363)  -->
<!DOCTYPE svg PUBLIC "-//W3C//DTD SVG 1.1//EN" "http://www.w3.org/Graphics/SVG/1.1/DTD/svg11.dtd">
<svg version="1.1" id="Layer_1" xmlns="http://www.w3.org/2000/svg" xmlns:xlink="http://www.w3.org/1999/xlink" x="0px" y="0px"
	 width="32px" height="32px" viewBox="0 0 32 32" style="enable-background:new 0 0 32 32;" xml:space="preserve">
<g>
	<g>
		<path style="fill:#E6E6E6;" d="M21.536,10.417c-0.801,0-1.533,0.309-2.117,0.894c-0.578,0.578-0.898,1.348-0.898,2.168
			c0,0.227-0.184,0.412-0.412,0.412c-0.227,0-0.41-0.186-0.41-0.412c0-1.04,0.404-2.017,1.139-2.751
			c0.436-0.436,0.973-0.765,1.553-0.952c0.172-0.055,0.295-0.186,0.34-0.358c0.047-0.173,0.004-0.348-0.113-0.476
			c-0.865-0.97-2.107-1.526-3.408-1.526c-1.801,0-3.439,1.063-4.174,2.712c-0.056,0.128-0.059,0.264-0.008,0.394
			c0.051,0.131,0.146,0.23,0.273,0.285c0.438,0.192,0.839,0.481,1.161,0.834c0.153,0.168,0.141,0.43-0.026,0.582
			c-0.076,0.068-0.174,0.107-0.276,0.107c-0.117,0-0.225-0.049-0.304-0.136c-0.492-0.54-1.196-0.851-1.93-0.851
			c-0.104,0-0.208,0.007-0.311,0.02c-1.302,0.158-2.284,1.268-2.284,2.58c0,1.434,1.166,2.6,2.6,2.6h9.66
			c1.689,0,3.064-1.375,3.064-3.064C24.651,11.587,23.034,10.417,21.536,10.417z"/>
		<path style="fill:#E6E6E6;" d="M11.474,10.513c0.071,0.009,0.145,0.016,0.18,0.016c0.007,0,0.021,0,0.028-0.001
			c0.205-0.017,0.376-0.147,0.447-0.342c0.492-1.394,1.563-2.54,2.94-3.142c0.108-0.047,0.168-0.167,0.144-0.283
			c-0.314-1.507-1.678-2.602-3.242-2.602c-0.891,0-1.709,0.367-2.302,1.032C9.571,5.299,9.535,5.448,9.573,5.589
			C9.61,5.73,9.717,5.842,9.857,5.887c1.064,0.343,1.779,1.325,1.779,2.445c0,0.182-0.153,0.196-0.201,0.196
			c-0.047,0-0.2-0.014-0.2-0.196c0-0.579-0.226-1.123-0.635-1.532c-0.414-0.414-0.932-0.632-1.499-0.632
			c-1.059,0-2.202,0.827-2.202,2.164c0,1.195,0.972,2.168,2.167,2.168h2.294C11.385,10.501,11.429,10.507,11.474,10.513z"/>
	</g>
	<g>
		<rect style="fill:none;" width="32" height="32"/>
	</g>
	<g>
		<path style="fill:#FFBE3C;" d="M21.158,4.455c1.365,0,2.488,1.123,2.488,2.489c0,0.474-0.137,0.921-0.371,1.299
			c-0.016,0.023-0.031,0.045-0.045,0.069c-0.268,0.476-1.027,0.175-0.667-0.358c0.024-0.032,0.046-0.063,0.067-0.096
			c0.166-0.267,0.262-0.582,0.262-0.914c0-0.953-0.782-1.735-1.734-1.735c-0.546,0-1.036,0.258-1.354,0.657
			c-0.014,0.015-0.023,0.029-0.035,0.043c-0.365,0.505-0.994,0.026-0.599-0.457C19.65,4.867,20.352,4.455,21.158,4.455"/>
		<path style="fill:#FFBE3C;" d="M21.014,2.773l-0.359,1.167c-0.016,0.051-0.004,0.101,0.027,0.143
			c0.035,0.041,0.084,0.058,0.137,0.053c0.226-0.027,0.455-0.027,0.682,0c0.053,0.005,0.102-0.012,0.135-0.053
			c0.033-0.042,0.045-0.092,0.029-0.143l-0.359-1.167c-0.021-0.063-0.078-0.106-0.146-0.106C21.091,2.667,21.033,2.709,21.014,2.773
			"/>
		<path style="fill:#FFBE3C;" d="M23.117,3.26l-0.895,0.829c-0.039,0.036-0.055,0.085-0.045,0.137
			c0.009,0.054,0.041,0.093,0.089,0.116c0.21,0.088,0.408,0.204,0.592,0.34c0.042,0.031,0.094,0.04,0.143,0.02
			c0.05-0.017,0.085-0.055,0.096-0.108l0.272-1.188c0.016-0.066-0.014-0.133-0.072-0.165C23.237,3.205,23.166,3.213,23.117,3.26"/>
		<path style="fill:#FFBE3C;" d="M24.697,4.733l-1.189,0.271c-0.053,0.011-0.092,0.047-0.109,0.096s-0.011,0.102,0.021,0.143
			c0.138,0.184,0.253,0.381,0.341,0.592c0.022,0.048,0.062,0.08,0.115,0.089c0.051,0.011,0.102-0.007,0.135-0.046l0.832-0.895
			c0.046-0.048,0.055-0.119,0.02-0.18C24.828,4.746,24.763,4.718,24.697,4.733"/>
		<path style="fill:#FFBE3C;" d="M25.328,6.797c0.063,0.022,0.107,0.077,0.107,0.147c-0.001,0.066-0.044,0.125-0.107,0.144
			l-1.166,0.359c-0.052,0.015-0.102,0.005-0.144-0.028c-0.04-0.035-0.06-0.083-0.053-0.136c0.028-0.226,0.028-0.456,0-0.683
			c-0.007-0.051,0.013-0.1,0.053-0.132c0.042-0.036,0.092-0.047,0.144-0.03L25.328,6.797z"/>
		<path style="fill:#FFBE3C;" d="M24.842,8.901c0.046,0.051,0.055,0.121,0.02,0.18c-0.033,0.059-0.099,0.086-0.164,0.072
			l-1.189-0.272c-0.053-0.013-0.092-0.047-0.109-0.096c-0.018-0.051-0.011-0.101,0.021-0.145c0.138-0.181,0.253-0.381,0.341-0.589
			c0.022-0.05,0.062-0.083,0.115-0.092c0.051-0.007,0.102,0.008,0.135,0.047L24.842,8.901z"/>
		<path style="fill:#FFBE3C;" d="M17.477,4.983l0.83,0.895c0.036,0.039,0.085,0.057,0.137,0.046
			c0.051-0.009,0.094-0.042,0.113-0.089c0.09-0.21,0.203-0.408,0.342-0.592c0.031-0.041,0.039-0.094,0.021-0.143
			s-0.057-0.084-0.107-0.096l-1.19-0.271c-0.066-0.016-0.131,0.012-0.166,0.07C17.422,4.865,17.432,4.936,17.477,4.983"/>
		<path style="fill:#FFBE3C;" d="M18.947,3.405l0.272,1.188c0.013,0.053,0.047,0.092,0.096,0.108c0.052,0.02,0.101,0.011,0.146-0.02
			c0.181-0.136,0.38-0.252,0.589-0.34c0.05-0.023,0.081-0.062,0.092-0.116c0.009-0.051-0.007-0.101-0.047-0.137L19.2,3.259
			c-0.05-0.046-0.121-0.054-0.179-0.019C18.963,3.272,18.932,3.339,18.947,3.405"/>
	</g>
	<path style="fill:#002B73;" d="M22.35,9.433c-0.082-0.014-0.146-0.06-0.184-0.133c-0.984-1.791-2.893-2.922-4.944-2.933
		c-0.757-0.004-1.349,0.175-1.349,0.188c0,0.008-0.166-0.425-0.19-0.494c-0.536-1.519-1.999-2.562-3.621-2.562
		c-1.398,0-2.699,0.778-3.368,1.998c-0.027,0.05-0.07,0.082-0.125,0.091C7.248,5.83,6.26,7.004,6.26,8.358
		c0,1.548,1.273,2.82,2.82,2.82h0.481c-0.791,0.676-1.295,1.677-1.295,2.791c0,2.02,1.653,3.674,3.674,3.674h9.66
		c2.27,0,4.141-1.869,4.141-4.14C25.74,11.515,24.289,9.79,22.35,9.433z M11.376,10.276H9.08c-1.051,0-1.917-0.865-1.917-1.917
		c0-1.643,2.051-2.578,3.274-1.355c0.347,0.347,0.562,0.826,0.562,1.355c0,0.595,0.901,0.595,0.901,0
		c0-1.239-0.804-2.313-1.952-2.684C9.822,5.634,9.78,5.48,9.868,5.383c1.607-1.802,4.626-0.882,5.114,1.454
		c0.007,0.039,0.008,0.025,0.002,0.002c-1.411,0.617-2.55,1.795-3.078,3.289c-0.037,0.101-0.124,0.168-0.231,0.176
		C11.626,10.307,11.433,10.276,11.376,10.276z M21.6,16.318h-9.66c-1.297,0-2.35-1.052-2.35-2.349c0-1.199,0.905-2.192,2.064-2.333
		c0.745-0.091,1.512,0.188,2.026,0.752c0.246,0.27,0.664,0.29,0.934,0.043c0.271-0.246,0.29-0.664,0.043-0.934
		c-0.347-0.381-0.774-0.688-1.246-0.896c-0.068-0.029-0.114-0.078-0.141-0.147c-0.026-0.067-0.024-0.136,0.005-0.203
		c0.687-1.541,2.239-2.562,3.945-2.562c1.235,0,2.409,0.534,3.222,1.443c0.062,0.069,0.082,0.157,0.059,0.246
		c-0.023,0.089-0.086,0.155-0.175,0.183c-0.632,0.203-1.196,0.555-1.654,1.014c-0.749,0.749-1.212,1.783-1.212,2.927
		c0,0.366,0.297,0.662,0.661,0.662c0.366,0,0.662-0.296,0.662-0.662c0-0.777,0.315-1.482,0.825-1.99
		c1.795-1.796,4.805-0.422,4.805,1.99C24.414,15.047,23.144,16.318,21.6,16.318z"/>
	<g>
		<path style="fill:#999999;" d="M10.205,19.773h12.842c0.629,0,1.139-0.239,1.139-0.533c0-0.295-0.51-0.534-1.139-0.534H10.205
			c-0.629,0-1.138,0.239-1.138,0.534C9.067,19.534,9.576,19.773,10.205,19.773L10.205,19.773z"/>
		<g>
			<path style="fill:#999999;" d="M10.205,22.175h12.842c0.629,0,1.139-0.238,1.139-0.533s-0.51-0.533-1.139-0.533H10.205
				c-0.629,0-1.138,0.238-1.138,0.533S9.576,22.175,10.205,22.175L10.205,22.175z"/>
		</g>
	</g>
</g>
</svg>
