<?xml version="1.0" encoding="iso-8859-1"?>
<!-- Generator: Adobe Illustrator 14.0.0, SVG Export Plug-In . SVG Version: 6.00 Build 43363)  -->
<!DOCTYPE svg PUBLIC "-//W3C//DTD SVG 1.1//EN" "http://www.w3.org/Graphics/SVG/1.1/DTD/svg11.dtd">
<svg version="1.1" id="Layer_1" xmlns="http://www.w3.org/2000/svg" xmlns:xlink="http://www.w3.org/1999/xlink" x="0px" y="0px"
	 width="32px" height="32px" viewBox="0 0 32 32" style="enable-background:new 0 0 32 32;" xml:space="preserve">
<g>
	<g>
		<path style="fill:#E6E6E6;" d="M21.57,10.451c-0.801,0-1.533,0.309-2.117,0.894c-0.578,0.578-0.898,1.348-0.898,2.168
			c0,0.227-0.184,0.412-0.412,0.412c-0.227,0-0.41-0.186-0.41-0.412c0-1.04,0.404-2.017,1.139-2.751
			c0.436-0.436,0.973-0.765,1.553-0.952c0.172-0.055,0.295-0.186,0.34-0.358c0.047-0.173,0.004-0.348-0.113-0.476
			c-0.865-0.97-2.107-1.526-3.408-1.526c-1.801,0-3.439,1.063-4.174,2.712c-0.056,0.128-0.059,0.264-0.008,0.394
			c0.051,0.131,0.146,0.23,0.273,0.285c0.438,0.192,0.839,0.481,1.161,0.834c0.153,0.168,0.141,0.43-0.026,0.582
			c-0.076,0.068-0.174,0.107-0.276,0.107c-0.117,0-0.225-0.049-0.304-0.136c-0.492-0.54-1.196-0.851-1.93-0.851
			c-0.104,0-0.208,0.007-0.311,0.02c-1.302,0.158-2.284,1.268-2.284,2.58c0,1.434,1.166,2.6,2.6,2.6h9.66
			c1.689,0,3.064-1.375,3.064-3.064C24.686,11.622,23.068,10.451,21.57,10.451z"/>
		<path style="fill:#E6E6E6;" d="M11.508,10.547c0.071,0.009,0.145,0.016,0.18,0.016c0.007,0,0.021,0,0.028-0.001
			c0.205-0.017,0.376-0.147,0.447-0.342c0.492-1.394,1.563-2.54,2.94-3.142c0.108-0.047,0.168-0.167,0.144-0.283
			c-0.314-1.507-1.678-2.602-3.242-2.602c-0.891,0-1.709,0.367-2.302,1.032C9.605,5.333,9.569,5.482,9.607,5.624
			c0.038,0.142,0.144,0.253,0.284,0.298c1.064,0.343,1.779,1.325,1.779,2.445c0,0.182-0.153,0.196-0.201,0.196
			c-0.047,0-0.2-0.014-0.2-0.196c0-0.579-0.226-1.123-0.635-1.532c-0.414-0.414-0.932-0.632-1.499-0.632
			c-1.059,0-2.202,0.827-2.202,2.164c0,1.195,0.972,2.168,2.167,2.168h2.294C11.419,10.536,11.463,10.542,11.508,10.547z"/>
	</g>
	<g>
		<rect style="fill:none;" width="32" height="32"/>
	</g>
	<g>
		<path style="fill:#FFBE3C;" d="M21.158,4.455c1.365,0,2.487,1.123,2.487,2.489c0,0.474-0.137,0.921-0.371,1.299
			c-0.015,0.023-0.031,0.045-0.044,0.069c-0.269,0.476-1.027,0.175-0.667-0.359c0.023-0.032,0.046-0.063,0.066-0.096
			c0.167-0.266,0.263-0.581,0.263-0.914c0-0.953-0.782-1.735-1.734-1.735c-0.547,0-1.036,0.258-1.354,0.657
			c-0.014,0.015-0.023,0.028-0.035,0.043c-0.365,0.505-0.994,0.027-0.599-0.457C19.65,4.867,20.352,4.455,21.158,4.455"/>
		<path style="fill:#FFBE3C;" d="M21.014,2.773l-0.359,1.166c-0.016,0.052-0.005,0.102,0.027,0.144
			c0.035,0.041,0.084,0.058,0.136,0.052c0.226-0.026,0.456-0.026,0.683,0c0.053,0.006,0.102-0.012,0.135-0.052
			c0.033-0.042,0.045-0.092,0.029-0.144l-0.359-1.166c-0.021-0.063-0.078-0.106-0.146-0.106C21.091,2.667,21.033,2.709,21.014,2.773
			"/>
		<path style="fill:#FFBE3C;" d="M23.117,3.26l-0.895,0.83c-0.039,0.036-0.055,0.085-0.045,0.136
			c0.009,0.055,0.041,0.093,0.089,0.116c0.21,0.088,0.407,0.204,0.592,0.34c0.041,0.031,0.094,0.039,0.143,0.02
			c0.05-0.017,0.085-0.056,0.095-0.108l0.272-1.188c0.016-0.066-0.014-0.133-0.071-0.165C23.236,3.205,23.166,3.213,23.117,3.26"/>
		<path style="fill:#FFBE3C;" d="M24.696,4.733l-1.189,0.271C23.455,5.015,23.416,5.05,23.398,5.1
			c-0.019,0.048-0.011,0.102,0.021,0.142c0.137,0.183,0.253,0.382,0.341,0.592c0.021,0.047,0.062,0.08,0.115,0.089
			c0.051,0.011,0.101-0.007,0.135-0.045l0.832-0.895c0.046-0.048,0.054-0.119,0.02-0.18C24.828,4.746,24.763,4.718,24.696,4.733"/>
		<path style="fill:#FFBE3C;" d="M25.328,6.796c0.063,0.022,0.107,0.078,0.107,0.147c-0.002,0.066-0.044,0.125-0.107,0.144
			l-1.166,0.359c-0.052,0.015-0.102,0.006-0.144-0.027c-0.04-0.035-0.06-0.083-0.054-0.136c0.028-0.226,0.028-0.456,0-0.683
			c-0.006-0.052,0.014-0.1,0.054-0.132c0.042-0.036,0.092-0.047,0.144-0.031L25.328,6.796z"/>
		<path style="fill:#FFBE3C;" d="M24.842,8.9c0.046,0.052,0.054,0.122,0.02,0.18c-0.033,0.059-0.099,0.087-0.165,0.073l-1.189-0.272
			c-0.052-0.013-0.091-0.047-0.108-0.097c-0.019-0.05-0.011-0.1,0.021-0.145c0.137-0.181,0.253-0.381,0.341-0.589
			c0.021-0.05,0.062-0.083,0.115-0.092c0.051-0.007,0.101,0.008,0.135,0.047L24.842,8.9z"/>
		<path style="fill:#FFBE3C;" d="M17.477,4.983l0.829,0.895c0.036,0.038,0.085,0.056,0.138,0.045
			c0.051-0.009,0.094-0.042,0.113-0.089c0.09-0.21,0.203-0.409,0.342-0.592c0.031-0.04,0.039-0.094,0.021-0.142
			c-0.019-0.05-0.058-0.085-0.108-0.096l-1.189-0.271c-0.066-0.016-0.131,0.012-0.166,0.07C17.422,4.864,17.431,4.935,17.477,4.983"
			/>
		<path style="fill:#FFBE3C;" d="M18.947,3.405l0.272,1.188c0.013,0.053,0.047,0.092,0.095,0.108
			c0.052,0.019,0.102,0.011,0.146-0.02c0.182-0.136,0.381-0.252,0.59-0.34c0.05-0.023,0.081-0.062,0.091-0.116
			c0.009-0.051-0.007-0.101-0.047-0.136l-0.895-0.83c-0.049-0.046-0.12-0.055-0.179-0.019C18.962,3.272,18.932,3.339,18.947,3.405"
			/>
	</g>
	<path style="fill:#002B73;" d="M22.349,9.433c-0.081-0.014-0.146-0.06-0.184-0.133c-0.983-1.791-2.893-2.922-4.944-2.934
		c-0.757-0.004-1.348,0.175-1.348,0.188c0,0.008-0.165-0.425-0.189-0.494c-0.536-1.519-1.999-2.562-3.621-2.562
		c-1.398,0-2.699,0.778-3.368,1.998c-0.027,0.05-0.07,0.081-0.125,0.091C7.248,5.83,6.26,7.004,6.26,8.358
		c0,1.547,1.273,2.819,2.82,2.819h0.481c-0.791,0.676-1.295,1.677-1.295,2.791c0,2.021,1.653,3.674,3.674,3.674h9.659
		c2.271,0,4.141-1.869,4.141-4.14C25.739,11.514,24.289,9.789,22.349,9.433z M11.376,10.276H9.08c-1.051,0-1.917-0.865-1.917-1.917
		c0-1.643,2.051-2.579,3.274-1.356c0.347,0.347,0.562,0.827,0.562,1.356c0,0.594,0.901,0.594,0.901,0
		c0-1.239-0.804-2.313-1.952-2.684C9.822,5.634,9.78,5.48,9.868,5.383c1.607-1.802,4.625-0.882,5.113,1.454
		c0.008,0.039,0.008,0.025,0.002,0.002c-1.41,0.617-2.55,1.794-3.077,3.288c-0.037,0.102-0.124,0.168-0.231,0.176
		C11.626,10.307,11.433,10.276,11.376,10.276z M21.599,16.318H11.94c-1.297,0-2.35-1.053-2.35-2.35c0-1.199,0.905-2.191,2.064-2.333
		c0.745-0.091,1.512,0.188,2.026,0.752c0.246,0.27,0.664,0.29,0.934,0.043c0.271-0.246,0.29-0.664,0.043-0.934
		c-0.347-0.382-0.774-0.688-1.246-0.896c-0.068-0.03-0.114-0.079-0.141-0.147c-0.026-0.068-0.024-0.136,0.005-0.204
		c0.687-1.54,2.239-2.561,3.944-2.561c1.236,0,2.41,0.533,3.223,1.443c0.062,0.069,0.082,0.157,0.059,0.246
		c-0.024,0.089-0.087,0.154-0.176,0.183c-0.631,0.203-1.196,0.555-1.654,1.014c-0.748,0.749-1.212,1.783-1.212,2.926
		c0,0.366,0.297,0.662,0.661,0.662c0.367,0,0.662-0.296,0.662-0.662c0-0.777,0.315-1.482,0.826-1.99
		c1.795-1.796,4.805-0.421,4.805,1.99C24.414,15.047,23.143,16.318,21.599,16.318z"/>
	<g>
		<path style="fill-rule:evenodd;clip-rule:evenodd;fill:#3FA9F5;" d="M12.839,22.424c0.139,0.203,0.356,0.328,0.602,0.347
			c0.478,0.036,0.875-0.358,0.861-0.84V21.93l-0.018-1.223c-0.001-0.04-0.044-0.064-0.078-0.046l-1.069,0.598h-0.001
			C12.712,21.487,12.569,22.027,12.839,22.424"/>
		<path style="fill:#3FA9F5;" d="M15.505,20.591c0.189,0.278,0.485,0.448,0.821,0.474c0.651,0.051,1.195-0.488,1.176-1.146v-0.001
			l-0.024-1.671c-0.001-0.054-0.061-0.09-0.107-0.062L15.91,19h-0.001C15.33,19.312,15.136,20.05,15.505,20.591"/>
	</g>
</g>
</svg>
