<?xml version="1.0" encoding="iso-8859-1"?>
<!-- Generator: Adobe Illustrator 14.0.0, SVG Export Plug-In . SVG Version: 6.00 Build 43363)  -->
<!DOCTYPE svg PUBLIC "-//W3C//DTD SVG 1.1//EN" "http://www.w3.org/Graphics/SVG/1.1/DTD/svg11.dtd">
<svg version="1.1" id="Layer_1" xmlns="http://www.w3.org/2000/svg" xmlns:xlink="http://www.w3.org/1999/xlink" x="0px" y="0px"
	 width="32px" height="32px" viewBox="0 0 32 32" style="enable-background:new 0 0 32 32;" xml:space="preserve">
<g>
	<g>
		<path style="fill:#E6E6E6;" d="M21.536,10.451c-0.801,0-1.533,0.309-2.117,0.894c-0.578,0.578-0.898,1.348-0.898,2.168
			c0,0.227-0.184,0.412-0.412,0.412c-0.227,0-0.41-0.186-0.41-0.412c0-1.04,0.404-2.017,1.139-2.751
			c0.436-0.436,0.973-0.765,1.553-0.952c0.172-0.055,0.295-0.186,0.34-0.358c0.047-0.173,0.004-0.348-0.113-0.476
			c-0.865-0.97-2.107-1.526-3.408-1.526c-1.801,0-3.439,1.063-4.174,2.712c-0.056,0.128-0.059,0.264-0.008,0.394
			c0.051,0.131,0.146,0.23,0.273,0.285c0.438,0.192,0.839,0.481,1.161,0.834c0.153,0.168,0.141,0.43-0.026,0.582
			c-0.076,0.068-0.174,0.107-0.276,0.107c-0.117,0-0.225-0.049-0.304-0.136c-0.492-0.54-1.196-0.851-1.93-0.851
			c-0.104,0-0.208,0.007-0.311,0.02c-1.302,0.158-2.284,1.268-2.284,2.58c0,1.434,1.166,2.6,2.6,2.6h9.66
			c1.689,0,3.064-1.375,3.064-3.064C24.651,11.622,23.034,10.451,21.536,10.451z"/>
		<path style="fill:#E6E6E6;" d="M11.474,10.547c0.071,0.009,0.145,0.016,0.18,0.016c0.007,0,0.021,0,0.028-0.001
			c0.205-0.017,0.376-0.147,0.447-0.342c0.492-1.394,1.563-2.54,2.94-3.142c0.108-0.047,0.168-0.167,0.144-0.283
			c-0.314-1.507-1.678-2.602-3.242-2.602c-0.891,0-1.709,0.367-2.302,1.032C9.571,5.333,9.535,5.482,9.573,5.624
			C9.61,5.765,9.717,5.876,9.857,5.922c1.064,0.343,1.779,1.325,1.779,2.445c0,0.182-0.153,0.196-0.201,0.196
			c-0.047,0-0.2-0.014-0.2-0.196c0-0.579-0.226-1.123-0.635-1.532c-0.414-0.414-0.932-0.632-1.499-0.632
			c-1.059,0-2.202,0.827-2.202,2.164c0,1.195,0.972,2.168,2.167,2.168h2.294C11.385,10.536,11.429,10.542,11.474,10.547z"/>
	</g>
	<g>
		<rect style="fill:none;" width="32" height="32"/>
	</g>
	<g>
		<path style="fill:#FFBE3C;" d="M21.158,4.455c1.365,0,2.488,1.123,2.488,2.489c0,0.474-0.137,0.921-0.371,1.299
			c-0.016,0.023-0.031,0.045-0.044,0.069c-0.269,0.476-1.027,0.175-0.667-0.359c0.023-0.032,0.046-0.063,0.066-0.096
			c0.167-0.266,0.262-0.581,0.262-0.914c0-0.953-0.781-1.735-1.734-1.735c-0.546,0-1.035,0.258-1.354,0.657
			c-0.012,0.015-0.022,0.028-0.033,0.043c-0.366,0.505-0.996,0.027-0.6-0.457C19.65,4.867,20.352,4.455,21.158,4.455"/>
		<path style="fill:#FFBE3C;" d="M21.015,2.773l-0.36,1.166c-0.015,0.052-0.004,0.102,0.029,0.144
			c0.034,0.041,0.083,0.058,0.135,0.052c0.226-0.026,0.457-0.026,0.683,0c0.052,0.006,0.101-0.012,0.134-0.052
			c0.034-0.042,0.045-0.092,0.029-0.144l-0.359-1.166c-0.021-0.063-0.078-0.106-0.146-0.106C21.092,2.667,21.034,2.709,21.015,2.773
			"/>
		<path style="fill:#FFBE3C;" d="M23.119,3.26l-0.895,0.83c-0.04,0.036-0.056,0.085-0.047,0.136c0.01,0.055,0.042,0.093,0.09,0.116
			c0.209,0.088,0.407,0.204,0.592,0.34c0.041,0.031,0.094,0.039,0.143,0.02c0.049-0.017,0.084-0.056,0.095-0.108l0.272-1.188
			c0.016-0.066-0.014-0.133-0.071-0.165C23.237,3.205,23.168,3.213,23.119,3.26"/>
		<path style="fill:#FFBE3C;" d="M24.697,4.733l-1.189,0.271C23.455,5.015,23.416,5.05,23.398,5.1
			c-0.018,0.048-0.01,0.102,0.021,0.142c0.137,0.183,0.253,0.382,0.342,0.592c0.021,0.047,0.061,0.08,0.113,0.089
			c0.053,0.011,0.102-0.007,0.137-0.045l0.831-0.895c0.046-0.048,0.054-0.119,0.02-0.18C24.829,4.746,24.764,4.718,24.697,4.733"/>
		<path style="fill:#FFBE3C;" d="M25.328,6.796c0.064,0.022,0.107,0.078,0.107,0.147c-0.001,0.066-0.043,0.125-0.107,0.144
			l-1.166,0.359c-0.051,0.015-0.102,0.006-0.143-0.027c-0.041-0.035-0.059-0.083-0.054-0.136c0.028-0.226,0.028-0.456,0-0.683
			c-0.005-0.052,0.013-0.1,0.054-0.132c0.041-0.036,0.092-0.047,0.143-0.031L25.328,6.796z"/>
		<path style="fill:#FFBE3C;" d="M24.843,8.9c0.046,0.052,0.054,0.122,0.02,0.18c-0.033,0.059-0.099,0.087-0.165,0.073l-1.189-0.272
			c-0.053-0.013-0.092-0.047-0.109-0.097c-0.018-0.05-0.01-0.1,0.021-0.145c0.137-0.181,0.253-0.381,0.342-0.589
			c0.021-0.05,0.061-0.083,0.113-0.092c0.053-0.007,0.102,0.008,0.137,0.047L24.843,8.9z"/>
		<path style="fill:#FFBE3C;" d="M17.477,4.983l0.83,0.895c0.036,0.038,0.085,0.056,0.137,0.045
			c0.053-0.009,0.094-0.042,0.113-0.089c0.09-0.21,0.205-0.409,0.342-0.592c0.031-0.04,0.04-0.094,0.021-0.142
			c-0.018-0.05-0.058-0.085-0.108-0.096l-1.189-0.271c-0.067-0.016-0.132,0.012-0.167,0.07C17.423,4.864,17.432,4.935,17.477,4.983"
			/>
		<path style="fill:#FFBE3C;" d="M18.949,3.405l0.271,1.188c0.013,0.053,0.047,0.092,0.095,0.108
			c0.052,0.019,0.103,0.011,0.146-0.02c0.182-0.136,0.381-0.252,0.59-0.34c0.049-0.023,0.082-0.062,0.091-0.116
			c0.009-0.051-0.007-0.101-0.047-0.136L19.2,3.259c-0.05-0.046-0.12-0.055-0.179-0.019C18.963,3.272,18.934,3.339,18.949,3.405"/>
	</g>
	<path style="fill:#002B73;" d="M22.35,9.433c-0.082-0.014-0.146-0.06-0.184-0.133c-0.984-1.791-2.893-2.922-4.944-2.934
		c-0.757-0.004-1.349,0.175-1.349,0.188c0,0.008-0.165-0.425-0.189-0.494c-0.537-1.519-1.999-2.562-3.621-2.562
		c-1.398,0-2.699,0.778-3.368,1.998c-0.027,0.05-0.07,0.081-0.125,0.091c-1.322,0.243-2.31,1.418-2.31,2.772
		c0,1.547,1.273,2.819,2.82,2.819h0.481c-0.791,0.676-1.295,1.677-1.295,2.791c0,2.021,1.653,3.674,3.674,3.674H21.6
		c2.27,0,4.141-1.869,4.141-4.14C25.74,11.514,24.289,9.789,22.35,9.433z M11.376,10.276H9.081c-1.051,0-1.917-0.865-1.917-1.917
		c0-1.643,2.051-2.579,3.274-1.356c0.347,0.347,0.562,0.827,0.562,1.356c0,0.594,0.901,0.594,0.901,0
		c0-1.239-0.804-2.313-1.952-2.684C9.822,5.634,9.781,5.48,9.868,5.383c1.607-1.802,4.625-0.882,5.113,1.454
		c0.008,0.039,0.008,0.025,0.002,0.002c-1.41,0.617-2.549,1.794-3.077,3.288c-0.037,0.102-0.124,0.168-0.231,0.176
		C11.626,10.307,11.434,10.276,11.376,10.276z M21.6,16.318H11.94c-1.297,0-2.35-1.053-2.35-2.35c0-1.199,0.905-2.191,2.064-2.333
		c0.745-0.091,1.512,0.188,2.026,0.752c0.246,0.27,0.664,0.29,0.934,0.043c0.271-0.246,0.29-0.664,0.043-0.934
		c-0.347-0.382-0.774-0.688-1.246-0.896c-0.068-0.03-0.114-0.079-0.141-0.147c-0.026-0.068-0.024-0.136,0.005-0.204
		c0.687-1.54,2.239-2.561,3.945-2.561c1.235,0,2.409,0.533,3.222,1.443c0.062,0.069,0.082,0.157,0.059,0.246
		c-0.023,0.089-0.086,0.154-0.175,0.183c-0.632,0.203-1.196,0.555-1.654,1.014c-0.749,0.749-1.212,1.783-1.212,2.926
		c0,0.366,0.297,0.662,0.661,0.662c0.366,0,0.662-0.296,0.662-0.662c0-0.777,0.315-1.482,0.825-1.99
		c1.795-1.796,4.805-0.421,4.805,1.99C24.414,15.047,23.144,16.318,21.6,16.318z"/>
	<path style="fill:#3FA9F5;" d="M19.499,20.279h-0.636l-0.053-0.129l0.146-0.145c0.03-0.031,0.046-0.072,0.046-0.114
		c0-0.043-0.017-0.083-0.046-0.11c-0.06-0.062-0.165-0.061-0.226-0.002l-0.464,0.471l-0.06,0.029H17.48l-0.068-0.117l0.348-0.611
		l0.052-0.043l0.66-0.178c0.041-0.011,0.075-0.037,0.097-0.073c0.021-0.038,0.026-0.08,0.016-0.122
		c-0.019-0.071-0.078-0.115-0.194-0.113l-0.199,0.054l-0.084-0.11l0.316-0.549c0.022-0.038,0.028-0.081,0.018-0.122
		c-0.011-0.04-0.037-0.076-0.075-0.099c-0.076-0.042-0.175-0.014-0.219,0.061l-0.318,0.549l-0.137-0.018l-0.053-0.2
		c-0.02-0.071-0.071-0.13-0.195-0.112c-0.086,0.024-0.137,0.11-0.113,0.195l0.173,0.635l-0.004,0.069l-0.364,0.629h-0.136
		l-0.357-0.607l-0.014-0.067l0.176-0.658c0.01-0.041,0.003-0.082-0.017-0.117c-0.025-0.042-0.068-0.068-0.137-0.084
		c-0.073,0-0.137,0.049-0.155,0.118l-0.053,0.198l-0.138,0.02l-0.319-0.549c-0.043-0.075-0.146-0.102-0.218-0.059
		c-0.036,0.021-0.064,0.055-0.074,0.097c-0.012,0.041-0.005,0.084,0.017,0.122l0.318,0.549l-0.084,0.11l-0.24-0.06
		c-0.072,0-0.136,0.05-0.154,0.119c-0.011,0.042-0.005,0.084,0.015,0.121c0.021,0.036,0.057,0.063,0.098,0.074l0.639,0.166
		l0.056,0.037l0.364,0.629l-0.067,0.117l-0.704,0.004l-0.065-0.021l-0.48-0.482c-0.061-0.059-0.168-0.059-0.227,0
		c-0.03,0.029-0.047,0.07-0.047,0.112s0.017,0.083,0.047,0.114l0.145,0.145l-0.053,0.129h-0.635c-0.088,0-0.16,0.072-0.16,0.16
		c0,0.087,0.072,0.16,0.16,0.16h0.635l0.053,0.127l-0.145,0.146c-0.03,0.029-0.047,0.07-0.047,0.113
		c0,0.042,0.017,0.082,0.047,0.112c0.061,0.06,0.165,0.06,0.226,0l0.463-0.47l0.062-0.029h0.726l0.067,0.117l-0.349,0.61
		l-0.051,0.046l-0.659,0.176c-0.041,0.01-0.076,0.037-0.098,0.074c-0.021,0.037-0.026,0.078-0.015,0.121
		c0.02,0.07,0.093,0.12,0.194,0.113l0.2-0.053l0.084,0.107l-0.318,0.552c-0.022,0.036-0.028,0.08-0.017,0.122
		c0.01,0.04,0.036,0.074,0.074,0.096c0.071,0.041,0.176,0.016,0.218-0.059l0.319-0.549l0.138,0.018l0.053,0.199
		c0.019,0.072,0.071,0.133,0.195,0.113c0.085-0.022,0.136-0.109,0.114-0.193l-0.174-0.639l0.005-0.067l0.364-0.63h0.136l0.357,0.609
		l0.014,0.064l-0.176,0.659c-0.012,0.04-0.005,0.083,0.016,0.118c0.018,0.027,0.053,0.066,0.139,0.084
		c0.07,0,0.135-0.049,0.154-0.119l0.053-0.199l0.137-0.018l0.32,0.549c0.027,0.049,0.08,0.08,0.139,0.08
		c0.028,0,0.057-0.008,0.078-0.021c0.038-0.021,0.064-0.056,0.075-0.096c0.011-0.042,0.005-0.086-0.017-0.122l-0.317-0.552
		l0.084-0.109l0.239,0.059c0.073,0,0.136-0.049,0.154-0.117c0.011-0.043,0.006-0.084-0.016-0.121s-0.056-0.064-0.098-0.076
		l-0.638-0.165l-0.058-0.038l-0.363-0.627L17.48,20.6l0.703-0.006l0.064,0.023l0.483,0.481c0.06,0.06,0.165,0.06,0.225,0
		c0.029-0.03,0.046-0.07,0.046-0.112c0-0.043-0.016-0.084-0.046-0.114l-0.146-0.146l0.053-0.127h0.636
		c0.087,0,0.159-0.073,0.159-0.16C19.658,20.352,19.586,20.279,19.499,20.279z"/>
</g>
</svg>
