<?xml version="1.0" encoding="iso-8859-1"?>
<!-- Generator: Adobe Illustrator 14.0.0, SVG Export Plug-In . SVG Version: 6.00 Build 43363)  -->
<!DOCTYPE svg PUBLIC "-//W3C//DTD SVG 1.1//EN" "http://www.w3.org/Graphics/SVG/1.1/DTD/svg11.dtd">
<svg version="1.1" id="Layer_1" xmlns="http://www.w3.org/2000/svg" xmlns:xlink="http://www.w3.org/1999/xlink" x="0px" y="0px"
	 width="32px" height="32px" viewBox="0 0 32 32" style="enable-background:new 0 0 32 32;" xml:space="preserve">
<g>
	<g>
		<path style="fill:#E6E6E6;" d="M21.57,10.417c-0.801,0-1.533,0.309-2.117,0.894c-0.578,0.578-0.898,1.348-0.898,2.168
			c0,0.227-0.184,0.412-0.412,0.412c-0.227,0-0.41-0.186-0.41-0.412c0-1.04,0.404-2.017,1.139-2.751
			c0.436-0.436,0.973-0.765,1.553-0.952c0.172-0.055,0.295-0.186,0.34-0.358c0.047-0.173,0.004-0.348-0.113-0.476
			c-0.865-0.97-2.107-1.526-3.408-1.526c-1.801,0-3.439,1.063-4.174,2.712c-0.056,0.128-0.059,0.264-0.008,0.394
			c0.051,0.131,0.146,0.23,0.273,0.285c0.438,0.192,0.839,0.481,1.161,0.834c0.153,0.168,0.141,0.43-0.026,0.582
			c-0.076,0.068-0.174,0.107-0.276,0.107c-0.117,0-0.225-0.049-0.304-0.136c-0.492-0.54-1.196-0.851-1.93-0.851
			c-0.104,0-0.208,0.007-0.311,0.02c-1.302,0.158-2.284,1.268-2.284,2.58c0,1.434,1.166,2.6,2.6,2.6h9.66
			c1.689,0,3.064-1.375,3.064-3.064C24.686,11.588,23.068,10.417,21.57,10.417z"/>
		<path style="fill:#E6E6E6;" d="M11.508,10.513c0.071,0.009,0.145,0.016,0.18,0.016c0.007,0,0.021,0,0.028-0.001
			c0.205-0.017,0.376-0.147,0.447-0.342c0.492-1.394,1.563-2.54,2.94-3.142c0.108-0.047,0.168-0.167,0.144-0.283
			c-0.314-1.507-1.678-2.602-3.242-2.602c-0.891,0-1.709,0.367-2.302,1.032C9.605,5.299,9.569,5.448,9.607,5.589
			c0.038,0.142,0.144,0.253,0.284,0.298c1.064,0.343,1.779,1.325,1.779,2.445c0,0.182-0.153,0.196-0.201,0.196
			c-0.047,0-0.2-0.014-0.2-0.196c0-0.579-0.226-1.123-0.635-1.532c-0.414-0.414-0.932-0.632-1.499-0.632
			c-1.059,0-2.202,0.827-2.202,2.164c0,1.195,0.972,2.168,2.167,2.168h2.294C11.419,10.501,11.463,10.508,11.508,10.513z"/>
	</g>
	<g>
		<rect style="fill:none;" width="32" height="32"/>
	</g>
	<g>
		<circle style="fill:#E6E6E6;" cx="14.64" cy="20.28" r="1.707"/>
		<path style="fill:#808080;" d="M14.64,22.388c-1.162,0-2.106-0.946-2.106-2.107s0.945-2.105,2.106-2.105
			c1.163,0,2.107,0.944,2.107,2.105S15.802,22.388,14.64,22.388L14.64,22.388z M14.64,18.975c-0.72,0-1.306,0.586-1.306,1.306
			c0,0.721,0.586,1.308,1.306,1.308c0.721,0,1.307-0.587,1.307-1.308C15.947,19.561,15.36,18.975,14.64,18.975L14.64,18.975z"/>
		<circle style="fill:#E6E6E6;" cx="19.761" cy="20.9" r="1.706"/>
		<path style="fill:#808080;" d="M19.76,23.008c-1.16,0-2.105-0.945-2.105-2.107c0-1.16,0.945-2.104,2.105-2.104
			c1.162,0,2.107,0.944,2.107,2.104C21.867,22.062,20.922,23.008,19.76,23.008L19.76,23.008z M19.76,19.596
			c-0.719,0-1.306,0.586-1.306,1.305c0,0.722,0.587,1.309,1.306,1.309c0.722,0,1.307-0.587,1.307-1.309
			C21.066,20.182,20.481,19.596,19.76,19.596L19.76,19.596z"/>
		<circle style="fill:#E6E6E6;" cx="16.76" cy="24.296" r="1.067"/>
		<path style="fill:#808080;" d="M16.76,25.762c-0.808,0-1.466-0.658-1.466-1.466c0-0.81,0.658-1.467,1.466-1.467
			c0.81,0,1.466,0.657,1.466,1.467C18.227,25.104,17.57,25.762,16.76,25.762L16.76,25.762z M16.76,23.629
			c-0.368,0-0.667,0.299-0.667,0.667c0,0.366,0.299,0.665,0.667,0.665s0.667-0.299,0.667-0.665
			C17.428,23.928,17.128,23.629,16.76,23.629L16.76,23.629z"/>
	</g>
	<g>
		<path style="fill:#FFBE3C;" d="M21.158,4.454c1.365,0,2.488,1.123,2.488,2.489c0,0.475-0.137,0.922-0.371,1.299
			c-0.016,0.023-0.031,0.046-0.044,0.07c-0.269,0.476-1.027,0.175-0.667-0.359c0.023-0.031,0.046-0.062,0.066-0.096
			c0.167-0.266,0.262-0.581,0.262-0.914c0-0.952-0.781-1.734-1.734-1.734c-0.546,0-1.035,0.258-1.354,0.657
			c-0.012,0.015-0.022,0.028-0.033,0.042c-0.366,0.505-0.996,0.027-0.6-0.456C19.65,4.867,20.352,4.454,21.158,4.454"/>
		<path style="fill:#FFBE3C;" d="M21.015,2.773l-0.36,1.166c-0.015,0.052-0.004,0.102,0.029,0.144
			c0.034,0.041,0.083,0.058,0.135,0.052c0.226-0.026,0.457-0.026,0.683,0c0.052,0.006,0.101-0.011,0.134-0.052
			c0.034-0.042,0.045-0.092,0.029-0.144l-0.359-1.166c-0.021-0.063-0.078-0.106-0.146-0.106C21.092,2.667,21.034,2.709,21.015,2.773
			"/>
		<path style="fill:#FFBE3C;" d="M23.119,3.259l-0.895,0.83c-0.04,0.036-0.056,0.085-0.047,0.136c0.01,0.055,0.042,0.094,0.09,0.117
			c0.209,0.087,0.407,0.204,0.592,0.34c0.041,0.031,0.094,0.039,0.143,0.02c0.049-0.017,0.084-0.056,0.095-0.108l0.272-1.188
			c0.016-0.067-0.014-0.133-0.071-0.166C23.237,3.204,23.168,3.213,23.119,3.259"/>
		<path style="fill:#FFBE3C;" d="M24.697,4.733l-1.189,0.271c-0.053,0.01-0.092,0.045-0.109,0.096
			c-0.018,0.048-0.01,0.102,0.021,0.142c0.137,0.183,0.253,0.382,0.342,0.593c0.021,0.047,0.061,0.079,0.113,0.088
			c0.053,0.01,0.102-0.007,0.137-0.045l0.831-0.895c0.046-0.049,0.054-0.12,0.02-0.18C24.829,4.746,24.764,4.718,24.697,4.733"/>
		<path style="fill:#FFBE3C;" d="M25.328,6.796c0.064,0.022,0.107,0.078,0.107,0.147c-0.001,0.066-0.043,0.125-0.107,0.145
			l-1.166,0.358c-0.051,0.016-0.102,0.006-0.143-0.027c-0.041-0.036-0.059-0.083-0.054-0.136c0.028-0.226,0.028-0.456,0-0.683
			c-0.005-0.052,0.013-0.1,0.054-0.132c0.041-0.036,0.092-0.047,0.143-0.031L25.328,6.796z"/>
		<path style="fill:#FFBE3C;" d="M24.843,8.9c0.046,0.052,0.054,0.122,0.02,0.18c-0.033,0.06-0.099,0.087-0.165,0.073l-1.189-0.272
			c-0.053-0.014-0.092-0.047-0.109-0.097c-0.018-0.05-0.01-0.1,0.021-0.145c0.137-0.18,0.253-0.38,0.342-0.588
			c0.021-0.05,0.061-0.083,0.113-0.092c0.053-0.007,0.102,0.008,0.137,0.047L24.843,8.9z"/>
		<path style="fill:#FFBE3C;" d="M17.477,4.983l0.83,0.895c0.036,0.038,0.085,0.055,0.137,0.045
			c0.053-0.009,0.094-0.042,0.113-0.088c0.09-0.21,0.205-0.41,0.342-0.593c0.031-0.04,0.04-0.094,0.021-0.142
			c-0.018-0.05-0.058-0.085-0.108-0.096l-1.189-0.271c-0.067-0.016-0.132,0.012-0.167,0.07C17.423,4.864,17.432,4.935,17.477,4.983"
			/>
		<path style="fill:#FFBE3C;" d="M18.949,3.405l0.271,1.188c0.013,0.052,0.047,0.092,0.095,0.108
			c0.052,0.019,0.103,0.011,0.146-0.02c0.182-0.136,0.381-0.253,0.59-0.34c0.049-0.023,0.082-0.062,0.091-0.117
			c0.009-0.05-0.007-0.1-0.047-0.136L19.2,3.259c-0.05-0.046-0.12-0.055-0.179-0.02C18.963,3.272,18.934,3.338,18.949,3.405"/>
	</g>
	<path style="fill:#002B73;" d="M22.35,9.432c-0.082-0.015-0.146-0.06-0.184-0.132c-0.984-1.792-2.893-2.923-4.944-2.934
		c-0.757-0.004-1.349,0.176-1.349,0.188c0,0.008-0.166-0.425-0.19-0.494c-0.536-1.518-1.999-2.562-3.621-2.562
		c-1.398,0-2.699,0.778-3.368,1.998C8.667,5.545,8.625,5.576,8.57,5.586C7.248,5.829,6.26,7.004,6.26,8.358
		c0,1.547,1.273,2.819,2.82,2.819h0.481c-0.791,0.676-1.295,1.677-1.295,2.791c0,2.021,1.653,3.674,3.674,3.674H21.6
		c2.27,0,4.141-1.869,4.141-4.14C25.74,11.514,24.289,9.789,22.35,9.432z M11.376,10.276H9.08c-1.051,0-1.917-0.865-1.917-1.917
		c0-1.643,2.051-2.579,3.274-1.356c0.347,0.347,0.562,0.827,0.562,1.356c0,0.594,0.901,0.594,0.901,0
		c0-1.239-0.804-2.313-1.952-2.685C9.822,5.634,9.78,5.48,9.868,5.382c1.607-1.801,4.626-0.882,5.114,1.454
		c0.008,0.039,0.008,0.025,0.002,0.003c-1.41,0.617-2.549,1.794-3.077,3.288c-0.037,0.102-0.124,0.169-0.231,0.176
		C11.626,10.307,11.433,10.276,11.376,10.276z M21.6,16.318H11.94c-1.297,0-2.35-1.053-2.35-2.35c0-1.199,0.905-2.191,2.064-2.333
		c0.745-0.09,1.512,0.188,2.026,0.752c0.246,0.27,0.664,0.29,0.934,0.043c0.271-0.246,0.29-0.664,0.043-0.933
		c-0.347-0.382-0.774-0.688-1.246-0.896c-0.068-0.03-0.114-0.079-0.141-0.147c-0.026-0.069-0.024-0.136,0.005-0.204
		c0.687-1.54,2.239-2.561,3.945-2.561c1.235,0,2.409,0.533,3.222,1.443c0.062,0.069,0.082,0.156,0.059,0.246
		c-0.023,0.088-0.086,0.154-0.175,0.183c-0.632,0.203-1.196,0.554-1.654,1.014c-0.749,0.748-1.212,1.783-1.212,2.926
		c0,0.366,0.297,0.663,0.661,0.663c0.366,0,0.662-0.297,0.662-0.663c0-0.777,0.315-1.482,0.825-1.991
		c1.795-1.795,4.805-0.42,4.805,1.991C24.414,15.047,23.144,16.318,21.6,16.318z"/>
</g>
</svg>
