<?xml version="1.0" encoding="iso-8859-1"?>
<!-- Generator: Adobe Illustrator 14.0.0, SVG Export Plug-In . SVG Version: 6.00 Build 43363)  -->
<!DOCTYPE svg PUBLIC "-//W3C//DTD SVG 1.1//EN" "http://www.w3.org/Graphics/SVG/1.1/DTD/svg11.dtd">
<svg version="1.1" id="Layer_1" xmlns="http://www.w3.org/2000/svg" xmlns:xlink="http://www.w3.org/1999/xlink" x="0px" y="0px"
	 width="32px" height="32px" viewBox="0 0 32 32" style="enable-background:new 0 0 32 32;" xml:space="preserve">
<g>
	<g>
		<path style="fill:#E6E6E6;" d="M21.57,9.597c-0.801,0-1.533,0.309-2.117,0.894c-0.578,0.578-0.898,1.348-0.898,2.168
			c0,0.227-0.184,0.412-0.412,0.412c-0.227,0-0.41-0.186-0.41-0.412c0-1.04,0.404-2.017,1.139-2.751
			c0.436-0.436,0.973-0.765,1.553-0.952c0.172-0.055,0.295-0.186,0.34-0.358c0.047-0.173,0.004-0.348-0.113-0.476
			c-0.865-0.97-2.107-1.526-3.408-1.526c-1.801,0-3.439,1.063-4.174,2.712c-0.056,0.128-0.059,0.264-0.008,0.394
			c0.051,0.131,0.146,0.23,0.273,0.285c0.438,0.192,0.839,0.481,1.161,0.834c0.153,0.168,0.141,0.43-0.026,0.582
			c-0.076,0.068-0.174,0.107-0.276,0.107c-0.117,0-0.225-0.049-0.304-0.136c-0.492-0.54-1.196-0.851-1.93-0.851
			c-0.104,0-0.208,0.007-0.311,0.02c-1.302,0.158-2.284,1.268-2.284,2.58c0,1.434,1.166,2.6,2.6,2.6h9.66
			c1.689,0,3.064-1.375,3.064-3.064C24.686,10.768,23.068,9.597,21.57,9.597z"/>
		<path style="fill:#E6E6E6;" d="M11.508,9.693c0.071,0.009,0.145,0.016,0.18,0.016c0.007,0,0.021,0,0.028-0.001
			c0.205-0.017,0.376-0.147,0.447-0.342c0.492-1.394,1.563-2.54,2.94-3.142c0.108-0.047,0.168-0.167,0.144-0.283
			c-0.314-1.507-1.678-2.602-3.242-2.602c-0.891,0-1.709,0.367-2.302,1.032C9.605,4.479,9.569,4.628,9.607,4.77
			c0.038,0.142,0.144,0.253,0.284,0.298c1.064,0.343,1.779,1.325,1.779,2.445c0,0.182-0.153,0.196-0.201,0.196
			c-0.047,0-0.2-0.014-0.2-0.196c0-0.579-0.226-1.123-0.635-1.532C10.221,5.568,9.703,5.35,9.136,5.35
			c-1.059,0-2.202,0.827-2.202,2.164c0,1.195,0.972,2.168,2.167,2.168h2.294C11.419,9.682,11.463,9.688,11.508,9.693z"/>
	</g>
	<g>
		<rect style="fill:none;" width="32" height="32"/>
	</g>
	<path style="fill:#002B73;" d="M22.35,8.602c-0.082-0.015-0.146-0.061-0.184-0.133c-0.984-1.791-2.893-2.922-4.944-2.934
		c-0.757-0.004-1.349,0.176-1.349,0.188c0,0.009-0.165-0.425-0.189-0.494c-0.536-1.518-1.999-2.562-3.621-2.562
		c-1.398,0-2.699,0.778-3.368,1.998C8.667,4.714,8.625,4.745,8.57,4.755C7.248,4.999,6.26,6.173,6.26,7.527
		c0,1.548,1.273,2.819,2.82,2.819h0.481c-0.791,0.676-1.295,1.677-1.295,2.791c0,2.02,1.653,3.674,3.674,3.674H21.6
		c2.27,0,4.141-1.869,4.141-4.14C25.74,10.683,24.289,8.958,22.35,8.602z M11.376,9.445H9.08c-1.051,0-1.917-0.866-1.917-1.918
		c0-1.643,2.051-2.579,3.274-1.355c0.347,0.347,0.562,0.827,0.562,1.355c0,0.595,0.901,0.595,0.901,0
		c0-1.238-0.804-2.313-1.952-2.684C9.822,4.803,9.78,4.649,9.868,4.552c1.607-1.802,4.626-0.882,5.113,1.454
		c0.008,0.039,0.008,0.025,0.002,0.002c-1.41,0.617-2.549,1.794-3.077,3.288c-0.036,0.102-0.124,0.168-0.231,0.176
		C11.626,9.476,11.433,9.445,11.376,9.445z M21.6,15.486H11.94c-1.297,0-2.35-1.052-2.35-2.349c0-1.199,0.905-2.191,2.064-2.333
		c0.745-0.091,1.513,0.188,2.026,0.752c0.246,0.27,0.664,0.29,0.933,0.044c0.271-0.246,0.29-0.664,0.044-0.934
		c-0.347-0.382-0.774-0.688-1.246-0.896c-0.067-0.03-0.113-0.079-0.141-0.147c-0.026-0.068-0.024-0.137,0.005-0.204
		c0.687-1.54,2.238-2.561,3.945-2.561c1.235,0,2.409,0.533,3.222,1.443c0.062,0.068,0.082,0.157,0.059,0.246
		c-0.023,0.089-0.086,0.155-0.175,0.184c-0.632,0.203-1.196,0.555-1.654,1.013c-0.749,0.749-1.212,1.784-1.212,2.927
		c0,0.366,0.297,0.662,0.661,0.662c0.366,0,0.662-0.296,0.662-0.662c0-0.777,0.315-1.482,0.825-1.991
		c1.795-1.796,4.805-0.421,4.805,1.991C24.414,14.216,23.144,15.486,21.6,15.486z"/>
</g>
</svg>
