<?xml version="1.0" encoding="iso-8859-1"?>
<!-- Generator: Adobe Illustrator 14.0.0, SVG Export Plug-In . SVG Version: 6.00 Build 43363)  -->
<!DOCTYPE svg PUBLIC "-//W3C//DTD SVG 1.1//EN" "http://www.w3.org/Graphics/SVG/1.1/DTD/svg11.dtd">
<svg version="1.1" id="Layer_1" xmlns="http://www.w3.org/2000/svg" xmlns:xlink="http://www.w3.org/1999/xlink" x="0px" y="0px"
	 width="32px" height="32px" viewBox="0 0 32 32" style="enable-background:new 0 0 32 32;" xml:space="preserve">
<g>
	<g>
		<path style="fill:#E6E6E6;" d="M21.55,9.559c-0.801,0-1.533,0.309-2.117,0.893c-0.578,0.578-0.898,1.348-0.898,2.168
			c0,0.227-0.184,0.412-0.412,0.412c-0.227,0-0.41-0.186-0.41-0.412c0-1.041,0.404-2.018,1.139-2.75
			c0.436-0.438,0.973-0.766,1.553-0.953c0.172-0.055,0.295-0.186,0.34-0.357c0.047-0.174,0.004-0.348-0.113-0.477
			c-0.865-0.969-2.107-1.525-3.408-1.525c-1.801,0-3.439,1.062-4.174,2.711c-0.056,0.129-0.059,0.266-0.008,0.395
			c0.051,0.131,0.146,0.23,0.272,0.285c0.438,0.191,0.839,0.48,1.161,0.834c0.152,0.168,0.141,0.43-0.026,0.582
			c-0.075,0.068-0.174,0.107-0.276,0.107c-0.117,0-0.225-0.049-0.305-0.137c-0.492-0.539-1.195-0.85-1.93-0.85
			c-0.104,0-0.207,0.006-0.311,0.02c-1.303,0.158-2.285,1.268-2.285,2.58c0,1.434,1.166,2.6,2.6,2.6h9.66
			c1.689,0,3.064-1.375,3.064-3.064C24.665,10.729,23.048,9.559,21.55,9.559z"/>
		<path style="fill:#E6E6E6;" d="M11.487,9.654c0.072,0.008,0.145,0.016,0.181,0.016c0.007,0,0.021,0,0.028,0
			c0.205-0.018,0.375-0.148,0.446-0.344c0.491-1.393,1.563-2.54,2.94-3.141c0.107-0.049,0.168-0.168,0.144-0.283
			C14.912,4.394,13.549,3.3,11.985,3.3c-0.892,0-1.71,0.365-2.303,1.031C9.585,4.439,9.549,4.589,9.587,4.73
			C9.624,4.871,9.73,4.982,9.87,5.029c1.064,0.342,1.779,1.324,1.779,2.445c0,0.182-0.153,0.195-0.201,0.195
			c-0.047,0-0.199-0.014-0.199-0.195c0-0.58-0.227-1.123-0.635-1.533C10.2,5.529,9.683,5.31,9.115,5.31
			c-1.06,0-2.202,0.826-2.202,2.164c0,1.196,0.973,2.168,2.168,2.168h2.294C11.399,9.643,11.442,9.648,11.487,9.654z"/>
	</g>
	<g>
		<g>
			<rect style="fill:none;" width="32" height="32.001"/>
		</g>
		<g>
			<path style="fill-rule:evenodd;clip-rule:evenodd;fill:#3FA9F5;" d="M8.8,21.548c0.356-0.186,0.468-0.642,0.246-0.978l0,0
				l-0.552-0.869c-0.019-0.028-0.059-0.027-0.076,0.002l-0.5,0.898l0,0c-0.206,0.348-0.069,0.799,0.299,0.962
				C8.403,21.646,8.615,21.643,8.8,21.548"/>
			<g>
				<path style="fill-rule:evenodd;clip-rule:evenodd;fill:#3FA9F5;" d="M11.932,19.586c0.426-0.229,0.555-0.777,0.283-1.182
					l-0.001-0.002l-0.678-1.035c-0.021-0.035-0.07-0.031-0.089,0.004l-0.592,1.086l0,0c-0.239,0.426-0.071,0.963,0.375,1.157
					C11.457,19.711,11.713,19.704,11.932,19.586"/>
				<path style="fill-rule:evenodd;clip-rule:evenodd;fill:#3FA9F5;" d="M17.873,19.586c0.427-0.229,0.554-0.777,0.283-1.182
					l-0.002-0.002l-0.676-1.035c-0.022-0.035-0.069-0.031-0.092,0.004l-0.591,1.086l0,0c-0.237,0.426-0.07,0.963,0.376,1.157
					C17.397,19.711,17.652,19.704,17.873,19.586"/>
				<path style="fill-rule:evenodd;clip-rule:evenodd;fill:#3FA9F5;" d="M23.753,19.586c0.427-0.229,0.554-0.777,0.282-1.182
					l-0.001-0.002l-0.677-1.035c-0.021-0.035-0.068-0.031-0.091,0.004l-0.592,1.086l0,0c-0.237,0.426-0.069,0.963,0.378,1.157
					C23.277,19.711,23.532,19.704,23.753,19.586"/>
			</g>
			<path style="fill-rule:evenodd;clip-rule:evenodd;fill:#3FA9F5;" d="M14.61,21.548c0.357-0.186,0.467-0.642,0.245-0.978l0,0
				l-0.552-0.869c-0.018-0.028-0.061-0.027-0.077,0.002l-0.5,0.898l0,0c-0.204,0.348-0.066,0.799,0.3,0.962
				C14.212,21.646,14.426,21.643,14.61,21.548"/>
			<path style="fill-rule:evenodd;clip-rule:evenodd;fill:#3FA9F5;" d="M20.52,21.548c0.357-0.186,0.468-0.642,0.247-0.978l0,0
				l-0.554-0.869c-0.018-0.028-0.059-0.027-0.078,0.002l-0.498,0.898l0,0c-0.205,0.348-0.066,0.799,0.301,0.962
				C20.123,21.646,20.336,21.643,20.52,21.548"/>
		</g>
		<g>
			<path style="fill:#002B73;" d="M22.349,8.602c-0.081-0.015-0.145-0.06-0.183-0.133c-0.984-1.791-2.893-2.922-4.944-2.934
				c-0.757-0.004-1.349,0.175-1.349,0.188c0,0.008-0.165-0.425-0.189-0.494c-0.537-1.518-1.999-2.562-3.621-2.562
				c-1.398,0-2.699,0.778-3.368,1.998c-0.027,0.05-0.07,0.081-0.125,0.091C7.248,4.999,6.261,6.173,6.261,7.527
				c0,1.547,1.273,2.819,2.82,2.819h0.481c-0.791,0.676-1.295,1.677-1.295,2.791c0,2.021,1.653,3.674,3.674,3.674h9.658
				c2.271,0,4.141-1.869,4.141-4.14C25.739,10.683,24.289,8.958,22.349,8.602z M11.376,9.445H9.081
				c-1.051,0-1.918-0.866-1.918-1.917c0-1.643,2.051-2.579,3.274-1.356c0.347,0.347,0.562,0.827,0.562,1.356
				c0,0.594,0.901,0.594,0.901,0c0-1.239-0.804-2.313-1.952-2.684c-0.125-0.04-0.167-0.194-0.08-0.292
				c1.607-1.802,4.626-0.882,5.113,1.454c0.008,0.039,0.008,0.025,0.002,0.002c-1.409,0.617-2.549,1.794-3.077,3.288
				c-0.036,0.102-0.124,0.168-0.231,0.176C11.626,9.476,11.434,9.445,11.376,9.445z M21.599,15.487H11.94
				c-1.297,0-2.35-1.053-2.35-2.35c0-1.199,0.905-2.191,2.064-2.333c0.745-0.091,1.513,0.188,2.026,0.752
				c0.246,0.27,0.664,0.29,0.933,0.043c0.271-0.246,0.29-0.664,0.044-0.934c-0.347-0.382-0.774-0.688-1.246-0.896
				c-0.067-0.03-0.113-0.079-0.141-0.147c-0.026-0.068-0.024-0.136,0.005-0.204c0.687-1.54,2.238-2.561,3.945-2.561
				c1.235,0,2.409,0.533,3.222,1.443c0.062,0.069,0.082,0.157,0.059,0.246c-0.023,0.089-0.086,0.155-0.176,0.184
				c-0.631,0.203-1.196,0.555-1.653,1.014c-0.749,0.748-1.213,1.783-1.213,2.926c0,0.366,0.297,0.662,0.661,0.662
				c0.367,0,0.663-0.296,0.663-0.662c0-0.777,0.314-1.482,0.825-1.991c1.795-1.795,4.805-0.421,4.805,1.991
				C24.414,14.216,23.144,15.487,21.599,15.487z"/>
		</g>
	</g>
</g>
</svg>
