<?xml version="1.0" encoding="iso-8859-1"?>
<!-- Generator: Adobe Illustrator 14.0.0, SVG Export Plug-In . SVG Version: 6.00 Build 43363)  -->
<!DOCTYPE svg PUBLIC "-//W3C//DTD SVG 1.1//EN" "http://www.w3.org/Graphics/SVG/1.1/DTD/svg11.dtd">
<svg version="1.1" id="Layer_1" xmlns="http://www.w3.org/2000/svg" xmlns:xlink="http://www.w3.org/1999/xlink" x="0px" y="0px"
	 width="32px" height="32px" viewBox="0 0 32 32" style="enable-background:new 0 0 32 32;" xml:space="preserve">
<g>
	<path style="fill:#E6E6E6;" d="M21.537,9.558c-0.801,0-1.533,0.309-2.117,0.893c-0.578,0.578-0.898,1.348-0.898,2.168
		c0,0.227-0.184,0.412-0.412,0.412c-0.227,0-0.41-0.186-0.41-0.412c0-1.041,0.404-2.018,1.139-2.75
		c0.436-0.438,0.973-0.766,1.553-0.953c0.172-0.055,0.295-0.186,0.34-0.357c0.047-0.174,0.004-0.348-0.113-0.477
		c-0.865-0.969-2.107-1.525-3.408-1.525c-1.801,0-3.439,1.062-4.174,2.711c-0.056,0.129-0.059,0.266-0.008,0.395
		c0.051,0.131,0.146,0.23,0.272,0.285c0.438,0.191,0.839,0.48,1.161,0.834c0.152,0.168,0.141,0.43-0.026,0.582
		c-0.075,0.068-0.174,0.107-0.276,0.107c-0.117,0-0.225-0.049-0.305-0.137c-0.492-0.539-1.195-0.85-1.93-0.85
		c-0.104,0-0.207,0.006-0.311,0.02c-1.303,0.158-2.285,1.268-2.285,2.58c0,1.434,1.166,2.6,2.6,2.6h9.66
		c1.689,0,3.064-1.375,3.064-3.064C24.652,10.728,23.035,9.558,21.537,9.558z"/>
	<path style="fill:#E6E6E6;" d="M11.475,9.654c0.072,0.008,0.145,0.016,0.181,0.016c0.007,0,0.021,0,0.028,0
		c0.205-0.018,0.375-0.148,0.446-0.344c0.491-1.393,1.563-2.539,2.94-3.141c0.107-0.049,0.168-0.168,0.144-0.283
		C14.899,4.394,13.536,3.3,11.973,3.3c-0.892,0-1.71,0.365-2.303,1.031C9.572,4.439,9.536,4.589,9.574,4.73
		c0.037,0.141,0.144,0.252,0.283,0.299c1.064,0.342,1.779,1.324,1.779,2.445c0,0.182-0.153,0.195-0.201,0.195
		c-0.047,0-0.199-0.014-0.199-0.195c0-0.58-0.227-1.123-0.635-1.533C10.188,5.529,9.67,5.31,9.103,5.31
		C8.043,5.31,6.9,6.136,6.9,7.474c0,1.195,0.973,2.168,2.168,2.168h2.294C11.387,9.642,11.43,9.648,11.475,9.654z"/>
</g>
<g>
	<g>
		<rect style="fill:none;" width="32" height="32"/>
	</g>
	<g>
		<path style="fill:#002B73;" d="M22.35,8.601c-0.082-0.015-0.146-0.061-0.184-0.132c-0.984-1.792-2.893-2.923-4.944-2.935
			c-0.757-0.004-1.349,0.176-1.349,0.188c0,0.008-0.166-0.425-0.19-0.494c-0.536-1.518-1.999-2.562-3.621-2.562
			c-1.398,0-2.699,0.778-3.368,1.998c-0.027,0.049-0.07,0.08-0.125,0.091C7.248,4.998,6.26,6.173,6.26,7.527
			c0,1.547,1.273,2.819,2.82,2.819h0.481c-0.791,0.676-1.295,1.677-1.295,2.791c0,2.021,1.653,3.674,3.674,3.674H21.6
			c2.27,0,4.141-1.869,4.141-4.14C25.74,10.682,24.289,8.958,22.35,8.601z M11.376,9.445H9.08c-1.051,0-1.917-0.866-1.917-1.918
			c0-1.643,2.051-2.579,3.274-1.356c0.347,0.347,0.562,0.827,0.562,1.356c0,0.594,0.901,0.594,0.901,0
			c0-1.238-0.804-2.313-1.952-2.684C9.822,4.803,9.78,4.649,9.868,4.551c1.607-1.801,4.626-0.882,5.114,1.454
			c0.007,0.039,0.008,0.025,0.002,0.003c-1.41,0.617-2.55,1.794-3.077,3.288c-0.037,0.102-0.124,0.168-0.231,0.176
			C11.626,9.476,11.433,9.445,11.376,9.445z M21.6,15.486H11.94c-1.297,0-2.35-1.053-2.35-2.35c0-1.199,0.905-2.19,2.064-2.332
			c0.745-0.091,1.512,0.188,2.026,0.752c0.246,0.27,0.664,0.29,0.934,0.044c0.271-0.246,0.29-0.664,0.043-0.934
			c-0.347-0.382-0.774-0.688-1.246-0.896c-0.068-0.03-0.114-0.079-0.141-0.147c-0.026-0.069-0.024-0.137,0.005-0.204
			c0.687-1.54,2.239-2.561,3.945-2.561c1.235,0,2.409,0.532,3.222,1.443c0.062,0.068,0.082,0.156,0.059,0.246
			c-0.023,0.088-0.086,0.154-0.175,0.184c-0.632,0.203-1.196,0.554-1.654,1.013c-0.749,0.748-1.212,1.784-1.212,2.926
			c0,0.366,0.297,0.663,0.661,0.663c0.366,0,0.662-0.297,0.662-0.663c0-0.777,0.315-1.482,0.825-1.991
			c1.795-1.796,4.805-0.421,4.805,1.991C24.414,14.216,23.144,15.486,21.6,15.486z"/>
	</g>
	<path style="fill:#3FA9F5;" d="M19.203,19.446h-0.637l-0.052-0.129l0.146-0.146c0.03-0.029,0.046-0.071,0.046-0.113
		c0-0.043-0.017-0.083-0.046-0.11c-0.059-0.063-0.166-0.062-0.226-0.002l-0.464,0.47l-0.061,0.03h-0.726l-0.069-0.118l0.35-0.609
		l0.051-0.045l0.66-0.178c0.041-0.01,0.074-0.036,0.096-0.072c0.022-0.038,0.027-0.08,0.018-0.122
		c-0.02-0.071-0.078-0.116-0.195-0.114l-0.199,0.055l-0.084-0.11l0.316-0.549c0.023-0.038,0.028-0.081,0.018-0.122
		c-0.01-0.039-0.037-0.076-0.076-0.098c-0.074-0.043-0.174-0.015-0.217,0.061l-0.319,0.547l-0.136-0.016l-0.054-0.201
		c-0.021-0.072-0.071-0.131-0.196-0.113c-0.085,0.025-0.135,0.111-0.112,0.196l0.173,0.636l-0.004,0.068l-0.365,0.629h-0.135
		l-0.357-0.607l-0.013-0.067l0.176-0.659c0.01-0.039,0.003-0.08-0.017-0.117c-0.025-0.041-0.069-0.068-0.137-0.083
		c-0.073,0-0.137,0.05-0.155,0.118l-0.053,0.197l-0.139,0.02l-0.319-0.547c-0.042-0.076-0.146-0.103-0.218-0.06
		c-0.035,0.021-0.063,0.056-0.074,0.097c-0.012,0.041-0.005,0.084,0.017,0.122l0.318,0.549l-0.084,0.11l-0.24-0.06
		c-0.073,0-0.136,0.05-0.154,0.119c-0.012,0.042-0.005,0.084,0.014,0.12c0.022,0.037,0.058,0.064,0.098,0.074l0.639,0.167
		l0.056,0.038l0.363,0.627l-0.066,0.118l-0.704,0.005l-0.065-0.022l-0.481-0.482c-0.061-0.06-0.168-0.06-0.226,0
		c-0.03,0.029-0.048,0.069-0.048,0.112c0,0.042,0.018,0.084,0.048,0.115l0.145,0.144l-0.053,0.129h-0.635
		c-0.088,0-0.16,0.071-0.16,0.159s0.072,0.16,0.16,0.16h0.635l0.053,0.127l-0.145,0.146c-0.03,0.03-0.048,0.072-0.048,0.113
		c0,0.043,0.018,0.082,0.048,0.113c0.061,0.061,0.165,0.061,0.225,0l0.463-0.471l0.062-0.029h0.726l0.068,0.118l-0.349,0.61
		l-0.051,0.045l-0.659,0.176c-0.041,0.011-0.076,0.037-0.098,0.075c-0.021,0.038-0.026,0.078-0.014,0.122
		c0.019,0.068,0.092,0.119,0.193,0.112l0.2-0.054l0.084,0.109l-0.318,0.551c-0.022,0.036-0.028,0.08-0.017,0.121
		c0.01,0.041,0.037,0.074,0.074,0.098c0.072,0.041,0.176,0.015,0.218-0.061l0.319-0.548l0.139,0.018l0.053,0.2
		c0.019,0.072,0.071,0.133,0.195,0.112c0.085-0.022,0.135-0.11,0.113-0.194l-0.174-0.638l0.005-0.067l0.364-0.63h0.136l0.356,0.608
		l0.014,0.066l-0.175,0.658c-0.011,0.04-0.005,0.083,0.016,0.118c0.019,0.028,0.054,0.067,0.138,0.083
		c0.072,0,0.135-0.049,0.155-0.118l0.054-0.199l0.136-0.018l0.321,0.548c0.027,0.05,0.08,0.081,0.137,0.081
		c0.029,0,0.057-0.007,0.078-0.021c0.039-0.023,0.066-0.057,0.076-0.098c0.011-0.041,0.006-0.085-0.017-0.121l-0.317-0.551
		l0.084-0.111l0.24,0.061c0.072,0,0.135-0.05,0.154-0.118c0.01-0.043,0.005-0.083-0.018-0.121c-0.021-0.038-0.055-0.064-0.097-0.076
		l-0.638-0.165l-0.057-0.038l-0.365-0.627l0.069-0.118l0.703-0.005l0.063,0.022l0.484,0.482c0.059,0.061,0.166,0.061,0.225,0
		c0.029-0.031,0.046-0.07,0.046-0.113c0-0.041-0.016-0.083-0.046-0.113l-0.146-0.146l0.052-0.127h0.637
		c0.088,0,0.159-0.072,0.159-0.16S19.291,19.446,19.203,19.446z"/>
</g>
</svg>
