<?xml version="1.0" encoding="iso-8859-1"?>
<!-- Generator: Adobe Illustrator 14.0.0, SVG Export Plug-In . SVG Version: 6.00 Build 43363)  -->
<!DOCTYPE svg PUBLIC "-//W3C//DTD SVG 1.1//EN" "http://www.w3.org/Graphics/SVG/1.1/DTD/svg11.dtd">
<svg version="1.1" id="Layer_1" xmlns="http://www.w3.org/2000/svg" xmlns:xlink="http://www.w3.org/1999/xlink" x="0px" y="0px"
	 width="32px" height="32px" viewBox="0 0 32 32" style="enable-background:new 0 0 32 32;" xml:space="preserve">
<g>
	<g>
		<path style="fill:#E6E6E6;" d="M21.537,9.572c-0.801,0-1.533,0.309-2.117,0.893c-0.578,0.578-0.898,1.348-0.898,2.168
			c0,0.227-0.184,0.412-0.412,0.412c-0.227,0-0.41-0.186-0.41-0.412c0-1.041,0.404-2.018,1.139-2.75
			c0.436-0.438,0.973-0.766,1.553-0.953c0.172-0.055,0.295-0.186,0.34-0.357c0.047-0.174,0.004-0.348-0.113-0.477
			C19.752,7.127,18.51,6.57,17.209,6.57c-1.8,0-3.439,1.062-4.173,2.711c-0.056,0.129-0.059,0.266-0.008,0.395
			c0.051,0.131,0.146,0.23,0.272,0.285c0.438,0.191,0.839,0.48,1.161,0.834c0.152,0.168,0.141,0.43-0.026,0.582
			c-0.075,0.068-0.174,0.107-0.276,0.107c-0.117,0-0.225-0.049-0.305-0.137c-0.492-0.539-1.195-0.85-1.93-0.85
			c-0.104,0-0.207,0.006-0.311,0.02c-1.303,0.158-2.285,1.268-2.285,2.58c0,1.434,1.166,2.6,2.6,2.6h9.66
			c1.689,0,3.064-1.375,3.064-3.064C24.652,10.742,23.035,9.572,21.537,9.572z"/>
		<path style="fill:#E6E6E6;" d="M11.475,9.668c0.072,0.008,0.145,0.016,0.181,0.016c0.007,0,0.021,0,0.028,0
			c0.205-0.018,0.375-0.148,0.446-0.344c0.491-1.393,1.563-2.539,2.94-3.141c0.107-0.049,0.168-0.168,0.144-0.283
			c-0.314-1.508-1.678-2.602-3.241-2.602c-0.892,0-1.71,0.365-2.303,1.031C9.573,4.453,9.537,4.604,9.575,4.744
			c0.037,0.141,0.144,0.252,0.283,0.299c1.064,0.342,1.779,1.324,1.779,2.445c0,0.182-0.153,0.195-0.201,0.195
			c-0.047,0-0.199-0.014-0.199-0.195c0-0.58-0.227-1.123-0.635-1.533C10.188,5.543,9.67,5.324,9.103,5.324
			c-1.06,0-2.202,0.826-2.202,2.164c0,1.195,0.973,2.168,2.168,2.168h2.294C11.387,9.656,11.43,9.662,11.475,9.668z"/>
	</g>
	<g>
		<g>
			<rect style="fill:none;" width="32" height="32"/>
		</g>
		<g>
			<g>
				<path style="fill-rule:evenodd;clip-rule:evenodd;fill:#3FA9F5;" d="M14.536,22.986c0.189,0.279,0.486,0.45,0.822,0.475
					c0.652,0.049,1.194-0.49,1.175-1.146v-0.001l-0.025-1.673c-0.001-0.054-0.06-0.087-0.106-0.061l-1.459,0.813
					c-0.001,0-0.001,0.002-0.001,0.002C14.363,21.707,14.167,22.447,14.536,22.986"/>
				<g>
					<path style="fill:#3FA9F5;" d="M18.236,19.758c-0.369-0.54-0.174-1.278,0.404-1.591h0.002l1.459-0.814
						c0.047-0.027,0.106,0.007,0.107,0.062l0.023,1.671v0.001c0.018,0.657-0.522,1.195-1.175,1.146
						C18.723,20.206,18.424,20.036,18.236,19.758"/>
					<path style="fill:#3FA9F5;" d="M13.021,19.758c0.189,0.278,0.485,0.448,0.821,0.475c0.651,0.049,1.195-0.489,1.176-1.146
						v-0.001l-0.024-1.671c-0.001-0.055-0.06-0.089-0.107-0.062l-1.46,0.814h-0.001C12.846,18.479,12.653,19.218,13.021,19.758"/>
				</g>
			</g>
			<g>
				<path style="fill:#002B73;" d="M22.35,8.602c-0.082-0.015-0.146-0.061-0.184-0.133c-0.984-1.791-2.893-2.922-4.944-2.934
					c-0.757-0.004-1.349,0.176-1.349,0.188c0,0.009-0.166-0.425-0.19-0.494c-0.536-1.518-1.999-2.562-3.621-2.562
					c-1.398,0-2.699,0.778-3.368,1.998C8.667,4.714,8.625,4.745,8.57,4.755C7.248,4.999,6.26,6.173,6.26,7.527
					c0,1.548,1.273,2.819,2.82,2.819h0.481c-0.791,0.676-1.295,1.677-1.295,2.791c0,2.02,1.653,3.674,3.674,3.674H21.6
					c2.27,0,4.141-1.869,4.141-4.14C25.74,10.683,24.289,8.958,22.35,8.602z M11.376,9.445H9.08c-1.051,0-1.917-0.866-1.917-1.918
					c0-1.643,2.051-2.579,3.274-1.355c0.347,0.347,0.562,0.827,0.562,1.355c0,0.595,0.901,0.595,0.901,0
					c0-1.238-0.804-2.313-1.952-2.684C9.822,4.803,9.78,4.649,9.868,4.552c1.607-1.802,4.626-0.882,5.114,1.454
					c0.008,0.039,0.008,0.025,0.002,0.002c-1.41,0.617-2.549,1.794-3.077,3.288c-0.037,0.102-0.124,0.168-0.231,0.176
					C11.626,9.476,11.433,9.445,11.376,9.445z M21.6,15.486H11.94c-1.297,0-2.35-1.052-2.35-2.349c0-1.199,0.905-2.191,2.064-2.333
					c0.745-0.091,1.512,0.188,2.026,0.752c0.246,0.27,0.664,0.29,0.934,0.044c0.271-0.246,0.29-0.664,0.043-0.934
					c-0.347-0.382-0.774-0.688-1.246-0.896c-0.068-0.03-0.114-0.079-0.141-0.147c-0.026-0.068-0.024-0.137,0.005-0.204
					c0.687-1.54,2.239-2.561,3.945-2.561c1.235,0,2.409,0.533,3.222,1.443c0.062,0.068,0.082,0.157,0.059,0.246
					c-0.023,0.089-0.086,0.155-0.175,0.184c-0.632,0.203-1.196,0.555-1.654,1.013c-0.749,0.749-1.212,1.784-1.212,2.927
					c0,0.366,0.297,0.662,0.661,0.662c0.366,0,0.662-0.296,0.662-0.662c0-0.777,0.315-1.482,0.825-1.991
					c1.795-1.796,4.805-0.421,4.805,1.991C24.414,14.216,23.144,15.486,21.6,15.486z"/>
			</g>
		</g>
		<g>
			<rect style="fill:none;" width="32" height="32"/>
		</g>
	</g>
</g>
</svg>
