<?xml version="1.0" encoding="iso-8859-1"?>
<!-- Generator: Adobe Illustrator 14.0.0, SVG Export Plug-In . SVG Version: 6.00 Build 43363)  -->
<!DOCTYPE svg PUBLIC "-//W3C//DTD SVG 1.1//EN" "http://www.w3.org/Graphics/SVG/1.1/DTD/svg11.dtd">
<svg version="1.1" id="Layer_1" xmlns="http://www.w3.org/2000/svg" xmlns:xlink="http://www.w3.org/1999/xlink" x="0px" y="0px"
	 width="32px" height="32px" viewBox="0 0 32 32" style="enable-background:new 0 0 32 32;" xml:space="preserve">
<g>
	<g>
		<path style="fill:#E6E6E6;" d="M21.538,9.608c-0.801,0-1.533,0.309-2.117,0.893c-0.578,0.578-0.898,1.348-0.898,2.168
			c0,0.227-0.184,0.412-0.412,0.412c-0.227,0-0.41-0.186-0.41-0.412c0-1.041,0.404-2.018,1.139-2.75
			c0.436-0.438,0.973-0.766,1.553-0.953c0.172-0.055,0.295-0.186,0.34-0.357c0.047-0.174,0.004-0.348-0.113-0.477
			c-0.865-0.969-2.107-1.525-3.408-1.525c-1.801,0-3.439,1.062-4.174,2.711c-0.056,0.129-0.059,0.266-0.008,0.395
			c0.051,0.131,0.146,0.23,0.272,0.285c0.438,0.191,0.839,0.48,1.161,0.834c0.152,0.168,0.141,0.43-0.026,0.582
			c-0.075,0.068-0.174,0.107-0.276,0.107c-0.117,0-0.225-0.049-0.305-0.137c-0.492-0.539-1.195-0.85-1.93-0.85
			c-0.104,0-0.207,0.006-0.311,0.02c-1.303,0.158-2.285,1.268-2.285,2.58c0,1.434,1.166,2.6,2.6,2.6h9.66
			c1.689,0,3.064-1.375,3.064-3.064C24.653,10.778,23.036,9.608,21.538,9.608z"/>
		<path style="fill:#E6E6E6;" d="M11.476,9.704c0.072,0.008,0.145,0.016,0.181,0.016c0.007,0,0.021,0,0.028,0
			c0.205-0.018,0.375-0.148,0.446-0.344c0.491-1.393,1.563-2.539,2.94-3.141c0.107-0.049,0.168-0.168,0.144-0.283
			C14.9,4.444,13.537,3.35,11.974,3.35c-0.892,0-1.71,0.365-2.303,1.031C9.573,4.489,9.537,4.639,9.575,4.78
			C9.612,4.92,9.719,5.032,9.858,5.079c1.064,0.342,1.779,1.324,1.779,2.445c0,0.182-0.153,0.195-0.201,0.195
			c-0.047,0-0.199-0.014-0.199-0.195c0-0.58-0.227-1.123-0.635-1.533C10.188,5.579,9.671,5.36,9.104,5.36
			c-1.06,0-2.202,0.826-2.202,2.164c0,1.195,0.973,2.168,2.168,2.168h2.294C11.388,9.692,11.431,9.698,11.476,9.704z"/>
	</g>
	<g>
		<g>
			<rect style="fill:none;" width="32" height="32"/>
		</g>
		<g>
			<g>
				<circle style="fill:#E6E6E6;" cx="14.506" cy="19.449" r="1.707"/>
				<path style="fill:#808080;" d="M14.506,21.557c-1.162,0-2.106-0.946-2.106-2.107c0-1.16,0.945-2.105,2.106-2.105
					s2.107,0.945,2.107,2.105C16.613,20.61,15.667,21.557,14.506,21.557L14.506,21.557z M14.506,18.144
					c-0.72,0-1.306,0.585-1.306,1.306s0.586,1.307,1.306,1.307c0.721,0,1.307-0.586,1.307-1.307S15.227,18.144,14.506,18.144
					L14.506,18.144z"/>
				<circle style="fill:#E6E6E6;" cx="19.626" cy="20.07" r="1.707"/>
				<path style="fill:#808080;" d="M19.627,22.178c-1.162,0-2.106-0.946-2.106-2.107s0.944-2.105,2.106-2.105
					c1.161,0,2.105,0.944,2.105,2.105S20.788,22.178,19.627,22.178L19.627,22.178z M19.627,18.765c-0.721,0-1.307,0.585-1.307,1.306
					s0.586,1.307,1.307,1.307s1.306-0.586,1.306-1.307S20.348,18.765,19.627,18.765L19.627,18.765z"/>
				<circle style="fill:#E6E6E6;" cx="16.627" cy="23.465" r="1.067"/>
				<path style="fill:#808080;" d="M16.626,24.93c-0.808,0-1.467-0.656-1.467-1.465c0-0.81,0.659-1.467,1.467-1.467
					c0.809,0,1.467,0.657,1.467,1.467C18.094,24.273,17.436,24.93,16.626,24.93L16.626,24.93z M16.626,22.798
					c-0.368,0-0.667,0.299-0.667,0.667c0,0.366,0.299,0.666,0.667,0.666s0.667-0.3,0.667-0.666
					C17.293,23.097,16.994,22.798,16.626,22.798L16.626,22.798z"/>
			</g>
			<g>
				<path style="fill:#002B73;" d="M22.349,8.602c-0.081-0.015-0.146-0.061-0.184-0.133c-0.983-1.791-2.893-2.922-4.944-2.933
					c-0.757-0.004-1.348,0.175-1.348,0.188c0,0.008-0.165-0.425-0.189-0.494c-0.536-1.519-1.999-2.562-3.621-2.562
					c-1.398,0-2.699,0.778-3.368,1.998c-0.027,0.05-0.07,0.081-0.125,0.091C7.248,4.999,6.26,6.173,6.26,7.527
					c0,1.548,1.273,2.82,2.82,2.82h0.481c-0.791,0.676-1.295,1.677-1.295,2.791c0,2.02,1.653,3.674,3.674,3.674h9.659
					c2.271,0,4.141-1.869,4.141-4.14C25.739,10.683,24.289,8.958,22.349,8.602z M11.376,9.445H9.08
					c-1.051,0-1.917-0.866-1.917-1.918c0-1.643,2.051-2.578,3.274-1.355c0.347,0.347,0.562,0.826,0.562,1.355
					c0,0.595,0.901,0.595,0.901,0c0-1.238-0.804-2.313-1.952-2.683C9.822,4.803,9.78,4.649,9.868,4.552
					c1.607-1.802,4.625-0.882,5.113,1.454c0.008,0.039,0.008,0.025,0.002,0.002c-1.41,0.617-2.55,1.795-3.077,3.289
					c-0.037,0.101-0.124,0.167-0.231,0.176C11.626,9.476,11.433,9.445,11.376,9.445z M21.599,15.486H11.94
					c-1.297,0-2.35-1.052-2.35-2.349c0-1.199,0.905-2.192,2.064-2.333c0.745-0.092,1.512,0.188,2.026,0.752
					c0.246,0.27,0.664,0.29,0.934,0.044c0.271-0.246,0.29-0.664,0.043-0.935c-0.347-0.381-0.774-0.688-1.246-0.896
					c-0.068-0.029-0.114-0.078-0.141-0.147c-0.026-0.068-0.024-0.137,0.005-0.203c0.687-1.541,2.239-2.562,3.944-2.562
					c1.236,0,2.41,0.533,3.223,1.443c0.062,0.068,0.082,0.157,0.059,0.246c-0.024,0.09-0.087,0.155-0.176,0.184
					c-0.631,0.203-1.196,0.555-1.654,1.013c-0.748,0.749-1.212,1.784-1.212,2.927c0,0.366,0.297,0.662,0.661,0.662
					c0.367,0,0.662-0.296,0.662-0.662c0-0.777,0.315-1.482,0.826-1.991c1.795-1.796,4.805-0.422,4.805,1.991
					C24.414,14.216,23.143,15.486,21.599,15.486z"/>
			</g>
		</g>
	</g>
</g>
</svg>
