<?xml version="1.0" encoding="iso-8859-1"?>
<!-- Generator: Adobe Illustrator 14.0.0, SVG Export Plug-In . SVG Version: 6.00 Build 43363)  -->
<!DOCTYPE svg PUBLIC "-//W3C//DTD SVG 1.1//EN" "http://www.w3.org/Graphics/SVG/1.1/DTD/svg11.dtd">
<svg version="1.1" id="Layer_1" xmlns="http://www.w3.org/2000/svg" xmlns:xlink="http://www.w3.org/1999/xlink" x="0px" y="0px"
	 width="32px" height="32px" viewBox="0 0 32 32" style="enable-background:new 0 0 32 32;" xml:space="preserve">
<g>
	<g>
		<rect style="fill:none;" width="32" height="32"/>
	</g>
	<g>
		<g>
			<path style="fill:#E6E6E6;" d="M20.771,6.769c0.023-0.056,0.043-0.114,0.059-0.173c0.123-0.437,0.018-0.886-0.289-1.237
				c-1.113-1.247-2.711-1.962-4.382-1.962c-2.314,0-4.42,1.369-5.367,3.491c-0.132,0.304-0.147,0.63-0.043,0.951
				c-0.313-0.044-0.624-0.047-0.957-0.01c-1.834,0.224-3.217,1.787-3.217,3.637c0,2.021,1.644,3.665,3.664,3.665H21.07
				c2.308,0,4.186-1.878,4.186-4.186C25.256,8.259,22.871,6.648,20.771,6.769z"/>
			<path style="fill:#002B73;" d="M22.2,6.225c-0.092-0.017-0.167-0.071-0.212-0.155c-1.141-2.077-3.355-3.403-5.734-3.403
				c-2.764,0-5.254,1.778-6.168,4.362c-0.041,0.117-0.142,0.195-0.266,0.206c-2.206,0.158-3.954,2.012-3.954,4.248
				c0,2.345,1.917,4.263,4.261,4.263H21.33c2.633,0,4.803-2.168,4.803-4.802C26.133,8.638,24.452,6.638,22.2,6.225 M21.33,14.208
				H10.128c-1.505,0-2.725-1.222-2.725-2.726c0-1.39,1.05-2.541,2.395-2.704c0.863-0.107,1.753,0.217,2.348,0.873
				c0.286,0.314,0.77,0.336,1.083,0.049c0.313-0.284,0.336-0.768,0.053-1.082c-0.405-0.444-0.9-0.8-1.447-1.04
				c-0.077-0.034-0.132-0.088-0.164-0.169c-0.029-0.079-0.028-0.158,0.007-0.236c0.796-1.788,2.596-2.97,4.575-2.97
				c1.431,0,2.794,0.618,3.738,1.671c0.07,0.08,0.092,0.182,0.066,0.288c-0.027,0.103-0.1,0.179-0.202,0.21
				c-0.731,0.236-1.388,0.645-1.92,1.177c-0.868,0.871-1.406,2.067-1.406,3.395c0,0.425,0.343,0.767,0.769,0.767
				c0.423,0,0.767-0.342,0.767-0.767c0-0.901,0.366-1.72,0.958-2.308c2.082-2.084,5.572-0.489,5.572,2.308
				C24.596,12.735,23.123,14.208,21.33,14.208"/>
		</g>
		<g>
			<g>
				<path style="fill:#999999;" d="M22.422,17.879H9.579c-0.628,0-1.137-0.238-1.137-0.533s0.509-0.533,1.137-0.533h12.843
					c0.629,0,1.138,0.238,1.138,0.533S23.051,17.879,22.422,17.879L22.422,17.879z"/>
			</g>
			<g>
				<path style="fill:#999999;" d="M22.422,20.281H9.579c-0.628,0-1.137-0.238-1.137-0.533s0.509-0.533,1.137-0.533h12.843
					c0.629,0,1.138,0.238,1.138,0.533S23.051,20.281,22.422,20.281L22.422,20.281z"/>
			</g>
		</g>
	</g>
</g>
</svg>
