<?xml version="1.0" encoding="iso-8859-1"?>
<!-- Generator: Adobe Illustrator 14.0.0, SVG Export Plug-In . SVG Version: 6.00 Build 43363)  -->
<!DOCTYPE svg PUBLIC "-//W3C//DTD SVG 1.1//EN" "http://www.w3.org/Graphics/SVG/1.1/DTD/svg11.dtd">
<svg version="1.1" id="Layer_1" xmlns="http://www.w3.org/2000/svg" xmlns:xlink="http://www.w3.org/1999/xlink" x="0px" y="0px"
	 width="32px" height="32px" viewBox="0 0 32 32" style="enable-background:new 0 0 32 32;" xml:space="preserve">
<g>
	<g>
		<rect style="fill:none;" width="32" height="32"/>
	</g>
	<g>
		<path style="fill-rule:evenodd;clip-rule:evenodd;fill:#3FA9F5;" d="M7.733,20.484c0.356-0.186,0.468-0.642,0.246-0.977l0,0
			l-0.552-0.869c-0.019-0.029-0.06-0.027-0.076,0.002l-0.5,0.898l0,0c-0.205,0.348-0.069,0.799,0.299,0.961
			C7.336,20.583,7.548,20.579,7.733,20.484"/>
		<g>
			<path style="fill-rule:evenodd;clip-rule:evenodd;fill:#3FA9F5;" d="M10.865,18.523c0.426-0.229,0.555-0.779,0.283-1.182
				l-0.001-0.002l-0.678-1.036c-0.021-0.036-0.07-0.031-0.089,0.005l-0.592,1.084l0,0c-0.239,0.427-0.071,0.964,0.375,1.157
				C10.39,18.648,10.646,18.641,10.865,18.523"/>
			<path style="fill-rule:evenodd;clip-rule:evenodd;fill:#3FA9F5;" d="M16.807,18.523c0.426-0.229,0.553-0.779,0.282-1.182
				l-0.001-0.002l-0.676-1.036c-0.023-0.036-0.07-0.031-0.092,0.005l-0.592,1.084l0,0c-0.237,0.427-0.07,0.964,0.376,1.157
				C16.331,18.648,16.586,18.641,16.807,18.523"/>
			<path style="fill-rule:evenodd;clip-rule:evenodd;fill:#3FA9F5;" d="M22.686,18.523c0.428-0.229,0.555-0.779,0.283-1.182
				l-0.002-0.002l-0.677-1.036c-0.021-0.036-0.069-0.031-0.091,0.005l-0.592,1.084l0,0c-0.237,0.427-0.068,0.964,0.379,1.157
				C22.211,18.648,22.465,18.641,22.686,18.523"/>
		</g>
		<path style="fill-rule:evenodd;clip-rule:evenodd;fill:#3FA9F5;" d="M13.543,20.484c0.357-0.186,0.467-0.642,0.245-0.977l0,0
			l-0.552-0.869c-0.018-0.029-0.061-0.027-0.077,0.002l-0.5,0.898l0,0c-0.204,0.348-0.066,0.799,0.3,0.961
			C13.146,20.583,13.359,20.579,13.543,20.484"/>
		<path style="fill-rule:evenodd;clip-rule:evenodd;fill:#3FA9F5;" d="M19.453,20.484c0.357-0.186,0.467-0.642,0.246-0.977l0,0
			l-0.553-0.869c-0.02-0.029-0.059-0.027-0.078,0.002l-0.499,0.898l0,0c-0.205,0.348-0.067,0.799,0.301,0.961
			C19.057,20.583,19.268,20.579,19.453,20.484"/>
	</g>
	<g>
		<path style="fill:#E6E6E6;" d="M20.991,6.641c0.024-0.056,0.044-0.114,0.061-0.173c0.122-0.437,0.018-0.887-0.288-1.237
			c-1.115-1.247-2.713-1.962-4.383-1.962c-2.315,0-4.421,1.37-5.368,3.491c-0.132,0.304-0.147,0.63-0.044,0.951
			c-0.313-0.045-0.624-0.047-0.956-0.01C8.18,7.923,6.796,9.487,6.796,11.337c0,2.021,1.643,3.665,3.664,3.665h10.83
			c2.309,0,4.187-1.877,4.187-4.186C25.477,8.131,23.092,6.521,20.991,6.641z"/>
		<path style="fill:#002B73;" d="M22.2,6.225c-0.092-0.017-0.167-0.071-0.212-0.155c-1.141-2.077-3.355-3.403-5.735-3.403
			c-2.763,0-5.253,1.778-6.167,4.362c-0.041,0.117-0.141,0.195-0.265,0.206c-2.207,0.158-3.954,2.012-3.954,4.248
			c0,2.345,1.917,4.263,4.261,4.263H21.33c2.633,0,4.803-2.168,4.803-4.802C26.133,8.638,24.452,6.638,22.2,6.225 M21.33,14.208
			H10.127c-1.504,0-2.724-1.222-2.724-2.726c0-1.39,1.05-2.541,2.395-2.704c0.862-0.107,1.753,0.217,2.348,0.873
			c0.286,0.314,0.77,0.336,1.083,0.049c0.313-0.284,0.336-0.768,0.053-1.082c-0.405-0.444-0.9-0.8-1.446-1.04
			c-0.077-0.034-0.132-0.088-0.164-0.169c-0.029-0.079-0.028-0.158,0.008-0.236c0.795-1.788,2.596-2.97,4.574-2.97
			c1.432,0,2.795,0.618,3.739,1.671c0.07,0.08,0.092,0.182,0.065,0.288c-0.026,0.103-0.1,0.179-0.201,0.21
			c-0.731,0.236-1.388,0.645-1.92,1.177c-0.869,0.871-1.406,2.067-1.406,3.395c0,0.425,0.343,0.767,0.769,0.767
			c0.422,0,0.766-0.342,0.766-0.767c0-0.901,0.367-1.72,0.959-2.308c2.082-2.084,5.572-0.489,5.572,2.308
			C24.596,12.735,23.123,14.208,21.33,14.208"/>
	</g>
</g>
</svg>
