<?xml version="1.0" encoding="iso-8859-1"?>
<!-- Generator: Adobe Illustrator 14.0.0, SVG Export Plug-In . SVG Version: 6.00 Build 43363)  -->
<!DOCTYPE svg PUBLIC "-//W3C//DTD SVG 1.1//EN" "http://www.w3.org/Graphics/SVG/1.1/DTD/svg11.dtd">
<svg version="1.1" id="Layer_1" xmlns="http://www.w3.org/2000/svg" xmlns:xlink="http://www.w3.org/1999/xlink" x="0px" y="0px"
	 width="32px" height="32px" viewBox="0 0 32 32" style="enable-background:new 0 0 32 32;" xml:space="preserve">
<g>
	<g>
		<rect style="fill:none;" width="32" height="32"/>
	</g>
	<g>
		<g>
			<path style="fill:#E6E6E6;" d="M20.763,6.662c0.024-0.055,0.044-0.114,0.06-0.173c0.123-0.437,0.019-0.887-0.289-1.238
				C19.42,4.004,17.822,3.29,16.151,3.29c-2.313,0-4.419,1.369-5.367,3.491c-0.132,0.304-0.148,0.63-0.043,0.951
				c-0.313-0.045-0.624-0.048-0.957-0.011c-1.833,0.223-3.216,1.787-3.216,3.637c0,2.021,1.643,3.666,3.664,3.666h10.83
				c2.308,0,4.187-1.878,4.187-4.187C25.248,8.151,22.862,6.541,20.763,6.662z"/>
			<path style="fill:#002B73;" d="M22.2,6.224c-0.092-0.017-0.167-0.071-0.212-0.155c-1.141-2.076-3.355-3.402-5.734-3.402
				c-2.764,0-5.254,1.777-6.168,4.362c-0.041,0.118-0.142,0.195-0.266,0.206c-2.206,0.158-3.954,2.013-3.954,4.248
				c0,2.345,1.917,4.263,4.261,4.263H21.33c2.633,0,4.803-2.168,4.803-4.802C26.133,8.638,24.452,6.638,22.2,6.224 M21.33,14.208
				H10.128c-1.505,0-2.725-1.221-2.725-2.725c0-1.391,1.05-2.541,2.395-2.704c0.863-0.107,1.753,0.217,2.348,0.873
				c0.286,0.313,0.77,0.336,1.083,0.049c0.313-0.284,0.336-0.768,0.053-1.082c-0.405-0.444-0.9-0.8-1.447-1.041
				c-0.077-0.034-0.132-0.088-0.164-0.169c-0.029-0.078-0.028-0.158,0.007-0.235c0.796-1.789,2.596-2.971,4.575-2.971
				c1.431,0,2.794,0.619,3.738,1.672c0.07,0.079,0.092,0.182,0.066,0.288c-0.027,0.102-0.1,0.179-0.202,0.209
				c-0.731,0.236-1.388,0.646-1.92,1.177c-0.868,0.871-1.406,2.068-1.406,3.395c0,0.425,0.343,0.767,0.769,0.767
				c0.423,0,0.767-0.342,0.767-0.767c0-0.901,0.366-1.721,0.958-2.309c2.082-2.084,5.572-0.489,5.572,2.309
				C24.596,12.734,23.123,14.208,21.33,14.208"/>
		</g>
		<path style="fill:#3FA9F5;" d="M18.432,18.383h-0.635l-0.053-0.129l0.146-0.145c0.03-0.03,0.047-0.072,0.047-0.113
			c0-0.044-0.017-0.084-0.047-0.111c-0.06-0.062-0.165-0.061-0.226-0.002L17.2,18.354l-0.06,0.029h-0.727l-0.068-0.117l0.348-0.61
			l0.051-0.044l0.661-0.178c0.04-0.011,0.075-0.037,0.097-0.073c0.021-0.038,0.027-0.08,0.016-0.122
			c-0.019-0.07-0.077-0.115-0.195-0.113l-0.197,0.055l-0.086-0.111l0.318-0.548c0.021-0.038,0.027-0.082,0.017-0.122
			c-0.009-0.04-0.038-0.076-0.075-0.098c-0.076-0.042-0.174-0.014-0.218,0.061l-0.318,0.548l-0.138-0.017l-0.053-0.201
			c-0.019-0.072-0.071-0.13-0.196-0.112c-0.085,0.025-0.135,0.11-0.112,0.196l0.174,0.635l-0.005,0.069l-0.364,0.629h-0.136
			l-0.357-0.608l-0.013-0.067l0.175-0.659c0.011-0.04,0.004-0.08-0.017-0.117c-0.024-0.042-0.067-0.069-0.136-0.083
			c-0.073,0-0.137,0.049-0.155,0.118l-0.053,0.198l-0.137,0.02L14.92,16.36c-0.044-0.076-0.147-0.102-0.218-0.059
			c-0.037,0.021-0.063,0.055-0.074,0.097c-0.011,0.041-0.006,0.084,0.016,0.122l0.318,0.548l-0.083,0.111l-0.239-0.061
			c-0.073,0-0.138,0.051-0.155,0.119c-0.01,0.042-0.005,0.084,0.016,0.121s0.056,0.063,0.097,0.074l0.639,0.166l0.057,0.038
			l0.364,0.628l-0.068,0.117l-0.703,0.005l-0.064-0.022l-0.481-0.482c-0.062-0.059-0.167-0.059-0.227,0
			c-0.029,0.029-0.047,0.07-0.047,0.113c0,0.041,0.017,0.083,0.047,0.114l0.146,0.144l-0.053,0.129H13.57
			c-0.088,0-0.161,0.072-0.161,0.16s0.072,0.16,0.161,0.16h0.634l0.053,0.127l-0.146,0.146c-0.03,0.029-0.047,0.071-0.047,0.113
			c0,0.043,0.017,0.082,0.047,0.112c0.061,0.061,0.165,0.061,0.226,0l0.464-0.47l0.06-0.029h0.726l0.069,0.117l-0.35,0.611
			l-0.05,0.045l-0.661,0.176c-0.041,0.01-0.076,0.037-0.097,0.074c-0.021,0.038-0.026,0.078-0.016,0.123
			c0.02,0.068,0.094,0.118,0.195,0.111l0.2-0.053l0.083,0.108l-0.318,0.552c-0.021,0.035-0.027,0.08-0.016,0.121
			c0.011,0.041,0.037,0.074,0.074,0.098c0.071,0.04,0.176,0.014,0.218-0.061l0.319-0.549l0.137,0.018l0.053,0.201
			c0.019,0.071,0.071,0.132,0.195,0.111c0.085-0.022,0.135-0.109,0.113-0.193l-0.174-0.639l0.005-0.067l0.363-0.63h0.137
			l0.356,0.609l0.015,0.065l-0.176,0.658c-0.012,0.04-0.005,0.083,0.016,0.118c0.018,0.029,0.053,0.067,0.138,0.084
			c0.072,0,0.136-0.049,0.154-0.119l0.053-0.199l0.138-0.018l0.319,0.549c0.028,0.049,0.082,0.08,0.138,0.08
			c0.029,0,0.058-0.007,0.079-0.02c0.037-0.023,0.066-0.057,0.075-0.098c0.011-0.041,0.005-0.086-0.016-0.121l-0.319-0.552
			l0.086-0.11l0.24,0.06c0.071,0,0.134-0.05,0.152-0.118c0.012-0.043,0.006-0.083-0.016-0.121c-0.021-0.037-0.057-0.064-0.098-0.076
			l-0.638-0.165l-0.056-0.038l-0.365-0.627l0.068-0.117l0.704-0.006l0.064,0.023l0.482,0.481c0.061,0.061,0.166,0.061,0.226,0
			c0.029-0.03,0.047-0.069,0.047-0.112c0-0.042-0.017-0.084-0.047-0.113l-0.146-0.146l0.053-0.127h0.635
			c0.09,0,0.16-0.072,0.16-0.16S18.521,18.383,18.432,18.383z"/>
	</g>
</g>
</svg>
