<?xml version="1.0" encoding="iso-8859-1"?>
<!-- Generator: Adobe Illustrator 14.0.0, SVG Export Plug-In . SVG Version: 6.00 Build 43363)  -->
<!DOCTYPE svg PUBLIC "-//W3C//DTD SVG 1.1//EN" "http://www.w3.org/Graphics/SVG/1.1/DTD/svg11.dtd">
<svg version="1.1" id="Layer_1" xmlns="http://www.w3.org/2000/svg" xmlns:xlink="http://www.w3.org/1999/xlink" x="0px" y="0px"
	 width="32px" height="32px" viewBox="0 0 32 32" style="enable-background:new 0 0 32 32;" xml:space="preserve">
<g>
	<g>
		<rect style="fill:none;" width="32" height="32"/>
	</g>
	<g>
		<g>
			<path style="fill:#E6E6E6;" d="M20.848,6.706c0.024-0.056,0.044-0.114,0.061-0.174c0.122-0.437,0.018-0.886-0.289-1.236
				c-1.113-1.247-2.712-1.962-4.382-1.962c-2.314,0-4.42,1.37-5.368,3.49c-0.132,0.304-0.148,0.63-0.043,0.951
				c-0.313-0.045-0.624-0.047-0.956-0.01c-1.834,0.224-3.217,1.788-3.217,3.637c0,2.021,1.644,3.665,3.664,3.665h10.83
				c2.309,0,4.188-1.877,4.188-4.186C25.334,8.196,22.947,6.585,20.848,6.706z"/>
			<path style="fill:#002B73;" d="M22.199,6.225c-0.092-0.018-0.166-0.072-0.211-0.155c-1.141-2.077-3.355-3.403-5.735-3.403
				c-2.762,0-5.253,1.778-6.167,4.363c-0.041,0.117-0.141,0.195-0.265,0.206c-2.207,0.157-3.954,2.012-3.954,4.247
				c0,2.345,1.917,4.263,4.26,4.263H21.33c2.633,0,4.803-2.168,4.803-4.802C26.133,8.638,24.451,6.638,22.199,6.225 M21.33,14.208
				H10.127c-1.504,0-2.724-1.222-2.724-2.726c0-1.39,1.05-2.541,2.395-2.703c0.861-0.107,1.753,0.216,2.348,0.873
				c0.286,0.314,0.77,0.335,1.083,0.049c0.313-0.285,0.335-0.768,0.052-1.083c-0.404-0.444-0.9-0.8-1.446-1.04
				c-0.077-0.034-0.132-0.088-0.165-0.168c-0.029-0.08-0.028-0.159,0.008-0.237c0.795-1.788,2.596-2.97,4.574-2.97
				c1.433,0,2.795,0.618,3.739,1.671c0.069,0.08,0.092,0.182,0.064,0.288c-0.026,0.103-0.1,0.179-0.2,0.21
				c-0.732,0.235-1.388,0.645-1.92,1.177c-0.87,0.87-1.406,2.067-1.406,3.394c0,0.425,0.343,0.768,0.769,0.768
				c0.422,0,0.766-0.343,0.766-0.768c0-0.901,0.367-1.72,0.959-2.308c2.082-2.084,5.571-0.489,5.571,2.308
				C24.595,12.735,23.122,14.208,21.33,14.208"/>
		</g>
		<g>
			<circle style="fill:#E6E6E6;" cx="13.44" cy="18.385" r="1.707"/>
			<path style="fill:#808080;" d="M13.439,20.492c-1.161,0-2.106-0.945-2.106-2.107c0-1.16,0.945-2.104,2.106-2.104
				c1.163,0,2.107,0.944,2.107,2.104C15.547,19.547,14.602,20.492,13.439,20.492L13.439,20.492z M13.439,17.08
				c-0.72,0-1.306,0.586-1.306,1.305c0,0.722,0.586,1.309,1.306,1.309c0.721,0,1.308-0.587,1.308-1.309
				C14.747,17.666,14.161,17.08,13.439,17.08L13.439,17.08z"/>
			<circle style="fill:#E6E6E6;" cx="18.56" cy="19.006" r="1.706"/>
			<path style="fill:#808080;" d="M18.561,21.113c-1.162,0-2.106-0.945-2.106-2.107c0-1.16,0.944-2.105,2.106-2.105
				c1.161,0,2.105,0.945,2.105,2.105C20.666,20.168,19.722,21.113,18.561,21.113L18.561,21.113z M18.561,17.701
				c-0.72,0-1.307,0.586-1.307,1.305c0,0.721,0.587,1.308,1.307,1.308c0.721,0,1.307-0.587,1.307-1.308
				C19.867,18.287,19.281,17.701,18.561,17.701L18.561,17.701z"/>
			<circle style="fill:#E6E6E6;" cx="15.56" cy="22.4" r="1.067"/>
			<path style="fill:#808080;" d="M15.561,23.867c-0.809,0-1.467-0.658-1.467-1.467s0.658-1.466,1.467-1.466
				c0.809,0,1.467,0.657,1.467,1.466S16.37,23.867,15.561,23.867L15.561,23.867z M15.561,21.734c-0.368,0-0.667,0.299-0.667,0.666
				s0.299,0.666,0.667,0.666s0.667-0.299,0.667-0.666S15.928,21.734,15.561,21.734L15.561,21.734z"/>
		</g>
	</g>
</g>
</svg>
